<svg xmlns="http://www.w3.org/2000/svg" viewBox="0 0 2546.67 2421.88"><defs><style>.cls-1{fill:#f5f6f6;opacity:0.71;}.cls-1,.cls-3{isolation:isolate;}.cls-2{fill:#0077b6;opacity:0.5;}.cls-4{fill:#e6a224;}.cls-5{fill:#f7e7a5;}.cls-6{fill:#edb82a;}.cls-15,.cls-7{opacity:0.1;}.cls-8{fill:#7f4a1e;}.cls-9{fill:#502c11;}.cls-10{fill:#9f6932;}.cls-11{fill:#81481e;}.cls-12{fill:#4f2e12;}.cls-13{fill:#a0672b;}.cls-14{fill:#f6a21e;}.cls-16{fill:#f8c12c;}.cls-17{fill:#d39520;}.cls-18{fill:#734b1e;}.cls-19{fill:#5a3b18;}.cls-20{fill:#66431a;}.cls-21{fill:#2f3116;}.cls-22{fill:#253b7e;}.cls-23{fill:#934e26;}.cls-24{fill:#608cc8;}.cls-25{fill:#5480c1;}</style></defs><g id="Layer_2" data-name="Layer 2"><g id="Floor"><ellipse class="cls-1" cx="1212.88" cy="1659.57" rx="885.26" ry="511.1"/></g></g><g id="Objects"><path class="cls-2" d="M2000.06,2131.72l-786.85,413.75,150.28-876.2L726.67,1048.63l879.78-127.85L2000.06,123.6l393.49,797.18,879.78,127.85-636.7,620.64,150.42,876.2Z" transform="translate(-726.67 -123.6)"/><g class="cls-3"><polygon class="cls-4" points="1031.27 783.38 1061.67 765.71 1061.75 738.29 1031.35 755.95 1031.27 783.38"/><path class="cls-4" d="M1758,879.55l30.39-17.66c-50.91-29.4-92.93-72.84-124.88-129.13-63-111-71.33-242.77-72.33-284.63l-30.39,17.67c1,41.86,9.32,173.64,72.32,284.63C1665.08,806.71,1707.1,850.15,1758,879.55Z" transform="translate(-726.67 -123.6)"/><polygon class="cls-4" points="1032.2 456.55 1062.6 438.88 1062.67 411.46 1032.28 429.13 1032.2 456.55"/><polygon class="cls-5" points="1032.28 429.13 1062.67 411.46 840.91 283.43 810.52 301.1 1032.28 429.13"/><path class="cls-6" d="M1537.19,424.7l-.34,13.19c0,1.78-1,44.4,8.09,105.16a721.51,721.51,0,0,0,23,103.19c12.58,41.34,28.74,79.51,48,113.46,36.6,64.48,84.36,114,142,147.28l.08-27.43c-50.92-29.4-92.94-72.84-124.89-129.12-63-111-71.32-242.77-72.32-284.63l198.06,114.35.07-27.42Z" transform="translate(-726.67 -123.6)"/></g><g class="cls-3"><g class="cls-7"><polygon points="1756.2 1759.66 1389.79 1972.6 823.39 1645.91 1189.8 1432.97 1756.2 1759.66"/></g><polygon class="cls-8" points="1681.74 1700.19 1681.56 1761.21 1353.6 1951.8 1353.78 1890.78 1681.74 1700.19"/><polygon class="cls-9" points="1353.78 1890.78 1353.6 1951.8 790.47 1626.68 790.64 1565.66 1353.78 1890.78"/><polygon class="cls-10" points="1681.74 1700.19 1353.78 1890.78 790.64 1565.66 1118.6 1375.07 1681.74 1700.19"/></g><g class="cls-3"><polygon class="cls-11" points="1586.08 1402.02 1585.47 1694.29 1341.24 1836.22 1341.85 1543.95 1586.08 1402.02"/><polygon class="cls-12" points="1341.85 1543.95 1341.24 1836.22 898.2 1580.44 898.82 1288.16 1341.85 1543.95"/><polygon class="cls-13" points="1586.08 1402.02 1341.85 1543.95 898.82 1288.16 1143.05 1146.23 1586.08 1402.02"/></g><polygon class="cls-14" points="1242.45 1560.21 982.3 1410.01 981.87 1564.18 1242.01 1714.38 1242.45 1560.21 1242.45 1560.21"/><g class="cls-3"><path class="cls-15" d="M2109.41,1412.69c90.3,52.14,120.07,119.64,66.49,150.78s-170.22,14.11-260.52-38-120.06-119.64-66.48-150.77S2019.11,1360.56,2109.41,1412.69Z" transform="translate(-726.67 -123.6)"/><path class="cls-4" d="M2165.66,1457.18l-.15,53.93c-.05,16.71-8.64,31.28-26.65,41.74-53.58,31.14-170.21,14.12-260.51-38-59.95-34.61-93.22-76-93.13-109l.15-53.93c-.09,33,33.18,74.41,93.13,109,90.3,52.14,206.94,69.16,260.52,38C2157,1488.46,2165.61,1473.89,2165.66,1457.18Z" transform="translate(-726.67 -123.6)"/><path class="cls-16" d="M2072.52,1348.15c90.3,52.13,120.07,119.64,66.5,150.77s-170.22,14.12-260.52-38-120.06-119.63-66.48-150.77S1982.23,1296,2072.52,1348.15Z" transform="translate(-726.67 -123.6)"/></g><path class="cls-4" d="M2027,1404.53c-3.76,3.58-22.79,21-52.31,20.64-28.51-.3-46.78-16.89-50.72-20.64V996.59h103Z" transform="translate(-726.67 -123.6)"/><path class="cls-16" d="M1674.53,570.5s-21.21,627.7,301,627.7V622.5Z" transform="translate(-726.67 -123.6)"/><path class="cls-16" d="M2276.5,570.5s21.21,627.7-301,627.7V622.5Z" transform="translate(-726.67 -123.6)"/><path class="cls-5" d="M2187.85,439.1c-118-68.15-308.79-68.15-426.06,0s-116.64,178.64,1.39,246.79,308.79,68.14,426.06,0,116.65-178.63-1.39-246.78Z" transform="translate(-726.67 -123.6)"/><path class="cls-4" d="M2202.18,630.48c-11.07,11.08-24.75,21.49-41,31-101.84,59.19-267.51,59.19-370,0-16.84-9.72-30.93-20.43-42.26-31.81-57.68-57.91-44.07-133.07,41.06-182.53,101.84-59.18,267.52-59.18,370,0C2246,496.83,2260.2,572.49,2202.18,630.48Z" transform="translate(-726.67 -123.6)"/><path class="cls-17" d="M2202.18,630.48c-11.07,11.08-24.75,21.49-41,31-101.84,59.19-267.51,59.19-370,0-16.84-9.72-30.93-20.43-42.26-31.8a198.43,198.43,0,0,1,41.06-31c101.84-59.19,267.52-59.19,370,0C2176.76,608.39,2190.85,619.1,2202.18,630.48Z" transform="translate(-726.67 -123.6)"/><g class="cls-3"><path class="cls-4" d="M2276.09,1102a80.31,80.31,0,0,1-11,3,88.27,88.27,0,0,1-8.88,1.27c-2.63.23-5.31.36-8,.37-2.47,0-5-.08-7.51-.26-2.37-.17-4.77-.41-7.21-.74s-4.7-.71-7.09-1.18-4.69-1-7.08-1.57-4.74-1.25-7.16-2-4.84-1.53-7.3-2.39-5-1.82-7.53-2.84-5.19-2.14-7.83-3.33-5.46-2.51-8.23-3.88-5.79-2.93-8.74-4.52q-3.54-1.92-7.14-4l-30.4,17.66q3.6,2.09,7.15,4,4.41,2.38,8.73,4.53,4.16,2.06,8.23,3.88t7.84,3.32q3.79,1.53,7.53,2.84c2.46.87,4.89,1.66,7.3,2.39s4.79,1.39,7.15,2,4.75,1.12,7.08,1.58,4.76.86,7.1,1.17,4.84.58,7.21.75c2.53.17,5,.26,7.5.25q4.08,0,8-.37a82.88,82.88,0,0,0,8.88-1.27,78.86,78.86,0,0,0,25.48-9.78l30.4-17.66A78.41,78.41,0,0,1,2276.09,1102Z" transform="translate(-726.67 -123.6)"/><path class="cls-4" d="M2388.35,894.62,2358,912.28c0,.33,0,2,0,4.87,0,3.72-.11,9.4-.41,16.58-.26,6.19-.68,13.48-1.34,21.6-.58,7.15-1.36,14.93-2.38,23.15-.93,7.38-2,15.1-3.42,23-.36,2.08-.74,4.16-1.13,6.27q-1.52,8.09-3.28,15.8-2.46,10.8-5.38,20.8-3,10.36-6.53,19.83-3.77,10.15-8.06,19.22l-.3.64a186.42,186.42,0,0,1-10.44,19c-10.85,17.11-23.59,30.11-38,38.77l30.39-17.66c14.46-8.67,27.21-21.67,38-38.78a180.58,180.58,0,0,0,10.44-19c.11-.21.21-.42.31-.63q4.29-9.06,8.06-19.22,3.51-9.46,6.53-19.83,2.92-10,5.38-20.81,1.76-7.7,3.27-15.8c.4-2.1.77-4.19,1.13-6.26,1.38-7.93,2.5-15.66,3.42-23,1-8.22,1.8-16,2.39-23.15.66-8.12,1.08-15.42,1.34-21.6.3-7.19.39-12.87.4-16.58C2388.39,896.64,2388.36,895,2388.35,894.62Z" transform="translate(-726.67 -123.6)"/><polygon class="cls-4" points="1661.69 771.02 1631.29 788.68 1631.03 775.15 1661.42 757.48 1661.69 771.02"/><polygon class="cls-5" points="1661.42 757.48 1631.03 775.15 1409.27 647.12 1439.66 629.45 1661.42 757.48"/><path class="cls-6" d="M2349.29,1007.78c-5.53,29.53-13.45,55.2-23.55,76.29-12.77,26.69-29.08,46.12-48.48,57.74-36.85,22.07-84.74,16.4-142.32-16.85l.07-27.43c50.92,29.4,93,34.54,125.21,15.27,63.43-38,72.47-159.75,73.7-200.31L2135.86,798.14l.08-27.43,221.75,128,.27,13.53A521.71,521.71,0,0,1,2349.29,1007.78Z" transform="translate(-726.67 -123.6)"/></g><polygon class="cls-18" points="1188.94 1109.63 969.2 1808.34 979.57 1809.53 1199.35 1110.6 1188.94 1109.63"/><path class="cls-19" d="M1924.55,1231.45a8.22,8.22,0,0,0-7.45,0c-2,1.19-2,3.13,0,4.32a8.24,8.24,0,0,0,7.46,0c2.05-1.19,2-3.13,0-4.32Z" transform="translate(-726.67 -123.6)"/><path class="cls-18" d="M1704.77,1930.4a8.24,8.24,0,0,0-7.46,0c-2,1.19-2,3.13,0,4.32a8.22,8.22,0,0,0,7.45,0c2-1.19,2-3.12,0-4.32Z" transform="translate(-726.67 -123.6)"/><g class="cls-3"><path class="cls-20" d="M1906.57,1278.47c0,2.47,1.67,3.51,3.8,2.32a8.48,8.48,0,0,0,3.92-6.62c0-2.47-1.68-3.51-3.81-2.32A8.47,8.47,0,0,0,1906.57,1278.47Z" transform="translate(-726.67 -123.6)"/><path class="cls-20" d="M1972.52,1319.36a2.7,2.7,0,0,0,2.68-.24,8.46,8.46,0,0,0,3.91-6.61A2.76,2.76,0,0,0,1978,1310l-64.83-38.33a2.75,2.75,0,0,1,1.13,2.55,8.48,8.48,0,0,1-3.92,6.62,2.68,2.68,0,0,1-2.67.23C1950.81,1306.08,1929.41,1294.3,1972.52,1319.36Z" transform="translate(-726.67 -123.6)"/><path class="cls-20" d="M1907.7,1281l64.82,38.34a2.74,2.74,0,0,1-1.12-2.56l-64.83-38.33A2.75,2.75,0,0,0,1907.7,1281Z" transform="translate(-726.67 -123.6)"/><path class="cls-20" d="M1978,1310l-64.83-38.33a2.69,2.69,0,0,0-2.68.23,8.47,8.47,0,0,0-3.91,6.62l64.83,38.33a8.47,8.47,0,0,1,3.91-6.62A2.72,2.72,0,0,1,1978,1310Z" transform="translate(-726.67 -123.6)"/><path class="cls-20" d="M1971.4,1316.8c0,2.47,1.67,3.51,3.8,2.32a8.46,8.46,0,0,0,3.91-6.61c0-2.47-1.67-3.51-3.8-2.33A8.47,8.47,0,0,0,1971.4,1316.8Z" transform="translate(-726.67 -123.6)"/></g><g class="cls-3"><path class="cls-20" d="M1888.58,1331.73c0,2.46,1.67,3.5,3.8,2.32a8.47,8.47,0,0,0,3.91-6.62c0-2.47-1.67-3.51-3.8-2.32A8.46,8.46,0,0,0,1888.58,1331.73Z" transform="translate(-726.67 -123.6)"/><path class="cls-20" d="M1954.53,1372.61a2.68,2.68,0,0,0,2.67-.23,8.47,8.47,0,0,0,3.91-6.62,2.72,2.72,0,0,0-1.12-2.55l-64.83-38.33a2.72,2.72,0,0,1,1.13,2.55,8.47,8.47,0,0,1-3.91,6.62,2.72,2.72,0,0,1-2.68.23C1932.82,1359.33,1911.41,1347.56,1954.53,1372.61Z" transform="translate(-726.67 -123.6)"/><path class="cls-20" d="M1889.7,1334.28l64.83,38.33a2.75,2.75,0,0,1-1.13-2.55l-64.82-38.33A2.72,2.72,0,0,0,1889.7,1334.28Z" transform="translate(-726.67 -123.6)"/><path class="cls-20" d="M1960,1363.21l-64.83-38.33a2.65,2.65,0,0,0-2.67.23,8.46,8.46,0,0,0-3.91,6.62l64.82,38.33a8.47,8.47,0,0,1,3.91-6.62A2.69,2.69,0,0,1,1960,1363.21Z" transform="translate(-726.67 -123.6)"/><path class="cls-20" d="M1953.4,1370.06c0,2.47,1.67,3.51,3.8,2.32a8.47,8.47,0,0,0,3.91-6.62c0-2.47-1.67-3.51-3.8-2.32A8.47,8.47,0,0,0,1953.4,1370.06Z" transform="translate(-726.67 -123.6)"/></g><g class="cls-3"><path class="cls-20" d="M1870.58,1385c0,2.47,1.67,3.51,3.8,2.32a8.47,8.47,0,0,0,3.91-6.62c0-2.47-1.67-3.51-3.8-2.32A8.47,8.47,0,0,0,1870.58,1385Z" transform="translate(-726.67 -123.6)"/><path class="cls-20" d="M1936.53,1425.87a2.7,2.7,0,0,0,2.68-.24,8.46,8.46,0,0,0,3.91-6.61,2.77,2.77,0,0,0-1.13-2.56l-64.82-38.33a2.72,2.72,0,0,1,1.12,2.55,8.47,8.47,0,0,1-3.91,6.62,2.68,2.68,0,0,1-2.67.23C1914.82,1412.59,1893.42,1400.81,1936.53,1425.87Z" transform="translate(-726.67 -123.6)"/><path class="cls-20" d="M1871.71,1387.53l64.82,38.34a2.74,2.74,0,0,1-1.12-2.56L1870.58,1385A2.75,2.75,0,0,0,1871.71,1387.53Z" transform="translate(-726.67 -123.6)"/><path class="cls-20" d="M1942,1416.46l-64.82-38.33a2.69,2.69,0,0,0-2.68.23,8.47,8.47,0,0,0-3.91,6.62l64.83,38.33a8.46,8.46,0,0,1,3.91-6.61A2.68,2.68,0,0,1,1942,1416.46Z" transform="translate(-726.67 -123.6)"/><path class="cls-20" d="M1935.41,1423.31c0,2.47,1.67,3.51,3.8,2.32a8.46,8.46,0,0,0,3.91-6.61c0-2.47-1.67-3.51-3.8-2.32A8.46,8.46,0,0,0,1935.41,1423.31Z" transform="translate(-726.67 -123.6)"/></g><g class="cls-3"><path class="cls-20" d="M1853.43,1438.37c0,2.46,1.68,3.5,3.81,2.32a8.5,8.5,0,0,0,3.91-6.62c0-2.47-1.68-3.51-3.81-2.32A8.46,8.46,0,0,0,1853.43,1438.37Z" transform="translate(-726.67 -123.6)"/><path class="cls-20" d="M1919.38,1479.25a2.69,2.69,0,0,0,2.68-.23,8.47,8.47,0,0,0,3.91-6.62,2.74,2.74,0,0,0-1.12-2.55L1860,1431.52a2.74,2.74,0,0,1,1.13,2.55,8.5,8.5,0,0,1-3.91,6.62,2.69,2.69,0,0,1-2.68.23C1897.67,1466,1876.27,1454.2,1919.38,1479.25Z" transform="translate(-726.67 -123.6)"/><path class="cls-20" d="M1854.56,1440.92l64.82,38.33a2.72,2.72,0,0,1-1.12-2.55l-64.83-38.33A2.75,2.75,0,0,0,1854.56,1440.92Z" transform="translate(-726.67 -123.6)"/><path class="cls-20" d="M1924.85,1469.85,1860,1431.52a2.67,2.67,0,0,0-2.68.23,8.46,8.46,0,0,0-3.91,6.62l64.83,38.33a8.47,8.47,0,0,1,3.91-6.62A2.69,2.69,0,0,1,1924.85,1469.85Z" transform="translate(-726.67 -123.6)"/><path class="cls-20" d="M1918.26,1476.7c0,2.47,1.67,3.51,3.8,2.32a8.47,8.47,0,0,0,3.91-6.62c0-2.47-1.67-3.51-3.8-2.32A8.47,8.47,0,0,0,1918.26,1476.7Z" transform="translate(-726.67 -123.6)"/></g><g class="cls-3"><path class="cls-20" d="M1838.37,1493.24c0,2.47,1.68,3.51,3.81,2.32a8.47,8.47,0,0,0,3.91-6.62c0-2.47-1.67-3.5-3.8-2.32A8.48,8.48,0,0,0,1838.37,1493.24Z" transform="translate(-726.67 -123.6)"/><path class="cls-20" d="M1904.32,1534.13a2.72,2.72,0,0,0,2.68-.23,8.47,8.47,0,0,0,3.91-6.62,2.76,2.76,0,0,0-1.12-2.56L1845,1486.39a2.75,2.75,0,0,1,1.13,2.55,8.47,8.47,0,0,1-3.91,6.62,2.67,2.67,0,0,1-2.68.23C1882.61,1520.85,1861.21,1509.07,1904.32,1534.13Z" transform="translate(-726.67 -123.6)"/><path class="cls-20" d="M1839.5,1495.79l64.82,38.34a2.76,2.76,0,0,1-1.12-2.56l-64.83-38.33A2.74,2.74,0,0,0,1839.5,1495.79Z" transform="translate(-726.67 -123.6)"/><path class="cls-20" d="M1909.79,1524.72,1845,1486.39a2.68,2.68,0,0,0-2.67.23,8.48,8.48,0,0,0-3.92,6.62l64.83,38.33a8.46,8.46,0,0,1,3.91-6.61A2.7,2.7,0,0,1,1909.79,1524.72Z" transform="translate(-726.67 -123.6)"/><path class="cls-20" d="M1903.2,1531.57c0,2.47,1.67,3.51,3.8,2.33a8.47,8.47,0,0,0,3.91-6.62c0-2.47-1.67-3.51-3.8-2.32A8.46,8.46,0,0,0,1903.2,1531.57Z" transform="translate(-726.67 -123.6)"/></g><g class="cls-3"><path class="cls-20" d="M1820.73,1546.9c0,2.47,1.67,3.51,3.8,2.32a8.46,8.46,0,0,0,3.91-6.62c0-2.47-1.67-3.5-3.8-2.32A8.47,8.47,0,0,0,1820.73,1546.9Z" transform="translate(-726.67 -123.6)"/><path class="cls-20" d="M1886.68,1587.79a2.7,2.7,0,0,0,2.67-.23,8.47,8.47,0,0,0,3.91-6.62,2.71,2.71,0,0,0-1.12-2.55l-64.82-38.34a2.74,2.74,0,0,1,1.12,2.55,8.46,8.46,0,0,1-3.91,6.62,2.67,2.67,0,0,1-2.68.23C1865,1574.51,1843.56,1562.73,1886.68,1587.79Z" transform="translate(-726.67 -123.6)"/><path class="cls-20" d="M1821.85,1549.45l64.83,38.34a2.77,2.77,0,0,1-1.13-2.56l-64.82-38.33A2.71,2.71,0,0,0,1821.85,1549.45Z" transform="translate(-726.67 -123.6)"/><path class="cls-20" d="M1892.14,1578.39l-64.82-38.34a2.69,2.69,0,0,0-2.68.23,8.47,8.47,0,0,0-3.91,6.62l64.82,38.33a8.46,8.46,0,0,1,3.91-6.61A2.67,2.67,0,0,1,1892.14,1578.39Z" transform="translate(-726.67 -123.6)"/><path class="cls-20" d="M1885.55,1585.23c0,2.47,1.67,3.51,3.8,2.33a8.47,8.47,0,0,0,3.91-6.62c0-2.47-1.67-3.51-3.8-2.32A8.46,8.46,0,0,0,1885.55,1585.23Z" transform="translate(-726.67 -123.6)"/></g><g class="cls-3"><path class="cls-20" d="M1799.63,1608.92c0,2.47,1.67,3.51,3.8,2.32a8.47,8.47,0,0,0,3.91-6.62c0-2.47-1.67-3.51-3.8-2.32A8.47,8.47,0,0,0,1799.63,1608.92Z" transform="translate(-726.67 -123.6)"/><path class="cls-20" d="M1865.58,1649.8a2.67,2.67,0,0,0,2.68-.23,8.46,8.46,0,0,0,3.91-6.62,2.75,2.75,0,0,0-1.13-2.55l-64.82-38.33a2.72,2.72,0,0,1,1.12,2.55,8.47,8.47,0,0,1-3.91,6.62,2.69,2.69,0,0,1-2.68.23C1843.87,1636.53,1822.47,1624.75,1865.58,1649.8Z" transform="translate(-726.67 -123.6)"/><path class="cls-20" d="M1800.75,1611.47l64.83,38.33a2.74,2.74,0,0,1-1.13-2.55l-64.82-38.33A2.74,2.74,0,0,0,1800.75,1611.47Z" transform="translate(-726.67 -123.6)"/><path class="cls-20" d="M1871,1640.4l-64.82-38.33a2.69,2.69,0,0,0-2.68.23,8.47,8.47,0,0,0-3.91,6.62l64.82,38.33a8.48,8.48,0,0,1,3.92-6.62A2.68,2.68,0,0,1,1871,1640.4Z" transform="translate(-726.67 -123.6)"/><path class="cls-20" d="M1864.45,1647.25c0,2.47,1.68,3.51,3.81,2.32a8.46,8.46,0,0,0,3.91-6.62c0-2.46-1.67-3.5-3.8-2.32A8.48,8.48,0,0,0,1864.45,1647.25Z" transform="translate(-726.67 -123.6)"/></g><g class="cls-3"><path class="cls-20" d="M1784.71,1664.48c0,2.47,1.68,3.51,3.81,2.32a8.47,8.47,0,0,0,3.91-6.62c0-2.47-1.67-3.51-3.8-2.32A8.48,8.48,0,0,0,1784.71,1664.48Z" transform="translate(-726.67 -123.6)"/><path class="cls-20" d="M1850.66,1705.36a2.67,2.67,0,0,0,2.68-.23,8.46,8.46,0,0,0,3.91-6.62,2.74,2.74,0,0,0-1.12-2.55l-64.83-38.33a2.75,2.75,0,0,1,1.13,2.55,8.47,8.47,0,0,1-3.91,6.62,2.69,2.69,0,0,1-2.68.23C1829,1692.08,1807.55,1680.31,1850.66,1705.36Z" transform="translate(-726.67 -123.6)"/><path class="cls-20" d="M1785.84,1667l64.82,38.33a2.73,2.73,0,0,1-1.12-2.55l-64.83-38.33A2.75,2.75,0,0,0,1785.84,1667Z" transform="translate(-726.67 -123.6)"/><path class="cls-20" d="M1856.13,1696l-64.83-38.33a2.68,2.68,0,0,0-2.67.23,8.48,8.48,0,0,0-3.92,6.62l64.83,38.33a8.47,8.47,0,0,1,3.91-6.62A2.69,2.69,0,0,1,1856.13,1696Z" transform="translate(-726.67 -123.6)"/><path class="cls-20" d="M1849.54,1702.81c0,2.47,1.67,3.51,3.8,2.32a8.46,8.46,0,0,0,3.91-6.62c0-2.46-1.67-3.5-3.8-2.32A8.47,8.47,0,0,0,1849.54,1702.81Z" transform="translate(-726.67 -123.6)"/></g><g class="cls-3"><path class="cls-20" d="M1767.52,1714.43c0,2.47,1.68,3.51,3.81,2.32a8.46,8.46,0,0,0,3.91-6.62c0-2.46-1.67-3.5-3.8-2.32A8.48,8.48,0,0,0,1767.52,1714.43Z" transform="translate(-726.67 -123.6)"/><path class="cls-20" d="M1833.47,1755.32a2.69,2.69,0,0,0,2.68-.23,8.47,8.47,0,0,0,3.91-6.62,2.71,2.71,0,0,0-1.12-2.55l-64.83-38.34a2.75,2.75,0,0,1,1.13,2.55,8.46,8.46,0,0,1-3.91,6.62,2.67,2.67,0,0,1-2.68.23C1811.76,1742,1790.36,1730.26,1833.47,1755.32Z" transform="translate(-726.67 -123.6)"/><path class="cls-20" d="M1768.65,1717l64.82,38.34a2.74,2.74,0,0,1-1.12-2.55l-64.83-38.34A2.74,2.74,0,0,0,1768.65,1717Z" transform="translate(-726.67 -123.6)"/><path class="cls-20" d="M1838.94,1745.92l-64.83-38.34a2.7,2.7,0,0,0-2.67.23,8.48,8.48,0,0,0-3.92,6.62l64.83,38.34a8.46,8.46,0,0,1,3.91-6.62A2.67,2.67,0,0,1,1838.94,1745.92Z" transform="translate(-726.67 -123.6)"/><path class="cls-20" d="M1832.35,1752.77c0,2.46,1.67,3.5,3.8,2.32a8.47,8.47,0,0,0,3.91-6.62c0-2.47-1.67-3.51-3.8-2.32A8.46,8.46,0,0,0,1832.35,1752.77Z" transform="translate(-726.67 -123.6)"/></g><g class="cls-3"><path class="cls-20" d="M1752.05,1762.73c0,2.47,1.67,3.51,3.8,2.32a8.47,8.47,0,0,0,3.91-6.62c0-2.47-1.67-3.51-3.8-2.32A8.47,8.47,0,0,0,1752.05,1762.73Z" transform="translate(-726.67 -123.6)"/><path class="cls-20" d="M1818,1803.61a2.65,2.65,0,0,0,2.67-.23,8.47,8.47,0,0,0,3.91-6.62,2.72,2.72,0,0,0-1.12-2.55l-64.83-38.33a2.74,2.74,0,0,1,1.13,2.55,8.47,8.47,0,0,1-3.91,6.62,2.69,2.69,0,0,1-2.68.23C1796.29,1790.33,1774.88,1778.56,1818,1803.61Z" transform="translate(-726.67 -123.6)"/><path class="cls-20" d="M1753.17,1765.28l64.83,38.33a2.74,2.74,0,0,1-1.13-2.55l-64.82-38.33A2.72,2.72,0,0,0,1753.17,1765.28Z" transform="translate(-726.67 -123.6)"/><path class="cls-20" d="M1823.46,1794.21l-64.83-38.33a2.65,2.65,0,0,0-2.67.23,8.47,8.47,0,0,0-3.91,6.62l64.82,38.33a8.47,8.47,0,0,1,3.91-6.62A2.69,2.69,0,0,1,1823.46,1794.21Z" transform="translate(-726.67 -123.6)"/><path class="cls-20" d="M1816.87,1801.06c0,2.47,1.67,3.51,3.8,2.32a8.47,8.47,0,0,0,3.91-6.62c0-2.47-1.67-3.5-3.8-2.32A8.47,8.47,0,0,0,1816.87,1801.06Z" transform="translate(-726.67 -123.6)"/></g><g class="cls-3"><path class="cls-20" d="M1735.68,1816c0,2.47,1.67,3.51,3.8,2.32a8.46,8.46,0,0,0,3.91-6.62c0-2.46-1.67-3.5-3.8-2.32A8.47,8.47,0,0,0,1735.68,1816Z" transform="translate(-726.67 -123.6)"/><path class="cls-20" d="M1801.62,1856.87a2.69,2.69,0,0,0,2.68-.23,8.47,8.47,0,0,0,3.91-6.62,2.71,2.71,0,0,0-1.12-2.55l-64.83-38.34a2.75,2.75,0,0,1,1.13,2.55,8.46,8.46,0,0,1-3.91,6.62,2.67,2.67,0,0,1-2.68.23C1779.91,1843.59,1758.51,1831.81,1801.62,1856.87Z" transform="translate(-726.67 -123.6)"/><path class="cls-20" d="M1736.8,1818.53l64.82,38.34a2.74,2.74,0,0,1-1.12-2.55L1735.68,1816A2.71,2.71,0,0,0,1736.8,1818.53Z" transform="translate(-726.67 -123.6)"/><path class="cls-20" d="M1807.09,1847.47l-64.83-38.34a2.68,2.68,0,0,0-2.67.23,8.47,8.47,0,0,0-3.91,6.62l64.82,38.34a8.46,8.46,0,0,1,3.91-6.62A2.67,2.67,0,0,1,1807.09,1847.47Z" transform="translate(-726.67 -123.6)"/><path class="cls-20" d="M1800.5,1854.32c0,2.46,1.67,3.5,3.8,2.32a8.47,8.47,0,0,0,3.91-6.62c0-2.47-1.67-3.51-3.8-2.32A8.46,8.46,0,0,0,1800.5,1854.32Z" transform="translate(-726.67 -123.6)"/></g><g class="cls-3"><path class="cls-20" d="M1718.9,1871.39c0,2.47,1.67,3.5,3.8,2.32a8.47,8.47,0,0,0,3.91-6.62c0-2.47-1.67-3.51-3.8-2.32A8.46,8.46,0,0,0,1718.9,1871.39Z" transform="translate(-726.67 -123.6)"/><path class="cls-20" d="M1784.85,1912.27a2.69,2.69,0,0,0,2.68-.23,8.47,8.47,0,0,0,3.91-6.62,2.75,2.75,0,0,0-1.13-2.55l-64.82-38.33a2.71,2.71,0,0,1,1.12,2.55,8.47,8.47,0,0,1-3.91,6.62,2.68,2.68,0,0,1-2.67.23C1763.14,1899,1741.74,1887.22,1784.85,1912.27Z" transform="translate(-726.67 -123.6)"/><path class="cls-20" d="M1720,1873.94l64.82,38.33a2.72,2.72,0,0,1-1.12-2.55l-64.83-38.33A2.75,2.75,0,0,0,1720,1873.94Z" transform="translate(-726.67 -123.6)"/><path class="cls-20" d="M1790.31,1902.87l-64.82-38.33a2.67,2.67,0,0,0-2.68.23,8.46,8.46,0,0,0-3.91,6.62l64.83,38.33a8.47,8.47,0,0,1,3.91-6.62A2.68,2.68,0,0,1,1790.31,1902.87Z" transform="translate(-726.67 -123.6)"/><path class="cls-20" d="M1783.73,1909.72c0,2.47,1.67,3.51,3.8,2.32a8.47,8.47,0,0,0,3.91-6.62c0-2.47-1.67-3.51-3.8-2.32A8.47,8.47,0,0,0,1783.73,1909.72Z" transform="translate(-726.67 -123.6)"/></g><polygon class="cls-18" points="1259.83 1136.36 1040.09 1835.07 1050.46 1836.26 1270.24 1137.33 1259.83 1136.36"/><path class="cls-19" d="M1995.44,1258.18a8.22,8.22,0,0,0-7.45,0c-2,1.19-2,3.12,0,4.32a8.22,8.22,0,0,0,7.45,0c2-1.19,2-3.13,0-4.32Z" transform="translate(-726.67 -123.6)"/><path class="cls-18" d="M1775.66,1957.13a8.24,8.24,0,0,0-7.46,0c-2,1.19-2,3.13,0,4.32a8.22,8.22,0,0,0,7.45,0c2-1.19,2-3.13,0-4.32Z" transform="translate(-726.67 -123.6)"/><path class="cls-21" d="M1822.83,1604.28s-7.25,5.69-7,9.41,7.26,9.42,15.1,12.55,16.84,9,17.75,7.75c2.49-3.4-14.12-21.57-12.65-26.18Z" transform="translate(-726.67 -123.6)"/><path class="cls-21" d="M1783.42,1668.83a30.93,30.93,0,0,0-.76,14.29s7.07,5,14.61,2.2,6.91-9.11,11-10.52,12.09-3.3,10.84-7.23-6.6-6.71-12.1-3.89S1783.42,1668.83,1783.42,1668.83Z" transform="translate(-726.67 -123.6)"/><path class="cls-22" d="M1783.42,1554.3s9,26.89,28.52,24.65,29.74-13.65,29.74-13.65-9.17,7.8-10,13.78-10.19,25.53-10.19,25.53,7.34,6.52,14.67,6.52c0,0,35-53.78,35-64s-10.19-10-15.08-10-68.65,13.64-68.65,13.64Z" transform="translate(-726.67 -123.6)"/><path class="cls-22" d="M1771.06,1543.61s-9.37,10.61,7.74,69.53c0,0-2.72,20.95,3.43,56.41,0,0,2.13,4.16,16.36-1.42,0,0,3.71-43.37,5-57s1.55-59.7,1.55-59.7Z" transform="translate(-726.67 -123.6)"/><path class="cls-23" d="M1903,1508.39s14.38-6.63,16.06-4.53-4.62,5.57-4.62,5.57,11.45,2.2,14.92,1.57-2.73,8.72-6.51,9-14.47,1.71-21.48,0Z" transform="translate(-726.67 -123.6)"/><path class="cls-23" d="M1861.56,1455.94s12.67-.86,14.73-2.7-5.31-4.5-5.31-4.5,5-5.15,8.12-4.49,2.51-1.41.88-3.77-12.39-6.5-16.08-4.87-9.22,11.52-9.22,11.52Z" transform="translate(-726.67 -123.6)"/><path class="cls-24" d="M1805.37,1466s19.89,1.87,23,0,26.34-18.83,26.34-18.83,6.32,4.49,6.88,8.81c0,0-23.91,20.92-27.71,22.12s-23.37,2.24-31.79,2.24-6.79-5-5.93-8.94S1801.84,1465.67,1805.37,1466Z" transform="translate(-726.67 -123.6)"/><path class="cls-25" d="M1809.25,1464s20.23,12.73,21,18.9-5.59,27.41-5.59,34.83-.69,28.66-.69,28.66-10.28,17.59-32.66,13.36-25-14.61-24.44-18.5,4.46-28.32,3.54-36.31-7.88-48.88,10-52.64C1780.49,1452.29,1791.19,1451.94,1809.25,1464Z" transform="translate(-726.67 -123.6)"/><path class="cls-24" d="M1814.71,1486.36c3.31-10.58,10.94-10.28,23.17-3.43s25.79,15.83,25.79,15.83,26.6,3.92,39.32,9.63c0,0,1.64,9-1.63,11.59,0,0-33.86.32-42.3-2.94s-33.9-12.56-39.13-17S1814,1488.71,1814.71,1486.36Z" transform="translate(-726.67 -123.6)"/><path class="cls-23" d="M1804.6,1421.15c9.94,2.23,16,5.94,16.72,10.92s3.17,27.91-3.18,29.15-18.66,1.25-20.87-13.26S1795.34,1419.08,1804.6,1421.15Z" transform="translate(-726.67 -123.6)"/><path class="cls-23" d="M1790.8,1457.55l-.61,3.36s4,5.28,19.06,3.08l4.68-12.9-21.84-5.86Z" transform="translate(-726.67 -123.6)"/><path d="M1799.12,1448.74s5.83-1.17,9.67-9.8c0,0,13.21-.21,19.55-11.55,0,0-14.76-9.56-26.93-11s-17,7-16.74,11.23c0,0-8.74,4.28-4.89,13.74a51.92,51.92,0,0,0,11,16.21S1796.73,1454.07,1799.12,1448.74Z" transform="translate(-726.67 -123.6)"/><path class="cls-23" d="M1802.29,1448.87s-4.36-6.55-7.8-4.06,3.28,8.12,7.8,8.43Z" transform="translate(-726.67 -123.6)"/></g></svg>