<svg id="Layer_1" data-name="Layer 1" xmlns="http://www.w3.org/2000/svg" viewBox="0 0 224.05 218.78"><title>ai</title><g id="Layer_2" data-name="Layer 2"><g id="Surfaces"><g id="Photo_Surface" data-name="Photo Surface"><g id="Outline_no_shadow" data-name="Outline no shadow"><path d="M51.85,14.11h136.3a37.35,37.35,0,0,1,37.38,37.38v131a37.35,37.35,0,0,1-37.38,37.38H51.85a37.35,37.35,0,0,1-37.38-37.38v-131A37.35,37.35,0,0,1,51.85,14.11Z" transform="translate(-7.97 -7.61)" style="fill:none;stroke:#fd73ff;stroke-miterlimit:10;stroke-width:13px"/></g></g></g><g id="vlpe"><g id="vlpf"><path d="M120.05,148.35H82.85l-7.6,23.5a1.75,1.75,0,0,1-1.9,1.4H54.55c-1.1,0-1.4-.6-1.1-1.8l32.2-92.7c.3-1,.6-2.1,1-3.3a34.93,34.93,0,0,0,.6-6.5,1,1,0,0,1,.8-1.1H114c.8,0,1.2.3,1.3.8l36.5,103c.3,1.1,0,1.6-1,1.6h-20.9a1.51,1.51,0,0,1-1.6-1.1l-8.2-23.8Zm-31.4-20.3h25.4c-.6-2.1-1.4-4.6-2.3-7.2s-1.8-5.6-2.7-8.6-1.9-6.1-2.9-9.2-1.9-6-2.7-8.9-1.5-5.4-2.2-7.8h-.2a122.78,122.78,0,0,1-3.4,12.9c-1.5,4.8-3,9.8-4.6,14.8C91.65,119.15,90.15,123.85,88.65,128.05Z" transform="translate(-7.97 -7.61)" style="fill:#fd73ff"/><path d="M174.05,85.35a12.38,12.38,0,0,1-8.9-3.5,13,13,0,0,1-3.4-9.2,11.77,11.77,0,0,1,3.6-8.9,12.81,12.81,0,0,1,8.9-3.5c3.9,0,6.9,1.2,9.1,3.5a12.62,12.62,0,0,1,3.3,8.9,12.65,12.65,0,0,1-3.5,9.2,11.76,11.76,0,0,1-9.1,3.5Zm-11.2,86.8v-77c0-1,.4-1.4,1.3-1.4H184c.9,0,1.3.5,1.3,1.4v77c0,1.1-.4,1.6-1.3,1.6h-19.6A1.4,1.4,0,0,1,162.85,172.15Z" transform="translate(-7.97 -7.61)" style="fill:#fd73ff"/></g></g></g></svg>