<svg id="Layer_1" data-name="Layer 1" xmlns="http://www.w3.org/2000/svg" viewBox="0 0 619.54 774.56"><title>arc</title><path d="M399.4,0Q335.11,0,278.67,24.31a309.66,309.66,0,0,0-98.3,66.44q-41.87,42.12-66.16,98.57T89.9,310V774.56H244.37v-155h16.08V548.92h34V465.06H244.37V310a151.37,151.37,0,0,1,12.16-60.23,154.71,154.71,0,0,1,82.64-82.63A151.09,151.09,0,0,1,399.4,155h.6V0Z" transform="translate(-89.9)" style="fill:#fff"/><path d="M685.13,189.32a311,311,0,0,0-165-165Q463.93.11,400,0V155a151,151,0,0,1,59.62,12.15,154.71,154.71,0,0,1,82.64,82.63A151.2,151.2,0,0,1,554.42,310v155h-47.6v83.86h34v70.62h13.61v155h155V310Q709.44,245.77,685.13,189.32Z" transform="translate(-89.9)"/></svg>