<?xml version="1.0" encoding="utf-8"?>
<!-- Generator: Adobe Illustrator 23.0.1, SVG Export Plug-In . SVG Version: 6.00 Build 0)  -->
<svg version="1.1" id="Layer_1" xmlns="http://www.w3.org/2000/svg" xmlns:xlink="http://www.w3.org/1999/xlink" x="0px" y="0px"
	 viewBox="0 0 256 288" style="enable-background:new 0 0 256 288;" xml:space="preserve">
<style type="text/css">
	.st0{fill:#FFF55A;}
	.st1{fill:#E5D117;}
</style>
<g>
	<path class="st0" d="M33.5,143.5c0-52.3,42.5-94.9,95-94.9c35,0,65.6,19,82.1,47.2l41.9-24.1c-2.1-3.6-5.1-6.6-9.2-9
		c-34-19.6-68.1-39.2-102.1-58.8C132-1.4,123.1-1.2,114,4.2c-13.5,8-81.3,46.8-101.6,58.5C4.1,67.5,0,74.9,0,84.4
		c0,39.5,0,78.9,0,118.4c0,4.7,1,8.9,3,12.5l43-24.7C38.1,176.7,33.5,160.6,33.5,143.5z"/>
	<path class="st0" d="M169.3,119.6c-8.1-13.8-23.1-23.1-40.2-23.3h-0.5c-26.1,0-47.3,21.2-47.3,47.3c0,8.4,2.2,16.3,6,23.1
		l40.9-23.5l0.1,0.1l82.3-47.4l0,0L169.3,119.6z"/>
	<path class="st0" d="M255.6,92.3c0,41.1,0,110.5,0,110.6c0,4.6-1,8.8-2.9,12.4l0,0c2-3.6,3-7.8,3-12.5
		C255.6,202.8,255.6,133.5,255.6,92.3z"/>
	<path class="st0" d="M252.6,215.4l-41.8-24.2c-16.3,28-46.5,47-81.2,47.3h-1.1c-35.3,0-66-19.2-82.4-47.7c0-0.1-0.1-0.2-0.1-0.2
		L3,215.3c2.1,3.7,5.2,6.8,9.4,9.3c20.2,11.7,88,50.5,101.6,58.5c9.1,5.4,18,5.6,27.2,0.3c34-19.6,68.1-39.2,102.1-58.8
		C247.5,222.2,250.6,219.1,252.6,215.4l0.1-0.1C252.6,215.3,252.6,215.4,252.6,215.4z"/>
	<path class="st0" d="M87.3,166.7c0.1,0.1,0.1,0.2,0.2,0.4c8.2,14.2,23.5,23.8,41.1,23.8c17.5,0,32.8-9.5,40.9-23.6l-41.3-24l0.1,0
		l-0.1-0.1L87.3,166.7z"/>
	<path class="st0" d="M210.8,96.1l-0.2-0.3l-82.3,47.4l41.3,23.9c0,0,0,0,0-0.1l0,0l0.2-0.3c-0.1,0.1-0.1,0.2-0.2,0.3l41.3,23.9
		c0,0,0,0,0,0.1l41.8,24.2c2-3.6,2.9-7.7,2.9-12.4c0-0.1,0-69.4,0-110.6c0-2.7,0-5.4,0-7.8c0-4.8-1-9.1-3.1-12.8l-41.9,24.1
		C210.7,95.9,210.7,96,210.8,96.1z M215.4,116.3h6.7v13.5h13.5v6.7h-13.5V150h13.5v6.7h-13.5v13.5h-6.7v-13.5h-13.5v13.5h-6.7v-13.5
		h-13.5V150h13.5v-13.5h-13.5v-6.7h13.5v-13.5h6.7v13.5h13.5V116.3z"/>
	<rect x="201.9" y="136.5" class="st1" width="13.5" height="13.5"/>
	<path class="st1" d="M169.5,167.3C169.6,167.2,169.6,167.2,169.5,167.3l-41.2-24l-0.1,0L169.5,167.3z"/>
	<path class="st1" d="M210.8,191.2l41.8,24.2c0,0,0-0.1,0.1-0.1l-41.8-24.2C210.8,191.1,210.8,191.1,210.8,191.2z"/>
	<path d="M169.6,167.1L169.6,167.1c0.1-0.1,0.1-0.2,0.2-0.3L169.6,167.1z"/>
	<path d="M210.8,96.1c-0.1-0.1-0.1-0.2-0.2-0.3l0,0L210.8,96.1z"/>
	<path d="M210.9,191l-41.3-23.9c0,0,0,0,0,0.1L210.9,191C210.9,191,210.9,191,210.9,191z"/>
	<path d="M169.6,167.2C169.6,167.2,169.6,167.2,169.6,167.2l41.2,24c0,0,0-0.1,0.1-0.1L169.6,167.2z"/>
</g>
</svg>
