<?xml version="1.0" encoding="utf-8"?>
<!-- Generator: Adobe Illustrator 26.0.1, SVG Export Plug-In . SVG Version: 6.00 Build 0)  -->
<svg version="1.1" id="Layer_1" xmlns="http://www.w3.org/2000/svg" xmlns:xlink="http://www.w3.org/1999/xlink" x="0px" y="0px"
	 viewBox="0 0 445 444.5" style="enable-background:new 0 0 445 444.5;" xml:space="preserve">
<style type="text/css">
	.st0{opacity:0.71;fill:#F5F5F5;enable-background:new    ;}
	.st1{fill:#E6E6E6;}
	.st2{fill:#BA68C8;}
	.st3{fill:#00779B;}
	.st4{fill:#FFFFFF;}
	.st5{fill:#37474F;}
	.st6{fill:#455A64;}
	.st7{fill:#263238;}
	.st8{fill:#E0E0E0;}
	.st9{fill:#6AC1C6;}
	.st10{opacity:0.2;enable-background:new    ;}
	.st11{fill:#FAFAFA;}
	.st12{fill:#EBEBEB;}
	.st13{fill:#44CCCC;}
	.st14{opacity:0.5;enable-background:new    ;}
	.st15{opacity:0.6;fill:#44CCCC;enable-background:new    ;}
	.st16{opacity:0.7;enable-background:new    ;}
	.st17{fill:#934D26;}
	.st18{fill:#6ABBC6;}
	.st19{fill:#00FFFF;}
	.st20{fill:#4C1B05;}
	.st21{fill:#280D00;}
	.st22{fill:#6AC4C6;}
	.st23{fill:#F5F5F5;}
	.st24{fill:#F0F0F0;}
	.st25{fill:none;stroke:#FFFFFF;stroke-width:1.1515;stroke-miterlimit:10;}
	.st26{fill:#6AB9C6;}
	.st27{opacity:0.3;enable-background:new    ;}
	.st28{fill:#00E7FF;}
	.st29{enable-background:new    ;}
</style>
<g id="Floor">
	<ellipse class="st0" cx="222.5" cy="316" rx="222.5" ry="128.5"/>
</g>
<g id="Shadows">
	<ellipse class="st1" cx="68.1" cy="327.3" rx="24.6" ry="14.2"/>
	<path class="st1" d="M257.8,251.1L95.9,344.5c-1.9,1.1-2.6,3.5-1.6,5.4c0.4,0.7,0.9,1.2,1.6,1.6l95.1,54.9c4.9,2.8,10.9,2.8,15.7,0
		L368.6,313c1.9-1.1,2.6-3.5,1.6-5.4c-0.4-0.7-0.9-1.2-1.6-1.6l-95.1-54.9C268.6,248.2,262.6,248.2,257.8,251.1z"/>
	<path class="st1" d="M209.1,252l-64.8,37.4c-4.1,2.4-5.5,7.6-3.1,11.7c0.8,1.3,1.8,2.4,3.1,3.1L177,323c4.4,2.5,9.8,2.5,14.2,0
		l64.8-37.4c4.1-2.4,5.5-7.6,3.1-11.7c-0.8-1.3-1.8-2.4-3.1-3.1L223.3,252C219,249.4,213.5,249.4,209.1,252z"/>
</g>
<g id="Plant">
	<path class="st2" d="M69.4,290.5c0,0-15.2-14.9-6.6-39.8c4.8-14,20.9-24.2,30.1-25.2c-3,3.6-5.5,7.7-7.2,12.1l-11.5,7.7l10.6-3.3
		l-2.3,9.1c0,0-9.9,6-11.3,7.3l10.6-2.8C81.9,255.5,81.1,281.2,69.4,290.5z"/>
	<path class="st3" d="M69.4,290.5c0,0-15.2-14.9-6.6-39.8c4.8-14,20.9-24.2,30.1-25.2c-3,3.6-5.5,7.7-7.2,12.1l-11.5,7.7l10.6-3.3
		l-2.3,9.1c0,0-9.9,6-11.3,7.3l10.6-2.8C81.9,255.5,81.1,281.2,69.4,290.5z"/>
	<path class="st4" d="M69.4,290.5c0,0-7.9-31.1,3.8-49.2C73.2,241.2,59.5,257.2,69.4,290.5z"/>
	<path class="st5" d="M86.8,294.7l-18.6-0.2H68l-18.6,0.2c0,0-0.2,22.9,6.9,32.3l0,0c2,2.5,6.5,4.2,11.9,4.2S78,329.4,80,327
		C87,317.6,86.8,294.7,86.8,294.7z"/>
	<ellipse class="st6" cx="68.1" cy="294.7" rx="18.7" ry="10"/>
	<path class="st7" d="M68.1,292c6.4,0,11.9,2.1,13.8,4.9c0.5-0.7,0.7-1.4,0.8-2.3c0-4-6.5-7.2-14.6-7.2s-14.6,3.2-14.6,7.2
		c0,0.8,0.3,1.6,0.7,2.3C56.2,294.1,61.6,292,68.1,292z"/>
	<ellipse class="st8" cx="68.1" cy="296.9" rx="13.8" ry="4.9"/>
	<path class="st9" d="M68.3,298.2c0,0-7.2-0.3-13.4-9.9c-2.6-4-3.8-6-3.8-6l10-0.8l-11.3-2.8l-5.3-8.1l9.3-0.7c0,0-7-2.4-11.9-2.5
		c0,0-8.6-15.2-11.2-17.4C44,250.9,56.3,257,64.9,267C79.1,283.7,70.4,298.6,68.3,298.2z"/>
	<path class="st4" d="M68.3,298.2c0,0,4.5-27.2-24.3-43.5C44,254.7,73.9,269,68.3,298.2z"/>
	<path class="st9" d="M68.3,298.2c0,0,6.5,0.4,13-7.6c2.7-3.3,4-5.1,4-5.1l-9-1.6l10.4-1.5l5.6-6.9l-8.4-1.5c0,0,6.5-1.5,11-1.1
		c0,0,9.2-12.9,11.7-14.7c-12-0.5-23.6,3.8-32.3,12.1C59.9,284.1,66.4,298.4,68.3,298.2z"/>
	<path class="st10" d="M68.3,298.2c0,0,6.5,0.4,13-7.6c2.7-3.3,4-5.1,4-5.1l-9-1.6l10.4-1.5l5.6-6.9l-8.4-1.5c0,0,6.5-1.5,11-1.1
		c0,0,9.2-12.9,11.7-14.7c-12-0.5-23.6,3.8-32.3,12.1C59.9,284.1,66.4,298.4,68.3,298.2z"/>
	<path class="st4" d="M68.3,298.2c0,0-1.5-24.9,26-37C94.3,261.2,66,271.3,68.3,298.2z"/>
</g>
<g id="Pictures">
	<polygon class="st11" points="101.4,76.9 101.4,126.6 58.4,151.4 58.4,101.8 101.4,76.9 	"/>
	<path class="st8" d="M96.8,79.6v44.3l-38.4,22.1v-44.3L96.8,79.6 M99.1,75.6l-43,24.8v49.7l2.3,1.4l43-24.8V76.9L99.1,75.6
		L99.1,75.6z"/>
	<path class="st12" d="M99.1,80.9v44.3l-38.4,22.2v-44.3L99.1,80.9 M101.4,76.9l-43,24.8v49.7l43-24.8V76.9L101.4,76.9z"/>
	<polygon class="st8" points="95.1,115.2 62.5,134 72.2,109 78.8,116.9 85.6,107.2 	"/>
	<path class="st8" d="M83.8,99.6c-0.1,2.1-1.2,4-3,5.1c-1.6,0.9-3,0.2-3-1.7c0.1-2.1,1.2-4,3-5.1C82.5,97,83.8,97.7,83.8,99.6z"/>
	<polygon class="st11" points="115.8,15.1 115.8,54.6 81.5,74.4 81.5,34.8 115.8,15.1 	"/>
	<path class="st8" d="M112.1,17.2v35.3L81.5,70.1V34.9L112.1,17.2 M113.9,14L79.6,33.8v39.6l1.9,1.1l34.3-19.8V15.1L113.9,14
		L113.9,14z"/>
	<path class="st12" d="M113.9,18.3v35.3L83.3,71.2V35.9L113.9,18.3 M115.8,15.1L81.5,34.9v39.6l34.3-19.8L115.8,15.1L115.8,15.1z"/>
	<polygon class="st8" points="110.7,45.6 84.8,60.5 92.5,40.6 97.8,46.9 103.2,39.2 	"/>
	<path class="st8" d="M101.7,33.1c-0.1,1.7-1,3.2-2.4,4.1C98.1,38,97,37.4,97,35.9c0.1-1.7,1-3.2,2.4-4.1
		C100.7,31,101.7,31.6,101.7,33.1z"/>
</g>
<g id="Character">
	<path class="st7" d="M188.6,243.8l13.9,84.9c0.2,1.3,1.3,2.2,2.6,2.2l0,0c1.5,0,2.6-1.2,2.6-2.7c0-0.1,0-0.2,0-0.3l-9.8-87.6
		L188.6,243.8z"/>
	<path class="st7" d="M236.7,215.3l13.9,84.9c0.2,1.3,1.3,2.2,2.6,2.2l0,0c1.5,0,2.6-1.2,2.6-2.7c0-0.1,0-0.2,0-0.3l-9.8-87.6
		L236.7,215.3z"/>
	<path class="st7" d="M167.3,224l-13.7,73.1c-0.2,1.1-1.1,1.8-2.2,1.8c-1.2,0-2.2-1-2.2-2.2c0-0.1,0-0.2,0-0.3l10.1-67.8L167.3,224z
		"/>
	<path class="st7" d="M215.9,196.7l-13.6,72.7c-0.2,1.1-1.1,1.8-2.2,1.8c-1.2,0-2.2-1-2.2-2.2c0-0.1,0-0.2,0-0.3l10.1-67.4
		L215.9,196.7z"/>
	<path class="st13" d="M211.9,191.2c-6.4-2.8-10.8-8.9-11.5-15.9c-2.2-22.3-10.1-68.2-36.6-52.9c-32.8,18.9-21.1,73.6-16.3,91.2
		c1.1,4,3.1,7.6,6,10.5c5.9,6,18.2,16.3,39.1,25c2.6,1.1,5.4,1.2,8.1,0.5c10.4-3,37.5-12,51-29.3c1.6-2,1.2-5-0.8-6.6
		C245.4,209.3,233,200.6,211.9,191.2z"/>
	<path class="st14" d="M211.9,191.2c-6.4-2.8-10.8-8.9-11.5-15.9c-2.2-22.3-10.1-68.2-36.6-52.9c-32.8,18.9-21.1,73.6-16.3,91.2
		c1.1,4,3.1,7.6,6,10.5c5.9,6,18.2,16.3,39.1,25c2.6,1.1,5.4,1.2,8.1,0.5c10.4-3,37.5-12,51-29.3c1.6-2,1.2-5-0.8-6.6
		C245.4,209.3,233,200.6,211.9,191.2z"/>
	<path class="st13" d="M252.6,217.1c0.1,1.1-0.3,2.2-1,3.1c-0.7,0.9-1.5,1.8-2.3,2.7l0,0c-0.4,0.5-0.9,1-1.3,1.4l0,0
		c-0.5,0.5-0.9,0.9-1.4,1.4l0,0l-1.4,1.3l0,0c-0.5,0.4-1,0.9-1.5,1.3l0,0c-7.7,6.4-17,11.3-25.3,14.9l0,0l-1.5,0.6l-0.2,0.1
		l-1.4,0.6l-0.2,0.1l-1.3,0.5l-0.3,0.1l-1.2,0.5l-0.4,0.1l-1.1,0.4l-0.4,0.1l-1.1,0.4l-0.4,0.1l-1,0.3l-0.5,0.2l-0.9,0.3l-0.5,0.2
		l-0.8,0.2l-0.5,0.2l-0.7,0.2l-0.6,0.2l-0.6,0.2l-0.7,0.2l-0.4,0.1c-0.3,0.1-0.7,0.2-1,0.3c-2.7,0.8-5.5,0.6-8.1-0.5
		c-20.9-8.8-33.1-19-39.1-25c-2.9-2.9-4.9-6.5-6-10.5c-4.8-17.6-16.5-72.3,16.3-91.2c0.6-0.3,1.1-0.6,1.7-0.9l0.4-0.2
		c0.6-0.3,1.1-0.5,1.6-0.7l0.2-0.1c0.5-0.2,1-0.4,1.5-0.5l0.2-0.1c0.5-0.1,1.1-0.3,1.6-0.4h0.1c1-0.2,2.1-0.3,3.1-0.2h0.1
		c1,0,2,0.2,3,0.5l0,0c-5.2-2.3-11.6-2.2-18,1.4c-32.8,18.9-21.1,73.6-16.3,91.2l0.8,3c1.6,6.1,5.2,11.5,10.2,15.3l8.5,6.5l0,0
		c9.2,7,19.2,12.7,29.8,17.2c2.6,1.1,5.4,1.3,8.1,0.5c10.4-3,37.5-12,51-29.3c0.6-0.7,0.9-1.6,1-2.6l0,0V217.1L252.6,217.1z"/>
	<path class="st15" d="M252.6,217.1c0.1,1.1-0.3,2.2-1,3.1c-0.7,0.9-1.5,1.8-2.3,2.7l0,0c-0.4,0.5-0.9,1-1.3,1.4l0,0
		c-0.5,0.5-0.9,0.9-1.4,1.4l0,0l-1.4,1.3l0,0c-0.5,0.4-1,0.9-1.5,1.3l0,0c-7.7,6.4-17,11.3-25.3,14.9l0,0l-1.5,0.6l-0.2,0.1
		l-1.4,0.6l-0.2,0.1l-1.3,0.5l-0.3,0.1l-1.2,0.5l-0.4,0.1l-1.1,0.4l-0.4,0.1l-1.1,0.4l-0.4,0.1l-1,0.3l-0.5,0.2l-0.9,0.3l-0.5,0.2
		l-0.8,0.2l-0.5,0.2l-0.7,0.2l-0.6,0.2l-0.6,0.2l-0.7,0.2l-0.4,0.1c-0.3,0.1-0.7,0.2-1,0.3c-2.7,0.8-5.5,0.6-8.1-0.5
		c-20.9-8.8-33.1-19-39.1-25c-2.9-2.9-4.9-6.5-6-10.5c-4.8-17.6-16.5-72.3,16.3-91.2c0.6-0.3,1.1-0.6,1.7-0.9l0.4-0.2
		c0.6-0.3,1.1-0.5,1.6-0.7l0.2-0.1c0.5-0.2,1-0.4,1.5-0.5l0.2-0.1c0.5-0.1,1.1-0.3,1.6-0.4h0.1c1-0.2,2.1-0.3,3.1-0.2h0.1
		c1,0,2,0.2,3,0.5l0,0c-5.2-2.3-11.6-2.2-18,1.4c-32.8,18.9-21.1,73.6-16.3,91.2l0.8,3c1.6,6.1,5.2,11.5,10.2,15.3l8.5,6.5l0,0
		c9.2,7,19.2,12.7,29.8,17.2c2.6,1.1,5.4,1.3,8.1,0.5c10.4-3,37.5-12,51-29.3c0.6-0.7,0.9-1.6,1-2.6l0,0V217.1L252.6,217.1z"/>
	<path class="st2" d="M270.7,279.8c-2.2-14.3-5.1-37.1-6.8-50.6c-0.1-0.9-0.3-1.8-0.5-2.6c-1.7-7.5-6.5-14-13.2-17.9l-33.7-20
		l-22.9-12c0,0-6.1,17.6,1,28.4c5.9,9,31.8,20.1,39.6,23.8s7.9,4.8,7.7,9.8s-0.2,11.4,9.3,31.4c2.7,5.7,4.6,10,6,13.3
		C262.1,283.7,266.8,282.5,270.7,279.8z"/>
	<path class="st16" d="M270.7,279.8c-2.2-14.3-5.1-37.1-6.8-50.6c-0.2-1.3-0.4-2.6-0.8-3.9c-2-7-6.6-12.9-12.9-16.6l-33.7-20.1
		l-22.9-12c0,0-6.1,17.6,1,28.4c5.9,9,31.8,20.1,39.6,23.8s7.9,4.8,7.7,9.8s-0.2,11.4,9.3,31.4c2.7,5.7,4.6,10,6,13.3
		C262.1,283.7,266.8,282.4,270.7,279.8z"/>
	<path class="st17" d="M260.3,294.9c0,0.6,0.1,1.2,0.4,1.7c1.3,2.3,3.1,4.3,5.1,6c4.5,4.1,19.6,20.1,24.9,10.2
		c0,0-15.5-14.9-17.6-21c-1-3.9-1.8-8-2.3-12c-3.9,2.6-8.7,3.9-13.4,3.5C260.2,290.5,260.4,292.9,260.3,294.9z"/>
	<path class="st6" d="M276.5,293.9l-0.4-1.3c-0.4-1-1.4-1.5-2.4-1.2l-6.3,1.9c-0.8,0.3-1.4,1-1.4,1.9v0.6c0,0.6-0.5,1.1-1.1,1.1l0,0
		c-1.3,0-2.6-0.5-3.6-1.3l-0.9-0.7v-2.2l0,0c-1.2,0.8-1.8,2.1-1.8,3.4c0.1,1.5,0.1,3.3,0.1,4c-0.1,1.3-1.3,6.8,0.1,8.5
		s4.8,1.8,8.9,1.4s8.5,3.6,12.3,5.1s19.4,4.7,19.4-5.3c0-2.5-2.5-3.6-5-4.5s-11.4-4-13.7-5.9c-0.9-0.8-1.8-1.6-2.5-2.5
		C277.4,296,276.9,295,276.5,293.9z"/>
	<path class="st7" d="M280,315.1c-3.8-1.5-8.2-5.5-12.3-5.1s-7.4,0.2-8.9-1.4c-0.5-0.7-0.7-1.5-0.7-2.3c-0.1,1.5,0,3,0.7,3.7
		c1.5,1.6,4.8,1.8,8.9,1.4s8.5,3.6,12.3,5.1s19.4,4.7,19.4-5.3c0-0.1,0-0.3-0.1-0.4C298.3,319.5,283.6,316.5,280,315.1z"/>
	<path class="st2" d="M240.1,297.1c-2.2-14.3-5.1-37.1-6.8-50.6c-0.9-7.1-4.4-13.6-9.8-18.2l-40.4-34.3l-21.6-0.4
		c0,0-4.4,18,2.6,28.8c5.9,9,31.8,20.1,39.6,23.8s7.9,4.8,7.7,9.8c-0.2,5-0.2,11.4,9.3,31.4c2.7,5.8,4.6,10,5.9,13.3
		C231.5,301,236.2,299.8,240.1,297.1z"/>
	<path class="st16" d="M240.1,297.1c-2.2-14.3-5.1-37.1-6.8-50.6c-0.9-7.1-4.4-13.6-9.8-18.2l-40.4-34.3l-21.6-0.4
		c0,0-4.4,18,2.6,28.8c5.9,9,31.8,20.1,39.6,23.8s7.9,4.8,7.7,9.8c-0.2,5-0.2,11.4,9.3,31.4c2.7,5.8,4.6,10,5.9,13.3
		C231.5,301,236.2,299.8,240.1,297.1z"/>
	<path class="st17" d="M229.7,311c0,0.6-0.4,2.4,0.4,3c1.1,0.8,2.1,3.3,5.1,6c4.5,4.1,9.3-4.7,7.3-10.8c-1-4-1.8-8-2.3-12
		c-3.9,2.6-8.7,3.9-13.4,3.5C229.6,307.8,229.8,308.9,229.7,311z"/>
	<path class="st17" d="M203,119L203,119c6.4-1,12.6,2.7,14.6,8.9c1.4,4.3,2.3,8.7,2.7,13.2c1.2,13.9,1.5,20.8,1.5,20.8l13.9,6.3
		c0,0-7.5,0.4-7,11l-17.3-4.4L203,119z"/>
	<path class="st18" d="M222.4,153.5c-2.1-15-2.9-22.9-4.6-26.6c-2.5-5.7-8.6-9-14.7-7.9l5.2,41.2l0.7-0.1c4.6-0.5,9-2.4,12.5-5.5
		L222.4,153.5z"/>
	<path class="st10" d="M222.4,153.5c-2.1-15-2.9-22.9-4.6-26.6c-2.5-5.7-8.6-9-14.7-7.9l5.2,41.2l0.7-0.1c4.6-0.5,9-2.4,12.5-5.5
		L222.4,153.5z"/>
	<path class="st17" d="M221.9,161.9c-1.6,0.5-3,1.4-4.1,2.5c0,0,1.7-3.2,4-4.2L221.9,161.9z"/>
	<path class="st19" d="M169.6,131.2l15.6-7.5l12.8-4.4c0,0,10.3-3.3,12.9,10.4c2.2,11.2,2.4,54,2.4,54l-0.2,4.7
		c0,0-5.9,16.6-27.1,18s-25.3-7.6-25.3-7.6S158.5,142.2,169.6,131.2z"/>
	<path class="st7" d="M218.6,85.5c0,0,4.8,12.3-1.8,17.8s-4.3-16.4-4.3-16.4L218.6,85.5z"/>
	<path class="st6" d="M206.9,402.9c-1.7,0.9-3.7,0.9-5.5,0c-1.5-0.9-1.5-2.3,0-3.1c1.7-0.9,3.7-0.9,5.5,0
		C208.4,400.6,208.4,402.1,206.9,402.9z"/>
	<rect x="200.3" y="308.3" class="st5" width="7.7" height="93"/>
	<ellipse class="st6" cx="116.4" cy="349.8" rx="3.9" ry="2.2"/>
	<rect x="112.5" y="256.7" class="st7" width="7.7" height="93"/>
	<path class="st6" d="M350.9,319.5c-1.7,0.9-3.7,0.9-5.5,0c-1.5-0.9-1.5-2.3,0-3.1c1.7-0.9,3.7-0.9,5.5,0
		C352.4,317.2,352.4,318.7,350.9,319.5z"/>
	<rect x="344.3" y="224.9" class="st5" width="7.7" height="93"/>
	<path class="st6" d="M256.5,249.2c-1.5,0.8-3.4,0.8-4.9,0c-1.4-0.8-1.4-2,0-2.8c1.5-0.8,3.4-0.8,4.9,0
		C257.8,247.1,257.8,248.4,256.5,249.2z"/>
	<rect x="250.6" y="170.1" class="st6" width="6.9" height="77.6"/>
	<polygon class="st7" points="112.5,241.3 112.5,259.8 204.2,312.8 204.2,294.3 	"/>
	<polygon class="st5" points="352,208.9 204.2,294.3 204.2,312.8 352,227.4 	"/>
	<polygon class="st6" points="260.3,156 112.5,241.3 204.2,294.3 352,208.9 	"/>
	<polygon class="st12" points="186.2,213.6 219.8,233 275.7,200.7 242.1,180.9 	"/>
	<polygon class="st8" points="216.2,208.1 228.8,200.8 220.9,196.2 208.3,203.5 	"/>
	<polygon class="st8" points="221.2,228.2 204.2,218.2 237.4,198.1 	"/>
	<path class="st17" d="M230.7,165.8l13.5,6.3c4,1,8,2.2,11.9,3.7c0,0,9.4,3.8,9.8,6.3s-7,8.6-13.6,5.6c-1.7-0.9-3.6-1.6-5.5-2
		c-1.8-0.2-7-1-10.8-4.6l-15.7-4.1C220.4,177,219.6,167.4,230.7,165.8z"/>
	<path class="st17" d="M239.4,184.5c1.5,1.7,6,5.9,7,7.1s3.3-1.9-0.8-6.6c-3.5-1.3-6.7-3-9.7-5.3C237,181.4,238.2,183,239.4,184.5z"
		/>
	<rect x="185.2" y="104.3" class="st17" width="16" height="19.3"/>
	<path class="st17" d="M201.1,123.7c-6.6-2.5-11.9-7.5-14.6-14v-5.4h14.7L201.1,123.7z"/>
	<path class="st17" d="M206.5,78.8c0,0,14.5,1.8,11.2,26.6c-1.5,11.5-4.6,17.3-13.4,16.3c-10-1.1-23.9-8.9-21.7-28.6
		S206.5,78.8,206.5,78.8z"/>
	<polygon class="st20" points="207.3,100.9 206.8,109.5 211.9,108.3 	"/>
	<path class="st7" d="M199.7,100.2c-0.1,1,0.7,1.8,1.6,1.9c1,0.1,1.8-0.7,1.9-1.6s-0.7-1.8-1.6-1.9c0,0,0,0,0,0
		C200.6,98.5,199.8,99.2,199.7,100.2z"/>
	<path class="st7" d="M211.3,99.7c-0.1,1,0.7,1.8,1.6,1.9c1,0.1,1.8-0.7,1.9-1.6c0.1-1-0.7-1.8-1.6-1.9
		C212.2,98,211.3,98.7,211.3,99.7C211.3,99.7,211.3,99.7,211.3,99.7z"/>
	<path class="st7" d="M215.4,96.3l-3.3-2.2c0,0,1.4-1.3,2.6-0.4C215.5,94.3,215.7,95.3,215.4,96.3z"/>
	<path class="st7" d="M200.9,95.9l-3.6,1.8c0,0-0.4-1.8,0.9-2.5C199.3,94.8,200.3,95.1,200.9,95.9z"/>
	<path class="st21" d="M207,113c-2,0-3.9-0.6-5.5-1.9c0,0-0.6,2.9,1.9,3.6S207,113,207,113z"/>
	<path class="st7" d="M185,100.7c0,0,2.2,4.6,3.6,4.5s0-17.8,2.9-17.9s16.4,6.6,28.3-2.1c4.6-3.3,5.5-11.8,2.8-11s-6.5,3.2-11.5,2.9
		s-22.6-8.5-26.9,3c0,0-9.7-0.8-6.1,18.5c0.9,4.8,3.8,16.6,7.1,17.8L185,100.7z"/>
	<path class="st17" d="M185.8,105c0.1-1.5-0.2-2.9-0.8-4.2c-0.6-1.7-2.1-2.9-3.9-3c-4.5-0.1-5.1,4.2-5,5.7c0.2,4,3.4,8.4,9.5,8.6
		L185.8,105z"/>
	<path class="st17" d="M187.2,191.4l11.4,9.1c2,0.2,3.9,0.5,5.8,1c2.2,0.6,7.9,2.8,9.4,3.1s-0.4,3-4.4,2c0,0,8.3,5.7,8.2,8.2
		c-0.1,2.5-8.7,6.9-14.4,2.6c-1.5-1.2-3.1-2.3-4.9-3.1c-1.7-0.5-6.6-2.5-9.5-6.8l-10-5.2C178.8,202.4,175.9,190.6,187.2,191.4z"/>
	<path class="st17" d="M174.7,128.7c0,0,6.7,5.2,2.6,21.2s-6.3,29.9-6.3,29.9l16.2,11.5c-4.5,2-7.7,6.1-8.4,11
		c0,0-25.5-10-26.1-16.5s5.3-34.3,6.2-39.5S164.4,131.2,174.7,128.7z"/>
	<path class="st17" d="M171,179.9c-2-0.4-4.1-0.4-6.1,0.1c1.9-1,4.1-1.6,6.2-1.6L171,179.9z"/>
	<path class="st11" d="M283.5,163.7l-5.9,38.2c0,0,0,0,0,0.1l-58.1,33.7c0,0-0.1,0-0.1,0c0,0,0,0,0-0.1l5.7-37.1
		c0.2-1.6,1.2-3,2.6-3.9l53.3-32.7c0.8-0.5,1.9-0.3,2.4,0.5C283.5,162.8,283.6,163.2,283.5,163.7z"/>
	<path class="st8" d="M219.5,235.6l-31-18c-1.5-0.8-2.3-2.4-2.4-4.1l0,0l33.6,19.4L219.5,235.6z"/>
	<path class="st8" d="M249.9,200.5c0,2.7,1.9,3.8,4.3,2.5c2.5-1.6,4.1-4.4,4.3-7.4c0-2.7-1.9-3.8-4.3-2.5
		C251.6,194.8,250,197.5,249.9,200.5z"/>
	<path class="st7" d="M185.7,85.7c0,0-2.6-3.9-1-5.2C186.3,79.3,187.5,83.3,185.7,85.7z"/>
	<path class="st7" d="M186.1,86.5c0,0-4.7-0.6-4.6-2.6C181.7,81.9,185.5,83.6,186.1,86.5z"/>
	<path class="st17" d="M185.2,123.7c0,0,3.4,9,11.3,7.9s4.6-7.9,4.6-7.9H185.2z"/>
	<path class="st22" d="M174.7,128.7c0,0,5.2,2.5,4.4,12.9s-4.9,31.5-4.9,31.5s-18.6,7.5-20.4-3.1c-0.4-2.8,4.2-28.2,8.2-33.6
		C165,132.3,169.6,129.5,174.7,128.7z"/>
	<path class="st10" d="M174.7,128.7c0,0,5.2,2.5,4.4,12.9s-4.9,31.5-4.9,31.5s-18.6,7.5-20.4-3.1c-0.4-2.8,4.2-28.2,8.2-33.6
		C165,132.3,169.6,129.5,174.7,128.7z"/>
	<path class="st6" d="M230.1,311.5c0.7,1.1,1.8,1.8,3,2.1c1.1,0.2-1.1-2.8,1.6-3.9s9-2.8,9.5-0.5l0.7,2.9c0.7,2.8,2,5.3,3.8,7.5
		c1.8,2.2,3.9,4.2,6.2,5.9c3.6,2.3,9.4,7.8,1.9,12.6s-16.7,0.7-18.5-4.6s-3.7-6.9-4.7-7.8c-2-1.4-3.5-3.5-4.1-5.9
		c-0.5-2.4-0.8-4.8-1-7.2c-0.1-1,0.4-2,1.2-2.5l0,0L230.1,311.5z"/>
	<path class="st7" d="M256.8,338.1c-7.5,4.7-16.7,0.7-18.5-4.6s-3.7-6.9-4.7-7.8c-1.7-1.2-3-2.9-3.8-4.9c0,0.1,0,0.3,0,0.4
		c0.3,4.6,3.1,5.7,4.1,6.6s2.5,2.4,4.4,7.7s11.3,8.7,18.8,4c3.6-2.3,4.1-4.8,3.3-7C260.6,334.4,259.7,336.3,256.8,338.1z"/>
	<path class="st2" d="M220.8,266.7l-23.9,13.8l-30.2-17.4l24-13.8c0.6-0.4,1.4-0.4,2.1,0l28.1,16.2c0.3,0.2,0.4,0.6,0.2,1
		C221,266.5,220.9,266.6,220.8,266.7z"/>
	<path class="st16" d="M220.8,266.7l-23.9,13.8l-30.2-17.4l24-13.8c0.6-0.4,1.4-0.4,2.1,0l28.1,16.2c0.3,0.2,0.4,0.6,0.2,1
		C221,266.5,220.9,266.6,220.8,266.7z"/>
	<path class="st4" d="M219.1,266.2L196.8,279l-28.1-16.2l22.3-12.9c0.6-0.3,1.3-0.3,1.9,0l26.1,15.1c0.3,0.2,0.4,0.6,0.2,0.9
		C219.3,266,219.2,266.1,219.1,266.2z"/>
	<polygon class="st4" points="196.8,279 196.8,276.5 219.4,263.5 219.4,265.6 	"/>
	<polygon class="st8" points="196.8,279 196.8,276.5 168.7,260.3 168.7,262.8 	"/>
	<path class="st2" d="M220.8,262.7l-23.9,13.8l-30.2-17.4l24-13.8c0.6-0.4,1.4-0.4,2.1,0l28.1,16.3c0.3,0.2,0.4,0.7,0.2,1
		C220.9,262.6,220.8,262.7,220.8,262.7z"/>
	<path class="st14" d="M220.8,262.7l-23.9,13.8l-30.2-17.4l24-13.8c0.6-0.4,1.4-0.4,2.1,0l28.1,16.3c0.3,0.2,0.4,0.7,0.2,1
		C220.9,262.6,220.8,262.7,220.8,262.7z"/>
	<path class="st4" d="M193.7,278.7c-0.1,0.1-0.3,0.1-0.4,0c-0.2-0.1-0.3-0.3-0.3-0.5v-2.3c0-1,0.6-2,1.4-2.5l0.1-0.1
		c0.1-0.1,0.3,0,0.4,0.1c0,0,0,0.1,0,0.1c0,0.3,0.2,0.5,0.5,0.5s0.5-0.2,0.5-0.5c0-0.4-0.2-0.8-0.6-1c-0.4-0.2-0.8-0.2-1.2,0l-0.1,0
		c-1.2,0.7-1.9,2-1.9,3.4v2.3c0,0.5,0.3,1,0.8,1.3c0.2,0.1,0.5,0.2,0.7,0.2c0.3,0,0.6-0.1,0.8-0.2c0.1-0.1,0.2-0.2,0.2-0.3
		L193.7,278.7z"/>
	<path class="st4" d="M189.2,276.1c-0.1,0.1-0.3,0.1-0.4,0c-0.2-0.1-0.3-0.3-0.3-0.5v-2.3c0-1,0.6-2,1.4-2.5h0.1c0.1,0,0.2,0,0.3,0
		c0.1,0,0.1,0.1,0.1,0.2c0,0.3,0.2,0.5,0.5,0.5s0.5-0.2,0.5-0.5c0-0.4-0.2-0.8-0.6-1c-0.4-0.2-0.8-0.2-1.2,0l-0.1,0
		c-1.2,0.7-1.9,2-1.9,3.4v2.3c0,0.5,0.3,1,0.8,1.3c0.2,0.1,0.5,0.2,0.7,0.2c0.3,0,0.6-0.1,0.8-0.2c0.1-0.1,0.2-0.2,0.2-0.3
		L189.2,276.1z"/>
	<path class="st4" d="M184.8,273.5c-0.1,0.1-0.3,0.1-0.4,0c-0.2-0.1-0.3-0.3-0.3-0.5v-2.3c0-1,0.6-2,1.4-2.5l0.1,0
		c0.1,0,0.2,0,0.3,0c0.1,0,0.1,0.1,0.1,0.2c0,0.3,0.2,0.5,0.5,0.5s0.5-0.2,0.5-0.5c0-0.4-0.2-0.8-0.6-1c-0.4-0.2-0.8-0.2-1.2,0
		l-0.1,0c-1.2,0.7-1.9,2-1.9,3.4v2.3c0,0.5,0.3,1,0.8,1.3c0.2,0.1,0.5,0.2,0.7,0.2c0.3,0,0.6-0.1,0.8-0.2c0.1-0.1,0.2-0.2,0.2-0.3
		L184.8,273.5z"/>
	<path class="st4" d="M180.3,270.9c-0.1,0.1-0.3,0.1-0.4,0c-0.2-0.1-0.3-0.3-0.3-0.5v-2.3c0-1,0.6-2,1.4-2.5l0.1,0
		c0.1,0,0.2,0,0.3,0c0.1,0,0.1,0.1,0.1,0.2c0,0.3,0.2,0.5,0.5,0.5s0.5-0.2,0.5-0.5c0-0.4-0.2-0.8-0.6-1c-0.4-0.2-0.8-0.2-1.2,0
		l-0.1,0c-1.2,0.7-1.9,2-1.9,3.4v2.3c0,0.5,0.3,1,0.8,1.3c0.2,0.1,0.5,0.2,0.7,0.2c0.3,0,0.6-0.1,0.8-0.2c0.1-0.1,0.2-0.2,0.2-0.3
		L180.3,270.9z"/>
	<path class="st4" d="M175.8,268.4c-0.1,0.1-0.3,0.1-0.4,0c-0.2-0.1-0.3-0.3-0.3-0.5v-2.3c0-1,0.6-2,1.4-2.5h0.1c0.1,0,0.2,0,0.3,0
		c0.1,0,0.1,0.1,0.1,0.2c0,0.3,0.2,0.5,0.5,0.5s0.5-0.2,0.5-0.5c0-0.4-0.2-0.8-0.6-1c-0.4-0.2-0.8-0.2-1.2,0l-0.1,0
		c-1.2,0.7-1.9,2-1.9,3.4v2.3c0,0.5,0.3,1,0.8,1.3c0.2,0.1,0.5,0.2,0.7,0.2c0.3,0,0.6-0.1,0.8-0.2c0.1-0.1,0.2-0.2,0.2-0.3
		L175.8,268.4z"/>
	<path class="st4" d="M171.4,265.8c-0.1,0.1-0.3,0.1-0.4,0c-0.2-0.1-0.3-0.3-0.3-0.5V263c0-1,0.6-2,1.4-2.5l0.1,0c0.1,0,0.2,0,0.3,0
		c0.1,0,0.1,0.1,0.1,0.2c0,0.3,0.2,0.5,0.5,0.5s0.5-0.2,0.5-0.5c0-0.7-0.6-1.2-1.3-1.2c-0.2,0-0.4,0.1-0.5,0.2l-0.1,0.1
		c-1.2,0.7-1.9,2-1.9,3.4v2.3c0,0.5,0.3,1,0.8,1.3c0.2,0.1,0.5,0.2,0.7,0.2c0.3,0,0.6-0.1,0.8-0.2c0.1-0.1,0.2-0.2,0.2-0.3
		L171.4,265.8z"/>
	<polygon class="st1" points="223.9,256.5 198,271.4 164.3,252 190.2,237 	"/>
	<polygon class="st11" points="225.3,256 198.3,268.7 166.4,246.5 193.4,233.8 	"/>
	<path class="st19" d="M165,216.3h-21.9l2,23.2l0,0c0.3,1.5,1.2,2.8,2.6,3.4c4,2,8.8,2,12.8,0c1.4-0.6,2.4-1.9,2.6-3.4l0,0
		L165,216.3z"/>
	<path class="st8" d="M166.4,215v-1.8H166c-0.7-1.4-1.8-2.5-3.2-3.2c-4.8-2.8-12.7-2.8-17.5,0c-1.4,0.7-2.5,1.8-3.2,3.2h-0.4v1.9
		c0,1.8,1.2,3.6,3.6,5c4.8,2.8,12.7,2.8,17.5,0C165.2,218.7,166.4,216.8,166.4,215z"/>
	<path class="st12" d="M162.8,218.3c-4.8,2.8-12.7,2.8-17.5,0s-4.8-7.3,0-10.1s12.7-2.8,17.5,0S167.6,215.5,162.8,218.3z"/>
	<path class="st8" d="M163.9,212.5v-1.5h-0.4c-0.6-1.1-1.5-2-2.6-2.6c-4.4-2.2-9.6-2.2-14,0c-1.1,0.6-2,1.5-2.6,2.6h-0.4v1.5
		c0,1.5,1,2.9,2.9,4c4.4,2.2,9.6,2.2,14,0C163,215.4,163.9,214,163.9,212.5z"/>
	<path class="st23" d="M161,215.2c-4.4,2.2-9.6,2.2-14,0c-3.9-2.2-3.9-5.9,0-8.1c4.4-2.2,9.6-2.2,14,0
		C164.9,209.3,164.9,212.9,161,215.2z"/>
	<path class="st24" d="M159.4,214c-3.4,1.7-7.4,1.7-10.8,0c-2.9-1.7-3-4.3-0.3-6c0.1-0.1,0.2-0.1,0.3-0.2c0.7-0.4,1.4-0.7,2.1-0.9
		c2.9-0.8,6-0.5,8.7,0.9C162.4,209.5,162.4,212.3,159.4,214z"/>
	<path class="st8" d="M148.6,208.6c3.4-1.7,7.4-1.7,10.8,0c1.1,0.5,1.9,1.5,2.2,2.7c0.2-1.3-0.5-2.6-2.2-3.6
		c-3.4-1.7-7.4-1.7-10.8,0c-1.7,1-2.4,2.3-2.2,3.6C146.7,210.1,147.5,209.2,148.6,208.6z"/>
	<path class="st8" d="M152.7,208.9l-2.2,1.4l-2.2-1.6v-0.9c0.1-0.1,0.2-0.1,0.3-0.2c0.7-0.4,1.4-0.7,2.1-0.9v0.6L152.7,208.9z"/>
</g>
<g id="Screen">
	<path class="st25" d="M248.5-2.6"/>
	<path class="st26" d="M413.4,72.5L288.9,0.6c-1.1-0.8-2.5-0.8-3.6,0l-4.3,3l2.9,3.6v100.4c0,3.7,2.2,8,5,9.5l123.2,71.2l0.2,3.9
		l4.5-3.1c1.1-1,1.6-2.4,1.5-3.9V82C418.4,78.3,416.1,74.1,413.4,72.5z"/>
	<path class="st27" d="M413.4,72.5L288.9,0.6c-1.1-0.8-2.5-0.8-3.6,0l-4.3,3l2.9,3.6v100.4c0,3.7,2.2,8,5,9.5l123.2,71.2l0.2,3.9
		l4.5-3.1c1.1-1,1.6-2.4,1.5-3.9V82C418.4,78.3,416.1,74.1,413.4,72.5z"/>
	<path class="st26" d="M409.1,191.9l-124.5-71.9c-2.8-1.6-5-5.9-5-9.5V7.3c0-3.7,2.2-5.4,5-3.8l124.5,71.9c2.8,1.6,5,5.9,5,9.5
		v103.2C414.1,191.8,411.9,193.5,409.1,191.9z"/>
	<path class="st28" d="M409.1,191.9l-124.5-71.9c-2.8-1.6-5-5.9-5-9.5V7.3c0-3.7,2.2-5.4,5-3.8l124.5,71.9c2.8,1.6,5,5.9,5,9.5
		v103.2C414.1,191.8,411.9,193.5,409.1,191.9z"/>
	<path class="st6" d="M409.1,75.4L284.6,3.5c-2.8-1.6-5,0.1-5,3.8v5l134.5,77.6v-5C414.1,81.2,411.9,77,409.1,75.4z"/>
	<path class="st2" d="M282.7,3.9L282.7,3.9c0.5,0,1,0.2,1.5,0.5l124.5,71.9c2.4,1.4,4.5,5.4,4.5,8.7v103.2c0,2-0.8,3.4-2,3.4
		c-0.5,0-1-0.2-1.5-0.5l-124.5-71.9c-2.4-1.4-4.5-5.4-4.5-8.7V7.3C280.7,5.2,281.4,3.9,282.7,3.9 M282.7,2.9c-1.8,0-3,1.6-3,4.4
		v103.2c0,3.7,2.2,7.9,5,9.5l124.5,71.9c0.6,0.4,1.3,0.6,2,0.6c1.8,0,3-1.6,3-4.4V84.9c0-3.7-2.2-8-5-9.5L284.6,3.5
		C284,3.1,283.3,2.9,282.7,2.9L282.7,2.9z"/>
	<path class="st4" d="M337.4,57.5c-0.2,0-0.4,0-0.5-0.1l-47.4-27.3c-0.5-0.3-0.6-1-0.3-1.5c0.3-0.4,0.9-0.6,1.3-0.4l47.4,27.4
		c0.5,0.3,0.7,0.9,0.5,1.4C338.2,57.4,337.8,57.6,337.4,57.5L337.4,57.5z"/>
	<path class="st4" d="M404,96.1c-0.2,0-0.4-0.1-0.5-0.1l-35.1-20.3c-0.5-0.3-0.7-0.9-0.4-1.4c0.3-0.5,0.9-0.7,1.4-0.4l35.1,20.3
		c0.5,0.3,0.7,0.9,0.5,1.4C404.8,95.9,404.4,96.1,404,96.1L404,96.1z"/>
	<path class="st4" d="M361.3,71.4c-0.2,0-0.4-0.1-0.5-0.1L346.5,63c-0.5-0.3-0.7-0.9-0.5-1.4s0.9-0.7,1.4-0.5c0,0,0.1,0,0.1,0.1
		l14.3,8.2c0.5,0.3,0.7,0.9,0.5,1.4C362.1,71.2,361.7,71.4,361.3,71.4L361.3,71.4z"/>
	<path class="st4" d="M337.4,123.9c-0.2,0-0.4,0-0.5-0.1l-47.4-27.4c-0.5-0.3-0.6-1-0.3-1.5c0.3-0.4,0.9-0.6,1.3-0.4l47.4,27.4
		c0.5,0.3,0.7,0.9,0.4,1.4C338.1,123.7,337.7,123.9,337.4,123.9z"/>
	<path class="st4" d="M404,162.4c-0.2,0-0.4,0-0.5-0.1L368.4,142c-0.5-0.3-0.7-0.9-0.4-1.4c0.3-0.5,0.9-0.7,1.4-0.4l35.1,20.3
		c0.5,0.3,0.7,0.9,0.4,1.4C404.8,162.2,404.4,162.4,404,162.4z"/>
	<path class="st4" d="M361.3,137.8c-0.2,0-0.4,0-0.5-0.1l-14.3-8.2c-0.5-0.3-0.7-0.9-0.5-1.4s0.9-0.7,1.4-0.5c0,0,0.1,0,0.1,0.1
		l14.3,8.2c0.5,0.3,0.7,0.9,0.4,1.4C362,137.5,361.7,137.7,361.3,137.8z"/>
	<path class="st4" d="M337.4,139.5c-0.2,0-0.4,0-0.5-0.1L289.4,112c-0.5-0.3-0.7-0.9-0.4-1.4c0.3-0.5,0.9-0.7,1.4-0.4l47.4,27.3
		c0.5,0.3,0.7,0.9,0.5,1.4C338.2,139.3,337.8,139.5,337.4,139.5L337.4,139.5z"/>
	<path class="st4" d="M389.1,169.4c-0.2,0-0.4,0-0.5-0.1l-20.2-11.6c-0.5-0.3-0.7-0.9-0.5-1.4s0.9-0.7,1.4-0.5c0,0,0.1,0,0.1,0.1
		l20.2,11.6c0.5,0.3,0.7,0.9,0.4,1.4c0,0,0,0,0,0C389.8,169.2,389.5,169.4,389.1,169.4z"/>
	<path class="st4" d="M361.3,153.4c-0.2,0-0.4-0.1-0.5-0.1l-14.3-8.2c-0.5-0.3-0.7-0.9-0.4-1.4c0.3-0.5,0.9-0.7,1.4-0.4l0,0
		l14.3,8.2c0.5,0.3,0.7,0.9,0.5,1.4C362.1,153.2,361.7,153.4,361.3,153.4L361.3,153.4z"/>
	<path class="st4" d="M313.7,52.2c-0.2,0-0.4-0.1-0.5-0.2l-23.8-13.7c-0.4-0.4-0.5-1.1-0.1-1.5c0.3-0.3,0.7-0.4,1.1-0.3l23.8,13.7
		c0.5,0.3,0.7,0.9,0.4,1.4C314.5,52,314.1,52.2,313.7,52.2z"/>
	<path class="st4" d="M382.2,91.7c-0.2,0-0.4-0.1-0.5-0.1l-35.1-20.3c-0.5-0.3-0.7-0.9-0.5-1.4c0.3-0.5,0.9-0.7,1.4-0.5
		c0,0,0.1,0,0.1,0.1l35.1,20.3c0.5,0.3,0.7,0.9,0.5,1.4C382.9,91.5,382.5,91.7,382.2,91.7L382.2,91.7z"/>
	<path class="st4" d="M337.7,66c-0.2,0-0.4,0-0.5-0.1l-14.3-8.2c-0.5-0.3-0.7-0.9-0.4-1.4c0.3-0.5,0.9-0.7,1.4-0.4l0,0l14.3,8.2
		c0.5,0.3,0.7,0.9,0.4,1.4C338.4,65.8,338.1,66,337.7,66z"/>
	<path class="st4" d="M337.4,74.1c-0.2,0-0.4-0.1-0.5-0.1l-47.4-27.4c-0.4-0.4-0.5-1-0.1-1.5c0.3-0.3,0.8-0.5,1.2-0.3l47.4,27.4
		c0.5,0.3,0.7,0.9,0.4,1.4C338.1,73.9,337.7,74.1,337.4,74.1z"/>
	<path class="st4" d="M378.3,97.7c-0.2,0-0.4,0-0.5-0.1l-9.4-5.4c-0.5-0.3-0.7-0.9-0.5-1.4s0.9-0.7,1.4-0.5c0,0,0.1,0,0.1,0.1
		l9.4,5.4c0.5,0.3,0.7,0.9,0.4,1.4C379,97.5,378.7,97.7,378.3,97.7z"/>
	<path class="st4" d="M318.4,71.4c-0.2,0-0.4-0.1-0.5-0.1l-9.4-5.4c-0.5-0.3-0.7-0.9-0.4-1.4c0.3-0.5,0.9-0.7,1.4-0.4l9.4,5.4
		c0.5,0.3,0.7,0.9,0.5,1.4C319.2,71.2,318.8,71.4,318.4,71.4L318.4,71.4z"/>
	<path class="st4" d="M361.3,87.9c-0.2,0-0.4-0.1-0.5-0.1l-14.3-8.2c-0.5-0.3-0.7-0.9-0.4-1.4c0.3-0.5,0.9-0.7,1.4-0.4l0,0l14.3,8.2
		c0.5,0.3,0.7,0.9,0.5,1.4C362.1,87.7,361.7,87.9,361.3,87.9L361.3,87.9z"/>
	<path class="st4" d="M305.2,63.7c-0.2,0-0.4,0-0.5-0.1l-15.2-8.8c-0.5-0.3-0.6-1-0.3-1.5c0.3-0.4,0.9-0.6,1.3-0.4l15.2,8.8
		c0.5,0.2,0.8,0.9,0.5,1.4C306,63.5,305.6,63.8,305.2,63.7L305.2,63.7z"/>
	<path class="st4" d="M337.7,82.5c-0.2,0-0.4,0-0.5-0.1l-14.3-8.3c-0.5-0.3-0.7-0.9-0.5-1.4c0.3-0.5,0.9-0.7,1.4-0.5
		c0,0,0.1,0,0.1,0.1l14.3,8.2c0.5,0.3,0.7,0.9,0.5,1.4C338.5,82.3,338.1,82.5,337.7,82.5z"/>
	<path class="st4" d="M337.4,91.2c-0.2,0-0.4,0-0.5-0.1l-47.4-27.4c-0.5-0.3-0.6-1-0.3-1.5c0.3-0.4,0.9-0.6,1.3-0.4l47.4,27.4
		c0.5,0.3,0.7,0.9,0.4,1.4C338.1,91,337.7,91.2,337.4,91.2z"/>
	<path class="st4" d="M404,129.6c-0.2,0-0.4,0-0.5-0.1l-35.1-20.3c-0.5-0.3-0.7-0.9-0.4-1.4c0.3-0.5,0.9-0.7,1.4-0.4l35.1,20.3
		c0.5,0.3,0.7,0.9,0.4,1.4C404.8,129.4,404.4,129.6,404,129.6z"/>
	<path class="st4" d="M361.3,105c-0.2,0-0.4,0-0.5-0.1l-14.3-8.2c-0.5-0.3-0.7-0.9-0.5-1.4s0.9-0.7,1.4-0.5c0,0,0.1,0,0.1,0.1
		l14.3,8.2c0.5,0.3,0.7,0.9,0.4,1.4C362,104.8,361.7,105,361.3,105z"/>
	<path class="st4" d="M313.7,85.8c-0.2,0-0.4,0-0.5-0.1l-23.8-13.7c-0.5-0.3-0.7-0.9-0.4-1.4c0.3-0.5,0.9-0.7,1.4-0.4l23.8,13.7
		c0.5,0.3,0.7,0.9,0.5,1.4C314.5,85.6,314.1,85.8,313.7,85.8L313.7,85.8z"/>
	<path class="st4" d="M382.2,125.3c-0.2,0-0.4-0.1-0.5-0.1l-35.1-20.3c-0.5-0.3-0.7-0.9-0.4-1.4c0.3-0.5,0.9-0.7,1.4-0.4l35.1,20.3
		c0.5,0.3,0.7,0.9,0.5,1.4C382.9,125.1,382.5,125.3,382.2,125.3L382.2,125.3z"/>
	<path class="st4" d="M337.7,99.6c-0.2,0-0.4-0.1-0.5-0.1l-14.3-8.2c-0.5-0.3-0.7-0.9-0.5-1.4s0.9-0.7,1.4-0.5c0,0,0.1,0,0.1,0.1
		l14.3,8.2c0.5,0.3,0.7,0.9,0.4,1.4C338.4,99.4,338.1,99.6,337.7,99.6z"/>
	<path class="st4" d="M337.4,107.6c-0.2,0-0.4,0-0.5-0.1l-47.4-27.4c-0.5-0.3-0.7-0.9-0.4-1.4c0.3-0.5,0.9-0.7,1.4-0.4c0,0,0,0,0,0
		l47.4,27.4c0.5,0.3,0.7,0.9,0.5,1.4C338.2,107.5,337.8,107.7,337.4,107.6L337.4,107.6z"/>
	<path class="st4" d="M378.3,131.3c-0.2,0-0.4-0.1-0.5-0.1l-9.4-5.4c-0.5-0.3-0.7-0.9-0.5-1.4s0.9-0.7,1.4-0.5c0,0,0.1,0,0.1,0.1
		l9.4,5.4c0.5,0.3,0.7,0.9,0.5,1.4C379.1,131.1,378.7,131.3,378.3,131.3L378.3,131.3z"/>
	<path class="st4" d="M318.4,104.9c-0.2,0-0.4-0.1-0.5-0.1l-9.4-5.4c-0.5-0.3-0.7-0.9-0.4-1.4c0.3-0.5,0.9-0.7,1.4-0.4l9.4,5.4
		c0.5,0.3,0.7,0.9,0.5,1.4C319.2,104.8,318.8,105,318.4,104.9L318.4,104.9z"/>
	<path class="st4" d="M361.3,121.5c-0.2,0-0.4-0.1-0.5-0.1l-14.3-8.3c-0.5-0.3-0.7-0.9-0.4-1.4c0.3-0.5,0.9-0.7,1.4-0.4l14.3,8.2
		c0.5,0.3,0.7,0.9,0.5,1.4C362.1,121.3,361.7,121.5,361.3,121.5z"/>
	<path class="st4" d="M305.2,97.3c-0.2,0-0.4,0-0.5-0.1l-15.2-8.8c-0.5-0.3-0.7-0.9-0.4-1.5s0.9-0.7,1.5-0.4l15.2,8.8
		c0.5,0.3,0.7,0.9,0.5,1.4C306,97.1,305.6,97.3,305.2,97.3L305.2,97.3z"/>
	<path class="st4" d="M337.7,116.1c-0.2,0-0.4,0-0.5-0.1l-14.3-8.2c-0.5-0.3-0.7-0.9-0.4-1.4c0.3-0.5,0.9-0.7,1.4-0.4l0,0l14.3,8.2
		c0.5,0.3,0.7,0.9,0.5,1.4C338.5,115.9,338.1,116.1,337.7,116.1L337.7,116.1z"/>
	<path class="st4" d="M318.4,120.8c-0.2,0-0.4,0-0.5-0.1l-9.4-5.4c-0.5-0.3-0.7-0.9-0.5-1.4s0.9-0.7,1.4-0.5c0,0,0.1,0,0.1,0.1
		l9.4,5.4c0.5,0.2,0.8,0.9,0.5,1.4C319.3,120.6,318.8,120.8,318.4,120.8L318.4,120.8z"/>
	<path class="st4" d="M305.2,113.1c-0.2,0-0.4-0.1-0.5-0.1l-15.2-8.8c-0.5-0.3-0.7-0.9-0.4-1.4c0.3-0.5,0.9-0.7,1.4-0.4l15.2,8.8
		c0.5,0.3,0.7,0.9,0.5,1.4C306,112.9,305.6,113.1,305.2,113.1L305.2,113.1z"/>
	<path class="st4" d="M337.7,131.9c-0.2,0-0.4-0.1-0.5-0.1l-14.3-8.2c-0.5-0.3-0.7-0.9-0.4-1.4c0.3-0.5,0.9-0.7,1.4-0.4l14.3,8.2
		c0.5,0.3,0.7,0.9,0.4,1.4C338.4,131.7,338.1,131.9,337.7,131.9z"/>
	<path class="st7" d="M299.4,40.4v38.3c0,0.6-0.2,1-0.6,1.2l0,0l-1.5,0.8v-1.3l-0.2-39.4l1.9-1C299.2,39.4,299.3,39.9,299.4,40.4z"
		/>
	<path class="st5" d="M299,39l-1.9,1l-46.5-27.3l-1.1-0.6l1.5-0.9h0l0,0c0.3-0.2,0.6-0.1,0.9,0.1l46,26.5
		C298.4,38,298.8,38.5,299,39z"/>
	<path class="st6" d="M297.7,41.2v38.1c0,0.4-0.1,0.8-0.4,1.1h-0.1c-0.3,0.1-0.6,0.1-0.9-0.1l-45.7-26.3c-0.9-0.6-1.4-1.6-1.4-2.6
		v-38c0-0.4,0.1-0.8,0.4-1.1c0,0,0.1-0.1,0.1-0.1c0.3-0.1,0.6-0.1,0.8,0.1l45.7,26.3c0.4,0.3,0.8,0.7,1,1.2
		C297.5,40.2,297.7,40.7,297.7,41.2z"/>
	<g>
		<g class="st29">
			<path class="st11" d="M278.6,54.7l8.9,0.9v0.2l-8.9-9.4v-0.6l9.2,9.7v0.6l-9.2-0.9V54.7z"/>
			<path class="st11" d="M276.9,61.2l-7.4-28.6l0.4,0.3l7.4,28.6L276.9,61.2z"/>
			<path class="st11" d="M259.3,39.8v-0.6l9.2,0.9v0.6l-8.9-0.9v-0.2l8.9,9.4v0.6L259.3,39.8z"/>
		</g>
	</g>
	<path class="st5" d="M249.9,12.2c0.1,0,0.3,0,0.4,0.1l46,26.5c0.4,0.3,0.7,0.6,0.9,1.1c0.2,0.4,0.3,0.9,0.3,1.3v38.3
		c0,0.3-0.1,0.6-0.3,0.9h-0.1c-0.1,0-0.1,0-0.2,0c-0.1,0-0.3-0.1-0.4-0.1l-46-26.5c-0.8-0.6-1.2-1.5-1.3-2.4V13.1
		c0-0.3,0.1-0.6,0.3-0.9h0.1C249.7,12.2,249.8,12.2,249.9,12.2 M249.9,12c-0.1,0-0.2,0-0.3,0.1l-0.1,0.1c-0.3,0.3-0.5,0.7-0.4,1.1
		v38.2c0,1.1,0.5,2,1.4,2.7l46,26.5c0.2,0.1,0.3,0.2,0.5,0.2c0.1,0,0.2,0,0.3-0.1l0.1-0.1c0.3-0.3,0.5-0.7,0.4-1.1V41.2
		c0-0.5-0.1-1-0.4-1.4c-0.2-0.5-0.6-0.9-1-1.2l-46-26.5C250.3,12,250.1,11.9,249.9,12L249.9,12z"/>
	<path class="st4" d="M292,13.2c0,1.1-0.8,1.5-1.7,1c-1-0.7-1.7-1.8-1.7-3c0-1.1,0.8-1.5,1.7-1C291.3,10.8,291.9,11.9,292,13.2z"/>
	<path class="st4" d="M298.3,17.1c0,1.1-0.8,1.5-1.7,1c-1-0.7-1.7-1.8-1.7-3c0-1.1,0.8-1.5,1.7-1C297.6,14.7,298.3,15.9,298.3,17.1z
		"/>
	<path class="st4" d="M304.7,21c0,1.1-0.8,1.5-1.7,1c-1-0.7-1.7-1.8-1.7-3c0-1.1,0.8-1.5,1.7-1C304,18.7,304.6,19.8,304.7,21z"/>
</g>
</svg>
