<svg id="Layer_1" data-name="Layer 1" xmlns="http://www.w3.org/2000/svg" viewBox="0 0 254.31 256"><defs><style>.cls-1{fill:#ffe67b;}.cls-2{fill:#e2ac00;}.cls-3{fill:#ffce00;}</style></defs><path class="cls-1" d="M70.53,69.7,54,53.15l.07,119.6.2,5.59A39.45,39.45,0,0,0,55.64,187l131.1,46.23,32.78-14.52v0l-149-149" transform="translate(-0.85 0)"/><path class="cls-2" d="M55.64,187h0a.85.85,0,0,1,0-.17.41.41,0,0,0,0,.16Zm163.88,31.71-32.78,14.52L55.65,187c2.5,9.61,8.05,20.41,14,26.32l42.79,42.54,95.13.12,11.95-37.32v0Z" transform="translate(-0.85 0)"/><path class="cls-3" d="M3,130.12C-1.2,134.64.9,144,7.72,150.84L37.14,180.5,55.64,187a39.45,39.45,0,0,1-1.38-8.67l-.2-5.59L54,53.15Z" transform="translate(-0.85 0)"/><path class="cls-3" d="M187.82,54.69a40.54,40.54,0,0,0-8.7-1.36l-5.91-.2H54L219.54,218.68h0l14.54-32.8L187.82,54.69" transform="translate(-0.85 0)"/><path class="cls-2" d="M187.67,54.65a.53.53,0,0,0,.16,0h0l-.15,0Zm26.45,14.08c-6-6.06-16.67-11.56-26.29-14L234.1,185.88l-14.54,32.8h0l35.54-11.34.07-97.42-41-41.19Z" transform="translate(-0.85 0)"/><path class="cls-1" d="M181.34,36.3,151.68,6.86C144.83.07,135.49-2,131,2.18l-77,51H173.21l5.91.2a40.54,40.54,0,0,1,8.7,1.36L181.34,36.3Z" transform="translate(-0.85 0)"/></svg>