<svg id="Layer_1" data-name="Layer 1" xmlns="http://www.w3.org/2000/svg" viewBox="0 0 224.05 218.78"><title>figma</title><g id="Layer_2" data-name="Layer 2"><g id="Surfaces"><g id="Photo_Surface" data-name="Photo Surface"><g id="Outline_no_shadow" data-name="Outline no shadow"><path d="M51.85,14.11h136.3a37.35,37.35,0,0,1,37.38,37.38v131a37.35,37.35,0,0,1-37.38,37.38H51.85a37.35,37.35,0,0,1-37.38-37.38v-131A37.35,37.35,0,0,1,51.85,14.11Z" transform="translate(-7.97 -7.61)" style="fill:none;stroke:#fd73ff;stroke-miterlimit:10;stroke-width:13px"/></g></g></g></g><path d="M99.84,51A25.86,25.86,0,0,0,83.37,97a25.79,25.79,0,0,0,0,40.1,26,26,0,1,0,42.5,20V138.65A26.07,26.07,0,0,0,166.2,117a25.79,25.79,0,0,0-9.57-20A25.86,25.86,0,0,0,140.16,51ZM85.55,76.89A14.26,14.26,0,0,1,99.84,62.68h14.28V91.11H99.84A14.26,14.26,0,0,1,85.55,76.89Zm68.9,0a14.26,14.26,0,0,1-14.29,14.22H125.88V62.68h14.28A14.26,14.26,0,0,1,154.45,76.89ZM85.55,117a14.26,14.26,0,0,1,14.29-14.21h14.28v28.42H99.69A14.26,14.26,0,0,1,85.55,117Zm40.33,0a14.29,14.29,0,1,1,14.28,14.21A14.25,14.25,0,0,1,125.88,117ZM85.55,157.1a14.24,14.24,0,0,1,14.14-14.2h14.43v14.2a14.29,14.29,0,0,1-28.57,0Z" transform="translate(-7.97 -7.61)" style="fill:#fd73ff;fill-rule:evenodd"/></svg>