<?xml version="1.0" encoding="utf-8"?>
<!-- Generator: Adobe Illustrator 23.0.1, SVG Export Plug-In . SVG Version: 6.00 Build 0)  -->
<svg version="1.1" id="Layer_1" xmlns="http://www.w3.org/2000/svg" xmlns:xlink="http://www.w3.org/1999/xlink" x="0px" y="0px"
	 viewBox="0 0 325.6 374" style="enable-background:new 0 0 325.6 374;" xml:space="preserve">
<style type="text/css">
	.st0{fill:#FFF55A;}
	.st1{fill:#FFCE00;}
</style>
<title>firebase</title>
<path class="st0" d="M43,241.2L77.9,16.6c1.2-7.6,11.4-9.4,15-2.5l37.6,70.4L43,241.2z M291,295.8L257.8,89.1
	c-0.8-4.4-4.9-7.3-9.3-6.5c-1.6,0.3-3.1,1-4.3,2.2l-209.6,211l116,65.4c7.3,4.1,16.1,4.1,23.4,0L291,295.8z M196.7,115.4L169.9,64
	c-2-3.9-6.8-5.4-10.7-3.4c-1.5,0.8-2.7,2-3.4,3.4l-118,211.4L196.7,115.4z"/>
<path class="st1" d="M196.7,115.4L169.9,64c-2-3.9-6.8-5.4-10.7-3.4c-1.5,0.8-2.7,2-3.4,3.4l-118,211.4L196.7,115.4z"/>
</svg>
