<svg id="Layer_1" data-name="Layer 1" xmlns="http://www.w3.org/2000/svg" xmlns:xlink="http://www.w3.org/1999/xlink" viewBox="0 0 1655.12 2048.57"><defs><style>.cls-1{fill:#ffce00;fill-opacity:0.8;}.cls-2{fill:#ffc200;}.cls-3{fill:#eabd00;}.cls-4{fill:url(#linear-gradient);}.cls-5{fill:url(#linear-gradient-2);}</style><linearGradient id="linear-gradient" x1="-1514.55" y1="-308.74" x2="-1514.55" y2="-307.91" gradientTransform="matrix(380.4, -380.42, 53.1, 53.1, 593654.54, -557900.13)" gradientUnits="userSpaceOnUse"><stop offset="0.2" stop-opacity="0.15"/><stop offset="0.85" stop-color="#616161" stop-opacity="0.01"/></linearGradient><linearGradient id="linear-gradient-2" x1="-1516.32" y1="-311.9" x2="-1515.49" y2="-311.9" gradientTransform="translate(858119.64 120686.8) scale(565.29 380.96)" gradientUnits="userSpaceOnUse"><stop offset="0.2" stop-opacity="0.55"/><stop offset="0.85" stop-color="#616161" stop-opacity="0.01"/></linearGradient></defs><path class="cls-1" d="M487.4,1552.48,171.94,1237,1196.23,212.81h630.83m0,945.14H1196.23l-236.31,236.3,315.46,315.46" transform="translate(-171.94 -212.81)"/><path class="cls-2" d="M959.92,2025.08l236.31,236.31h630.83l-551.68-551.68" transform="translate(-171.94 -212.81)"/><path class="cls-3" d="M645.21,1709.87l315-315,315,315-315,315Z" transform="translate(-171.94 -212.81)"/><path class="cls-4" d="M960.17,2024.83l315-315,44,44-315,315Z" transform="translate(-171.94 -212.81)"/><path class="cls-5" d="M959.92,2025.08,1428,1863.38l-152.6-153.76" transform="translate(-171.94 -212.81)"/></svg>