<?xml version="1.0" encoding="utf-8"?>
<!-- Generator: Adobe Illustrator 23.0.1, SVG Export Plug-In . SVG Version: 6.00 Build 0)  -->
<svg version="1.1" id="Layer_1" xmlns="http://www.w3.org/2000/svg" xmlns:xlink="http://www.w3.org/1999/xlink" x="0px" y="0px"
	 viewBox="0 0 707.8 577.4" style="enable-background:new 0 0 707.8 577.4;" xml:space="preserve">
<style type="text/css">
	.st0{opacity:0.42;fill:#FFFF00;}
	.st1{fill:#FFFFFF;}
	.st2{fill:#E6E6E6;}
	.st3{fill:#37474F;}
	.st4{fill:#455A64;}
	.st5{fill:#27DEBF;}
	.st6{opacity:0.6;enable-background:new    ;}
	.st7{opacity:0.5;enable-background:new    ;}
	.st8{fill:#FFFF00;}
	.st9{opacity:0.4;enable-background:new    ;}
	.st10{opacity:0.15;enable-background:new    ;}
	.st11{fill:#263238;}
	.st12{fill:#E0E0E0;}
	.st13{fill:#F5F5F5;}
	.st14{fill:#EBEBEB;}
	.st15{opacity:0.5;fill:#FFFFFF;enable-background:new    ;}
	.st16{opacity:0.3;enable-background:new    ;}
	.st17{opacity:0.5;}
	.st18{opacity:0.9;fill:#263238;enable-background:new    ;}
	.st19{opacity:0.6;fill:#FFFFFF;enable-background:new    ;}
	.st20{opacity:0.6;}
	.st21{opacity:0.8;fill:#FFFFFF;enable-background:new    ;}
	.st22{opacity:0.8;}
	.st23{opacity:0.9;}
	.st24{opacity:0.6;fill:#27DEBF;enable-background:new    ;}
	.st25{opacity:0.7;}
	.st26{opacity:0.3;}
	.st27{opacity:0.25;}
	.st28{opacity:0.1;enable-background:new    ;}
	.st29{fill:#934D26;}
	.st30{fill:#FAFAFA;}
	.st31{opacity:0.4;}
	.st32{fill:none;stroke:#263238;stroke-width:1.21;stroke-miterlimit:10;}
	.st33{fill:#905E42;}
	.st34{fill:none;stroke:#263238;stroke-width:1.03;stroke-miterlimit:10;}
	.st35{opacity:0.75;fill:#FFFFFF;enable-background:new    ;}
	.st36{opacity:0.1;fill:#27DEBF;enable-background:new    ;}
	.st37{opacity:0.2;enable-background:new    ;}
	.st38{fill:#F0F0F0;}
	.st39{fill:#DADADA;}
</style>
<g id="Group_60" transform="translate(-606.235 -1795.819)">
	<path id="code" class="st0" d="M1057,1812.3c18.4,7.1,27.8,28.5,21.2,47.9l-169.5,491.5c-6.7,19.4-27,29.4-45.4,22.3
		c-18.4-7.1-27.8-28.5-21.2-47.9l169.5-491.5C1018.3,1815.2,1038.6,1805.2,1057,1812.3z M691.7,2102.2l125.1,132.1
		c13.8,14.9,13.8,37.9,0,52.8c-12.8,13.8-34.4,14.7-48.2,1.9c-0.6-0.6-1.3-1.2-1.9-1.9l-150.2-158.5c-13.8-14.9-13.8-37.9,0-52.8
		l150.2-158.5c12.8-13.8,34.3-14.7,48.2-1.9c0.7,0.6,1.3,1.2,1.9,1.9c13.8,14.9,13.8,37.9,0,52.8L691.7,2102.2z M1228.6,2102.2
		l-125.1-132.1c-13.8-14.9-13.8-37.9,0-52.8c12.8-13.8,34.3-14.7,48.2-1.9c0.7,0.6,1.3,1.2,1.9,1.9l150.2,158.5
		c13.8,14.9,13.8,37.9,0,52.8l-150.2,158.5c-12.8,13.8-34.4,14.7-48.2,1.9c-0.6-0.6-1.3-1.2-1.9-1.9c-13.8-14.9-13.8-37.9,0-52.8
		L1228.6,2102.2z"/>
	<g id="programmer" transform="translate(740.852 1795.819)">
		<g id="Floor" transform="translate(0 209.586)">
			<ellipse id="Floor-2" class="st1" cx="219.3" cy="124.4" rx="219.3" ry="121.4"/>
		</g>
		<g id="Shadows" transform="matrix(1, -0.017, 0.017, 1, 57.337, 211.301)">
			<path id="Shadow" class="st2" d="M357.4,107.1l-122.2,70.6c-1,0.5-2.2,0.5-3.3,0L55.7,75.9c-0.5-0.2-0.8-0.7-0.6-1.3
				c0.1-0.3,0.3-0.5,0.6-0.6L177.9,3.4c1-0.5,2.3-0.5,3.3,0l176.2,101.8c0.5,0.2,0.8,0.7,0.6,1.3C358,106.7,357.7,107,357.4,107.1z"
				/>
			
				<ellipse id="Shadow-2" transform="matrix(-1 5.071478e-06 -5.071478e-06 -1 146.6794 349.514)" class="st2" cx="73.3" cy="174.8" rx="73.4" ry="42.4"/>
			
				<ellipse id="Shadow-3" transform="matrix(-1 5.071478e-06 -5.071478e-06 -1 325.5272 251.3334)" class="st2" cx="162.8" cy="125.7" rx="57.8" ry="33.4"/>
			
				<ellipse id="Shadow-4" transform="matrix(-1 5.161986e-06 -5.161986e-06 -1 582.6514 340.6088)" class="st2" cx="291.3" cy="170.3" rx="36.3" ry="20.9"/>
		</g>
		<g id="Desk" transform="translate(127.267 12.8)">
			<g id="Desk-2" transform="translate(0)">
				<g id="Table" transform="translate(0 88.556)">
					<path id="Path_10" class="st3" d="M169.8,158.3v108.5c0,0.8-0.5,1.5-1.1,1.9l-2.3,1.3c-0.7,0.3-1.5,0.3-2.2,0l-2.3-1.3
						c-0.6-0.4-1.1-1.1-1.1-1.9V158.3c0-0.7,0.5-1,1.1-0.6l2.3,1.3c0.7,0.3,1.5,0.3,2.2,0l2.3-1.3
						C169.3,157.4,169.8,157.6,169.8,158.3z"/>
					<path id="Path_11" class="st4" d="M164.2,270.1l-2.3-1.3c-0.6-0.4-1.1-1.1-1.1-1.9V158.3c0-0.7,0.5-1,1.1-0.6l2.3,1.3
						c0.6,0.4,1.1,1.1,1.1,1.9v108.5C165.3,270.1,164.8,270.5,164.2,270.1z"/>
					<path id="Path_12" class="st3" d="M269.1,101v108.5c0,0.8-0.5,1.5-1.1,1.9l-2.3,1.3c-0.7,0.3-1.5,0.3-2.2,0l-2.3-1.3
						c-0.6-0.4-1-1.1-1.1-1.9V101c0-0.7,0.5-1,1.1-0.6l2.3,1.3c0.7,0.3,1.5,0.3,2.2,0l2.3-1.3C268.6,100,269.1,100.3,269.1,101z"/>
					<path id="Path_13" class="st4" d="M263.5,212.7l-2.3-1.3c-0.6-0.4-1-1.1-1.1-1.9V101c0-0.7,0.5-1,1.1-0.6l2.3,1.3
						c0.6,0.4,1.1,1.1,1.1,1.9v108.5C264.6,212.8,264.1,213.1,263.5,212.7z"/>
					<path id="Path_14" class="st3" d="M36.1,81.2v108.5c0,0.8-0.5,1.5-1.1,1.9l-2.3,1.3c-0.7,0.3-1.5,0.3-2.2,0l-2.3-1.3
						c-0.6-0.4-1-1.1-1.1-1.9V81.2c0-0.7,0.5-1,1.1-0.6l2.3,1.3c0.7,0.3,1.5,0.3,2.2,0l2.3-1.3C35.6,80.2,36.1,80.5,36.1,81.2z"/>
					<path id="Path_15" class="st4" d="M30.5,192.9l-2.3-1.3c-0.6-0.4-1-1.1-1.1-1.9V81.2c0-0.7,0.5-1,1.1-0.6l2.3,1.3
						c0.6,0.4,1.1,1.1,1.1,1.9v108.5C31.6,193,31.1,193.3,30.5,192.9z"/>
					<path id="Path_16" class="st5" d="M290.7,108.7v-0.8c-0.1-1.4-0.8-2.7-2-3.5L113.6,3.5c-1.3-0.6-2.7-0.6-4,0L2,65.7
						c-1.2,0.8-1.9,2-2,3.5V70c0.1,1.4,0.8,2.7,2,3.5l175,100.9c1.3,0.6,2.7,0.6,4,0l107.7-62.2
						C289.9,111.4,290.6,110.1,290.7,108.7z"/>
					<path id="Path_17" class="st6" d="M290.7,108.7v-0.8c-0.1-1.4-0.8-2.7-2-3.5L113.6,3.5c-1.3-0.6-2.7-0.6-4,0L2,65.7
						c-1.2,0.8-1.9,2-2,3.5V70c0.1,1.4,0.8,2.7,2,3.5l175,100.9c1.3,0.6,2.7,0.6,4,0l107.7-62.2
						C289.9,111.4,290.6,110.1,290.7,108.7z"/>
					<path id="Path_18" class="st5" d="M179,169.4v5.4c0.7,0,1.4-0.2,2-0.5l107.7-62.2c1.2-0.8,1.9-2,2-3.5v-0.8
						c-0.1-1.3-0.7-2.4-1.7-3.2c0.7,0.6,0.6,1.5-0.4,2L181,169C180.4,169.3,179.7,169.5,179,169.4z"/>
					<path id="Path_19" class="st7" d="M179,169.4v5.4c0.7,0,1.4-0.2,2-0.5l107.7-62.2c1.2-0.8,1.9-2,2-3.5v-0.8
						c-0.1-1.3-0.7-2.4-1.7-3.2c0.7,0.6,0.6,1.5-0.4,2L181,169C180.4,169.3,179.7,169.5,179,169.4z"/>
					<path id="Path_20" class="st8" d="M288.7,106.8L181,169c-1.3,0.6-2.7,0.6-4,0L2,68c-0.6-0.2-1-0.9-0.8-1.5
						c0.1-0.4,0.4-0.6,0.8-0.8L109.6,3.5c1.3-0.6,2.7-0.6,4,0l175.1,101c0.6,0.2,1,0.9,0.8,1.5C289.3,106.4,289.1,106.7,288.7,106.8
						z"/>
					<path id="Path_21" class="st9" d="M288.7,106.8L181,169c-1.3,0.6-2.7,0.6-4,0L2,68c-0.6-0.2-1-0.9-0.8-1.5
						c0.1-0.4,0.4-0.6,0.8-0.8L109.6,3.5c1.3-0.6,2.7-0.6,4,0l175.1,101c0.6,0.2,1,0.9,0.8,1.5C289.3,106.4,289.1,106.7,288.7,106.8
						z"/>
				</g>
				<g id="Keyboard" transform="translate(61.191 142.975)">
					<path id="Shadow-5" class="st10" d="M104.6,51L79.1,65.8c-0.9,0.5-2,0.5-2.9,0L0.8,22.3c-0.5,0-0.8-0.4-0.8-0.8
						s0.4-0.8,0.8-0.8L26.3,5.9c0.9-0.5,2-0.5,2.9,0l75.4,43.5c0.5,0,0.8,0.4,0.8,0.8S105.1,51,104.6,51L104.6,51L104.6,51z"/>
					<g id="Keyboard-2" transform="translate(2.138 0)">
						<path id="Path_22" class="st11" d="M0.2,18c0-0.4,0.3-0.7,0.6-0.8l24-13.8c0.9-0.5,2-0.5,2.9,0l73.1,42.3
							c0.3,0.1,0.6,0.5,0.6,0.8s0,2.2,0,2.5c0,0.4-0.3,0.7-0.6,0.8l-24,13.8c-0.9,0.5-2,0.5-2.9,0L0.8,21.4
							c-0.3-0.1-0.6-0.5-0.6-0.8C0.2,20.6,0.2,18,0.2,18z"/>
						<path id="Path_23" class="st3" d="M76.8,61.1l24-13.8c0.5,0,0.8-0.4,0.8-0.8s-0.4-0.8-0.8-0.8L27.7,3.4c-0.9-0.5-2-0.5-2.9,0
							l-24,13.8C0.4,17.2,0,17.6,0,18s0.4,0.8,0.8,0.8L74,61.1C74.9,61.5,75.9,61.5,76.8,61.1z"/>
						<path id="Path_24" class="st11" d="M75.5,61.4V64c0.5,0,0.9-0.1,1.3-0.3l24-13.8c0.3-0.2,0.6-0.5,0.6-0.8v-2.5
							c0,0.4-0.3,0.7-0.6,0.8l-24,13.8C76.4,61.3,76,61.4,75.5,61.4z"/>
						<path id="Path_25" class="st8" d="M4.7,18.2L7,16.8l3.2,1.9l-2.4,1.4L4.7,18.2L4.7,18.2z M8.4,16.1L8.4,16.1l2.4-1.4l2.5,1.5
							l-2.4,1.4L8.4,16.1L8.4,16.1z M9.2,20.8l2.4-1.4l2.5,1.5l-2.4,1.4L9.2,20.8L9.2,20.8z M12.1,13.9L12.1,13.9l2.4-1.4l4.1,2.4
							l-2.4,1.4L12.1,13.9L12.1,13.9z M12.2,18.3L12.2,18.3l2.4-1.4l2,1.2l-2.4,1.4L12.2,18.3L12.2,18.3z M13,23L13,23l2.4-1.4
							l2.5,1.5l-2.4,1.4L13,23L13,23z M15.5,20.2L15.5,20.2l2.4-1.4l2,1.2l-2.4,1.4L15.5,20.2L15.5,20.2z M15.8,11.8L15.8,11.8
							l2.4-1.4l3.2,1.9L19,13.7L15.8,11.8L15.8,11.8z M16.8,25.2l2.4-1.4l18.3,10.5L35,35.8L16.8,25.2L16.8,25.2z M17.5,17l2.4-1.4
							l2,1.2l-2.4,1.4L17.5,17L17.5,17z M18.8,22.1L18.8,22.1l2.4-1.4l2,1.2l-2.4,1.4L18.8,22.1L18.8,22.1z M19.5,9.6l2.4-1.4l2,1.2
							l-2.4,1.4L19.5,9.6L19.5,9.6z M20.3,14.4l2.4-1.4l2,1.2l-2.4,1.4L20.3,14.4L20.3,14.4z M20.7,18.9l2.4-1.4l2,1.2l-2.4,1.4
							L20.7,18.9L20.7,18.9z M22.1,24L22.1,24l2.4-1.4l2,1.2L24,25.2L22.1,24L22.1,24z M22.8,11.5l2.4-1.4l2,1.2l-2.4,1.4L22.8,11.5
							L22.8,11.5z M23.6,16.3l2.4-1.4l2,1.2l-2.4,1.4L23.6,16.3L23.6,16.3z M24,20.8L24,20.8l2.4-1.4l2,1.2L26,22L24,20.8L24,20.8z
							 M24,7L24,7l2.4-1.4l2.5,1.5l-2.4,1.4L24,7L24,7z M25.3,25.9L25.3,25.9l2.4-1.4l2,1.2l-2.4,1.4L25.3,25.9L25.3,25.9z
							 M26.1,13.4L26.1,13.4l2.4-1.4l2,1.2l-2.4,1.4L26.1,13.4L26.1,13.4z M26.9,18.2l2.4-1.4l2,1.2l-2.4,1.4L26.9,18.2L26.9,18.2z
							 M27.3,22.7L27.3,22.7l2.4-1.4l2,1.2l-2.3,1.3L27.3,22.7L27.3,22.7z M28.6,27.8L28.6,27.8l2.4-1.4l2,1.2L30.6,29L28.6,27.8
							L28.6,27.8z M29.3,10.1L29.3,10.1l2.4-1.4l2,1.2l-2.4,1.4L29.3,10.1L29.3,10.1z M29.4,15.3L29.4,15.3l2.4-1.4l2,1.2l-2.4,1.4
							L29.4,15.3L29.4,15.3z M30.2,20.1l2.4-1.4l2,1.2l-2.4,1.4L30.2,20.1L30.2,20.1z M30.6,24.6L30.6,24.6l2.4-1.4l2,1.2l-2.4,1.4
							L30.6,24.6L30.6,24.6z M31.9,29.6l2.4-1.4l2,1.2l-2.4,1.4L31.9,29.6L31.9,29.6z M32.6,11.9L32.6,11.9l2.4-1.4l2,1.2l-2.4,1.4
							L32.6,11.9L32.6,11.9z M32.7,17.2l2.4-1.4l2,1.2l-2.4,1.4L32.7,17.2L32.7,17.2z M33.5,21.9l2.4-1.4l2,1.2l-2.4,1.4L33.5,21.9
							L33.5,21.9z M33.9,26.5l2.4-1.4l2,1.2l-2.4,1.4L33.9,26.5L33.9,26.5z M35.2,31.5L35.2,31.5l2.4-1.4l2,1.2l-2.4,1.4L35.2,31.5
							L35.2,31.5z M35.8,13.9l2.4-1.4l2,1.2l-2.4,1.4L35.8,13.9L35.8,13.9z M36,19.1L36,19.1l2.4-1.4l2,1.2L38,20.3L36,19.1L36,19.1
							z M36.3,36.5l2.4-1.4l2.5,1.5L38.8,38L36.3,36.5L36.3,36.5z M36.7,23.9L36.7,23.9l2.4-1.4l2,1.2l-2.4,1.4L36.7,23.9L36.7,23.9
							z M37.2,28.4l2.4-1.4l2,1.2l-2.4,1.4L37.2,28.4L37.2,28.4z M38.5,33.5L38.5,33.5l2.4-1.4l2,1.2l-2.4,1.4L38.5,33.5L38.5,33.5z
							 M39.1,15.8L39.1,15.8l2.4-1.4l2,1.1L41.1,17L39.1,15.8L39.1,15.8z M39.2,21l2.4-1.4l2,1.2l-2.4,1.4L39.2,21L39.2,21z
							 M40.1,25.8L40.1,25.8l2.4-1.4l2,1.2L42.1,27L40.1,25.8L40.1,25.8z M40.2,38.7l2.4-1.4l2.5,1.5l-2.4,1.4L40.2,38.7L40.2,38.7z
							 M40.5,30.3l2.4-1.4l2,1.2l-2.4,1.4L40.5,30.3L40.5,30.3z M41.8,35.4l2.4-1.4l2,1.2l-2.4,1.4L41.8,35.4L41.8,35.4z M42.6,22.9
							l2.4-1.4l2,1.2l-2.4,1.4L42.6,22.9L42.6,22.9z M43.4,27.7L43.4,27.7l2.4-1.4l2,1.2l-2.5,1.4L43.4,27.7L43.4,27.7z M43.8,32.2
							l2.4-1.4l2,1.2l-2.4,1.4L43.8,32.2L43.8,32.2z M43.9,18.5L43.9,18.5l2.4-1.4l2,1.2l-2.4,1.4L43.9,18.5L43.9,18.5z M44,40.9
							L44,40.9l2.4-1.4l2.5,1.5l-2.4,1.4L44,40.9L44,40.9z M45.1,37.3L45.1,37.3l2.4-1.4l2,1.2l-2.4,1.4L45.1,37.3L45.1,37.3z
							 M45.9,24.8L45.9,24.8l2.4-1.4l2,1.2L47.9,26L45.9,24.8L45.9,24.8z M46.7,29.6l2.4-1.4l2,1.2l-2.4,1.4L46.7,29.6L46.7,29.6z
							 M47.1,34.1l2.4-1.4l2,1.2l-2.4,1.4L47.1,34.1L47.1,34.1z M47.2,20.4L47.2,20.4l2.4-1.4l2,1.2l-2.4,1.4L47.2,20.4L47.2,20.4z
							 M47.8,43.1l2.4-1.4l3.2,1.9L51,45L47.8,43.1L47.8,43.1z M48.4,39.2L48.4,39.2l2.4-1.4l6.3,3.7l-2.4,1.4L48.4,39.2L48.4,39.2z
							 M49.2,26.7l2.4-1.4l2,1.2l-2.4,1.4L49.2,26.7L49.2,26.7z M50,31.5l2.4-1.4l2,1.2L52,32.7L50,31.5L50,31.5z M50.4,36l2.4-1.4
							l2,1.2l-2.4,1.4L50.4,36L50.4,36z M50.5,22.3L50.5,22.3l2.4-1.4l2,1.2l-2.4,1.4L50.5,22.3L50.5,22.3z M52.5,28.6l2.4-1.4
							l2,1.2l-2.4,1.4L52.5,28.6L52.5,28.6z M53,46.1l2.4-1.4l2,1.2L55,47.3L53,46.1L53,46.1z M53.3,33.4l2.4-1.4l2,1.2l-2.4,1.4
							L53.3,33.4L53.3,33.4z M53.7,37.9L53.7,37.9l2.4-1.4l1.8,1.1c0.2,0.1,0.4,0.1,0.6,0.1c0.2,0,0.4,0,0.6-0.1l3.1-1.8l2.3,1.4
							l-6.1,3.6L53.7,37.9L53.7,37.9z M53.8,24.2L53.8,24.2l2.4-1.4l2,1.2l-2.4,1.4L53.8,24.2L53.8,24.2z M55.8,30.5l2.4-1.4l2,1.2
							l-2.4,1.4L55.8,30.5L55.8,30.5z M56.3,48L56.3,48l2.4-1.4l2,1.2l-2.4,1.4L56.3,48L56.3,48z M56.5,35.3L56.5,35.3l2.4-1.4
							l2,1.2l-2.5,1.4L56.5,35.3L56.5,35.3z M58.5,26.9L58.5,26.9l2.4-1.4l2,1.2l-2.4,1.4L58.5,26.9L58.5,26.9z M59,32.4l2.4-1.4
							l2,1.2L61,33.7L59,32.4L59,32.4z M59.6,49.9L59.6,49.9l2.4-1.4l2,1.2l-2.4,1.4L59.6,49.9L59.6,49.9z M60,45.9l2.4-1.4l2,1.2
							L62,47.1L60,45.9L60,45.9z M61.8,28.8L61.8,28.8l2.4-1.4l2,1.2L63.8,30L61.8,28.8L61.8,28.8z M62.3,34.4L62.3,34.4l2.4-1.4
							l3.6,2.1l-2.4,1.4L62.3,34.4L62.3,34.4z M63.5,52.2l2.4-1.4l5.3,3.1l-2.4,1.4L63.5,52.2L63.5,52.2z M64.1,39.6L64.1,39.6
							l2.4-1.4l2,1.2l-2.4,1.4L64.1,39.6L64.1,39.6z M65,30.7L65,30.7l2.4-1.4l2,1.2L67,31.9L65,30.7L65,30.7z M67.2,50L67.2,50
							l2.4-1.4l2,1.2l-2.4,1.4L67.2,50L67.2,50z M67.3,41.5L67.3,41.5l2.4-1.4l2.1,1.2l-2.4,1.4L67.3,41.5L67.3,41.5z M67.8,37.5
							l2.4-1.4l2,1.2l-2.4,1.4L67.8,37.5L67.8,37.5z M68.3,32.6L68.3,32.6l2.4-1.4l2,1.2l-2.4,1.4L68.3,32.6L68.3,32.6z M70,55.9
							l2.4-1.4l2,1.2L72,57.2L70,55.9L70,55.9z M70.5,51.9L70.5,51.9l2.4-1.4l2,1.2l-2.4,1.4L70.5,51.9L70.5,51.9z M70.6,43.4
							L70.6,43.4L73,42l2,1.2l-2.4,1.4L70.6,43.4L70.6,43.4z M70.9,47.9L70.9,47.9l2.4-1.4l2,1.2l-2.4,1.4L70.9,47.9L70.9,47.9z
							 M71.1,39.4l2.4-1.4l2,1.2l-2.4,1.4L71.1,39.4L71.1,39.4z M72.3,34.9L72.3,34.9l2.4-1.4l2,1.2l-2.4,1.4L72.3,34.9L72.3,34.9z
							 M73.3,57.8l6.1-3.5l2,1.2L75.3,59L73.3,57.8L73.3,57.8z M73.8,53.8L73.8,53.8l2.4-1.4l2,1.2L75.7,55L73.8,53.8L73.8,53.8z
							 M74.2,49.8L74.2,49.8l2.4-1.4l2,1.1L76.2,51L74.2,49.8L74.2,49.8z M74.3,41.3l2.4-1.4l2,1.2l-2.4,1.4L74.3,41.3L74.3,41.3z
							 M74.6,45.7L74.6,45.7l2.4-1.4l2,1.2l-2.4,1.4L74.6,45.7L74.6,45.7z M75.6,36.8L75.6,36.8l2.4-1.4l2,1.2L77.6,38L75.6,36.8
							L75.6,36.8z M77.5,51.7L77.5,51.7l2.4-1.4l2,1.1l-2.4,1.4L77.5,51.7L77.5,51.7z M77.9,47.6L77.9,47.6l2.4-1.4l2,1.2l-2.4,1.4
							L77.9,47.6L77.9,47.6z M78.3,43.6L78.3,43.6l2.4-1.4l2,1.2l-2.4,1.4L78.3,43.6L78.3,43.6z M78.9,38.7L78.9,38.7l2.4-1.4l2,1.2
							l-2.4,1.4L78.9,38.7L78.9,38.7z M80.8,53.6L80.8,53.6l6.1-3.5l2,1.2l-6.1,3.6L80.8,53.6L80.8,53.6z M81.2,49.5L81.2,49.5
							l2.4-1.4l2,1.2l-2.4,1.4L81.2,49.5L81.2,49.5z M81.6,45.5L81.6,45.5l2.4-1.4l2,1.2l-2.4,1.4L81.6,45.5L81.6,45.5z M83.8,40.4
							l1-0.6l2,1.2l-1,0.6L83.8,40.4L83.8,40.4z M84.9,47.4L84.9,47.4l2.4-1.4l2,1.2l-2.4,1.4L84.9,47.4L84.9,47.4z M87.1,42.3
							l1-0.6l2,1.2l-1,0.6L87.1,42.3L87.1,42.3z M88.2,49.3L88.2,49.3l2.4-1.4l2,1.2l-2.4,1.4L88.2,49.3L88.2,49.3z M90.4,44.2
							l1-0.6l2,1.2l-1,0.6L90.4,44.2L90.4,44.2z M93.7,46.1l1-0.6l2,1.2l-1,0.6L93.7,46.1L93.7,46.1z"/>
					</g>
				</g>
				<g id="Device" transform="translate(112.507 18.253)">
					<path id="Shadow-6" class="st10" d="M112.2,178.6l22.4-13L22.4,100.8L0,113.8L112.2,178.6z"/>
					<g id="Monitor" transform="translate(3.744 0)">
						<path id="Path_26" class="st2" d="M44.9,157.5l-16-9.3c-1.7-1-2.5-2.2-2.5-3.5v-2.2l15.1-8.6c0.9-0.6,1.5-1.6,1.6-2.8v-19.8
							l28,16.2v19.8c-0.1,1.1-0.7,2.1-1.6,2.8l-12.6,7.3C53.1,159.4,48.7,159.4,44.9,157.5L44.9,157.5z"/>
						<path id="Path_27" class="st12" d="M64.4,150.9v2.2l5.1-3c0.9-0.6,1.5-1.6,1.6-2.8v-19.8l-5.3-3.1c-0.1,1.3-0.2,2.8-0.3,4.1
							l3.7,2.2v15.4c-0.1,1.1-0.7,2.2-1.6,2.8L64.4,150.9z"/>
						<path id="Path_28" class="st13" d="M69.2,146.3c-0.1,1.1-0.7,2.2-1.6,2.8l-10.7,6.2c-3.8,1.9-8.2,1.9-12,0l-16-9.3
							c-3.3-1.9-3.3-5,0-6.9l10.7-6.2c0.9-0.6,1.5-1.6,1.6-2.8v-15.4l28,16.2V146.3z"/>
						<path id="Path_29" class="st14" d="M36.3,134.7L36.3,134.7l3.3-1.9c0.9-0.6,1.5-1.6,1.6-2.8v-15.4l28,16.2v15.4
							c-0.1,1.1-0.7,2.2-1.6,2.8l-3.2,1.8L36.3,134.7z"/>
						<path id="Path_30" class="st14" d="M26.4,142.5v2.2c0,1.2,0.8,2.5,2.5,3.5l16,9.3c1.8,0.9,3.7,1.4,5.7,1.4v-2.2
							c-2,0-4-0.5-5.7-1.4l-16-9.3C27.3,145,26.4,143.8,26.4,142.5z"/>
						<path id="Path_31" class="st4" d="M114.1,167.6c-1.2,0.6-2.7,0.6-3.9-0.1L2,105c-1.2-0.8-1.9-2.1-2-3.5V6.8
							c0-1.4,0.7-2.6,1.9-3.4c1.2-0.6,2.7-0.6,3.9,0.1L114,66c1.2,0.8,1.9,2.1,2,3.5v94.7C115.9,165.6,115.2,166.8,114.1,167.6z"/>
						<path id="Path_32" class="st3" d="M110.2,167.5L2,105c-1.2-0.8-1.9-2.1-2-3.5V6.8C0,5.6,0.9,5,2,5.7l108.2,62.5
							c1.2,0.8,1.9,2.1,2,3.5v94.7C112.2,167.6,111.3,168.2,110.2,167.5z"/>
						<path id="Path_33" class="st12" d="M110.5,167.9c1.1,0.5,2.5,0.5,3.6-0.1c1.1-0.8,1.8-2,1.9-3.4v-10.7l-3.7,2.2v10.7
							C112.2,167.8,111.5,168.3,110.5,167.9z"/>
						<path id="Path_34" class="st1" d="M112.2,156v10.6c0,1.3-0.9,1.8-2,1.2L2,105.3c-1.2-0.8-1.9-2.1-2-3.5V91.2L112.2,156z"/>
						<path id="Path_35" class="st8" d="M108.5,147.8v-75c0-0.8-0.5-1.6-1.2-2.1L5,11.7c-0.7-0.4-1.2-0.1-1.2,0.7v75
							c0,0.8,0.5,1.6,1.2,2.1l102.3,59.1C108,148.9,108.5,148.6,108.5,147.8z"/>
						<path id="Path_36" class="st15" d="M108.5,147.8v-75c0-0.8-0.5-1.6-1.2-2.1L5,11.7c-0.7-0.4-1.2-0.1-1.2,0.7v75
							c0,0.8,0.5,1.6,1.2,2.1l102.3,59.1C108,148.9,108.5,148.6,108.5,147.8z"/>
						<path id="Path_37" class="st4" d="M56.1,127.6c1.1,0.7,1.8,1.9,1.9,3.2c0,1.2-0.8,1.7-1.9,1.1c-1.1-0.7-1.8-1.9-1.9-3.2
							C54.2,127.5,55.1,127,56.1,127.6z"/>
						<path id="Path_38" class="st11" d="M111.6,69.6c0.4,0.6,0.6,1.3,0.6,2V156l3.7-2.2V69.5c0-0.7-0.2-1.4-0.6-2L111.6,69.6z"/>
					</g>
				</g>
				<g id="Window" transform="translate(133.947)">
					<g id="Window-2">
						<path id="Path_39" class="st4" d="M0,5.5c0-0.1,0-0.1,0-0.2l0,0c0-0.1,0-0.1,0-0.2c0,0,0.1-0.1,0.1-0.2c0,0,0-0.1,0.1-0.1
							c0,0,0-0.1,0.1-0.1l0.1-0.1l0,0c0,0,0.1-0.1,0.2-0.1C1,4.4,1.4,4.4,1.8,4.7l126.4,72.9c1.1,0.7,1.8,2,1.9,3.3v91.8
							c0,0.5-0.3,0.9-0.7,1.1l-0.1,0.1l-0.1,0.1l-0.2,0.1c-0.1,0-0.2,0-0.3,0c-0.2,0-0.4-0.1-0.6-0.2l0,0l-1.8-1L1.9,101
							c-1.1-0.7-1.8-2-1.9-3.3V5.8C0,5.7,0,5.6,0,5.5z"/>
						<path id="Path_40" class="st16" d="M0.6,4.5C1,4.3,1.5,4.4,1.9,4.7l126.3,72.9c1.1,0.7,1.8,2,1.9,3.3v6.2l2.5-1.4v-6.2
							c-0.1-1.4-0.8-2.6-1.9-3.3L4.3,3.3C3.9,3,3.4,2.9,3,3.2C2.6,3.4,1,4.3,0.6,4.5z"/>
						<path id="Path_41" class="st8" d="M0,5.7C0,4.5,0.8,4,1.9,4.6l126.3,72.9c1.1,0.7,1.8,2,1.9,3.3V87L0,12V5.7z"/>
						<g id="Group_12" transform="translate(0.632 0)" class="st17">
							<path id="Path_42" class="st1" d="M1.3,4.7l126.3,72.9c0.6,0.4,1,0.8,1.3,1.4l2.4-1.4c-0.3-0.6-0.8-1-1.3-1.4L3.7,3.3
								C3.3,3,2.8,2.9,2.3,3.2C2,3.4,0.4,4.3,0,4.5C0.4,4.3,0.9,4.4,1.3,4.7z"/>
						</g>
						<path id="Path_43" class="st10" d="M132.6,85.7v-6.2c0-0.7-0.2-1.3-0.6-1.9l-2.4,1.4c0.3,0.6,0.5,1.2,0.6,1.9v6.2L132.6,85.7z
							"/>
						<path id="Path_44" class="st4" d="M125.8,78.9c0.7,0.6,1.1,1.4,1.1,2.3s-0.5,1.4-1.1,1c-0.7-0.6-1.1-1.4-1.1-2.3
							C124.8,79,125.2,78.5,125.8,78.9z"/>
						<path id="Path_45" class="st4" d="M122,76.6c0.7,0.6,1.1,1.4,1.1,2.3s-0.5,1.4-1.1,1c-0.7-0.6-1.1-1.4-1.1-2.3
							S121.4,76.3,122,76.6z"/>
						<path id="Path_46" class="st4" d="M118.1,74.4c0.7,0.5,1.1,1.4,1.1,2.3s-0.5,1.4-1.1,1c-0.7-0.6-1.1-1.4-1.1-2.3
							S117.5,74,118.1,74.4z"/>
						<path id="Path_47" class="st18" d="M129.5,173.9l0.1-0.1l2-1.2c0.5-0.3,0.9-0.9,1-1.5V85.7l-2.4,1.4v85.6
							C130.1,173.2,129.9,173.6,129.5,173.9L129.5,173.9L129.5,173.9L129.5,173.9z"/>
					</g>
					<g id="Code-2" transform="translate(3.087 16.185)">
						<path id="Path_48" class="st5" d="M35.6,28.3l26.6,15.4c0.4,0.2,0.6,0.7,0.7,1.1c0,0.4-0.3,0.6-0.7,0.3L35.6,29.8
							c-0.4-0.2-0.6-0.7-0.7-1.1C34.9,28.3,35.2,28.1,35.6,28.3z"/>
						<path id="Path_49" class="st2" d="M45.8,57.7l10.1,5.8c0.4,0.2,0.6,0.7,0.7,1.1c0,0.4-0.3,0.6-0.7,0.3l-10.1-5.8
							c-0.4-0.2-0.6-0.7-0.7-1.1C45.1,57.7,45.4,57.5,45.8,57.7z"/>
						<path id="Path_50" class="st2" d="M45.8,63.6l10.1,5.8c0.4,0.2,0.6,0.7,0.7,1.1c0,0.4-0.3,0.6-0.7,0.3L45.8,65
							c-0.4-0.2-0.6-0.7-0.7-1.1C45.1,63.5,45.4,63.4,45.8,63.6z"/>
						<path id="Path_51" class="st5" d="M64.9,45.2l53.3,30.7c0.4,0.2,0.6,0.7,0.7,1.1c0,0.4-0.3,0.6-0.7,0.3L64.9,46.7
							c-0.4-0.2-0.6-0.7-0.7-1.1C64.2,45.2,64.5,45,64.9,45.2z"/>
						<path id="Path_52" class="st5" d="M46,98.9l16.2,9.4c0.4,0.2,0.6,0.7,0.7,1.1c0,0.4-0.3,0.6-0.7,0.3L46,100.4
							c-0.4-0.2-0.6-0.7-0.7-1.1C45.3,98.9,45.6,98.7,46,98.9z"/>
						<path id="Path_53" class="st5" d="M64.9,109.9l53.3,30.8c0.4,0.2,0.6,0.7,0.7,1.1c0,0.4-0.3,0.6-0.7,0.3l-53.3-30.8
							c-0.4-0.2-0.6-0.7-0.7-1.1C64.2,109.8,64.5,109.6,64.9,109.9z"/>
						<path id="Path_54" class="st5" d="M35.6,34.2L49,41.9c0.4,0.2,0.6,0.7,0.7,1.1c0,0.4-0.3,0.6-0.7,0.3l-13.4-7.7
							c-0.4-0.2-0.6-0.7-0.7-1.1C34.9,34.2,35.2,34,35.6,34.2z"/>
						<path id="Path_55" class="st19" d="M35.6,34.2L49,41.9c0.4,0.2,0.6,0.7,0.7,1.1c0,0.4-0.3,0.6-0.7,0.3l-13.4-7.7
							c-0.4-0.2-0.6-0.7-0.7-1.1C34.9,34.2,35.2,34,35.6,34.2z"/>
						<path id="Path_56" class="st5" d="M35.6,40.1l6.3,3.6c0.4,0.2,0.6,0.7,0.7,1.1c0,0.4-0.3,0.6-0.7,0.3l-6.3-3.6
							c-0.4-0.2-0.6-0.7-0.7-1.1C34.9,40,35.2,39.9,35.6,40.1z"/>
						<path id="Path_57" class="st19" d="M35.6,40.1l6.3,3.6c0.4,0.2,0.6,0.7,0.7,1.1c0,0.4-0.3,0.6-0.7,0.3l-6.3-3.6
							c-0.4-0.2-0.6-0.7-0.7-1.1C34.9,40,35.2,39.9,35.6,40.1z"/>
						<path id="Path_58" class="st5" d="M35.6,51.9l6.3,3.6c0.4,0.2,0.6,0.7,0.7,1.1c0,0.4-0.3,0.6-0.7,0.3l-6.3-3.6
							c-0.4-0.2-0.6-0.7-0.7-1.1C34.9,51.8,35.2,51.6,35.6,51.9z"/>
						<path id="Path_59" class="st19" d="M35.6,51.9l6.3,3.6c0.4,0.2,0.6,0.7,0.7,1.1c0,0.4-0.3,0.6-0.7,0.3l-6.3-3.6
							c-0.4-0.2-0.6-0.7-0.7-1.1C34.9,51.8,35.2,51.6,35.6,51.9z"/>
						<path id="Path_60" class="st5" d="M35.6,57.7l6.3,3.6c0.4,0.2,0.6,0.7,0.7,1.1c0,0.4-0.3,0.6-0.7,0.3l-6.3-3.6
							c-0.4-0.2-0.6-0.7-0.7-1.1C34.9,57.7,35.2,57.5,35.6,57.7z"/>
						<path id="Path_61" class="st19" d="M35.6,57.7l6.3,3.6c0.4,0.2,0.6,0.7,0.7,1.1c0,0.4-0.3,0.6-0.7,0.3l-6.3-3.6
							c-0.4-0.2-0.6-0.7-0.7-1.1C34.9,57.7,35.2,57.5,35.6,57.7z"/>
						<path id="Path_62" class="st5" d="M51.7,43.5l8,4.7c0.4,0.2,0.6,0.7,0.7,1.1c0,0.4-0.3,0.6-0.7,0.3l-8-4.7
							c-0.4-0.2-0.6-0.7-0.7-1.1C51,43.4,51.3,43.3,51.7,43.5z"/>
						<path id="Path_63" class="st19" d="M51.7,43.5l8,4.7c0.4,0.2,0.6,0.7,0.7,1.1c0,0.4-0.3,0.6-0.7,0.3l-8-4.7
							c-0.4-0.2-0.6-0.7-0.7-1.1C51,43.4,51.3,43.3,51.7,43.5z"/>
						<path id="Path_64" class="st1" d="M64.1,85.9l54.1,31.1c0.4,0.2,0.6,0.7,0.7,1.1c0,0.4-0.3,0.6-0.7,0.3l-54.1-31
							c-0.4-0.2-0.6-0.7-0.7-1.1C63.4,85.9,63.7,85.8,64.1,85.9z"/>
						<path id="Path_65" class="st1" d="M110.1,106.6l8,4.7c0.4,0.2,0.6,0.7,0.7,1.1c0,0.4-0.3,0.6-0.7,0.3l-8-4.7
							c-0.4-0.2-0.6-0.7-0.7-1.1C109.5,106.5,109.8,106.3,110.1,106.6z"/>
						<path id="Path_66" class="st1" d="M53.4,73.9l54.1,31.1c0.4,0.2,0.6,0.7,0.7,1.1c0,0.4-0.3,0.6-0.7,0.3l-54.1-31
							c-0.4-0.2-0.6-0.7-0.7-1.1C52.7,73.8,53,73.7,53.4,73.9z"/>
						<path id="Path_67" class="st5" d="M45.8,46l13.4,7.7c0.4,0.2,0.6,0.7,0.7,1.1c0,0.4-0.3,0.6-0.7,0.3l-13.4-7.7
							c-0.4-0.2-0.6-0.7-0.7-1.1C45.1,45.9,45.4,45.8,45.8,46z"/>
						<path id="Path_68" class="st19" d="M45.8,46l13.4,7.7c0.4,0.2,0.6,0.7,0.7,1.1c0,0.4-0.3,0.6-0.7,0.3l-13.4-7.7
							c-0.4-0.2-0.6-0.7-0.7-1.1C45.1,45.9,45.4,45.8,45.8,46z"/>
						<path id="Path_69" class="st5" d="M61.8,55.2l56,32.4c0.4,0.2,0.6,0.7,0.7,1.1c0,0.4-0.3,0.6-0.7,0.3l-56-32.4
							c-0.4-0.2-0.6-0.7-0.7-1.1C61.1,55.1,61.5,55,61.8,55.2z"/>
						<path id="Path_70" class="st19" d="M61.8,55.2l56,32.4c0.4,0.2,0.6,0.7,0.7,1.1c0,0.4-0.3,0.6-0.7,0.3l-56-32.4
							c-0.4-0.2-0.6-0.7-0.7-1.1C61.1,55.1,61.5,55,61.8,55.2z"/>
						<path id="Path_71" class="st2" d="M45.8,81.4l72.4,41.7c0.4,0.2,0.6,0.7,0.7,1.1c0,0.4-0.3,0.6-0.7,0.3L45.8,82.8
							c-0.4-0.2-0.6-0.7-0.7-1.1C45.1,81.3,45.4,81.1,45.8,81.4z"/>
						<path id="Path_72" class="st5" d="M35.6,75.5l6.3,3.6c0.4,0.2,0.6,0.7,0.7,1.1c0,0.4-0.3,0.6-0.7,0.3l-6.3-3.6
							c-0.4-0.2-0.6-0.7-0.7-1.1C34.9,75.4,35.2,75.3,35.6,75.5z"/>
						<path id="Path_73" class="st19" d="M35.6,75.5l6.3,3.6c0.4,0.2,0.6,0.7,0.7,1.1c0,0.4-0.3,0.6-0.7,0.3l-6.3-3.6
							c-0.4-0.2-0.6-0.7-0.7-1.1C34.9,75.4,35.2,75.3,35.6,75.5z"/>
						<path id="Path_74" class="st2" d="M45.8,87.2l72.4,41.7c0.4,0.2,0.6,0.7,0.7,1.1c0,0.4-0.3,0.6-0.7,0.3L45.8,88.7
							c-0.4-0.2-0.6-0.7-0.7-1.1C45.1,87.2,45.4,87,45.8,87.2z"/>
						<path id="Path_75" class="st5" d="M35.6,81.4l6.3,3.6c0.4,0.2,0.6,0.7,0.7,1.1c0,0.4-0.3,0.6-0.7,0.3l-6.3-3.6
							c-0.4-0.2-0.6-0.7-0.7-1.1C34.9,81.3,35.2,81.1,35.6,81.4z"/>
						<path id="Path_76" class="st19" d="M35.6,81.4l6.3,3.6c0.4,0.2,0.6,0.7,0.7,1.1c0,0.4-0.3,0.6-0.7,0.3l-6.3-3.6
							c-0.4-0.2-0.6-0.7-0.7-1.1C34.9,81.3,35.2,81.1,35.6,81.4z"/>
						<path id="Path_77" class="st2" d="M45.8,93.1l72.4,41.7c0.4,0.2,0.6,0.7,0.7,1.1c0,0.4-0.3,0.6-0.7,0.3L45.8,94.6
							c-0.4-0.2-0.6-0.7-0.7-1.1C45.1,93,45.4,92.9,45.8,93.1z"/>
						<path id="Path_78" class="st5" d="M35.6,87.2l6.3,3.6c0.4,0.2,0.6,0.7,0.7,1.1c0,0.4-0.3,0.6-0.7,0.3l-6.3-3.6
							c-0.4-0.2-0.6-0.7-0.7-1.1C34.9,87.2,35.2,87,35.6,87.2z"/>
						<path id="Path_79" class="st19" d="M35.6,87.2l6.3,3.6c0.4,0.2,0.6,0.7,0.7,1.1c0,0.4-0.3,0.6-0.7,0.3l-6.3-3.6
							c-0.4-0.2-0.6-0.7-0.7-1.1C34.9,87.2,35.2,87,35.6,87.2z"/>
						<g id="Group_13" transform="translate(25.159 19.356)" class="st20">
							<path id="Path_80" class="st1" d="M0.7,3.1l3.7,2.1C4.8,5.5,5,5.9,5,6.4v1.4c0,0.4-0.3,0.6-0.7,0.4L0.7,6
								C0.3,5.8,0,5.3,0,4.9V3.5C0,3.1,0.3,2.9,0.7,3.1z"/>
							<path id="Path_81" class="st1" d="M0.7,9l3.7,2.1C4.8,11.4,5,11.9,5,12.3v1.4c0,0.4-0.3,0.6-0.7,0.4L0.6,12
								C0.3,11.7,0,11.2,0,10.8V9.4C0,9,0.3,8.8,0.7,9z"/>
							<path id="Path_82" class="st1" d="M0.7,15l3.7,2.1C4.8,17.4,5,17.8,5,18.3v1.4C5,20,4.7,20.2,4.4,20l-3.7-2.1
								C0.3,17.6,0,17.2,0,16.7v-1.4C0,14.9,0.3,14.8,0.7,15z"/>
							<path id="Path_83" class="st1" d="M0.7,20.9L4.4,23C4.8,23.3,5,23.7,5,24.2v1.4C5,26,4.7,26.2,4.3,26l-3.7-2.1
								C0.3,23.5,0,23.1,0,22.6v-1.4C0,20.9,0.3,20.7,0.7,20.9z"/>
							<path id="Path_84" class="st1" d="M0.7,26.8L4.4,29C4.8,29.2,5,29.7,5,30.1v1.3c0,0.4-0.3,0.6-0.7,0.4l-3.7-2.1
								C0.3,29.5,0,29,0,28.5v-1.3C0,26.8,0.3,26.6,0.7,26.8z"/>
							<path id="Path_85" class="st1" d="M0.7,32.8l3.7,2.1C4.8,35.1,5,35.6,5,36.1v1.4c0,0.4-0.3,0.6-0.7,0.4l-3.7-2.1
								C0.3,35.4,0,35,0,34.5v-1.4C0,32.7,0.3,32.6,0.7,32.8z"/>
							<path id="Path_86" class="st1" d="M0.7,38.7l3.7,2.1C4.8,41.1,5,41.5,5,42v1.4c0,0.4-0.3,0.6-0.7,0.4l-3.7-2.1
								C0.3,41.3,0,40.9,0,40.4V39C0,38.6,0.3,38.5,0.7,38.7z"/>
							<path id="Path_87" class="st1" d="M0.7,44.6l3.7,2.1C4.8,47,5,47.4,5,47.9v1.4c0,0.4-0.3,0.6-0.7,0.4l-3.7-2.1
								C0.3,47.3,0,46.8,0,46.4V45C0,44.6,0.3,44.4,0.7,44.6z"/>
							<path id="Path_88" class="st1" d="M0.7,50.6l3.7,2.1C4.8,53,5,53.4,5,53.9v1.4c0,0.4-0.3,0.6-0.7,0.4l-3.7-2.1
								C0.3,53.2,0,52.8,0,52.3v-1.4C0,50.5,0.3,50.3,0.7,50.6z"/>
							<path id="Path_89" class="st1" d="M0.7,56.5l3.7,2.1C4.8,58.9,5,59.3,5,59.8v1.4c0,0.4-0.3,0.6-0.7,0.4l-3.7-2.1
								C0.3,59.1,0,58.7,0,58.2v-1.4C0,56.4,0.3,56.3,0.7,56.5z"/>
							<path id="Path_90" class="st1" d="M0.7,62.4l3.7,2.1C4.8,64.8,5,65.2,5,65.7v1.4c0,0.4-0.3,0.6-0.7,0.4l-3.7-2.1
								C0.3,65.1,0,64.6,0,64.2v-1.4C0,62.4,0.3,62.2,0.7,62.4z"/>
							<path id="Path_91" class="st1" d="M0.7,68.4l3.7,2.1C4.8,70.7,5,71.2,5,71.6V73c0,0.4-0.3,0.6-0.7,0.4l-3.7-2.1
								C0.3,71,0,70.6,0,70.1v-1.4C0,68.3,0.3,68.1,0.7,68.4z"/>
						</g>
						<path id="Path_92" class="st3" d="M1.4,3.2l20,11.5c0.8,0.5,1.3,1.4,1.3,2.3v23c0,0.8-0.6,1.2-1.3,0.8l-20-11.5
							C0.6,28.8,0.1,27.9,0,27V4C0,3.1,0.6,2.8,1.4,3.2z"/>
						<path id="Path_93" class="st5" d="M3.2,26L5,27.1c0.4,0.2,0.6,0.7,0.7,1.1c0,0.4-0.3,0.6-0.7,0.3l-1.8-1
							c-0.4-0.2-0.6-0.7-0.7-1.1C2.5,26,2.8,25.8,3.2,26z"/>
						<path id="Path_94" class="st19" d="M3.2,26L5,27.1c0.4,0.2,0.6,0.7,0.7,1.1c0,0.4-0.3,0.6-0.7,0.3l-1.8-1
							c-0.4-0.2-0.6-0.7-0.7-1.1C2.5,26,2.8,25.8,3.2,26z"/>
						<path id="Path_95" class="st5" d="M3.2,7.2l1.8,1c0.4,0.2,0.6,0.7,0.7,1.1c0,0.4-0.3,0.6-0.7,0.3l-1.8-1
							C2.8,8.4,2.6,8,2.5,7.5C2.5,7.1,2.8,7,3.2,7.2z"/>
						<path id="Path_96" class="st19" d="M3.2,7.2l1.8,1c0.4,0.2,0.6,0.7,0.7,1.1c0,0.4-0.3,0.6-0.7,0.3l-1.8-1
							C2.8,8.4,2.6,8,2.5,7.5C2.5,7.1,2.8,7,3.2,7.2z"/>
						<path id="Path_97" class="st5" d="M5.8,12.4l1.8,1.1c0.4,0.2,0.6,0.7,0.7,1.1C8.3,15,8,15.2,7.6,15l-1.8-1.1
							c-0.4-0.2-0.6-0.7-0.7-1.1C5.1,12.4,5.4,12.2,5.8,12.4z"/>
						<path id="Path_98" class="st19" d="M5.8,12.4l1.8,1.1c0.4,0.2,0.6,0.7,0.7,1.1C8.3,15,8,15.2,7.6,15l-1.8-1.1
							c-0.4-0.2-0.6-0.7-0.7-1.1C5.1,12.4,5.4,12.2,5.8,12.4z"/>
						<path id="Path_99" class="st5" d="M5.8,16.2l1.8,1.1C8,17.5,8.2,18,8.3,18.4c0,0.4-0.3,0.6-0.7,0.3l-1.8-1.1
							c-0.4-0.2-0.6-0.7-0.7-1.1C5.1,16.1,5.4,16,5.8,16.2z"/>
						<path id="Path_100" class="st19" d="M5.8,16.2l1.8,1.1C8,17.5,8.2,18,8.3,18.4c0,0.4-0.3,0.6-0.7,0.3l-1.8-1.1
							c-0.4-0.2-0.6-0.7-0.7-1.1C5.1,16.1,5.4,16,5.8,16.2z"/>
						<path id="Path_101" class="st5" d="M3.2,18.5l1.8,1c0.4,0.2,0.6,0.7,0.7,1.1c0,0.4-0.3,0.6-0.7,0.3L3.2,20
							c-0.4-0.2-0.6-0.7-0.7-1.1C2.5,18.4,2.8,18.3,3.2,18.5z"/>
						<path id="Path_102" class="st19" d="M3.2,18.5l1.8,1c0.4,0.2,0.6,0.7,0.7,1.1c0,0.4-0.3,0.6-0.7,0.3L3.2,20
							c-0.4-0.2-0.6-0.7-0.7-1.1C2.5,18.4,2.8,18.3,3.2,18.5z"/>
						<path id="Path_103" class="st5" d="M5.8,23.7l1.8,1.1C8,25,8.3,25.5,8.3,25.9S8,26.5,7.6,26.2l-1.8-1.1
							c-0.4-0.2-0.6-0.7-0.7-1.1C5.1,23.7,5.4,23.5,5.8,23.7z"/>
						<path id="Path_104" class="st19" d="M5.8,23.7l1.8,1.1C8,25,8.3,25.5,8.3,25.9S8,26.5,7.6,26.2l-1.8-1.1
							c-0.4-0.2-0.6-0.7-0.7-1.1C5.1,23.7,5.4,23.5,5.8,23.7z"/>
						<path id="Path_105" class="st5" d="M8.2,10l11.2,6.5c0.4,0.2,0.6,0.7,0.7,1.1c0,0.4-0.3,0.6-0.7,0.3L8.2,11.5
							c-0.4-0.2-0.6-0.7-0.7-1.1C7.6,10,7.9,9.9,8.2,10z"/>
						<path id="Path_106" class="st21" d="M8.2,10l11.2,6.5c0.4,0.2,0.6,0.7,0.7,1.1c0,0.4-0.3,0.6-0.7,0.3L8.2,11.5
							c-0.4-0.2-0.6-0.7-0.7-1.1C7.6,10,7.9,9.9,8.2,10z"/>
						<path id="Path_107" class="st5" d="M8.2,28.9l11.2,6.5c0.4,0.2,0.6,0.7,0.7,1.1c0,0.4-0.3,0.6-0.7,0.3L8.2,30.4
							c-0.4-0.2-0.6-0.7-0.7-1.1C7.6,28.9,7.9,28.7,8.2,28.9z"/>
						<path id="Path_108" class="st21" d="M8.2,28.9l11.2,6.5c0.4,0.2,0.6,0.7,0.7,1.1c0,0.4-0.3,0.6-0.7,0.3L8.2,30.4
							c-0.4-0.2-0.6-0.7-0.7-1.1C7.6,28.9,7.9,28.7,8.2,28.9z"/>
						<path id="Path_109" class="st5" d="M10.8,15.3l8.6,5c0.4,0.2,0.6,0.7,0.7,1.1c0,0.4-0.3,0.6-0.7,0.3l-8.6-5
							c-0.4-0.2-0.6-0.7-0.7-1.1C10.1,15.3,10.4,15.1,10.8,15.3z"/>
						<path id="Path_110" class="st21" d="M10.8,15.3l8.6,5c0.4,0.2,0.6,0.7,0.7,1.1c0,0.4-0.3,0.6-0.7,0.3l-8.6-5
							c-0.4-0.2-0.6-0.7-0.7-1.1C10.1,15.3,10.4,15.1,10.8,15.3z"/>
						<path id="Path_111" class="st5" d="M10.8,19.1l8.6,5c0.4,0.2,0.6,0.7,0.7,1.1c0,0.4-0.3,0.6-0.7,0.3l-8.6-5
							c-0.4-0.2-0.6-0.7-0.7-1.1C10.1,19,10.4,18.9,10.8,19.1z"/>
						<path id="Path_112" class="st21" d="M10.8,19.1l8.6,5c0.4,0.2,0.6,0.7,0.7,1.1c0,0.4-0.3,0.6-0.7,0.3l-8.6-5
							c-0.4-0.2-0.6-0.7-0.7-1.1C10.1,19,10.4,18.9,10.8,19.1z"/>
						<path id="Path_113" class="st5" d="M8.2,21.4l11.2,6.5c0.4,0.2,0.6,0.7,0.7,1.1c0,0.4-0.3,0.6-0.7,0.3L8.2,22.9
							c-0.4-0.2-0.6-0.7-0.7-1.1C7.6,21.3,7.9,21.2,8.2,21.4z"/>
						<path id="Path_114" class="st21" d="M8.2,21.4l11.2,6.5c0.4,0.2,0.6,0.7,0.7,1.1c0,0.4-0.3,0.6-0.7,0.3L8.2,22.9
							c-0.4-0.2-0.6-0.7-0.7-1.1C7.6,21.3,7.9,21.2,8.2,21.4z"/>
						<path id="Path_115" class="st5" d="M10.8,26.7l8.6,5c0.4,0.2,0.6,0.7,0.7,1.1c0,0.4-0.3,0.6-0.7,0.3l-8.6-5
							c-0.4-0.2-0.6-0.7-0.7-1.1C10.1,26.6,10.4,26.4,10.8,26.7z"/>
						<path id="Path_116" class="st21" d="M10.8,26.7l8.6,5c0.4,0.2,0.6,0.7,0.7,1.1c0,0.4-0.3,0.6-0.7,0.3l-8.6-5
							c-0.4-0.2-0.6-0.7-0.7-1.1C10.1,26.6,10.4,26.4,10.8,26.7z"/>
						<path id="Path_117" class="st3" d="M1.4,33.7l20,11.5c0.8,0.5,1.3,1.4,1.3,2.3V93c0,0.8-0.6,1.2-1.3,0.8l-20-11.5
							C0.5,81.7,0,80.9,0,79.9V34.4C0,33.6,0.6,33.2,1.4,33.7z"/>
						<path id="Path_118" class="st5" d="M3.2,37.6L5,38.7c0.4,0.2,0.6,0.7,0.7,1.1c0,0.4-0.3,0.6-0.7,0.3L3.2,39
							c-0.4-0.2-0.6-0.7-0.7-1.1C2.5,37.6,2.8,37.4,3.2,37.6z"/>
						<path id="Path_119" class="st19" d="M3.2,37.6L5,38.7c0.4,0.2,0.6,0.7,0.7,1.1c0,0.4-0.3,0.6-0.7,0.3L3.2,39
							c-0.4-0.2-0.6-0.7-0.7-1.1C2.5,37.6,2.8,37.4,3.2,37.6z"/>
						<path id="Path_120" class="st5" d="M5.8,42.9L7.6,44c0.4,0.2,0.6,0.7,0.7,1.1c0,0.4-0.3,0.6-0.7,0.3l-1.8-1.1
							c-0.4-0.2-0.6-0.7-0.7-1.1C5.1,42.8,5.4,42.7,5.8,42.9z"/>
						<path id="Path_121" class="st19" d="M5.8,42.9L7.6,44c0.4,0.2,0.6,0.7,0.7,1.1c0,0.4-0.3,0.6-0.7,0.3l-1.8-1.1
							c-0.4-0.2-0.6-0.7-0.7-1.1C5.1,42.8,5.4,42.7,5.8,42.9z"/>
						<path id="Path_122" class="st5" d="M5.8,46.6l1.8,1.1C8,48,8.3,48.4,8.3,48.8c0,0.4-0.3,0.6-0.7,0.3L5.8,48
							c-0.4-0.2-0.6-0.7-0.7-1.1C5.1,46.6,5.4,46.4,5.8,46.6z"/>
						<path id="Path_123" class="st19" d="M5.8,46.6l1.8,1.1C8,48,8.3,48.4,8.3,48.8c0,0.4-0.3,0.6-0.7,0.3L5.8,48
							c-0.4-0.2-0.6-0.7-0.7-1.1C5.1,46.6,5.4,46.4,5.8,46.6z"/>
						<path id="Path_124" class="st5" d="M3.2,48.9L5,50c0.4,0.2,0.6,0.7,0.7,1.1c0,0.4-0.3,0.6-0.7,0.3l-1.8-1.1
							c-0.4-0.2-0.6-0.7-0.7-1.1C2.5,48.9,2.8,48.7,3.2,48.9z"/>
						<path id="Path_125" class="st19" d="M3.2,48.9L5,50c0.4,0.2,0.6,0.7,0.7,1.1c0,0.4-0.3,0.6-0.7,0.3l-1.8-1.1
							c-0.4-0.2-0.6-0.7-0.7-1.1C2.5,48.9,2.8,48.7,3.2,48.9z"/>
						<path id="Path_126" class="st5" d="M8.2,40.5L19.5,47c0.4,0.2,0.6,0.7,0.7,1.1c0,0.4-0.3,0.6-0.7,0.3L8.2,42
							c-0.4-0.2-0.6-0.7-0.7-1.1C7.6,40.5,7.9,40.3,8.2,40.5z"/>
						<path id="Path_127" class="st21" d="M8.2,40.5L19.5,47c0.4,0.2,0.6,0.7,0.7,1.1c0,0.4-0.3,0.6-0.7,0.3L8.2,42
							c-0.4-0.2-0.6-0.7-0.7-1.1C7.6,40.5,7.9,40.3,8.2,40.5z"/>
						<path id="Path_128" class="st5" d="M10.8,45.8l8.6,5c0.4,0.2,0.6,0.7,0.7,1.1c0,0.4-0.3,0.6-0.7,0.3l-8.6-5
							c-0.4-0.2-0.6-0.7-0.7-1.1C10.1,45.7,10.4,45.6,10.8,45.8z"/>
						<path id="Path_129" class="st21" d="M10.8,45.8l8.6,5c0.4,0.2,0.6,0.7,0.7,1.1c0,0.4-0.3,0.6-0.7,0.3l-8.6-5
							c-0.4-0.2-0.6-0.7-0.7-1.1C10.1,45.7,10.4,45.6,10.8,45.8z"/>
						<path id="Path_130" class="st5" d="M10.8,49.6l8.6,5c0.4,0.2,0.6,0.7,0.7,1.1c0,0.4-0.3,0.6-0.7,0.3l-8.6-5
							c-0.4-0.2-0.6-0.7-0.7-1.1C10.1,49.5,10.4,49.3,10.8,49.6z"/>
						<path id="Path_131" class="st21" d="M10.8,49.6l8.6,5c0.4,0.2,0.6,0.7,0.7,1.1c0,0.4-0.3,0.6-0.7,0.3l-8.6-5
							c-0.4-0.2-0.6-0.7-0.7-1.1C10.1,49.5,10.4,49.3,10.8,49.6z"/>
						<path id="Path_132" class="st5" d="M8.2,51.9l11.2,6.4c0.4,0.2,0.6,0.7,0.7,1.1c0,0.4-0.3,0.6-0.7,0.3L8.2,53.3
							c-0.4-0.2-0.6-0.7-0.7-1.1C7.6,51.8,7.9,51.6,8.2,51.9z"/>
						<path id="Path_133" class="st21" d="M8.2,51.9l11.2,6.4c0.4,0.2,0.6,0.7,0.7,1.1c0,0.4-0.3,0.6-0.7,0.3L8.2,53.3
							c-0.4-0.2-0.6-0.7-0.7-1.1C7.6,51.8,7.9,51.6,8.2,51.9z"/>
						<path id="Path_134" class="st5" d="M5.8,54.2l1.8,1.1C8,55.5,8.3,56,8.3,56.4S8,57,7.6,56.7l-1.8-1.1
							c-0.4-0.2-0.6-0.7-0.7-1.1C5.1,54.1,5.4,54,5.8,54.2z"/>
						<path id="Path_135" class="st19" d="M5.8,54.2l1.8,1.1C8,55.5,8.3,56,8.3,56.4S8,57,7.6,56.7l-1.8-1.1
							c-0.4-0.2-0.6-0.7-0.7-1.1C5.1,54.1,5.4,54,5.8,54.2z"/>
						<path id="Path_136" class="st5" d="M5.8,58l1.8,1.1c0.4,0.2,0.6,0.7,0.7,1.1c0,0.4-0.3,0.6-0.7,0.3l-1.8-1.1
							c-0.4-0.2-0.6-0.7-0.7-1.1C5.1,57.9,5.4,57.8,5.8,58z"/>
						<path id="Path_137" class="st19" d="M5.8,58l1.8,1.1c0.4,0.2,0.6,0.7,0.7,1.1c0,0.4-0.3,0.6-0.7,0.3l-1.8-1.1
							c-0.4-0.2-0.6-0.7-0.7-1.1C5.1,57.9,5.4,57.8,5.8,58z"/>
						<path id="Path_138" class="st5" d="M10.8,57.1l8.6,5c0.4,0.3,0.7,0.7,0.7,1.2c0,0.4-0.3,0.6-0.7,0.3l-8.6-5
							c-0.4-0.2-0.6-0.7-0.7-1.1C10.1,57.1,10.4,56.9,10.8,57.1z"/>
						<path id="Path_139" class="st21" d="M10.8,57.1l8.6,5c0.4,0.3,0.7,0.7,0.7,1.2c0,0.4-0.3,0.6-0.7,0.3l-8.6-5
							c-0.4-0.2-0.6-0.7-0.7-1.1C10.1,57.1,10.4,56.9,10.8,57.1z"/>
						<path id="Path_140" class="st5" d="M10.8,60.9l8.6,5c0.4,0.2,0.6,0.7,0.7,1.1c0,0.4-0.3,0.6-0.7,0.3l-8.6-5
							c-0.4-0.2-0.6-0.7-0.7-1.1C10.1,60.8,10.4,60.7,10.8,60.9z"/>
						<path id="Path_141" class="st21" d="M10.8,60.9l8.6,5c0.4,0.2,0.6,0.7,0.7,1.1c0,0.4-0.3,0.6-0.7,0.3l-8.6-5
							c-0.4-0.2-0.6-0.7-0.7-1.1C10.1,60.8,10.4,60.7,10.8,60.9z"/>
						<path id="Path_142" class="st5" d="M3.2,67.9l1.8,1c0.4,0.2,0.6,0.7,0.7,1.1c0,0.4-0.3,0.6-0.7,0.3l-1.8-1.1
							c-0.4-0.2-0.6-0.7-0.7-1.1C2.5,67.8,2.8,67.6,3.2,67.9z"/>
						<path id="Path_143" class="st19" d="M3.2,67.9l1.8,1c0.4,0.2,0.6,0.7,0.7,1.1c0,0.4-0.3,0.6-0.7,0.3l-1.8-1.1
							c-0.4-0.2-0.6-0.7-0.7-1.1C2.5,67.8,2.8,67.6,3.2,67.9z"/>
						<path id="Path_144" class="st5" d="M8.2,70.8l11.2,6.5c0.4,0.2,0.6,0.7,0.7,1.1c0,0.4-0.3,0.6-0.7,0.3L8.2,72.2
							c-0.4-0.2-0.6-0.7-0.7-1.1C7.6,70.7,7.9,70.6,8.2,70.8z"/>
						<path id="Path_145" class="st21" d="M8.2,70.8l11.2,6.5c0.4,0.2,0.6,0.7,0.7,1.1c0,0.4-0.3,0.6-0.7,0.3L8.2,72.2
							c-0.4-0.2-0.6-0.7-0.7-1.1C7.6,70.7,7.9,70.6,8.2,70.8z"/>
						<path id="Path_146" class="st5" d="M5.8,73.1l1.8,1.1c0.4,0.2,0.6,0.7,0.7,1.1c0,0.4-0.3,0.6-0.7,0.3l-1.8-1.1
							c-0.4-0.2-0.6-0.7-0.7-1.1C5.1,73.1,5.4,72.9,5.8,73.1z"/>
						<path id="Path_147" class="st19" d="M5.8,73.1l1.8,1.1c0.4,0.2,0.6,0.7,0.7,1.1c0,0.4-0.3,0.6-0.7,0.3l-1.8-1.1
							c-0.4-0.2-0.6-0.7-0.7-1.1C5.1,73.1,5.4,72.9,5.8,73.1z"/>
						<path id="Path_148" class="st5" d="M5.8,76.9L7.6,78c0.4,0.2,0.6,0.7,0.7,1.1c0,0.4-0.3,0.6-0.7,0.3l-1.8-1.1
							c-0.4-0.2-0.6-0.7-0.7-1.1C5.1,76.8,5.4,76.7,5.8,76.9z"/>
						<path id="Path_149" class="st19" d="M5.8,76.9L7.6,78c0.4,0.2,0.6,0.7,0.7,1.1c0,0.4-0.3,0.6-0.7,0.3l-1.8-1.1
							c-0.4-0.2-0.6-0.7-0.7-1.1C5.1,76.8,5.4,76.7,5.8,76.9z"/>
						<path id="Path_150" class="st5" d="M10.8,76l8.6,5c0.4,0.2,0.6,0.7,0.7,1.1c0,0.4-0.3,0.6-0.7,0.3l-8.6-5
							c-0.4-0.2-0.6-0.7-0.7-1.1C10.1,76,10.4,75.8,10.8,76z"/>
						<path id="Path_151" class="st21" d="M10.8,76l8.6,5c0.4,0.2,0.6,0.7,0.7,1.1c0,0.4-0.3,0.6-0.7,0.3l-8.6-5
							c-0.4-0.2-0.6-0.7-0.7-1.1C10.1,76,10.4,75.8,10.8,76z"/>
						<path id="Path_152" class="st5" d="M10.8,79.8l8.6,5c0.4,0.2,0.6,0.7,0.7,1.1c0,0.4-0.3,0.6-0.7,0.3l-8.6-5
							c-0.4-0.2-0.6-0.7-0.7-1.1C10.1,79.8,10.4,79.6,10.8,79.8z"/>
						<path id="Path_153" class="st21" d="M10.8,79.8l8.6,5c0.4,0.2,0.6,0.7,0.7,1.1c0,0.4-0.3,0.6-0.7,0.3l-8.6-5
							c-0.4-0.2-0.6-0.7-0.7-1.1C10.1,79.8,10.4,79.6,10.8,79.8z"/>
						<path id="Path_154" class="st5" d="M5.8,61.7l1.8,1.1C8,63,8.3,63.5,8.3,63.9S8,64.5,7.6,64.2l-1.8-1.1
							c-0.4-0.2-0.6-0.7-0.7-1.1C5.1,61.7,5.4,61.5,5.8,61.7z"/>
						<path id="Path_155" class="st19" d="M5.8,61.7l1.8,1.1C8,63,8.3,63.5,8.3,63.9S8,64.5,7.6,64.2l-1.8-1.1
							c-0.4-0.2-0.6-0.7-0.7-1.1C5.1,61.7,5.4,61.5,5.8,61.7z"/>
						<path id="Path_156" class="st5" d="M3.2,64L5,65.1c0.4,0.2,0.6,0.7,0.7,1.1c0,0.4-0.3,0.6-0.7,0.3l-1.8-1.1
							c-0.4-0.2-0.6-0.7-0.7-1.1C2.5,64,2.8,63.8,3.2,64z"/>
						<path id="Path_157" class="st19" d="M3.2,64L5,65.1c0.4,0.2,0.6,0.7,0.7,1.1c0,0.4-0.3,0.6-0.7,0.3l-1.8-1.1
							c-0.4-0.2-0.6-0.7-0.7-1.1C2.5,64,2.8,63.8,3.2,64z"/>
						<path id="Path_158" class="st5" d="M10.8,64.6l8.6,5c0.4,0.2,0.6,0.7,0.7,1.1c0,0.4-0.3,0.6-0.7,0.3l-8.6-5
							c-0.4-0.2-0.6-0.7-0.7-1.1C10.1,64.6,10.4,64.4,10.8,64.6z"/>
						<path id="Path_159" class="st21" d="M10.8,64.6l8.6,5c0.4,0.2,0.6,0.7,0.7,1.1c0,0.4-0.3,0.6-0.7,0.3l-8.6-5
							c-0.4-0.2-0.6-0.7-0.7-1.1C10.1,64.6,10.4,64.4,10.8,64.6z"/>
						<path id="Path_160" class="st5" d="M8.2,66.9l11.2,6.5c0.4,0.2,0.6,0.7,0.7,1.1c0,0.4-0.3,0.6-0.7,0.3L8.2,68.4
							c-0.4-0.2-0.6-0.7-0.7-1.1C7.6,66.9,7.9,66.7,8.2,66.9z"/>
						<path id="Path_161" class="st21" d="M8.2,66.9l11.2,6.5c0.4,0.2,0.6,0.7,0.7,1.1c0,0.4-0.3,0.6-0.7,0.3L8.2,68.4
							c-0.4-0.2-0.6-0.7-0.7-1.1C7.6,66.9,7.9,66.7,8.2,66.9z"/>
						<path id="Path_162" class="st5" d="M3.2,79.2L5,80.3c0.4,0.2,0.6,0.7,0.7,1.1c0,0.4-0.3,0.6-0.7,0.3l-1.8-1
							c-0.4-0.2-0.6-0.7-0.7-1.1C2.5,79.2,2.8,79,3.2,79.2z"/>
						<path id="Path_163" class="st19" d="M3.2,79.2L5,80.3c0.4,0.2,0.6,0.7,0.7,1.1c0,0.4-0.3,0.6-0.7,0.3l-1.8-1
							c-0.4-0.2-0.6-0.7-0.7-1.1C2.5,79.2,2.8,79,3.2,79.2z"/>
						<path id="Path_164" class="st5" d="M8.2,82.2l11.2,6.5c0.4,0.2,0.6,0.7,0.7,1.1c0,0.4-0.3,0.6-0.7,0.3L8.2,83.6
							c-0.4-0.2-0.6-0.7-0.7-1.1C7.6,82.1,7.9,81.9,8.2,82.2z"/>
						<path id="Path_165" class="st21" d="M8.2,82.2l11.2,6.5c0.4,0.2,0.6,0.7,0.7,1.1c0,0.4-0.3,0.6-0.7,0.3L8.2,83.6
							c-0.4-0.2-0.6-0.7-0.7-1.1C7.6,82.1,7.9,81.9,8.2,82.2z"/>
					</g>
				</g>
				<g id="Window-3" transform="translate(249.383 108.322)">
					<g id="Group_14" transform="translate(0 1.433)" class="st22">
						<path id="Path_166" class="st4" d="M0,4.1v74.7c0.1,1.1,0.6,2.1,1.6,2.7l42.9,24.8c0.1,0.1,0.3,0.2,0.5,0.1h0.2h0.1l0.1-0.1
							l0.1-0.1l0.1-0.1c0.1-0.1,0.2-0.2,0.3-0.4c0.1-0.2,0.2-0.5,0.2-0.8V30.6c-0.1-1.1-0.6-2.1-1.5-2.6L1.6,3.2
							C1.3,3,0.9,3,0.5,3.1L0.4,3.2l0,0L0.3,3.3v0.1v0.1c0,0.1-0.1,0.1-0.1,0.2v0.1l0,0v0.1C0,3.9,0,4,0,4.1z"/>
					</g>
					<path id="Path_167" class="st5" d="M0.5,4.5c0.3-0.1,0.7-0.1,1,0.1l42.9,24.8c1,0.6,1.6,1.6,1.6,2.7v5.1l2.5-1.4v-5.1
						c-0.1-1.1-0.6-2.1-1.6-2.7L4,3.2C3.7,3,3.3,2.9,2.9,3.1C2.6,3.3,0.8,4.3,0.5,4.5z"/>
					<path id="Path_168" class="st8" d="M0,5.5c0-1,0.7-1.4,1.5-0.9l42.9,24.8c1,0.6,1.6,1.6,1.6,2.7v5.1L0,10.6V5.5z"/>
					<g id="Group_15" transform="translate(0.549 0.042)" class="st17">
						<path id="Path_169" class="st1" d="M1,4.6l42.9,24.8c0.5,0.3,0.8,0.7,1.1,1.1l2.5-1.4c-0.3-0.5-0.6-0.9-1.1-1.1L3.5,3.2
							C3.2,3,2.8,2.9,2.4,3.1C2.1,3.3,0.3,4.3,0,4.5C0.3,4.4,0.7,4.4,1,4.6L1,4.6z"/>
					</g>
					<path id="Path_170" class="st10" d="M48.5,35.7v-5c0-0.5-0.2-1.1-0.5-1.5l-2.5,1.4c0.3,0.5,0.4,1,0.5,1.5v5.1L48.5,35.7z"/>
					<path id="Path_171" class="st4" d="M43.8,31.4c0.6,0.4,0.9,1.1,0.9,1.9c0,0.7-0.4,1.1-0.9,0.8c-0.6-0.4-0.9-1.1-0.9-1.9
						C42.9,31.5,43.3,31.2,43.8,31.4z"/>
					<path id="Path_172" class="st4" d="M40.6,29.6c0.5,0.5,0.9,1.1,0.8,1.9c0,0.7-0.4,1.1-0.8,0.8c-0.6-0.4-0.9-1.1-0.9-1.9
						C39.7,29.7,40.1,29.3,40.6,29.6z"/>
					<path id="Path_173" class="st4" d="M37.5,27.8c0.6,0.4,0.9,1.1,0.9,1.9c0,0.7-0.4,1.1-0.9,0.8c-0.6-0.4-0.9-1.1-0.9-1.9
						C36.6,27.9,37,27.5,37.5,27.8z"/>
					<g id="Group_16" transform="translate(45.459 32.664)" class="st23">
						<path id="Path_174" class="st3" d="M0,75l0.2-0.1l0.5-0.3l0,0L1,74.5l0,0l0.4-0.2l0.8-0.5l0.2-0.1c0.1-0.1,0.2-0.1,0.3-0.2
							s0.2-0.2,0.2-0.3C3,72.9,3,72.6,3,72.3V3L0.5,4.4v69.2c0,0.3-0.1,0.5-0.2,0.8c-0.1,0.2-0.2,0.3-0.3,0.4C0.1,74.9,0,74.9,0,75
							L0,75z"/>
					</g>
					<path id="Path_175" class="st5" d="M3.6,19.2c0-0.1,0-0.1,0.1-0.2l1.1-1l0,0l0.1,0.1c0,0.1,0,0.1,0,0.2V19c0,0.1,0,0.1,0,0.2
						c0,0,0,0.1-0.1,0.1l-0.6,0.5L4.8,21c0,0.1,0.1,0.1,0.1,0.2s0,0.2,0,0.2v0.8v0.1H4.8l0,0c0,0,0,0,0-0.1L3.6,20
						c0-0.1-0.1-0.2-0.1-0.3L3.6,19.2L3.6,19.2z"/>
					<path id="Path_176" class="st5" d="M7.6,18.1c0,0,0-0.1,0.1-0.1h0.2l0.4,0.2l0.1,0.1v0.1v0.1l-1.9,5.9c0,0.1,0,0.1-0.1,0.1
						s-0.1,0-0.2,0l-0.4-0.2l-0.1-0.1c0,0,0-0.1,0-0.2l0,0L7.6,18.1z"/>
					<path id="Path_177" class="st5" d="M10.6,23.8c0,0.1,0,0.2-0.1,0.2l-1.1,1l0,0l-0.1-0.1c0-0.1,0-0.1,0-0.2V24
						c0-0.1,0-0.1,0-0.2c0,0,0-0.1,0.1-0.1l0.6-0.5L9.4,22c0-0.1-0.1-0.1-0.1-0.2s0-0.2,0-0.2v-0.9h0.1l0,0c0,0,0,0,0,0.1l1.1,2.3
						c0.1,0.1,0.1,0.2,0.1,0.3V23.8z"/>
					<path id="Path_178" class="st5" d="M13.7,26.8l0.1,0.1c0,0.1,0,0.1,0,0.2V28c0,0.1,0,0.1,0,0.1h-0.1l-0.5-0.3l-0.1-0.1
						c0-0.1,0-0.1,0-0.2v-0.8c0-0.1,0-0.1,0-0.1h0.1L13.7,26.8z"/>
					<path id="Path_179" class="st5" d="M15.5,27.9l0.1,0.1c0,0.1,0,0.1,0,0.2V29c0,0.1,0,0.1,0,0.1h-0.1l0,0L15,28.8l-0.1-0.1
						c0-0.1,0-0.1,0-0.2v-0.8c0-0.1,0-0.1,0-0.1H15L15.5,27.9z"/>
					<path id="Path_180" class="st5" d="M17.2,28.9l0.1,0.1c0,0.1,0,0.1,0,0.2V30c0,0.1,0,0.1,0,0.1h-0.1l0,0l-0.5-0.3l-0.1-0.1
						c0-0.1,0-0.1,0-0.2v-0.8c0-0.1,0-0.1,0-0.1h0.1L17.2,28.9z"/>
					<path id="Path_181" class="st5" d="M4,25.9l25.8,14.9c0.3,0.2,0.5,0.5,0.6,0.9c0,0.3-0.3,0.4-0.6,0.3L4,27.1
						c-0.3-0.2-0.5-0.5-0.5-0.9C3.5,25.9,3.7,25.8,4,25.9z"/>
					<path id="Path_182" class="st2" d="M12.3,45l25.8,14.9c0.3,0.2,0.5,0.5,0.5,0.9c0,0.3-0.3,0.5-0.5,0.3L12.3,46.2
						c-0.3-0.2-0.5-0.5-0.6-0.9C11.8,45,12,44.9,12.3,45z"/>
					<path id="Path_183" class="st2" d="M12.3,54.6l12.4,7.1c0.3,0.2,0.5,0.5,0.5,0.9c0,0.3-0.2,0.5-0.5,0.3l-12.3-7.1
						c-0.3-0.2-0.5-0.5-0.6-0.9C11.8,54.5,12,54.4,12.3,54.6z"/>
					<path id="Path_184" class="st5" d="M32,42l10.3,5.9c0.3,0.2,0.5,0.5,0.5,0.9c0,0.3-0.3,0.5-0.5,0.3L32,43.2
						c-0.3-0.2-0.5-0.5-0.5-0.9C31.4,42,31.7,41.9,32,42z"/>
					<path id="Path_185" class="st5" d="M4,78.5l25.8,14.9c0.3,0.2,0.5,0.5,0.6,0.9c0,0.3-0.3,0.4-0.6,0.3L4,79.7
						c-0.3-0.2-0.5-0.5-0.5-0.9C3.5,78.4,3.7,78.3,4,78.5z"/>
					<path id="Path_186" class="st5" d="M32,94.6l10.3,5.9c0.3,0.2,0.5,0.5,0.5,0.9c0,0.3-0.3,0.5-0.5,0.3L32,95.8
						c-0.3-0.2-0.5-0.5-0.5-0.9C31.4,94.5,31.7,94.4,32,94.6z"/>
					<path id="Path_187" class="st5" d="M32,80.3l10.3,5.9c0.3,0.2,0.5,0.5,0.5,0.9c0,0.3-0.3,0.5-0.5,0.3L32,81.5
						c-0.3-0.2-0.5-0.5-0.5-0.9C31.4,80.2,31.7,80.1,32,80.3z"/>
					<path id="Path_188" class="st5" d="M32,85l10.2,6c0.3,0.2,0.5,0.5,0.5,0.9c0,0.3-0.3,0.5-0.5,0.3l-10.2-6
						c-0.3-0.2-0.5-0.5-0.5-0.9C31.4,85,31.7,84.9,32,85z"/>
					<path id="Path_189" class="st5" d="M23.2,75.2l5.8,3.3c0.3,0.2,0.5,0.5,0.5,0.9c0,0.3-0.2,0.5-0.5,0.3l-5.8-3.3
						c-0.3-0.2-0.5-0.5-0.5-0.9C22.6,75.1,22.9,75,23.2,75.2z"/>
					<path id="Path_190" class="st5" d="M4,30.7l15,8.7c0.3,0.2,0.5,0.5,0.5,0.9c0,0.3-0.2,0.4-0.5,0.3L4,31.9
						c-0.3-0.2-0.5-0.5-0.5-0.9C3.5,30.7,3.7,30.5,4,30.7z"/>
					<path id="Path_191" class="st19" d="M4,30.7l15,8.7c0.3,0.2,0.5,0.5,0.5,0.9c0,0.3-0.2,0.4-0.5,0.3L4,31.9
						c-0.3-0.2-0.5-0.5-0.5-0.9C3.5,30.7,3.7,30.5,4,30.7z"/>
					<path id="Path_192" class="st5" d="M4,35.5l5.1,2.9c0.3,0.2,0.5,0.6,0.5,0.9c0,0.3-0.3,0.4-0.5,0.3L4,36.7
						c-0.3-0.2-0.5-0.5-0.5-0.9C3.5,35.4,3.7,35.3,4,35.5z"/>
					<path id="Path_193" class="st19" d="M4,35.5l5.1,2.9c0.3,0.2,0.5,0.6,0.5,0.9c0,0.3-0.3,0.4-0.5,0.3L4,36.7
						c-0.3-0.2-0.5-0.5-0.5-0.9C3.5,35.4,3.7,35.3,4,35.5z"/>
					<path id="Path_194" class="st5" d="M4,40.3l5.1,2.9c0.3,0.2,0.5,0.5,0.5,0.9c0,0.3-0.3,0.4-0.5,0.3L4,41.5
						c-0.3-0.2-0.5-0.5-0.5-0.9C3.5,40.2,3.7,40.1,4,40.3z"/>
					<path id="Path_195" class="st19" d="M4,40.3l5.1,2.9c0.3,0.2,0.5,0.5,0.5,0.9c0,0.3-0.3,0.4-0.5,0.3L4,41.5
						c-0.3-0.2-0.5-0.5-0.5-0.9C3.5,40.2,3.7,40.1,4,40.3z"/>
					<path id="Path_196" class="st5" d="M4,45l5.1,3c0.3,0.2,0.5,0.5,0.5,0.9c0,0.3-0.3,0.4-0.5,0.3l-5.1-3
						c-0.3-0.2-0.5-0.5-0.5-0.9C3.5,45,3.7,44.9,4,45z"/>
					<path id="Path_197" class="st19" d="M4,45l5.1,3c0.3,0.2,0.5,0.5,0.5,0.9c0,0.3-0.3,0.5-0.5,0.3l-5.1-3
						c-0.3-0.2-0.5-0.5-0.5-0.9C3.5,45,3.7,44.9,4,45z"/>
					<path id="Path_198" class="st24" d="M12.3,49.8l15,8.7c0.3,0.2,0.5,0.5,0.5,0.9c0,0.3-0.2,0.4-0.5,0.3l-15-8.7
						c-0.3-0.2-0.5-0.5-0.6-0.9C11.8,49.8,12,49.6,12.3,49.8z"/>
					<path id="Path_199" class="st24" d="M29.5,59.7l6.5,3.8c0.3,0.2,0.5,0.5,0.5,0.9c0,0.3-0.2,0.5-0.5,0.3l-6.5-3.8
						C29.2,60.7,29,60.4,29,60C28.9,59.7,29.2,59.5,29.5,59.7z"/>
					<path id="Path_200" class="st19" d="M12.3,49.8l15,8.7c0.3,0.2,0.5,0.5,0.5,0.9c0,0.3-0.2,0.4-0.5,0.3l-15-8.7
						c-0.3-0.2-0.5-0.5-0.6-0.9C11.8,49.8,12,49.6,12.3,49.8z"/>
					<path id="Path_201" class="st19" d="M29.5,59.7l6.5,3.8c0.3,0.2,0.5,0.5,0.5,0.9c0,0.3-0.2,0.5-0.5,0.3l-6.5-3.8
						C29.2,60.7,29,60.4,29,60C28.9,59.7,29.2,59.5,29.5,59.7z"/>
					<path id="Path_202" class="st5" d="M4,49.8l5.1,2.9c0.3,0.2,0.5,0.5,0.5,0.9c0,0.3-0.3,0.4-0.5,0.3L4,51
						c-0.3-0.2-0.5-0.5-0.5-0.9C3.5,49.8,3.7,49.6,4,49.8z"/>
					<path id="Path_203" class="st19" d="M4,49.8l5.1,2.9c0.3,0.2,0.5,0.5,0.5,0.9c0,0.3-0.3,0.4-0.5,0.3L4,51
						c-0.3-0.2-0.5-0.5-0.5-0.9C3.5,49.8,3.7,49.6,4,49.8z"/>
					<path id="Path_204" class="st5" d="M21.2,40.6l6.5,3.8c0.3,0.2,0.5,0.5,0.5,0.9c0,0.3-0.3,0.5-0.5,0.3l-6.5-3.8
						c-0.3-0.2-0.5-0.5-0.6-0.9C20.7,40.6,20.9,40.4,21.2,40.6z"/>
					<path id="Path_205" class="st19" d="M21.2,40.6l6.5,3.8c0.3,0.2,0.5,0.5,0.5,0.9c0,0.3-0.3,0.5-0.5,0.3l-6.5-3.8
						c-0.3-0.2-0.5-0.5-0.6-0.9C20.7,40.6,20.9,40.4,21.2,40.6z"/>
					<path id="Path_206" class="st1" d="M18.5,62.9l15,8.7c0.3,0.2,0.5,0.5,0.5,0.9c0,0.3-0.2,0.4-0.5,0.3l-15-8.7
						c-0.3-0.2-0.5-0.5-0.5-0.9C18,62.9,18.2,62.8,18.5,62.9z"/>
					<path id="Path_207" class="st1" d="M27.2,72.7l15,8.7c0.3,0.2,0.5,0.5,0.5,0.9c0,0.3-0.3,0.5-0.5,0.3l-15-8.7
						c-0.3-0.2-0.5-0.5-0.5-0.9C26.6,72.7,26.9,72.6,27.2,72.7z"/>
					<path id="Path_208" class="st1" d="M35.7,72.8l6.5,3.8c0.3,0.2,0.5,0.5,0.5,0.9c0,0.3-0.2,0.5-0.5,0.3L35.7,74
						c-0.3-0.2-0.5-0.5-0.5-0.9C35.1,72.8,35.4,72.7,35.7,72.8z"/>
					<path id="Path_209" class="st2" d="M35.7,91.8l6.5,3.8c0.3,0.2,0.5,0.5,0.5,0.9c0,0.3-0.3,0.4-0.5,0.3L35.7,93
						c-0.3-0.2-0.5-0.5-0.5-0.9C35.1,91.7,35.4,91.6,35.7,91.8z"/>
					<path id="Path_210" class="st5" d="M12.3,40.3l15,8.7c0.3,0.2,0.5,0.5,0.5,0.9c0,0.3-0.2,0.4-0.5,0.3l-15-8.7
						c-0.3-0.2-0.5-0.5-0.6-0.9C11.8,40.2,12,40.1,12.3,40.3z"/>
					<path id="Path_211" class="st19" d="M12.3,40.3l15,8.7c0.3,0.2,0.5,0.5,0.5,0.9c0,0.3-0.2,0.4-0.5,0.3l-15-8.7
						c-0.3-0.2-0.5-0.5-0.6-0.9C11.8,40.2,12,40.1,12.3,40.3z"/>
					<path id="Path_212" class="st5" d="M29.5,50.2L36,54c0.3,0.2,0.5,0.5,0.5,0.9c0,0.3-0.2,0.5-0.5,0.3l-6.5-3.8
						c-0.3-0.2-0.5-0.5-0.5-0.9C28.9,50.1,29.2,50,29.5,50.2z"/>
					<path id="Path_213" class="st19" d="M29.5,50.2L36,54c0.3,0.2,0.5,0.5,0.5,0.9c0,0.3-0.2,0.5-0.5,0.3l-6.5-3.8
						c-0.3-0.2-0.5-0.5-0.5-0.9C28.9,50.1,29.2,50,29.5,50.2z"/>
				</g>
				<g id="Mouse" transform="translate(174.237 193.008)">
					<path id="Path_214" class="st10" d="M2.1,20.2l9.2,5.3c3.2,1.7,7.1,1.5,10.2-0.5l15.2-11.1c2.7-2,2.6-4.9-0.3-6.6l-4.6-2.7
						c-3.3-1.7-7.3-1.8-10.7-0.3L2.3,14.5C-0.7,15.9-0.8,18.5,2.1,20.2z"/>
					<path id="Path_215" class="st3" d="M37,9.1l-10.5,8.2l-7.8,6.1c-0.8,0.4-1.6,0.6-2.5,0.6c-1.3,0.1-2.5-0.2-3.7-0.8l-8.2-4.8
						l0,0c-2.7-1.7-3.6-5.3-1.9-8c0.1-0.1,0.1-0.2,0.2-0.3l0.2-0.3c1.6-2.2,4-3.6,6.7-4.2l4.2-0.8c6.8-1.4,12.3-2,13-1.6L37,9.1
						C36.9,9.1,36.9,9.1,37,9.1L37,9.1L37,9.1z"/>
					<path id="Path_216" class="st8" d="M31.1,13.6l0.6-0.5l-9.2-5.4l8.1-2.5l-0.8-0.5l-8.1,2.5L16.2,4l-1,0.2L31.1,13.6z"/>
					<path id="Path_217" class="st11" d="M19.6,22.9L19.6,22.9l7.4-5.3l10-7.2V9.2V9.1c0,0,0,0-0.1,0c-0.7-0.3-5.1,1-10.3,3.1
						l-3.5,1.4c-1.1,0.4-2.1,1-2.9,1.7c-2.5,2.1-4,5.1-4,8.4v0.2c0.9,0,1.7-0.2,2.5-0.6L19.6,22.9z"/>
				</g>
			</g>
		</g>
		<g id="Plant" transform="translate(322.146 254.814)">
			<g id="Pot">
				<path id="Path_218" class="st5" d="M17.3,121.4C7.1,110.9,1.1,68.3,11,60h50.4c9.9,8.3,3.9,50.9-6.2,61.4l-0.3,0.3l-0.3,0.3
					c-0.3,0.3-0.6,0.6-0.9,0.8l-0.2,0.2c-0.3,0.2-0.5,0.4-0.8,0.6c-0.4,0.3-0.9,0.6-1.3,0.8c-8.3,4.9-21.9,4.9-30.2,0l0,0
					c-0.4-0.3-0.9-0.5-1.3-0.8c-0.3-0.2-0.5-0.4-0.7-0.5l-0.3-0.2c-0.3-0.3-0.6-0.5-0.9-0.8c-0.1-0.1-0.3-0.3-0.4-0.4
					S17.3,121.5,17.3,121.4z"/>
				<g id="Group_17" transform="translate(5.981 56.988)" class="st17">
					<path id="Path_219" class="st1" d="M11.3,64.4C1.1,53.9-4.8,11.3,5.1,3h50.4c9.9,8.3,3.9,50.9-6.2,61.4L49,64.7L48.6,65
						c-0.3,0.3-0.6,0.6-0.9,0.8L47.5,66c-0.3,0.2-0.5,0.4-0.8,0.6c-0.4,0.3-0.9,0.6-1.3,0.8c-8.3,4.9-21.9,4.9-30.2,0l0,0
						c-0.4-0.3-0.9-0.5-1.3-0.8c-0.3-0.2-0.5-0.4-0.7-0.5l-0.3-0.2c-0.3-0.3-0.6-0.5-0.9-0.8c-0.1-0.1-0.3-0.3-0.4-0.4
						S11.4,64.5,11.3,64.4z"/>
				</g>
				<path id="Path_220" class="st5" d="M57,56.7c11.5,6.7,11.5,17.6,0,24.3s-30.1,6.7-41.6,0S4,63.4,15.4,56.7S45.6,50,57,56.7z"/>
				<g id="Group_18" transform="translate(6.832 48.611)" class="st25">
					<path id="Path_221" class="st1" d="M50.2,8c11.5,6.7,11.5,17.6,0,24.3s-30.1,6.7-41.6,0S-2.9,14.8,8.6,8S38.7,1.3,50.2,8z"/>
				</g>
				<path id="Path_222" class="st5" d="M51.5,59.9c8.4,4.9,8.4,12.9,0,17.8s-22.1,4.9-30.6,0s-8.4-12.9,0-17.8S43.1,55,51.5,59.9z"
					/>
				<g id="Group_19" transform="translate(14.62 53.178)" class="st26">
					<path id="Path_223" d="M36.9,6.7c8.4,4.9,8.4,12.9,0,17.8s-22.1,4.9-30.6,0s-8.4-12.9,0-17.8S28.5,1.8,36.9,6.7z"/>
				</g>
				<path id="Path_224" class="st13" d="M20.9,68.4c8.4-4.9,22.1-4.9,30.6,0c2,1.1,3.8,2.7,5,4.7c-1.3,2-3,3.6-5,4.7
					c-8.4,4.9-22.1,4.9-30.6,0c-2-1.1-3.8-2.7-5-4.7C17.2,71.1,18.9,69.5,20.9,68.4z"/>
				<g id="Plants">
					<path id="Path_225" class="st5" d="M32.1,46.8c-0.6-1.2-1-2.4-1.3-3.7c-0.6-3.1,0.2-6.6,2.7-8.5c1-0.8,2.3-1.3,2.7-2.5
						c0.2-0.7,0.2-1.4,0-2c-0.5-2.6-1.3-5.3-0.6-7.9c0.8-2.4,2.6-4.3,4.9-5.2c2.3-1,4.7-1.6,7.1-1.9c1.3-0.1,2.6-0.5,3.8-1.1
						c1.4-0.8,1.8-2.2,2.7-3.4c1-1.3,2.2-2.6,3.5-3.7c2.6-2.3,5.8-4.2,9.3-4c7.4,0.3,7.2,6.7,5.1,11.5S69.2,21,73.8,26
						s4.6,11.2-0.9,14.7s-9.2,3.9-6.9,10.6c2,6,3.2,11.1-2.4,17.5c-3.6,4.1-8.4,7.1-14.5,6.8c-2.4-0.2-4.9-0.8-7.1-1.7
						c-1.7-0.8-0.5-2.1-1.1-3.8l-3.7-10.7c-0.8-2.9-1.8-5.7-2.9-8.4C33.6,49.6,32.8,48.3,32.1,46.8z"/>
					<g id="Group_20" transform="translate(30.649)" class="st27">
						<path id="Path_226" d="M1.5,46.8c-0.6-1.2-1-2.4-1.3-3.7c-0.6-3.1,0.2-6.6,2.7-8.5c1-0.8,2.3-1.3,2.7-2.5c0.2-0.7,0.2-1.4,0-2
							c-0.5-2.6-1.3-5.3-0.6-7.9c0.8-2.4,2.6-4.3,4.9-5.2c2.3-1,4.7-1.6,7.1-1.9c1.3-0.1,2.6-0.5,3.8-1.1c1.4-0.8,1.8-2.2,2.7-3.4
							c1-1.3,2.2-2.6,3.5-3.7c2.6-2.3,5.8-4.2,9.3-4c7.4,0.3,7.2,6.7,5.1,11.5S38.6,21,43.2,26s4.6,11.2-0.9,14.7s-9.2,3.9-6.9,10.6
							c2,6,3.2,11.1-2.4,17.5c-3.6,4.1-8.4,7.1-14.5,6.8c-2.4-0.2-4.9-0.8-7.1-1.7c-1.7-0.8-0.5-2.1-1.1-3.8L6.6,59.5
							c-0.8-2.9-1.8-5.7-2.9-8.4C3,49.6,2.1,48.3,1.5,46.8z"/>
					</g>
					<path id="Path_227" class="st1" d="M42.2,73.9c0.2-0.1,0.4-0.3,0.4-0.5c-0.4-36.6,19.8-58.4,20-58.6c0.2-0.2,0.2-0.6,0-0.8l0,0
						c-0.2-0.2-0.5-0.2-0.8,0l0,0c-0.2,0.2-20.7,22.4-20.4,59.4c0,0.3,0.2,0.5,0.5,0.5l0,0H42.2z"/>
					<path id="Path_228" class="st1" d="M48,39.9L48,39.9c6.7-4.3,18.4-7.3,18.5-7.3c0.3-0.1,0.5-0.4,0.4-0.7s-0.4-0.5-0.7-0.4
						c-0.5,0.1-12,3.2-18.7,7.4c-0.3,0.2-0.4,0.5-0.2,0.7C47.5,39.9,47.8,40,48,39.9L48,39.9z"/>
					<path id="Path_229" class="st1" d="M50.1,34.9L50.1,34.9c0.3-0.1,0.4-0.4,0.3-0.7l0,0c-1.5-3.7-3.6-7.1-6-10.2
						c-0.2-0.2-0.5-0.3-0.8-0.1l0,0c-0.2,0.2-0.3,0.5-0.1,0.8c2.4,3,4.4,6.3,5.9,9.9C49.5,34.9,49.8,35,50.1,34.9L50.1,34.9
						L50.1,34.9z"/>
					<path id="Path_230" class="st5" d="M37,77.9c-5.2,1.6-10.8,1.8-16.1,0.6C11.7,76.5,6,67.9,6,67.9s10-4,15.8-4.4
						c-5.8-0.9-11.7-0.7-17.5,0.4c0,0-5.3-2-4.3-11c0,0,5-3.7,16.6-2.2c0,0-5.8-4.2-15.9-5.4c-0.8,0,0.3-11.7,1.2-17s2.9-4.4,7-4
						s16.4,3.2,18,6.3s0,10.7,0,10.7c2.1-2.9,3.3-6.4,3.4-10c0,0,4.6,1.7,7.1,3.9c1.9,1.5,3.4,3.4,4.4,5.5
						c-0.6,4.1-2.5,10.4-5.2,13.9c0,0,6.1-4,7.5-11.2c3,4.2,4.7,9.2,4.9,14.3C49.1,66.9,45,73.7,37,77.9z"/>
					<path id="Path_231" class="st28" d="M37,77.9c-5.2,1.6-10.8,1.8-16.1,0.6C11.7,76.5,6,67.9,6,67.9s10-4,15.8-4.4
						c-5.8-0.9-11.7-0.7-17.5,0.4c0,0-5.3-2-4.3-11c0,0,5-3.7,16.6-2.2c0,0-5.8-4.2-15.9-5.4c-0.8,0,0.3-11.7,1.2-17s2.9-4.4,7-4
						s16.4,3.2,18,6.3s0,10.7,0,10.7c2.1-2.9,3.3-6.4,3.4-10c0,0,4.6,1.7,7.1,3.9c1.9,1.5,3.4,3.4,4.4,5.5
						c-0.6,4.1-2.5,10.4-5.2,13.9c0,0,6.1-4,7.5-11.2c3,4.2,4.7,9.2,4.9,14.3C49.1,66.9,45,73.7,37,77.9z"/>
					<path id="Path_232" class="st1" d="M38.3,77.1C38.1,77,38,76.8,38,76.6C36.5,59.1,17,31.9,8.4,26.4c-0.2-0.2-0.3-0.5-0.2-0.7
						c0.2-0.2,0.5-0.3,0.7-0.2l0,0c8.8,5.6,28.6,33.3,30.1,51c0,0.3-0.2,0.5-0.5,0.6C38.4,77.1,38.3,77.1,38.3,77.1L38.3,77.1z"/>
				</g>
			</g>
		</g>
		<g id="Character" transform="translate(55.903 90.916)">
			<g id="Character-2" transform="translate(0)">
				<path id="Path_233" class="st29" d="M127.8,230.1c0-0.2-3.1-11.5-3.1-11.5s1,1,7.6-0.7c2.5-0.7,4.9-1.8,7.1-3l1.9,8.3
					c1.7,3.2,7.5,1.7,13.9,1c1.1-0.1,2.2-0.3,3.3-0.5h0.1c3.4-0.2,6.9,1.9,3.3,4.8s-9.4,4-14.8,5C140.4,234.6,129,236.5,127.8,230.1
					z"/>
				<path id="Path_234" class="st11" d="M173.3,229.1c0.5,1.1,0.6,2.3,0.5,3.5c-0.1,1.3-3.2,5.5-8.8,8.2s-12.3,2.8-15.5,3.7
					s-6.1,2.8-9.9,3.7s-7.5,1.4-11.3-1.1c-0.7-1.1-1.5-3.5-1.2-3.8C127.7,242.6,173.3,229.1,173.3,229.1z"/>
				<path id="Path_235" class="st8" d="M142.2,224.2c2.4,1.7,7.5,0.5,12.9-0.1c5.1-0.6,10.9-2.4,14.4-1.2s6.4,5.3,1.7,10.6
					c-1.4,1.5-4.2,4.2-6.5,5c-5.8,2.1-11.1,2.3-14.9,3.2c-4.9,1.2-7.6,3.3-12.1,3.9c-5.8,0.7-9.6-0.8-10.6-2.4
					c-1-1.6-2-14.1,0.6-13.9c0,0,1.1,4.1,10.6,0.1C142.5,227.7,142.4,225.2,142.2,224.2z"/>
				<path id="Path_236" class="st8" d="M142.2,224.2c2.4,1.7,7.5,0.5,12.9-0.1c5.1-0.6,10.9-2.4,14.4-1.2s6.4,5.3,1.7,10.6
					c-1.4,1.5-4.2,4.2-6.5,5c-5.8,2.1-11.1,2.3-14.9,3.2c-4.9,1.2-7.6,3.3-12.1,3.9c-5.8,0.7-9.6-0.8-10.6-2.4
					c-1-1.6-2-14.1,0.6-13.9c0,0,1.1,4.1,10.6,0.1C142.5,227.7,142.4,225.2,142.2,224.2z"/>
				<path id="Path_237" class="st30" d="M158.5,231c0,0-0.5-5.3-4.5-6.7c-0.7-0.3-1.6-0.2-2.2,0.3c0,0,3.6,0.5,4.8,6.8
					c0,0,0.2,0.4,1,0.3C157.9,231.6,158.5,231.4,158.5,231z"/>
				<path id="Path_238" class="st30" d="M148.5,225c0,0,0-0.2,0.9-0.3c0.4-0.1,0.7,0,1.1,0.1c0,0,2.9,1.3,3.5,6.8c0,0,0,0.7-0.9,0.8
					c-0.4,0.1-0.9-0.1-1-0.5l0,0C152,231.9,151.4,226,148.5,225z"/>
				<path id="Path_239" class="st30" d="M145.3,225.1c0,0,0.2-0.3,0.8-0.3c0.8,0,1.1,0.3,1.1,0.3s2.1,2.1,2.1,6.8c0,0,0.1,0.8-1,0.9
					s-0.9-0.8-0.9-0.8S147,226,145.3,225.1z"/>
				<path id="Path_240" class="st3" d="M123.8,153c4.8,14.4,17.5,64,17.5,64s-8.3,7.4-17.2,4l-21.4-61.8L123.8,153z"/>
				<path id="Path_241" class="st29" d="M160.7,246.1c-1-1.5-4.7-11.5-4.7-11.5s3.8,2.2,10.5,0.6c3.3-0.8,6.5-4.4,6.5-4.4l2.8,9.7
					c1.7,3.2,7.1,2.2,13.4,1.6c1.1-0.1,2.2-0.3,3.3-0.4h0.1c3.4-0.1,6.8,2,3.2,4.9s-9.5,3.8-15,4.6
					C174.2,252.1,164.4,251.5,160.7,246.1z"/>
				<path id="Path_242" class="st11" d="M210,245.8c0.5,1.2,0.6,2.5,0.4,3.8c-0.2,1.3-3.6,5.8-9.6,8.5c-6,2.7-13.3,2.7-16.8,3.6
					s-6.7,2.8-10.7,3.7s-8.1,1.3-12.1-1.5c-0.7-1.2-1.5-3.9-1.2-4.1C160.7,259.1,210,245.8,210,245.8z"/>
				<path id="Path_243" class="st8" d="M176.8,239.7c0.4,0.3,0.8,0.5,1.2,0.7s0.9,0.3,1.3,0.3c1.1,0.1,2.1,0.1,3.2,0.1
					c2.7-0.1,5.4-0.5,8-0.8c5.5-0.5,11.7-2.3,15.5-0.9s7.1,5.8,1.9,11.4c-2,2.1-4.3,3.9-7,5.3c-6.1,2.6-12.5,2.1-16.6,3
					c-5.3,1.2-8.2,3.4-13.1,3.9c-6.3,0.6-10.2-1.1-11.3-2.8c-0.6-0.9,0.1-5.9-0.7-9.7c-0.7-3.3-0.5-5.6,0.7-5.4
					c0.3,0.4,0.6,0.8,0.9,1.2c0.4,0.5,0.9,0.8,1.4,1.1c0.8,0.4,1.5,0.6,2.4,0.8c1.4,0.4,2.9,0.6,4.4,0.6c0.4,0,0.8-0.1,1.2-0.4
					c0.4-0.4,0.6-0.9,0.7-1.5c0.1-0.5,0.2-1,0.3-1.5c0-0.3,0.1-0.5,0.3-0.8s0.5-0.5,0.7-0.6c0.9-0.4,1.8-1,2.4-1.8
					c0.4-0.7,0.6-1.5,0.7-2.3c0-0.1,0.1-0.3,0.2-0.4c0.2-0.1,0.4,0,0.6,0.1L176.8,239.7z"/>
				<path id="Path_244" class="st8" d="M176.8,239.7c0.4,0.3,0.8,0.5,1.2,0.7s0.9,0.3,1.3,0.3c1.1,0.1,2.1,0.1,3.2,0.1
					c2.7-0.1,5.4-0.5,8-0.8c5.5-0.5,11.7-2.3,15.5-0.9s7.1,5.8,1.9,11.4c-2,2.1-4.3,3.9-7,5.3c-6.1,2.6-12.5,2.1-16.6,3
					c-5.3,1.2-8.2,3.4-13.1,3.9c-6.3,0.6-10.2-1.1-11.3-2.8c-0.6-0.9,0.1-5.9-0.7-9.7c-0.7-3.3-0.5-5.6,0.7-5.4
					c0.3,0.4,0.6,0.8,0.9,1.2c0.4,0.5,0.9,0.8,1.4,1.1c0.8,0.4,1.5,0.6,2.4,0.8c1.4,0.4,2.9,0.6,4.4,0.6c0.4,0,0.8-0.1,1.2-0.4
					c0.4-0.4,0.6-0.9,0.7-1.5c0.1-0.5,0.2-1,0.3-1.5c0-0.3,0.1-0.5,0.3-0.8s0.5-0.5,0.7-0.6c0.9-0.4,1.8-1,2.4-1.8
					c0.4-0.7,0.6-1.5,0.7-2.3c0-0.1,0.1-0.3,0.2-0.4c0.2-0.1,0.4,0,0.6,0.1L176.8,239.7z"/>
				<path id="Path_245" class="st30" d="M194,247.5c0,0-0.4-5.7-4.6-7.3c-0.8-0.4-1.7-0.3-2.3,0.3c0,0,3.9,0.7,5,7.4
					c0,0,0.2,0.4,1,0.3C193.4,248,194.1,247.9,194,247.5z"/>
				<path id="Path_246" class="st30" d="M183.4,240.7c0,0,0-0.2,1-0.4c0.4-0.1,0.8,0,1.2,0.1c0,0,3.1,1.4,3.6,7.4c0,0,0,0.7-1,0.9
					c-0.4,0.2-0.9-0.1-1.1-0.5v-0.1C187.1,248.2,186.6,241.9,183.4,240.7z"/>
				<path id="Path_247" class="st30" d="M180.1,240.8c0,0,0.2-0.4,0.9-0.3c0.9,0,1.1,0.4,1.1,0.4s2.2,2.4,2.1,7.3
					c0,0,0.1,0.8-1.1,0.9s-1-0.9-1-0.9S181.9,241.8,180.1,240.8z"/>
				<path id="Path_248" class="st4" d="M157.5,170c3.8,11.6,13.4,44.7,17.8,61.6c0,0-7.9,7.1-18.1,6.5l-24.5-63.6l9.8-6L157.5,170z"
					/>
				<path id="Path_249" class="st4" d="M76.7,328.8c0.9,0,1.6-0.7,1.6-1.6l0,0V225c0-0.9-0.7-1.6-1.6-1.6s-1.6,0.7-1.6,1.6l0,0
					v102.3C75.1,328.1,75.8,328.8,76.7,328.8L76.7,328.8L76.7,328.8z"/>
				<path id="Path_250" class="st4" d="M13.5,291.6c0.7,0,1.2-0.4,1.5-1l31.4-79.4c0.3-0.8-0.1-1.7-0.9-2.1
					c-0.8-0.3-1.7,0.1-2.1,0.9L12,289.4c-0.3,0.8,0.1,1.7,0.9,2.1C13.1,291.6,13.3,291.6,13.5,291.6L13.5,291.6z"/>
				<path id="Path_251" class="st4" d="M17.2,282.1c0.4,0,0.9-0.2,1.2-0.5l58.3-61.8l58.2,61.5c0.6,0.6,1.6,0.7,2.3,0
					c0.6-0.6,0.7-1.6,0.1-2.2l-59.4-62.7c-0.3-0.3-0.7-0.5-1.2-0.5l0,0c-0.4,0-0.9,0.2-1.2,0.5l-59.5,63c-0.6,0.6-0.6,1.6,0.1,2.2
					C16.4,281.9,16.7,282.1,17.2,282.1L17.2,282.1z"/>
				<path id="Path_252" class="st4" d="M140,291.6c0.2,0,0.4,0,0.6-0.1c0.8-0.3,1.2-1.2,0.9-2.1l0,0L110.1,210
					c-0.3-0.8-1.3-1.2-2.1-0.9c-0.8,0.3-1.2,1.2-0.9,2l31.4,79.4C138.7,291.2,139.3,291.6,140,291.6z"/>
				<path id="Path_253" class="st8" d="M140.7,189.9c1.1-6.4-4.1-11.4-13.9-18.1c-9.1-6-18.6-11.3-28.5-16c-8.2-3.8-16.6-3.4-27.2,2
					C56.5,165.3,12.5,192,12.5,192s65.9,37.2,78.5,35.5s44.3-22.3,46.8-29.5S140.7,189.9,140.7,189.9z"/>
				<g id="Group_21" transform="translate(12.477 150.288)" class="st31">
					<path id="Path_254" d="M128.3,39.6c1.1-6.4-4.1-11.4-13.9-18.1c-9.1-6-18.6-11.3-28.5-16c-8.2-3.8-16.6-3.4-27.2,2
						C44,15,0,41.7,0,41.7s65.9,37.2,78.5,35.5s44.3-22.3,46.8-29.5S128.3,39.6,128.3,39.6z"/>
				</g>
				<path id="Path_255" class="st8" d="M84.6,219.7c9.5,8.6,19.3,1.2,34.9-8.9c17.7-11.5,21.2-20.9,21.2-20.9s0,7-1.3,10.3
					s-4.2,7-16.9,15.8s-22,13.2-30.6,14.8l-6.8-0.9"/>
				<path id="Path_256" class="st7" d="M119.6,210.8c17.7-11.5,21.1-20.9,21.1-20.9s0,7-1.3,10.3s-4.2,7-16.9,15.8
					s-22,13.2-30.6,14.8l-6.8-0.9l-0.5-10.3C94.1,228.3,104,220.9,119.6,210.8z"/>
				<path id="Path_257" class="st8" d="M15.9,279.1L11,290.3c0,0.1-0.1,0.2-0.1,0.3c0,0.1,0,0.1,0,0.2c0.1,0.3,0.3,0.6,0.6,0.7
					c0.8,0.5,1.8,0.5,2.6,0.1c0.2-0.1,0.4-0.3,0.5-0.5l0,0V291l4.5-10.5L15.9,279.1z"/>
				<path id="Path_258" class="st8" d="M137.8,279.6l4.2,10.9c0,0.1,0,0.2,0,0.3c0,0.1,0,0.1,0,0.2c-0.1,0.3-0.3,0.5-0.6,0.7
					c-0.8,0.4-1.7,0.4-2.5,0c-0.2-0.1-0.4-0.3-0.5-0.5l0,0v-0.1l-3.8-10.3L137.8,279.6z"/>
				<path id="Path_259" class="st8" d="M74.9,319.3v9.1c0,0.3,0.2,0.6,0.5,0.7c0.8,0.4,1.8,0.4,2.6,0c0.3-0.1,0.5-0.4,0.5-0.7v-9.1
					C77.4,318.7,76,318.7,74.9,319.3L74.9,319.3z"/>
				<path id="Path_260" class="st3" d="M38.9,151.5c3.8,4.4,37.9-5.4,46.9-6.7c14.6-2,26.4-3.4,31.4-1.9s7,4.1,8.6,10
					c1.8,7,2.7,10.6,2.7,10.6s-24.2,9.3-43.3,11.5S38.9,151.5,38.9,151.5z"/>
				<path id="Path_261" class="st4" d="M32.5,157.9c-3.8,14.4-7.2,31.2,1.6,40.4c5.9,6.2,35.5,22.2,54.6,15.9
					c18.8-6.2,57.8-35.2,61.7-38.1s7.5-4.9,7.1-6.1c-5.3-17.5-12.9-18.8-27.2-15.7c-17.4,3.8-55.7,19.4-55.7,19.4L32.5,157.9z"/>
				<path id="Path_262" class="st29" d="M119,65.3l-13.1,14.9L84.7,70.1l14.8-20.5L119,65.3z"/>
				<path id="Path_263" class="st29" d="M135.3,37c0,0,5.4,7.8,4.8,8.6s-4.4,1.6-4.4,1.6L135.3,37z"/>
				<circle id="Ellipse_3" class="st32" cx="135.3" cy="35.7" r="5.8"/>
				<path id="Path_264" class="st29" d="M120.4,15.6c10.6,2,13.7,6.5,15.1,23.2c1.4,17.5-0.2,23-2.5,25.4c-1.5,1.7-10.1,2.1-14.5,1
					c-5.5-1.4-17.8-5.4-23.8-14.1c-7-10.2-9.1-24.1-2-30.1C102.8,12.7,116.1,14.8,120.4,15.6z"/>
				<path id="Path_265" class="st33" d="M119,65.3c4.6,1,11.5,0.4,13.5-0.8c-2.5,0.5-5.2,0.4-7.7-0.3c-2.5-0.7-4.8-1.7-7-3.1
					L119,65.3z"/>
				<path id="Path_266" class="st11" d="M137.4,22.4L137.4,22.4c-3,2-6.5,2.9-10.1,3.4c0.3,2.8-0.6,5.6-1.5,8.3
					c-0.6,1.9-2.8,7.7-5.2,4.5c-1.7-2.3-3.3-4.5-6.6-3.9c-5.5,0.9-6,7.9-2.5,12.1s6.7,2.5,6.7,2.5s0.5,7.5-3.5,12.8
					c0,0-5.9,3.6-14.2,0.9c-5.2-1.7-12.8-8.3-15.6-13.5c-7.7-14.2-7.7-27.8,1.6-32c0.8-6.8,6.1-10,12.2-11.5
					c8.4-2.1,17.1,3.1,25.2-0.3c1.7-0.7,3.3-1.8,5-2.4c1-0.5,2.1-0.5,3,0c0.7,0.6,1.2,1.4,1.3,2.3c0.5,1.6,0.4,3.3-0.3,4.8
					c1.2-0.6,2.5-1.1,3.8-1.4c1.3-0.3,2.8,0,3.9,0.8c0.9,0.9,1.5,2.1,1.5,3.3C142.6,16.9,140.4,20.4,137.4,22.4z"/>
				<path id="Path_267" class="st11" d="M86.4,19.9L80,16.3c1-1.7,3.2-2.3,5-1.3S87.4,18.2,86.4,19.9L86.4,19.9z"/>
				<line id="Line_1" class="st34" x1="120.6" y1="38.7" x2="141.1" y2="34.9"/>
				<path id="Path_268" class="st29" d="M163.4,74c-0.5-0.9-1.8-1.1-2.8-1.5c-1.9-0.6-3.3-2.2-5.2-3c-2.1-0.9-4.3-1-6.5-0.4
					c-0.7,0.2-1.5,0.4-2.2,0.7c-1.3,0.6-2.6,1.2-3.9,2c-5.2,3.1-9.1,10-14.1,13.2c-1.9,1.2-3.7,2.3-5.4,3.3l12.2,10.8
					c1.9-1.6,3.9-3.2,6-4.6c3-1.8,6-1.8,9.4-2.3c2.3-0.4,4.6-1,6.9-1.7c0.8-0.1,1.6-0.6,2-1.3c0.3-1-0.3-2.2-1.3-2.5
					c-1.2-0.3-2.4-0.4-3.6-0.5c-0.9-0.1-3.2,0.4-3.7-0.5c-0.3-0.5,0.1-1,0.4-1.5c2.1-2.6,4.8-5.4,8.2-6.2c1.1-0.2,2.1-0.6,3-1.2
					C163.5,76.1,163.8,75,163.4,74z"/>
				<path id="Path_269" class="st8" d="M90.6,61.8c-12.9-7-24.7-2.5-28.9,6.5c-3.8,8.2-11.9,39.9-11.9,39.9
					C53.7,115.6,90.6,61.8,90.6,61.8z"/>
				<path id="Path_270" class="st8" d="M88.7,64.4l1.9-2.5C76,54.9,63,64,51.5,81.9c-12.4,19.3-18.9,47-19,76.2
					c0,0,2.5,13.1,19.1,19.7c17.6,7,42.2,4,49.8-14.2c0,0,0.1-18.2,5.7-27.2c3.6-5.8,12-18.7,18.2-28c5.4-8.1,9.6-26.4-1.7-33.1
					c-3-1.7-6-3.3-9.2-4.7C104.1,74,87.4,68.5,88.7,64.4z"/>
				<path id="Path_271" class="st35" d="M88.7,64.4l1.9-2.6C76,54.9,63,64,51.5,81.9c-12.4,19.3-18.9,47-19,76.2
					c0,0,2.5,13.1,19.1,19.7c17.6,7,42.2,4,49.8-14.2c0,0,0.1-18.2,5.7-27.2c3.6-5.8,12-18.7,18.2-28c5.4-8.1,9.6-26.4-1.7-33.1
					c-3-1.7-6-3.3-9.2-4.7C104.1,74,87.4,68.5,88.7,64.4z"/>
				<path id="Path_272" class="st36" d="M129.9,96.7c0.8-3.5,1-7.1,0.5-10.6l0,0c-2.6,6.2-6.4,11.9-11,16.8
					c-5.9,6.2-13.3,11.1-18.8,17.7c-5.8,7-10,15.5-14.9,23.2c-2,3.1-4.6,9-8.3,9.3c-4.4,0.3-8.7-5.1-11.1-8.9
					c-3.9-5.9-7.2-13.4-12-18.6c-4.2-4.6-10.7-10.4-16.4-7.8l0,0c-0.4,1.5-0.8,3-1.2,4.6s-0.7,3.1-1.1,4.7v0.2
					c-0.3,1.6-0.6,3.2-0.9,4.8v0.3c-0.3,1.6-0.5,3.2-0.7,4.8c-1,6.9-1.4,13.9-1.5,20.9c0,0,2.5,13.1,19.1,19.7
					c17.6,7,42.2,4,49.8-14.2c0,0,0.1-18.2,5.7-27.2c0.6-0.9,1.2-2,2-3.2l0,0l0.1-0.2c0.6-1,1.3-2.1,2.1-3.2l0.1-0.2
					c0,0,0-0.1,0.1-0.1c1.6-2.5,3.3-5.2,5.2-8l0.8-1.3c1.8-2.7,3.6-5.5,5.3-8.1l0,0l1.7-2.6l0.7-1.1l0,0c0.2-0.3,0.4-0.6,0.6-0.9
					c0.1-0.1,0.1-0.2,0.2-0.3c0.1-0.2,0.3-0.5,0.4-0.7l0.2-0.3c0.1-0.3,0.3-0.6,0.4-0.8l0.1-0.2c0.2-0.4,0.4-0.8,0.5-1.2l0,0v-0.1
					c0.1-0.4,0.3-0.7,0.4-1.1c0-0.1,0.1-0.2,0.1-0.3c0.1-0.4,0.3-0.7,0.4-1.1v-0.1v-0.1c0.2-0.7,0.4-1.4,0.6-2.1l0,0
					c0.2-0.7,0.4-1.4,0.5-2.2v-0.1L129.9,96.7z"/>
				<path id="Path_273" class="st29" d="M197.6,114.4c-0.9,1.1-1.9,2.2-3,3.1c-4.5,4-9.7,6-15.7,9.9c-4.9,3.2-12.5,7.8-18.8,11.8
					c-6.4,4-13.3,7.1-20.5,9.5c-5.9,1.7-9.2,1.8-12.7-7.7c-1.7-4.6-3.1-9.4-4.6-14.1c-2.2-7-4.4-14.1-6.5-21.1
					c-3.2-10.6-7.9-19.4,9.7-29.1c7.7,4.4,10.6,6.2,13,15.3c2.9,11,7.5,32.6,7.5,32.6c6.2-2.2,12.3-4.8,18.2-7.7
					c2.2-1.1,5-1.9,6.6-3.9c1.1-1.4,2-2.8,2.8-4.4c0.7-1.4,1.3-2.8,2.1-4.1c1.7-2.3,3.6-4.5,5.8-6.4c0.4-0.4,0.9-0.7,1.4-0.8
					c0.6,0,1.1,0.3,1.4,0.9c0.6,1.1,0,2.2-0.3,3.4c-0.4,1.3-0.8,2.6-1.1,4c4.5-2.6,8.3-6.2,11.2-10.5c0.2-0.4,0.5-0.8,0.9-1.1
					c0.3-0.3,0.8-0.5,1.3-0.5c1.2,0.1,2.3,2,2.4,3.1c-0.1,1.1-0.1,2.2,0.1,3.3c0.3,1,1,1.9,1.3,2.9s0.5,2.1,0.7,3.2
					c0.1,2.4-0.5,4.7-1.8,6.7C198.6,113.3,198.1,113.9,197.6,114.4z"/>
				<path id="Path_274" class="st8" d="M124.5,75.9c6.7,2.7,11.5,5.8,14.6,16s6.4,26.6,6.4,26.6s0.1,3.4-8.1,8.2
					c-4.7,2.9-10.4,3.6-15.7,2.1l-6.1-19.7C115.5,109.1,104.6,82.7,124.5,75.9z"/>
				<path id="Path_275" class="st8" d="M85.2,229.9c-5.4-0.3-9.6-4.2-22.4-9.6c-23.6-9.8-41.3-17.7-48.1-30.1s-11.5-48.1-9.8-63.6
					c0.2-1.8,0.5-3.5,1.1-5.1l-1.7-0.2l4.3-3.7l0,0c4.4-3.6,11.6-0.4,17,2.6c15.5,8.4,27.6,16.6,37.1,46.1
					c7.2,22.2,11.9,42.5,21.9,53.3"/>
				<path id="Path_277" class="st8" d="M21.2,124.1c15.5,8.4,27.6,16.6,37.1,46.1s14.8,55.6,33.6,60.7c0,0-8.5,3.4-34.6-7.7
					c-8.3-3.5-18.4-9.9-25-13.6c-13-7.3-20.8-13.3-22.1-15.5C3.3,181.8-1.3,146,0.3,130.5S13.5,119.8,21.2,124.1z"/>
				<path id="Path_276" class="st16" d="M6,121.6l-1.7-0.2l4.3-3.7l0,0c4.4-3.6,11.6-0.4,17,2.6c15.5,8.4,27.6,16.6,37.1,46.1
					c7.2,22.2,11.9,42.5,21.9,53.3l0.5,10.3c-5.4-0.3-9.6-4.2-22.4-9.6c-23.6-9.8-41.3-17.7-48.1-30.1s-11.5-48.1-9.8-63.6
					C5,125,5.4,123.3,6,121.6z"/>
			</g>
		</g>
		<g id="Speech_Bubble" transform="translate(134.563 0.964)">
			<g id="Speech_Bubble-2" transform="translate(0)">
				<path id="Path_278" class="st5" d="M29.4,83l-4.3-8l3.4-9.9V59L18,65.1v6.1l4.5,7.8c0.1,0.1,0.2,0.2,0.3,0.3l0,0L29.4,83z"/>
				<path id="Path_279" class="st37" d="M29.4,83l-4.3-8l3.4-9.9V59L18,65.1v6.1l4.5,7.8c0.1,0.1,0.2,0.2,0.3,0.3l0,0L29.4,83z"/>
				<path id="Path_280" class="st8" d="M54.6,10.7c-0.1-2.2-1.3-4.3-3.2-5.5l-2.6-1.5c-2-1-4.3-1-6.3,0L3.2,26.5
					c-1.9,1.2-3,3.2-3.2,5.5v43.3c0.1,2.2,1.3,4.3,3.2,5.5l2.6,1.5c2,1,4.3,1,6.3,0L24.7,75l4.5,7.8c0.2,0.3,0.6,0.4,0.9,0.3
					c0.1-0.1,0.3-0.2,0.3-0.4l4.8-13.8l16.2-9.4c1.9-1.2,3.1-3.2,3.2-5.5L54.6,10.7z"/>
				<path id="Path_281" class="st37" d="M0,75.3c0.1,2.2,1.3,4.3,3.2,5.5l2.6,1.5c1.8,0.9,3.9,1,5.8,0.3C10.1,83.2,9,82.3,9,80.5
					V37.1C8.9,36,9.2,35,9.8,34l-8.9-5.1c-0.5,1-0.9,2-0.9,3.1V75.3z"/>
				<path id="Path_282" class="st15" d="M54.5,9.8c-0.4-1.3-1.6-1.8-3-0.9L12,31.7c-0.9,0.6-1.7,1.4-2.2,2.4L0.9,29
					c0.5-1,1.3-1.8,2.2-2.4L42.5,3.8c2-1,4.3-1,6.3,0l2.6,1.5C53,6.3,54.1,7.9,54.5,9.8z"/>
				<g id="_" transform="translate(14.656 26.516)">
					<path id="Path_283" d="M0,27.6c0-0.3,0-0.6,0.2-0.9c0.1-0.3,0.3-0.6,0.5-0.8L9.2,12c0-0.1,0.1-0.1,0.1-0.2l0.1-0.1
						c0.1-0.1,0.2-0.1,0.3,0s0.1,0.3,0.1,0.4v5.3c0,0.4-0.1,0.8-0.3,1.1c-0.1,0.3-0.3,0.5-0.4,0.7l-4.4,6.7l4.4,2
						C9.3,28,9.4,28,9.5,28.1c0.2,0.1,0.3,0.4,0.3,0.8V33c0,0.2,0,0.4-0.1,0.6c-0.1,0.2-0.2,0.3-0.3,0.4H9.3H9.2l-8.6-4
						c-0.2-0.1-0.3-0.2-0.5-0.3C0,29.5,0,29.3,0,29V27.6z"/>
					<path id="Path_284" d="M18.7,6.2C18.8,6,18.9,5.7,19,5.4c0.1-0.3,0.4-0.5,0.6-0.7L22.5,3c0.1-0.1,0.2-0.1,0.3,0
						C22.9,3.2,23,3.4,23,3.5s0,0.2,0,0.3l-7.2,30.8c-0.1,0.3-0.2,0.6-0.3,0.8c-0.1,0.3-0.4,0.5-0.6,0.7l-2.8,1.7
						c-0.1,0.1-0.2,0.1-0.3,0s-0.2-0.3-0.1-0.4c0-0.1,0-0.2,0-0.3L18.7,6.2z"/>
					<path id="Path_285" d="M34.4,11.2c0,0.3,0,0.6-0.2,0.9c-0.1,0.3-0.3,0.6-0.5,0.8l-8.6,13.9c0,0.1-0.1,0.1-0.1,0.2l-0.1,0.1
						c-0.1,0.1-0.2,0.1-0.3,0c-0.1-0.1-0.1-0.3-0.1-0.4v-5.4c0-0.4,0.1-0.8,0.3-1.1c0.2-0.3,0.3-0.5,0.4-0.7l3.8-5.8l-3.8-1.4
						c-0.2-0.1-0.3-0.1-0.4-0.2c-0.2-0.1-0.3-0.4-0.3-0.8V5.9c0-0.2,0-0.4,0.1-0.6C24.7,5.1,24.8,5,25,4.9h0.2l8.6,4
						c0.2,0,0.3,0.1,0.4,0.3c0.1,0.2,0.2,0.5,0.2,0.7V11.2z"/>
				</g>
			</g>
		</g>
		<g id="Text_Boxes" transform="translate(30.88 0)">
			<g id="Text_Box">
				<g id="_2">
					<g id="Speech_Bubble-3">
						<g id="Speach_Bubble">
							<path id="Path_1192" class="st11" d="M51.7,3.3l-50.4,29c-0.7,0.5-1.2,1.3-1.3,2.2v28.1c0,0.9,0.5,1.7,1.3,2.2l5,2.8
								C7,68,8,68,8.7,67.6l50.4-29c0.7-0.5,1.2-1.3,1.2-2.2V8.3c-0.1-0.9-0.5-1.7-1.3-2.2l-5-2.8C53.4,2.9,52.4,2.9,51.7,3.3
								L51.7,3.3z"/>
							<path id="Path_1193" class="st4" d="M60.4,8.1c-0.1-0.6-0.6-0.9-1.2-0.5l-50.4,29c-0.4,0.2-0.7,0.6-0.9,0.9l-7.5-4.3
								c0.2-0.4,0.5-0.7,0.9-0.9l50.4-29c0.8-0.4,1.7-0.4,2.5,0l5,2.8C59.8,6.6,60.3,7.3,60.4,8.1z"/>
							<path id="Path_1194" class="st3" d="M59.2,7.6l-50.4,29c-0.7,0.5-1.2,1.3-1.3,2.2v28.1c0,0.8,0.6,1.1,1.2,0.7l50.4-29
								c0.7-0.5,1.2-1.3,1.2-2.2V8.3C60.4,7.5,59.8,7.2,59.2,7.6z"/>
						</g>
					</g>
				</g>
				<path id="Path_1195" class="st38" d="M20,43.8V48c0,0.3,0.1,0.7,0.1,1c0.1,0.3,0.2,0.5,0.4,0.7c0.2,0.2,0.4,0.3,0.6,0.3
					c0.3,0,0.6-0.1,0.9-0.3s0.6-0.4,0.9-0.7c0.2-0.2,0.4-0.5,0.6-0.8c0.1-0.3,0.3-0.5,0.3-0.8c0.1-0.3,0.1-0.5,0.2-0.7
					c0-0.2,0.1-0.4,0.2-0.7c0.1-0.2,0.2-0.3,0.4-0.4l2.1-1.2c0.1-0.1,0.2-0.1,0.3,0c0.1,0.1,0.1,0.2,0.1,0.3c0,0.9-0.2,1.8-0.4,2.6
					C26.1,49,25.2,50.7,24,52c-0.6,0.6-1.2,1.2-2,1.6c-0.6,0.4-1.3,0.6-2.1,0.7c-0.6,0-1.1-0.2-1.6-0.5c-0.5-0.4-0.8-1-1-1.6
					c-0.2-0.8-0.4-1.6-0.4-2.4v-4.4c0-0.9,0.2-1.8,0.4-2.7c0.2-0.9,0.6-1.9,1-2.7s0.9-1.6,1.5-2.4c0.6-0.7,1.3-1.3,2.1-1.7
					c0.6-0.4,1.3-0.6,2-0.7c0.6,0,1.1,0.1,1.6,0.4c0.5,0.3,0.8,0.8,1.1,1.3c0.3,0.7,0.4,1.4,0.4,2.1c0,0.2,0,0.3-0.1,0.4
					c-0.1,0.1-0.1,0.2-0.3,0.3L24.5,41c-0.2,0.1-0.3,0.1-0.4,0s-0.2-0.3-0.2-0.5c-0.1-0.2-0.1-0.4-0.2-0.5c-0.1-0.4-0.5-0.6-0.9-0.6
					c-0.3,0-0.6,0.1-0.9,0.3s-0.7,0.5-0.9,0.8c-0.3,0.3-0.5,0.6-0.6,1c-0.2,0.3-0.3,0.7-0.4,1.1C20,43,20,43.4,20,43.8L20,43.8z"/>
				<path id="Path_1196" class="st38" d="M33.7,29.1c0.6-0.4,1.2-0.6,1.9-0.6c0.5,0,1,0.1,1.5,0.3c0.4,0.2,0.8,0.6,1,1
					s0.4,0.9,0.4,1.4c0,0.2,0,0.3-0.1,0.4c0,0.1-0.1,0.2-0.2,0.3l-2.1,1.2c-0.1,0.1-0.2,0.1-0.4,0.1c-0.1,0-0.2-0.1-0.3-0.1L35.1,33
					c-0.1-0.1-0.2-0.1-0.3-0.2c-0.2-0.1-0.3-0.1-0.5,0c-0.3,0-0.5,0.1-0.7,0.3c-0.2,0.1-0.4,0.3-0.6,0.4c-0.2,0.1-0.3,0.3-0.5,0.5
					c-0.1,0.2-0.3,0.4-0.4,0.6C32,34.8,32,35.1,32,35.3s0,0.4,0.2,0.5c0.1,0.1,0.3,0.2,0.5,0.2c0.3,0,0.6-0.1,1-0.1
					c0.4-0.1,0.9-0.2,1.5-0.4c0.5-0.1,1-0.2,1.5-0.2c0.4,0,0.8,0.2,1.1,0.4c0.3,0.3,0.6,0.7,0.7,1.1c0.2,0.6,0.2,1.3,0.2,1.9
					c0,0.8-0.1,1.7-0.4,2.5c-0.2,0.8-0.6,1.6-1,2.3s-1,1.4-1.6,2s-1.3,1.1-2,1.5c-0.6,0.4-1.3,0.6-2,0.7c-0.5,0.1-1.1,0-1.6-0.3
					c-0.4-0.2-0.8-0.6-1-1.1c-0.3-0.5-0.4-1.1-0.4-1.6c0-0.2,0-0.3,0.1-0.4c0-0.1,0.1-0.2,0.2-0.3l2.2-1.3c0.1-0.1,0.2-0.1,0.3-0.1
					c0.1,0,0.2,0.1,0.3,0.1l0.2,0.2c0.1,0.1,0.2,0.2,0.3,0.3c0.2,0.1,0.4,0.1,0.5,0.1c0.3,0,0.6-0.1,0.8-0.3c0.5-0.3,1-0.6,1.4-1.1
					c0.4-0.4,0.6-0.8,0.6-1.4c0-0.2-0.1-0.4-0.2-0.5c-0.2-0.1-0.4-0.1-0.6-0.1c-0.4,0-0.7,0.1-1.1,0.2c-0.4,0.1-0.9,0.2-1.5,0.4
					c-0.8,0.3-1.7,0.2-2.4-0.4c-0.6-0.9-0.9-1.9-0.8-3c0-0.8,0.1-1.5,0.3-2.2c0.2-0.8,0.5-1.5,0.9-2.2s0.9-1.4,1.4-2
					C32.3,30,33,29.5,33.7,29.1L33.7,29.1z"/>
				<path id="Path_1197" class="st38" d="M45.3,22.3c0.6-0.4,1.2-0.6,1.9-0.6c0.5,0,1,0.1,1.5,0.3c0.4,0.2,0.8,0.6,1,1
					s0.4,0.9,0.4,1.4c0,0.2,0,0.3-0.1,0.4c0,0.1-0.1,0.2-0.2,0.3l-2.1,1.2c-0.1,0.1-0.2,0.1-0.4,0.1c-0.1,0-0.2-0.1-0.3-0.1
					l-0.2-0.2c-0.1-0.1-0.2-0.2-0.3-0.2C46.3,26,46.2,26,46,26c-0.3,0-0.5,0.1-0.7,0.3c-0.2,0.1-0.4,0.3-0.6,0.4
					c-0.2,0.1-0.4,0.3-0.5,0.5s-0.3,0.4-0.4,0.6c-0.1,0.2-0.1,0.5-0.1,0.7s0,0.4,0.2,0.5c0.1,0.1,0.3,0.2,0.5,0.2
					c0.3,0,0.6-0.1,1-0.1l1.5-0.4c0.5-0.1,1-0.2,1.5-0.2c0.4,0,0.8,0.2,1.1,0.4c0.3,0.3,0.5,0.7,0.7,1.1c0.2,0.6,0.2,1.3,0.2,1.9
					c0,0.8-0.1,1.7-0.4,2.5c-0.2,0.8-0.6,1.6-1,2.3s-1,1.4-1.6,2s-1.3,1.1-2,1.5c-0.6,0.4-1.3,0.6-2,0.7c-0.5,0.1-1.1,0-1.6-0.3
					c-0.4-0.2-0.8-0.6-1-1.1s-0.3-1.1-0.3-1.7c0-0.2,0-0.3,0.1-0.4c0-0.1,0.1-0.2,0.2-0.3l2.1-1.2c0.1-0.1,0.2-0.1,0.4-0.1
					c0.1,0,0.2,0.1,0.3,0.1l0.2,0.2c0.1,0.1,0.2,0.2,0.3,0.3c0.2,0.1,0.4,0.1,0.5,0.1c0.3,0,0.6-0.1,0.8-0.3c0.5-0.3,1-0.7,1.4-1.1
					c0.4-0.4,0.6-0.9,0.6-1.4c0-0.2-0.1-0.4-0.2-0.5c-0.2-0.1-0.4-0.1-0.6-0.1c-0.4,0-0.7,0.1-1.1,0.2L44,33.7
					c-0.8,0.3-1.7,0.2-2.4-0.4c-0.6-0.9-0.9-1.9-0.8-3c0-0.7,0.1-1.5,0.3-2.2c0.4-1.6,1.3-3,2.4-4.2C44,23.3,44.6,22.7,45.3,22.3
					L45.3,22.3z"/>
			</g>
			<g id="Text_Box-2" transform="translate(0 58.475)">
				<g id="_3">
					<g id="Speech_Bubble-4">
						<g id="Speach_Bubble-2">
							<path id="Path_1198" class="st11" d="M51.7,3.3l-50.4,29C0.5,32.8,0,33.6,0,34.5v28.1c0,0.9,0.5,1.7,1.3,2.1l5,2.8
								C7,68,8,68,8.7,67.6l50.4-29.1c0.7-0.5,1.2-1.3,1.2-2.2v-28c-0.1-0.9-0.5-1.7-1.3-2.2l-5-2.8C53.4,2.9,52.5,2.9,51.7,3.3z"/>
							<path id="Path_1199" class="st4" d="M60.4,8.1c-0.1-0.6-0.6-0.9-1.2-0.5l-50.4,29c-0.4,0.2-0.7,0.6-0.9,0.9l-7.5-4.3
								c0.2-0.4,0.5-0.7,0.9-0.9l50.4-29c0.8-0.4,1.7-0.4,2.5,0l5,2.8C59.8,6.6,60.3,7.3,60.4,8.1L60.4,8.1z"/>
							<path id="Path_1200" class="st3" d="M59.2,7.6l-50.4,29c-0.7,0.5-1.2,1.3-1.2,2.2v28.1c0,0.8,0.6,1.1,1.2,0.7l50.4-29
								c0.7-0.5,1.2-1.3,1.2-2.2V8.3C60.4,7.5,59.8,7.2,59.2,7.6z"/>
						</g>
					</g>
				</g>
				<path id="Path_1201" class="st38" d="M20.2,37.1c0.1-0.1,0.2-0.1,0.3,0c0.1,0.1,0.1,0.2,0.1,0.4v16c0,0.2,0,0.4-0.1,0.5
					c-0.1,0.2-0.2,0.3-0.3,0.4l-2.1,1.2c-0.1,0.1-0.2,0.1-0.3,0c-0.1-0.1-0.1-0.3-0.1-0.4v-6.1l-3.6,2.1v6.1c0,0.2,0,0.4-0.1,0.5
					c-0.1,0.2-0.2,0.3-0.3,0.4l-2.1,1.2c-0.1,0.1-0.2,0.1-0.3,0s-0.2-0.3-0.1-0.4V43c0-0.2,0-0.4,0.1-0.5c0.1-0.2,0.2-0.3,0.3-0.4
					l2.1-1.2c0.1-0.1,0.2-0.1,0.3,0s0.1,0.3,0.1,0.4v6l3.6-2.1v-6c0-0.2,0-0.4,0.1-0.5c0.1-0.2,0.2-0.3,0.3-0.4L20.2,37.1z"/>
				<path id="Path_1202" class="st38" d="M32,30.3c0.1-0.1,0.2-0.1,0.3,0s0.1,0.3,0.1,0.4v2.6c0,0.2,0,0.4-0.1,0.5
					c-0.1,0.2-0.2,0.3-0.3,0.4l-2.8,1.6v12.7c0,0.2,0,0.4-0.1,0.5c-0.1,0.2-0.2,0.3-0.3,0.4l-2.1,1.2c-0.1,0.1-0.2,0.1-0.3,0
					c-0.1-0.1-0.1-0.2-0.1-0.4V37.6l-2.8,1.6c-0.1,0.1-0.2,0.1-0.3,0c-0.1-0.1-0.1-0.3-0.1-0.4v-2.6c0-0.2,0-0.4,0.1-0.5
					c0.1-0.2,0.2-0.3,0.3-0.4L32,30.3z"/>
				<path id="Path_1203" class="st38" d="M39.4,39c-0.1-0.1-0.2-0.2-0.2-0.3l-1.5-3.2v8.2c0,0.2,0,0.4-0.1,0.5
					c-0.1,0.2-0.2,0.3-0.3,0.4l-2.1,1.2c-0.1,0.1-0.2,0.1-0.3,0s-0.1-0.3-0.1-0.4v-16c0-0.2,0-0.4,0.1-0.5c0.1-0.2,0.2-0.3,0.3-0.4
					l1.9-1.1c0.2-0.1,0.4-0.1,0.5,0s0.2,0.2,0.2,0.3l2.6,5.4l2.6-8.4c0-0.2,0.1-0.4,0.2-0.5c0.1-0.2,0.3-0.4,0.5-0.6l1.9-1.1
					c0.1-0.1,0.2-0.1,0.3,0s0.1,0.3,0.1,0.4v16c0,0.2,0,0.4-0.1,0.5c-0.1,0.2-0.2,0.3-0.3,0.4L43.5,41c-0.1,0.1-0.2,0.1-0.3,0
					s-0.1-0.3-0.1-0.4v-8.2l-1.5,5c-0.1,0.2-0.1,0.4-0.2,0.5c-0.1,0.2-0.2,0.3-0.4,0.4l-1,0.6C39.6,39.1,39.5,39.1,39.4,39z"/>
				<path id="Path_1204" class="st38" d="M56.8,29.3c0.1-0.1,0.2-0.1,0.3,0s0.1,0.2,0.1,0.4v2.6c0,0.2,0,0.4-0.1,0.5
					c-0.1,0.2-0.2,0.3-0.3,0.4l-7.5,4.3c-0.1,0.1-0.2,0.1-0.3,0s-0.1-0.3-0.1-0.4v-16c0-0.2,0-0.4,0.1-0.5c0.1-0.2,0.2-0.3,0.3-0.4
					l2.1-1.2c0.1-0.1,0.2-0.1,0.3,0s0.1,0.3,0.1,0.4v12.7L56.8,29.3z"/>
			</g>
			<g id="Text_Box-3" transform="translate(0 116.946)">
				<g id="_4" transform="translate(0 0)">
					<g id="Speech_Bubble-5">
						<g id="Speach_Bubble-3">
							<path id="Path_1205" class="st11" d="M51.7,3.3l-50.4,29c-0.7,0.5-1.2,1.3-1.3,2.2v28.1c0,0.9,0.5,1.7,1.3,2.1l5,2.8
								C7,68,8,68,8.7,67.6l50.4-29.1c0.7-0.5,1.2-1.3,1.2-2.2v-28c-0.1-0.9-0.5-1.7-1.3-2.2l-5-2.8C53.4,2.9,52.5,2.9,51.7,3.3
								L51.7,3.3z"/>
							<path id="Path_1206" class="st4" d="M60.4,8.1c-0.1-0.6-0.6-0.9-1.2-0.5l-50.4,29c-0.4,0.2-0.7,0.6-0.9,0.9l-7.5-4.3
								c0.2-0.4,0.5-0.7,0.9-0.9l50.4-29c0.8-0.4,1.7-0.4,2.5,0l5,2.8C59.8,6.6,60.3,7.3,60.4,8.1L60.4,8.1z"/>
							<path id="Path_1207" class="st3" d="M59.2,7.6l-50.4,29c-0.7,0.5-1.2,1.3-1.2,2.2v28.1c0,0.8,0.6,1.1,1.2,0.7l50.4-29
								c0.7-0.5,1.2-1.3,1.2-2.2V8.3C60.4,7.5,59.8,7.2,59.2,7.6z"/>
						</g>
					</g>
				</g>
			</g>
			<path id="Path_1208" class="st39" d="M32.3,147.8c0.5-0.3,0.9,0.1,1,0.8l1,9c0.2,1.4,0,2.9-0.5,4.2c-0.4,1.1-1.2,2.1-2.3,2.7
				c-0.8,0.6-1.8,0.7-2.7,0.2c-0.6-0.5-0.9-1.1-1.1-1.8s0.1-1.5,0.7-2l0.8-0.5c0.4-0.2,0.7,0,0.9,0.5c0.1,0.1,0.1,0.3,0.2,0.4
				c0.2,0.2,0.6,0.3,0.8,0c0.3-0.2,0.5-0.5,0.6-0.8c0.1-0.5,0.2-0.9,0.1-1.4l-1-9c-0.1-0.7,0.2-1.3,0.7-1.7L32.3,147.8z"/>
			<path id="Path_1209" class="st39" d="M38.4,143.9c0.8-0.6,1.8-0.8,2.8-0.4c0.4,0.2,0.8,0.6,1,1.1c0.3,0.8,0.1,1.7-0.6,2.2l-1,0.6
				c-0.3,0.2-0.6,0.1-0.8-0.2c0,0,0,0,0-0.1c-0.1-0.1-0.2-0.2-0.3-0.3c-0.3-0.2-0.6-0.1-0.9,0.1c-0.3,0.2-0.5,0.5-0.7,0.8
				c-0.2,0.4-0.2,0.8-0.2,1.2c0.1,0.5,0.2,0.8,0.6,0.9c0.5,0.1,1,0.1,1.5,0c0.6-0.1,1.1-0.1,1.7,0c0.5,0.1,0.9,0.3,1.2,0.7
				c0.4,0.6,0.7,1.3,0.7,2c0.2,1.8-0.3,3.5-1.3,5c-0.5,0.7-1.1,1.3-1.9,1.8c-0.6,0.4-1.3,0.6-2,0.6c-0.6,0-1.2-0.3-1.6-0.8
				c-0.2-0.2-0.3-0.4-0.4-0.6c-0.3-0.8,0-1.6,0.6-2.2l1-0.6c0.3-0.2,0.6-0.1,0.8,0.2v0.1c0.2,0.4,0.6,0.6,1,0.4
				c0.1,0,0.2-0.1,0.2-0.1c0.3-0.2,0.6-0.5,0.8-0.9s0.3-0.8,0.2-1.2c0-0.3-0.1-0.6-0.3-0.8c-0.2-0.1-0.4-0.2-0.7-0.2
				c-0.4,0-0.7,0-1.1,0.1c-0.6,0.1-1.1,0.1-1.7,0c-0.5-0.1-0.9-0.3-1.2-0.7c-0.4-0.6-0.7-1.3-0.7-2c-0.2-1.3,0.1-2.7,0.7-3.9
				C36.4,145.5,37.3,144.5,38.4,143.9z"/>
		</g>
	</g>
</g>
</svg>
