<svg xmlns="http://www.w3.org/2000/svg" width="698" height="636.278" viewBox="0 0 698 636.278">
  <g id="Group_61" data-name="Group 61" transform="translate(-585.065 -3032.22)">
    <g id="Group_46" data-name="Group 46" transform="translate(565 379)">
      <path id="brush" d="M231.072,430.753c-37.836,17.417-63.435,37.648-78.224,59.982Q131.259,523.266,111,556.648c42.19,9.159,73.908,4.767,96.767-10.548,31.98-21.4,52.85-45.831,64.449-74.208Zm52.362-53.789,38.286,38.286c27.851-14.339,55.891-37.048,83.855-68.765q64.13-72.632,216.093-258.246a7.92,7.92,0,0,0-11.148-11.111Q425.507,228.754,352.238,293.26c-31.868,28-54.577,55.966-68.8,83.7ZM249.54,608.485Q158.61,669.349.678,597.3q41.845-75.787,89.6-148.079,36.879-55.571,118.988-90.911,27.307-63.4,93.351-121.466,74.321-65.425,260.348-217.82A82.954,82.954,0,0,1,679.737,135.8Q527.154,322.162,461.879,396.107q-55.065,62.384-115.122,90.386-24.211,73.082-97.218,121.954Z" transform="translate(19.387 2653.138)" fill="#9553a0" opacity="0.5"/>
    </g>
    <g id="designer" transform="translate(706.01 3080.37)">
      <g id="Floor" transform="translate(-0.01 171.19)">
        <path id="Path_305" data-name="Path 305" d="M413.824,248.749c-89.519-52.3-234.18-52.3-323.122,0S2.277,385.829,91.836,438.121s234.18,52.3,323.122,0S503.383,301.04,413.824,248.749Z" transform="translate(-24.33 -209.522)" fill="#f5f5f5"/>
      </g>
      <g id="Shadows" transform="translate(36.596 282.179)">
        <path id="Path_306" data-name="Path 306" d="M155.237,330.994c30.346-17.519,79.39-17.519,109.531,0,26.637,15.48,29.6,39.454,9.006,56.912,16.618-1.025,33.809,2.141,46.534,9.518,22.283,12.94,22.16,33.932-.256,46.882s-58.664,12.95-80.937,0C221.39,434,217.856,418.611,228.439,406.235c-25.541,3.688-53.654-.236-73.55-11.792C124.737,376.924,124.891,348.514,155.237,330.994Z" transform="translate(-58.287 -317.855)" fill="#e0e0e0"/>
        <path id="Path_307" data-name="Path 307" d="M89.218,373.279c-6.7-3.862-17.53-3.862-24.189,0s-6.618,10.143.082,14.015,17.529,3.862,24.179,0S95.918,377.162,89.218,373.279Z" transform="translate(-60.06 -316.567)" fill="#e0e0e0"/>
      </g>
      <g id="Plant" transform="translate(18.452 248.78)">
        <path id="Path_308" data-name="Path 308" d="M93.37,351.49l-16.228.523-16.218-.471c-.7,10.952,1.434,22.119,4.385,27.57h0a7.418,7.418,0,0,0,3.217,3.268c4.785,2.766,12.52,2.766,17.273,0a7.172,7.172,0,0,0,3.207-3.35C91.946,373.527,94.056,362.391,93.37,351.49Z" transform="translate(-41.898 -282.274)" fill="#fff"/>
        <path id="Path_309" data-name="Path 309" d="M88.572,345.066c6.352,3.678,6.393,9.62.072,13.319s-16.577,3.678-22.939,0-6.383-9.61-.072-13.319S82.22,341.4,88.572,345.066Z" transform="translate(-41.895 -282.499)" fill="#ebebeb"/>
        <path id="Path_310" data-name="Path 310" d="M85.976,346.481c4.959,2.858,4.979,7.5.061,10.368s-12.94,2.858-17.9,0-4.989-7.51-.061-10.368S81.018,343.623,85.976,346.481Z" transform="translate(-41.809 -282.449)" fill="#e0e0e0"/>
        <g id="Group_22" data-name="Group 22" transform="translate(22.592 61.889)" opacity="0.15">
          <path id="Path_311" data-name="Path 311" d="M85.976,346.481c4.959,2.858,4.979,7.5.061,10.368s-12.94,2.858-17.9,0-4.989-7.51-.061-10.368S81.018,343.623,85.976,346.481Z" transform="translate(-64.401 -344.337)"/>
        </g>
        <path id="Path_312" data-name="Path 312" d="M103.57,283.93C67.016,295.9,66.688,320.352,74.884,337.768c2.049,3.524,8.37,5.42,13.851-16.239l-9.528,1.229,11.2-5.676,2.9-8.688-9.323.7,11.833-4.979a175.575,175.575,0,0,1,7.756-20.183Z" transform="translate(-41.659 -283.93)" fill="#ba68c8"/>
        <path id="Path_313" data-name="Path 313" d="M103.57,283.93C67.016,295.9,66.688,320.352,74.884,337.768c2.049,3.524,8.37,5.42,13.851-16.239l-9.528,1.229,11.2-5.676,2.9-8.688-9.323.7,11.833-4.979a175.575,175.575,0,0,1,7.756-20.183Z" transform="translate(-41.659 -283.93)" opacity="0.2"/>
        <path id="Path_314" data-name="Path 314" d="M103.57,283.93C67.016,295.9,66.688,320.352,74.884,337.768c2.049,3.524,8.37,5.42,13.851-16.239l-9.528,1.229,11.2-5.676,2.9-8.688-9.323.7,11.833-4.979a175.575,175.575,0,0,1,7.756-20.183Z" transform="translate(-41.659 -283.93)" fill="#fff" opacity="0.2"/>
        <path id="Path_315" data-name="Path 315" d="M93.127,289.9c-19.271,14.63-21.013,31.4-15.573,48.91C75.628,323.391,73.548,307.8,93.127,289.9Z" transform="translate(-41.553 -283.784)" fill="#fff"/>
        <path id="Path_316" data-name="Path 316" d="M42.35,308.17c36.032,5.123,40.407,27.8,35.622,45.386-1.352,3.617-6.9,6.434-15.593-12.776l9.149-.451-11.362-3.422-4.149-7.6,8.8-.912L52.964,325.73A167.176,167.176,0,0,0,42.35,308.17Z" transform="translate(-42.35 -283.336)" fill="#ba68c8"/>
        <path id="Path_317" data-name="Path 317" d="M42.35,308.17c36.032,5.123,40.407,27.8,35.622,45.386-1.352,3.617-6.9,6.434-15.593-12.776l9.149-.451-11.362-3.422-4.149-7.6,8.8-.912L52.964,325.73A167.176,167.176,0,0,0,42.35,308.17Z" transform="translate(-42.35 -283.336)" fill="#fff" opacity="0.2"/>
        <path id="Path_318" data-name="Path 318" d="M42.35,308.17c36.032,5.123,40.407,27.8,35.622,45.386-1.352,3.617-6.9,6.434-15.593-12.776l9.149-.451-11.362-3.422-4.149-7.6,8.8-.912L52.964,325.73A167.176,167.176,0,0,0,42.35,308.17Z" transform="translate(-42.35 -283.336)" opacity="0.1"/>
        <path id="Path_319" data-name="Path 319" d="M52.74,312.06c20.388,10.419,24.793,25.756,22.632,42.968C74.6,340.347,73.948,325.481,52.74,312.06Z" transform="translate(-42.095 -283.24)" fill="#fff"/>
        <path id="Path_320" data-name="Path 320" d="M113.98,316.48c-33.051.543-39.526,20.49-37.19,36.883.809,3.422,5.491,6.567,15.491-9.815l-8.2-1.434L94.709,340.3l4.59-6.393-7.827-1.793,10.983-1.086A151.624,151.624,0,0,1,113.98,316.48Z" transform="translate(-41.516 -283.132)" fill="#ba68c8"/>
        <path id="Path_321" data-name="Path 321" d="M103.883,318.82c-19.538,7.11-25.234,20.439-25.2,36.2C81.057,341.872,83.26,328.543,103.883,318.82Z" transform="translate(-41.459 -283.075)" fill="#fff"/>
        <path id="Path_322" data-name="Path 322" d="M113.98,316.48c-33.051.543-39.526,20.49-37.19,36.883.809,3.422,5.491,6.567,15.491-9.815l-8.2-1.434L94.709,340.3l4.59-6.393-7.827-1.793,10.983-1.086A151.624,151.624,0,0,1,113.98,316.48Z" transform="translate(-41.516 -283.132)" fill="#fff" opacity="0.2"/>
      </g>
      <g id="Character" transform="translate(96.966 127.272)">
        <path id="Path_323" data-name="Path 323" d="M250.388,272.633c10.348,7.172,22.007,12.161,30.654,21.792,16.177,18,16.515,46.954,3.883,67.587s-36.247,32.948-60.262,35.776c-25.193,2.971-51.625-3.985-71.388-19.886s-32.334-40.745-32.324-66.1,13-50.621,34.25-64.483c19.384-12.632,47.23-16.239,66.676-1.783,9.835,7.315,16.392,18.113,26.2,25.439C248.8,271.506,249.588,272.079,250.388,272.633Z" transform="translate(-120.95 -164.951)" fill="#455a64"/>
        <path id="Path_324" data-name="Path 324" d="M250.388,272.633c10.348,7.172,22.007,12.161,30.654,21.792,16.177,18,16.515,46.954,3.883,67.587s-36.247,32.948-60.262,35.776c-25.193,2.971-51.625-3.985-71.388-19.886s-32.334-40.745-32.324-66.1,13-50.621,34.25-64.483c19.384-12.632,47.23-16.239,66.676-1.783,9.835,7.315,16.392,18.113,26.2,25.439C248.8,271.506,249.588,272.079,250.388,272.633Z" transform="translate(-120.95 -164.951)" opacity="0.2"/>
        <path id="Path_325" data-name="Path 325" d="M250.388,272.633c10.348,7.172,22.007,12.161,30.654,21.792,16.177,18,16.515,46.954,3.883,67.587s-36.247,32.948-60.262,35.776c-25.193,2.971-51.625-3.985-71.388-19.886s-32.334-40.745-32.324-66.1,13-50.621,34.25-64.483c19.384-12.632,47.23-16.239,66.676-1.783,9.835,7.315,16.392,18.113,26.2,25.439C248.8,271.506,249.588,272.079,250.388,272.633Z" transform="translate(-120.95 -164.951)" fill="#fff" opacity="0.1"/>
        <path id="Path_326" data-name="Path 326" d="M245.328,377.493a4.577,4.577,0,0,0-.072-.523,27.252,27.252,0,0,0-22.078-22.714,85.824,85.824,0,0,1-28.236-10.809c-6.147-3.729-12.018-8.309-18.954-10.337A30.838,30.838,0,0,0,155.57,334.3c5.819-6.147,15.808-8.811,23.789-6.045-5.522-8.452-10.389-17.56-12.294-27.488s-.553-20.8,5.43-28.932a29.127,29.127,0,0,1,44.987-2.408c5.922,6.475,9.221,15.593,13.145,23.462,2.8,5.655,5.686,11.444,10.3,15.747,6.946,6.506,16.935,8.842,24.148,15.06,8.2,7.059,11.69,18.329,11.721,29.117a85.425,85.425,0,0,1-3.156,21.515A81.827,81.827,0,0,1,244.088,392.4a32.088,32.088,0,0,0,1.24-14.907Z" transform="translate(-120.101 -164.368)" opacity="0.1"/>
        <path id="Path_327" data-name="Path 327" d="M134.1,308.26a74.011,74.011,0,0,1,63.151-71.87,52.466,52.466,0,0,1,7.172,1.2,72.157,72.157,0,0,0-68.335,70.692c-.471,23.564,11.075,47.661,30.879,64.36,15.521,13.083,36.145,21.761,58.807,24.886l-1.455.184c-2.049.246-4.1.41-6.147.523-20.142-3.9-38.368-12.2-52.476-24.1C145.432,357.078,133.629,332.449,134.1,308.26Z" transform="translate(-120.628 -164.946)" fill="#fff"/>
        <path id="Path_328" data-name="Path 328" d="M269.341,367.027a75.839,75.839,0,0,0-1.26,11.772l-2.8-1.025a7.172,7.172,0,0,0-7.766,1.762l-.133.143a2.817,2.817,0,0,1-3.893.174h0a2.807,2.807,0,0,1-.953-2.049l-.379-11.895Z" transform="translate(-117.733 -161.77)" fill="#934d26"/>
        <path id="Path_329" data-name="Path 329" d="M258.7,410.67c5.8,6.209,16.474,11.628,24.23,6.342l-.871,1.967c-7.756,5.3-18.441-.123-24.23-6.332s-2.049-10.5-7.254-16a19.108,19.108,0,0,1-4.518-6.7c.236-.594.461-1.363.727-2.254a23.91,23.91,0,0,0,4.662,6.977C256.664,400.179,252.9,404.472,258.7,410.67Z" transform="translate(-117.883 -161.236)" fill="#f5f5f5"/>
        <path id="Path_330" data-name="Path 330" d="M249.628,381.513a11.176,11.176,0,0,0,1.824-4.231,2.51,2.51,0,0,1,1.147-1.732l.072,2a2.807,2.807,0,0,0,4.846,1.854l.133-.143a7.172,7.172,0,0,1,7.766-1.762l2.838,1.024a2.182,2.182,0,0,1,1.414,2.049c-.184,8.135,3.616,18.933,7.6,24.875,4.1,1.69,7.633,7.274,5.829,11.372l-.184.41c-7.756,5.286-18.441-.133-24.23-6.342s-2.049-10.491-7.254-16a23.913,23.913,0,0,1-4.662-6.977A25.745,25.745,0,0,1,249.628,381.513Z" transform="translate(-117.865 -161.534)" fill="#ba68c8"/>
        <path id="Path_331" data-name="Path 331" d="M249.628,381.513a11.176,11.176,0,0,0,1.824-4.231,2.51,2.51,0,0,1,1.147-1.732l.072,2a2.807,2.807,0,0,0,4.846,1.854l.133-.143a7.172,7.172,0,0,1,7.766-1.762l2.838,1.024a2.182,2.182,0,0,1,1.414,2.049c-.184,8.135,3.616,18.933,7.6,24.875,4.1,1.69,7.633,7.274,5.829,11.372l-.184.41c-7.756,5.286-18.441-.133-24.23-6.342s-2.049-10.491-7.254-16a23.913,23.913,0,0,1-4.662-6.977A25.745,25.745,0,0,1,249.628,381.513Z" transform="translate(-117.865 -161.534)" opacity="0.3"/>
        <path id="Path_332" data-name="Path 332" d="M249.628,381.513a11.176,11.176,0,0,0,1.824-4.231,2.51,2.51,0,0,1,1.147-1.732l.072,2a2.807,2.807,0,0,0,4.846,1.854l.133-.143a7.172,7.172,0,0,1,7.766-1.762l2.838,1.024a2.182,2.182,0,0,1,1.414,2.049c-.184,8.135,3.616,18.933,7.6,24.875,4.1,1.69,7.633,7.274,5.829,11.372l-.184.41c-7.756,5.286-18.441-.133-24.23-6.342s-2.049-10.491-7.254-16a23.913,23.913,0,0,1-4.662-6.977A25.745,25.745,0,0,1,249.628,381.513Z" transform="translate(-117.865 -161.534)" fill="#fff" opacity="0.2"/>
        <path id="Path_333" data-name="Path 333" d="M260.674,392.907a.992.992,0,0,1-.912-1.762,11.27,11.27,0,0,1,11.136,0c.174.635.359,1.281.553,1.906A10.968,10.968,0,0,0,260.674,392.907Z" transform="translate(-117.559 -161.188)" fill="#fff"/>
        <path id="Path_334" data-name="Path 334" d="M259.27,388.607a1.025,1.025,0,0,1-.912-1.752,11.9,11.9,0,0,1,11.6.092q.164,1.024.4,2C266.974,387.152,263.562,386.445,259.27,388.607Z" transform="translate(-117.589 -161.293)" fill="#fff"/>
        <path id="Path_335" data-name="Path 335" d="M262.2,397.177a.992.992,0,0,1-.912-1.762,11.27,11.27,0,0,1,10.9-.1q.369,1.024.768,2.049a10.88,10.88,0,0,0-10.758-.184Z" transform="translate(-117.521 -161.083)" fill="#fff"/>
        <path id="Path_336" data-name="Path 336" d="M276.978,404.843c4.1,1.69,7.633,7.274,5.829,11.372l-.184.41c-7.643,5.2-18.1,0-23.964-6.065C263.547,400.991,273.751,403.378,276.978,404.843Z" transform="translate(-117.574 -160.85)" fill="#fff"/>
        <path id="Path_337" data-name="Path 337" d="M263.87,401.347a1.025,1.025,0,0,1-.912-1.762,11.27,11.27,0,0,1,10.921-.092c.348.758.707,1.486,1.024,2.182C271.564,399.892,268.132,399.175,263.87,401.347Z" transform="translate(-117.477 -160.981)" fill="#fff"/>
        <path id="Path_338" data-name="Path 338" d="M281.216,390.06c.727,4.272,3.6,11.27,3.6,11.27l-2.981.174a7.172,7.172,0,0,0-6.393,4.744l-.072.195a2.8,2.8,0,0,1-3.473,1.721h0a2.777,2.777,0,0,1-1.7-1.465l-5.123-10.737Z" transform="translate(-117.417 -161.178)" fill="#934d26"/>
        <path id="Path_339" data-name="Path 339" d="M289.093,434.168c7.807,3.34,19.763,3.985,24.722-3.985v2.162c-4.959,7.971-16.915,7.325-24.722,3.985s-6.147-8.78-13.1-11.71a19.075,19.075,0,0,1-6.834-4.313c0-.635-.133-1.434-.236-2.356a23.757,23.757,0,0,0,7.069,4.508C282.987,425.388,281.3,430.838,289.093,434.168Z" transform="translate(-117.322 -160.495)" fill="#f5f5f5"/>
        <path id="Path_340" data-name="Path 340" d="M268.925,411.245a11.271,11.271,0,0,0,0-4.61,2.449,2.449,0,0,1,.348-2.049l.871,1.8a2.807,2.807,0,0,0,5.174-.256l.072-.195a7.172,7.172,0,0,1,6.393-4.744l3.074-.174a2.192,2.192,0,0,1,2.131,1.342c3.074,7.52,10.952,15.87,17,19.691,4.426-.1,9.917,3.576,9.917,8.053v.44c-4.959,7.971-16.915,7.325-24.722,3.985s-6.147-8.78-13.1-11.71a23.757,23.757,0,0,1-7.069-4.508A24.926,24.926,0,0,1,268.925,411.245Z" transform="translate(-117.327 -160.91)" fill="#ba68c8"/>
        <path id="Path_341" data-name="Path 341" d="M268.925,411.245a11.271,11.271,0,0,0,0-4.61,2.449,2.449,0,0,1,.348-2.049l.871,1.8a2.807,2.807,0,0,0,5.174-.256l.072-.195a7.172,7.172,0,0,1,6.393-4.744l3.074-.174a2.192,2.192,0,0,1,2.131,1.342c3.074,7.52,10.952,15.87,17,19.691,4.426-.1,9.917,3.576,9.917,8.053v.44c-4.959,7.971-16.915,7.325-24.722,3.985s-6.147-8.78-13.1-11.71a23.757,23.757,0,0,1-7.069-4.508A24.926,24.926,0,0,1,268.925,411.245Z" transform="translate(-117.327 -160.91)" opacity="0.3"/>
        <path id="Path_342" data-name="Path 342" d="M268.925,411.245a11.271,11.271,0,0,0,0-4.61,2.449,2.449,0,0,1,.348-2.049l.871,1.8a2.807,2.807,0,0,0,5.174-.256l.072-.195a7.172,7.172,0,0,1,6.393-4.744l3.074-.174a2.192,2.192,0,0,1,2.131,1.342c3.074,7.52,10.952,15.87,17,19.691,4.426-.1,9.917,3.576,9.917,8.053v.44c-4.959,7.971-16.915,7.325-24.722,3.985s-6.147-8.78-13.1-11.71a23.757,23.757,0,0,1-7.069-4.508A24.926,24.926,0,0,1,268.925,411.245Z" transform="translate(-117.327 -160.91)" fill="#fff" opacity="0.2"/>
        <path id="Path_343" data-name="Path 343" d="M283.709,417.2a1.024,1.024,0,0,1-1.537-1.25,11.331,11.331,0,0,1,10.194-4.477c.42.523.84,1.025,1.281,1.527C289.969,412.8,286.67,413.592,283.709,417.2Z" transform="translate(-116.999 -160.655)" fill="#fff"/>
        <path id="Path_344" data-name="Path 344" d="M280.712,413.831a1.025,1.025,0,0,1-1.383.123.963.963,0,0,1-.164-1.363A11.884,11.884,0,0,1,289.81,408q.553.83,1.168,1.66C287.2,409.395,283.755,410.122,280.712,413.831Z" transform="translate(-117.076 -160.74)" fill="#fff"/>
        <path id="Path_345" data-name="Path 345" d="M286.842,420.488a.995.995,0,0,1-1.547-1.25,11.27,11.27,0,0,1,9.928-4.5c.5.533,1.025,1.025,1.527,1.547C293.081,416.093,289.792,416.882,286.842,420.488Z" transform="translate(-116.925 -160.574)" fill="#fff"/>
        <path id="Path_346" data-name="Path 346" d="M303.406,421.6c4.426-.1,9.917,3.576,9.917,8.053v.441c-4.887,7.858-16.556,7.336-24.373,4.1C289.555,423.5,299.861,421.559,303.406,421.6Z" transform="translate(-116.831 -160.405)" fill="#fff"/>
        <path id="Path_347" data-name="Path 347" d="M290.039,423.628a1.025,1.025,0,0,1-1.547-1.24,11.27,11.27,0,0,1,9.958-4.5c.625.553,1.24,1.025,1.854,1.568C296.5,419.182,293.113,419.909,290.039,423.628Z" transform="translate(-116.844 -160.497)" fill="#fff"/>
        <path id="Path_348" data-name="Path 348" d="M237.339,290.91l39.085,21.781a19.384,19.384,0,0,1,9.62,20.49l-7.592,40.807,6.219,19.763c-5.368,7.172-17.683,7.561-17.683,7.561-6.874-13.78-11.925-19.64-15.829-31.2s-6.506-19.517-6.506-19.517L212.2,341.726a38.471,38.471,0,0,1-28.133-32.733c-.553-4.907-.584-8.258-.584-8.258Z" transform="translate(-119.417 -163.609)" fill="#263238"/>
        <path id="Path_349" data-name="Path 349" d="M235.865,301.63a18.513,18.513,0,0,1-4.375,11.915l27.58,17.263a19.814,19.814,0,0,1,8.442,11.014l9.764,31.9-8.8-35.561a16.147,16.147,0,0,0-7.172-9.835l-25.469-15.737C238.436,306.107,235.865,301.63,235.865,301.63Z" transform="translate(-118.24 -163.346)" opacity="0.2"/>
        <path id="Path_350" data-name="Path 350" d="M205.6,316.783a1.435,1.435,0,0,0,.051.512,1.485,1.485,0,0,0,.2.4h0a2.5,2.5,0,0,0,.348.4h0a3.128,3.128,0,0,0,.522.379l28.6,16.618a4.515,4.515,0,0,0,.82.359l.318.1.42.1.5.082h1.731a2.921,2.921,0,0,0,.666-.113h.123l.574-.174h.1a4.011,4.011,0,0,0,.635-.3l47.189-27.242a3.876,3.876,0,0,0,.543-.379l.133-.154a3.075,3.075,0,0,0,.246-.266,1.547,1.547,0,0,0,.092-.184,1.293,1.293,0,0,0,.133-.266v-.195a2.4,2.4,0,0,0,0-.266v1.68a2.227,2.227,0,0,1,0,.256v.195a1.7,1.7,0,0,1-.133.277c0,.051-.051.113-.092.174s-.164.184-.246.277a.985.985,0,0,1-.133.143,3.173,3.173,0,0,1-.543.379l-47.189,27.252a5.192,5.192,0,0,1-.635.3h-.1a5.313,5.313,0,0,1-.574.174h-.123a4.753,4.753,0,0,1-.666.113h-.1a5.28,5.28,0,0,1-.7,0h-.113a5.415,5.415,0,0,1-.7,0h-.123a3.958,3.958,0,0,1-.5-.092l-.42-.1-.318-.092a5.355,5.355,0,0,1-.82-.359l-28.6-16.628a2.644,2.644,0,0,1-.523-.379h0a2.44,2.44,0,0,1-.348-.389v-.051a1.229,1.229,0,0,1-.2-.4h0a1.62,1.62,0,0,1,0-.379h0v-1.813Z" transform="translate(-118.875 -163.234)" fill="#e0e0e0"/>
        <path id="Path_351" data-name="Path 351" d="M205.6,316.783a1.435,1.435,0,0,0,.051.512,1.485,1.485,0,0,0,.2.4h0a2.5,2.5,0,0,0,.348.4h0a3.128,3.128,0,0,0,.522.379l28.6,16.618a4.515,4.515,0,0,0,.82.359l.318.1.42.1.5.082h1.731a2.921,2.921,0,0,0,.666-.113h.123l.574-.174h.1a4.011,4.011,0,0,0,.635-.3l47.189-27.242a3.876,3.876,0,0,0,.543-.379l.133-.154a3.075,3.075,0,0,0,.246-.266,1.547,1.547,0,0,0,.092-.184,1.293,1.293,0,0,0,.133-.266v-.195a2.4,2.4,0,0,0,0-.266v1.68a2.227,2.227,0,0,1,0,.256v.195a1.7,1.7,0,0,1-.133.277c0,.051-.051.113-.092.174s-.164.184-.246.277a.985.985,0,0,1-.133.143,3.173,3.173,0,0,1-.543.379l-47.189,27.252a5.192,5.192,0,0,1-.635.3h-.1a5.313,5.313,0,0,1-.574.174h-.123a4.753,4.753,0,0,1-.666.113h-.1a5.28,5.28,0,0,1-.7,0h-.113a5.415,5.415,0,0,1-.7,0h-.123a3.958,3.958,0,0,1-.5-.092l-.42-.1-.318-.092a5.355,5.355,0,0,1-.82-.359l-28.6-16.628a2.644,2.644,0,0,1-.523-.379h0a2.44,2.44,0,0,1-.348-.389v-.051a1.229,1.229,0,0,1-.2-.4h0a1.62,1.62,0,0,1,0-.379h0v-1.813Z" transform="translate(-118.875 -163.234)" opacity="0.2"/>
        <path id="Path_352" data-name="Path 352" d="M289.619,307.155a1.289,1.289,0,0,1-.133.266,1.536,1.536,0,0,1-.092.184,3.069,3.069,0,0,1-.246.266l-.133.154a3.872,3.872,0,0,1-.543.379l-47.189,27.242a4.014,4.014,0,0,1-.635.3h-.1l-.574.174h-.123c-.215.051-.441.082-.666.113h-1.731l-.5-.082-.42-.1-.318-.1a4.521,4.521,0,0,1-.82-.359l-28.6-16.618a3.127,3.127,0,0,1-.523-.379h0a2.507,2.507,0,0,1-.348-.4h0a1.486,1.486,0,0,1-.2-.4h0a1.436,1.436,0,0,1-.051-.512,2.141,2.141,0,0,1,1.219-1.619l47.189-27.242a6.444,6.444,0,0,1,5.87,0l28.6,16.618a2.049,2.049,0,0,1,1.219,1.7,2.408,2.408,0,0,1,0,.266C289.64,307.022,289.64,307.094,289.619,307.155Z" transform="translate(-118.873 -163.688)" fill="#e0e0e0"/>
        <path id="Path_353" data-name="Path 353" d="M285.3,306.467,239.424,332.94l-.184.082h-.1a2.428,2.428,0,0,1-.359.1l-.246.051h-1.1l-.3-.051-.369-.1a1.476,1.476,0,0,1-.318-.133L221.7,324.314,269.053,297Z" transform="translate(-118.48 -163.46)" fill="#e0e0e0"/>
        <path id="Path_354" data-name="Path 354" d="M237.5,332.39Z" transform="translate(-118.092 -162.592)" fill="#263238"/>
        <path id="Path_355" data-name="Path 355" d="M241.554,299.135l8.626,5.123a.871.871,0,0,1,0,1.506l-12.929,7.407a1.424,1.424,0,0,1-1.445,0L227.18,308.1a.871.871,0,0,1,0-1.506l12.9-7.448A1.455,1.455,0,0,1,241.554,299.135Z" transform="translate(-118.356 -163.412)" fill="#e0e0e0"/>
        <path id="Path_356" data-name="Path 356" d="M285.3,306.467,239.424,332.94l-.184.082h-.1a2.428,2.428,0,0,1-.359.1l-.246.051h-1.1l-.3-.051-.369-.1a1.476,1.476,0,0,1-.318-.133L221.7,324.314,269.053,297Z" transform="translate(-118.48 -163.46)" opacity="0.4"/>
        <path id="Path_357" data-name="Path 357" d="M241.554,299.135l8.626,5.123a.871.871,0,0,1,0,1.506l-12.929,7.407a1.424,1.424,0,0,1-1.445,0L227.18,308.1a.871.871,0,0,1,0-1.506l12.9-7.448A1.455,1.455,0,0,1,241.554,299.135Z" transform="translate(-118.356 -163.412)" opacity="0.4"/>
        <path id="Path_358" data-name="Path 358" d="M237.831,334.358l4.887-31.063a5.7,5.7,0,0,1,2.787-4.1l47.517-27.662a1.383,1.383,0,0,1,1.26-.082h0l1.137.563-.389.143a1.434,1.434,0,0,1,.133.84l-4.907,31.125a5.737,5.737,0,0,1-2.787,4.1l-47.517,27.662a1.922,1.922,0,0,1-.307.123v.461l-1.1-.543h0a1.424,1.424,0,0,1-.717-1.568Z" transform="translate(-118.085 -164.089)" fill="#e0e0e0"/>
        <path id="Path_359" data-name="Path 359" d="M237.831,334.358l4.887-31.063a5.7,5.7,0,0,1,2.787-4.1l47.517-27.662a1.383,1.383,0,0,1,1.26-.082h0l1.137.563-.389.143a1.434,1.434,0,0,1,.133.84l-4.907,31.125a5.737,5.737,0,0,1-2.787,4.1l-47.517,27.662a1.922,1.922,0,0,1-.307.123v.461l-1.1-.543h0a1.424,1.424,0,0,1-.717-1.568Z" transform="translate(-118.085 -164.089)" opacity="0.3"/>
        <path id="Path_360" data-name="Path 360" d="M246.433,299.667,293.95,272a1.445,1.445,0,0,1,2.141,1.465l-4.836,31.125a5.737,5.737,0,0,1-2.787,4.1l-47.517,27.662a1.434,1.434,0,0,1-2.141-1.455l4.836-31.135a5.737,5.737,0,0,1,2.787-4.1Z" transform="translate(-118.061 -164.077)" fill="#e0e0e0"/>
        <path id="Path_361" data-name="Path 361" d="M268.844,299.825a10.45,10.45,0,0,0-4.713,6.793c-.318,2.418,1.291,3.319,3.586,1.988a10.532,10.532,0,0,0,4.723-6.793C272.747,299.394,271.169,298.493,268.844,299.825Z" transform="translate(-117.441 -163.406)" fill="#fff"/>
        <path id="Path_362" data-name="Path 362" d="M241.34,254.106l12.878,10.512,8.493-13.78L252.026,238.8C242.631,242.919,241.34,254.106,241.34,254.106Z" transform="translate(-117.998 -164.887)" fill="#aa6239"/>
        <path id="Path_363" data-name="Path 363" d="M222.9,219.007c10.122-1.137,11.055,1.106,17.622,7.295s13.216,13.2,13.216,13.2c-10.122,4.948-11.27,16.986-11.27,16.986-5.512-4.272-10.173-7.653-10.173-7.653Z" transform="translate(-118.45 -165.379)" fill="#455a64"/>
        <path id="Path_364" data-name="Path 364" d="M222.9,219.007c10.122-1.137,11.055,1.106,17.622,7.295s13.216,13.2,13.216,13.2c-10.122,4.948-11.27,16.986-11.27,16.986-5.512-4.272-10.173-7.653-10.173-7.653Z" transform="translate(-118.45 -165.379)" fill="#fff" opacity="0.5"/>
        <path id="Path_365" data-name="Path 365" d="M186.993,227.052c14.394-6.741,25.193-7.53,36.965-8.042,17.622,11.341,11.024,20.787,10.716,35.93s-3.6,24.291,6.905,40.038c-23.093,18.441-52.25,12.612-59.227,8.2C177.854,261.241,179.165,230.269,186.993,227.052Z" transform="translate(-119.508 -165.372)" fill="#455a64"/>
        <path id="Path_366" data-name="Path 366" d="M186.993,227.052c14.394-6.741,25.193-7.53,36.965-8.042,17.622,11.341,11.024,20.787,10.716,35.93s-3.6,24.291,6.905,40.038c-23.093,18.441-52.25,12.612-59.227,8.2C177.854,261.241,179.165,230.269,186.993,227.052Z" transform="translate(-119.508 -165.372)" fill="#fff" opacity="0.7"/>
        <path id="Path_367" data-name="Path 367" d="M230.618,197.365a12.294,12.294,0,0,0,1.311-16.546,6.752,6.752,0,0,0,2.817-3.453,3.586,3.586,0,0,0-5.235-4.1,5.02,5.02,0,0,0-2.746-5.553,4.733,4.733,0,0,0-5.707,1.844,3.207,3.207,0,0,0-2.582-2.848,6.475,6.475,0,0,0-4.026.779c-1.25.615-2.387,1.424-3.647,2.049a30.1,30.1,0,0,1-6.8,1.783,14.077,14.077,0,0,0-6.444,2.643c-1.793,1.527-3.074,4.7-1.742,7.12a3.842,3.842,0,0,0-2.971-1.117,3.76,3.76,0,0,0-2.684,1.578c1.578.717,3.074,1.506,4.682,2.213-1.557-.471-3.606.85-4.211,2.346a8.913,8.913,0,0,0-.174,4.785,63.4,63.4,0,0,0,5.553,17.519c1.383,2.858,3.238,5.84,6.25,6.854Z" transform="translate(-119.253 -166.656)" fill="#37474f"/>
        <path id="Path_368" data-name="Path 368" d="M230.45,182.14a15.2,15.2,0,0,1-10.091,4.242c-3.555,0-6.987-1.127-10.409-2.049a7.95,7.95,0,0,1-2.356,4.344,9.036,9.036,0,0,1-4.846,2.11,30.931,30.931,0,0,1,0,9.671,1.813,1.813,0,0,1-1.219,1.486c-1.158.338-1.916-.84-2.479-1.8a7.889,7.889,0,0,0-2.5-2.787,3.893,3.893,0,0,0-3.617-.369,3.77,3.77,0,0,0-1.906,2.326,6.865,6.865,0,0,0-.143,3.074,9.221,9.221,0,0,0,1.988,4.682,6.311,6.311,0,0,0,4.446,2.295,4.6,4.6,0,0,0,4.282-2.11l.082.307a12.064,12.064,0,0,0,.461,1.5,12.806,12.806,0,0,0,9.354,8c2.172.461,4.58.891,7.028,1.26,1.209.184,2.428.359,3.637.5a8.76,8.76,0,0,0,9.671-7.172C233.441,202.282,234.035,191.391,230.45,182.14Z" transform="translate(-119.238 -166.276)" fill="#934d26"/>
        <path id="Path_369" data-name="Path 369" d="M201.83,208.38v16.29a17.991,17.991,0,0,0,13.114,7.254,6.393,6.393,0,0,0,4.7-1.2,3.811,3.811,0,0,0-.482-6.045,2.1,2.1,0,0,1-.953-1.742v-5.3c-2.449-.369-4.856-.8-7.028-1.26A12.807,12.807,0,0,1,201.83,208.38Z" transform="translate(-118.967 -165.633)" fill="#934d26"/>
        <path id="Path_370" data-name="Path 370" d="M212.7,219.95a34.565,34.565,0,0,0,5.5.973v-3.3c-2.449-.369-4.856-.8-7.028-1.26a12.776,12.776,0,0,1-9.036-7.295,13.073,13.073,0,0,0,3.3,6.813A15.665,15.665,0,0,0,212.7,219.95Z" transform="translate(-118.959 -165.616)" opacity="0.2"/>
        <path id="Path_371" data-name="Path 371" d="M222.989,193.724h-2.111a15.368,15.368,0,0,0-14.548-1.486v2.223l.584.307a22.792,22.792,0,0,1,.533,4.354,5.779,5.779,0,0,0,1.619,3.862c1.158,1.025,2.817,1.106,4.334,1.127a8.2,8.2,0,0,0,3.606-.523,5.788,5.788,0,0,0,2.746-3.3c.522-1.383.43-2.192,1.076-3.852a1.24,1.24,0,0,1,1.158-.779,1.147,1.147,0,0,1,1.076.779c.6,1.66.522,2.469,1.025,3.852a5.717,5.717,0,0,0,2.572,3.3,7.233,7.233,0,0,0,3.371.523,5.84,5.84,0,0,0,4.1-1.127,6.024,6.024,0,0,0,1.506-3.862,24.59,24.59,0,0,1,.5-4.354l.543-.307v-2.223A13.646,13.646,0,0,0,222.989,193.724Zm-3.166,1.137-.092.789a18.381,18.381,0,0,1-1.025,4.2,4.815,4.815,0,0,1-2.172,2.654,6.086,6.086,0,0,1-2.592.42h-.471a5.553,5.553,0,0,1-3.586-.861,4.559,4.559,0,0,1-1.229-3.074c0-.369-.061-.748-.092-1.137-.072-1.025,0-3.381.082-5.061a13.758,13.758,0,0,1,3.7-.5,14.015,14.015,0,0,1,7.417,2.162C219.854,194.492,219.823,194.861,219.823,194.861Zm14.722,2.961c0,.389-.051.768-.082,1.137a4.7,4.7,0,0,1-1.158,3.074,4.938,4.938,0,0,1-3.35.861h-.4a5.389,5.389,0,0,1-2.428-.42,4.754,4.754,0,0,1-2.049-2.654,19.085,19.085,0,0,1-1.025-4.2l-.082-.789s0-.369.082-.441A12.53,12.53,0,0,1,231,192.228a12.028,12.028,0,0,1,3.453.5C234.555,194.441,234.607,196.767,234.545,197.822Z" transform="translate(-118.857 -166.058)" fill="#ba68c8"/>
        <path id="Path_372" data-name="Path 372" d="M206.614,192.21l-11.854,4.262a5.123,5.123,0,0,1,2.315,1.086c.133.113,9.538-3.125,9.538-3.125Z" transform="translate(-119.14 -166.029)" fill="#ba68c8"/>
        <path id="Path_373" data-name="Path 373" d="M197.2,158.36l5.983,7.243-5.491,1.936Z" transform="translate(-94.144 -128.583)" fill="#aa6239"/>
        <path id="Path_374" data-name="Path 374" d="M213.3,196.649a1.639,1.639,0,1,0,.491-1.16A1.65,1.65,0,0,0,213.3,196.649Z" transform="translate(-118.686 -165.96)" fill="#37474f"/>
        <path id="Path_375" data-name="Path 375" d="M226.76,196.219a1.649,1.649,0,1,0,1.66-1.639,1.649,1.649,0,0,0-1.66,1.639Z" transform="translate(-118.356 -165.971)" fill="#37474f"/>
        <path id="Path_376" data-name="Path 376" d="M225.92,189.094l4.4.5a2.356,2.356,0,0,0-1.844-1.936A2.787,2.787,0,0,0,225.92,189.094Z" transform="translate(-118.376 -166.141)" fill="#37474f"/>
        <path id="Path_377" data-name="Path 377" d="M216.1,188.538l-4.1,1.834a2.326,2.326,0,0,1,1.158-2.408A2.766,2.766,0,0,1,216.1,188.538Z" transform="translate(-118.718 -166.138)" fill="#37474f"/>
        <path id="Path_378" data-name="Path 378" d="M216.262,207.66l4.866,1.629a3.074,3.074,0,0,1-3.34,1.445,2.715,2.715,0,0,1-1.527-3.074Z" transform="translate(-118.615 -165.65)" fill="#f28f8f"/>
        <path id="Path_379" data-name="Path 379" d="M216.262,207.66l4.866,1.629a3.074,3.074,0,0,1-3.34,1.445,2.715,2.715,0,0,1-1.527-3.074Z" transform="translate(-118.615 -165.65)" opacity="0.3"/>
        <path id="Path_380" data-name="Path 380" d="M219.4,210.653a2.889,2.889,0,0,1-1.608.061,2.469,2.469,0,0,1-1.547-2.254,2.8,2.8,0,0,1,3.156,2.192Z" transform="translate(-118.614 -165.632)" fill="#aa6239"/>
        <path id="Path_381" data-name="Path 381" d="M231.263,230.168l-4.16,1.9a1.66,1.66,0,0,0-.789,2.254h0a1.65,1.65,0,0,0,1.783.891l10.245-1.834-3.074-3.965Z" transform="translate(-118.371 -165.117)" fill="#aa6239"/>
        <path id="Path_382" data-name="Path 382" d="M240.525,234.132l12.909,30.408a8.954,8.954,0,0,0,11.444,4.856h0a8.944,8.944,0,0,0,3.77-13.954l-21.085-26.289a12.489,12.489,0,0,0-2.541-2.387l-6.424-4.539a13.759,13.759,0,0,0-6.147-2.4h0l-3.135-2.295a3.073,3.073,0,0,0-2.981-.4l-4.826,1.854h0a3.156,3.156,0,0,0,3.627,1.762l1.926-.482,2.254,1.66-2.93,4.1a2.551,2.551,0,0,0,.512,3.5l5.532,4.252a1.988,1.988,0,0,0,1.783.318h0a1.977,1.977,0,0,0,1.363-2.295h0A7.018,7.018,0,0,0,240.525,234.132Z" transform="translate(-118.485 -165.423)" fill="#934d26"/>
        <path id="Path_383" data-name="Path 383" d="M229.214,221.85a7.591,7.591,0,0,1,2.049-1.66l-3.873.287Z" transform="translate(-118.34 -165.343)" fill="#f28f8f"/>
        <path id="Path_384" data-name="Path 384" d="M191.125,265.234l-4.4,15.091,26.9,19.107,9.047,3.8a14.241,14.241,0,0,1,5.993,4.774l7.377,10.245c.82,1.711-3.074,4.5-4.866,4.969h0a6.639,6.639,0,0,1-6.147-1.527l-5.7-5.215-1.568-.553a23.912,23.912,0,0,1-11.444-8.585h0L174.794,295.1a12.069,12.069,0,0,1-7.284-14.343l5.235-19.466Z" transform="translate(-119.818 -164.335)" fill="#934d26"/>
        <path id="Path_385" data-name="Path 385" d="M191.079,268.209l7.469-22.324s.246-20.439-8.422-19.8-13.073,5.655-19.742,35.95l-.143.656A35.991,35.991,0,0,0,191.079,268.209Z" transform="translate(-119.742 -165.199)" fill="#455a64"/>
        <path id="Path_386" data-name="Path 386" d="M191.079,268.209l7.469-22.324s.246-20.439-8.422-19.8-13.073,5.655-19.742,35.95l-.143.656A35.991,35.991,0,0,0,191.079,268.209Z" transform="translate(-119.742 -165.199)" fill="#fff" opacity="0.5"/>
      </g>
      <g id="Light_bulb" data-name="Light bulb" transform="translate(152.753 52.527)">
        <g id="freepik--light--inject-77" transform="translate(14.804 14.61)">
          <path id="Path_387" data-name="Path 387" d="M211,149.245a3.617,3.617,0,1,1-3.678-3.555A3.617,3.617,0,0,1,211,149.245Z" transform="translate(-189.6 -101.841)" fill="#37474f"/>
          <path id="Path_388" data-name="Path 388" d="M203.044,149.687c-2.418-1.352-2.459-3.6-.082-5.02a9.579,9.579,0,0,1,8.688-.133c2.418,1.352,2.459,3.6.082,5.01A9.579,9.579,0,0,1,203.044,149.687Z" transform="translate(-189.663 -101.893)" fill="#455a64"/>
          <path id="Path_389" data-name="Path 389" d="M202.926,148.421c-2.5-1.393-2.541-3.709-.092-5.174a9.907,9.907,0,0,1,8.965-.143c2.49,1.393,2.531,3.7.072,5.123A9.835,9.835,0,0,1,202.926,148.421Z" transform="translate(-189.667 -101.929)" fill="#37474f"/>
          <path id="Path_390" data-name="Path 390" d="M202.777,147.154c-2.561-1.434-2.6-3.811-.061-5.266a10.245,10.245,0,0,1,9.221-.143c2.572,1.434,2.623,3.821.092,5.327A10.245,10.245,0,0,1,202.777,147.154Z" transform="translate(-189.672 -101.963)" fill="#455a64"/>
          <path id="Path_391" data-name="Path 391" d="M202.608,145.75c-2.643-1.465-2.674-3.924-.082-5.481a10.5,10.5,0,0,1,9.508-.154c2.653,1.475,2.694,3.934.082,5.491a10.5,10.5,0,0,1-9.508.143Z" transform="translate(-189.677 -102.003)" fill="#37474f"/>
          <path id="Path_392" data-name="Path 392" d="M202.47,144.354c-2.736-1.568-2.756-4.016-.092-5.614a10.717,10.717,0,0,1,9.712-.143c2.7,1.5,2.746,4.006.082,5.6A10.727,10.727,0,0,1,202.47,144.354Z" transform="translate(-189.682 -102.041)" fill="#455a64"/>
          <path id="Path_393" data-name="Path 393" d="M206.927,102.89a17.222,17.222,0,0,0-16.987,17.417v.113c.215,13.7,11.526,15.8,11.639,21.3a2.981,2.981,0,0,0,1.783,2.408,9.323,9.323,0,0,0,8.411-.123,2.961,2.961,0,0,0,1.68-2.449h0c-.092-5.512,11.167-7.971,10.952-21.669A17.212,17.212,0,0,0,206.988,102.9Z" transform="translate(-189.939 -102.89)" fill="#ba68c8"/>
          <g id="Group_23" data-name="Group 23" opacity="0.6">
            <path id="Path_394" data-name="Path 394" d="M206.927,102.89a17.222,17.222,0,0,0-16.987,17.417v.113c.215,13.7,11.526,15.8,11.639,21.3a2.981,2.981,0,0,0,1.783,2.408,9.323,9.323,0,0,0,8.411-.123,2.961,2.961,0,0,0,1.68-2.449h0c-.092-5.512,11.167-7.971,10.952-21.669A17.212,17.212,0,0,0,206.988,102.9Z" transform="translate(-189.939 -102.89)" fill="#fff"/>
          </g>
          <path id="Path_395" data-name="Path 395" d="M204.1,142.536c-1.721-1.025-1.8-2.613-.113-3.637a7.028,7.028,0,0,1,6.332-.092c1.721,1.025,1.793,2.613.061,3.658a6.987,6.987,0,0,1-6.28.072Z" transform="translate(-189.624 -102.027)" fill="#ba68c8"/>
          <path id="Path_396" data-name="Path 396" d="M209.632,140.648a.594.594,0,0,1-.594-.553,42.617,42.617,0,0,1,1.024-9.866,19.673,19.673,0,0,1,.82-2.746,8.258,8.258,0,0,1-1.516-.727,10.1,10.1,0,0,1-2.336-1.936,10.583,10.583,0,0,1-2.254,1.967,8.862,8.862,0,0,1-1.5.748,21.265,21.265,0,0,1,.912,2.725,40.982,40.982,0,0,1,1.363,9.846.594.594,0,0,1-.594.574.584.584,0,0,1-.574-.584,41.576,41.576,0,0,0-1.332-9.538,19.083,19.083,0,0,0-.912-2.7,3.688,3.688,0,0,1-3.278-.912,1.885,1.885,0,0,1-.3-2.418,1.568,1.568,0,0,1,1.588-.686,4.426,4.426,0,0,1,2.633,2.633,6.6,6.6,0,0,0,1.342-.676,8.8,8.8,0,0,0,2.172-1.916,4.231,4.231,0,0,1-.912-3.268,1.547,1.547,0,0,1,1.557-1.188,1.526,1.526,0,0,1,1.578,1.137,4.231,4.231,0,0,1-.8,3.3,9.384,9.384,0,0,0,2.213,1.854,6.609,6.609,0,0,0,1.373.615,4.5,4.5,0,0,1,2.551-2.7,1.547,1.547,0,0,1,1.6.686,1.854,1.854,0,0,1-.215,2.408A3.7,3.7,0,0,1,212,127.739a19.608,19.608,0,0,0-.84,2.735,41.748,41.748,0,0,0-1.025,9.579.584.584,0,0,1-.563.6ZM199.91,125a.359.359,0,0,0-.318.225c-.287.389.051.809.164.922a2.336,2.336,0,0,0,1.875.584A3.3,3.3,0,0,0,200,124.993Zm12.673,1.609a2.4,2.4,0,0,0,1.875-.666c.092-.113.43-.533.143-.932a.389.389,0,0,0-.42-.195C213.781,124.891,213.187,125.444,212.583,126.612Zm-5.553-5.963a.379.379,0,0,0-.451.318h0a2.838,2.838,0,0,0,.492,1.916,2.9,2.9,0,0,0,.41-1.926.4.4,0,0,0-.451-.328h0Z" transform="translate(-189.735 -102.485)" fill="#fff"/>
        </g>
        <path id="Path_397" data-name="Path 397" d="M206.568,96.7a.728.728,0,0,1-.3,0,1.137,1.137,0,0,1-1.158-1.106L205,89.777a1.117,1.117,0,0,1,1.086-1.147h0a1.127,1.127,0,0,1,1.147,1.107l.133,5.87a1.147,1.147,0,0,1-.8,1.1Z" transform="translate(-174.766 -88.63)" fill="#e0e0e0"/>
        <path id="Path_398" data-name="Path 398" d="M194.477,100.23a1.117,1.117,0,0,1-1.281-.482l-3.074-5.02a1.137,1.137,0,0,1,1.926-1.178l3.074,5.01a1.137,1.137,0,0,1-.379,1.557A.872.872,0,0,1,194.477,100.23Z" transform="translate(-175.133 -88.52)" fill="#e0e0e0"/>
        <path id="Path_399" data-name="Path 399" d="M185.778,109.34a1.086,1.086,0,0,1-.871-.092l-5.123-2.828a1.127,1.127,0,0,1-.461-1.527,1.147,1.147,0,0,1,1.537-.451l5.123,2.817a1.127,1.127,0,0,1,.441,1.527,1.1,1.1,0,0,1-.645.553Z" transform="translate(-175.398 -88.245)" fill="#e0e0e0"/>
        <path id="Path_400" data-name="Path 400" d="M182.785,121.571a.83.83,0,0,1-.277.113l-5.87.123a1.107,1.107,0,0,1-1.147-1.025h0a1.117,1.117,0,0,1,1.025-1.158h0l5.881-.195a1.111,1.111,0,0,1,.338,2.172Z" transform="translate(-175.489 -87.875)" fill="#e0e0e0"/>
        <path id="Path_401" data-name="Path 401" d="M237.447,120.363a.809.809,0,0,1-.277.1l-5.891.072a1.127,1.127,0,1,1,0-2.244l5.87-.143a1.137,1.137,0,0,1,.338,2.213Z" transform="translate(-174.152 -87.906)" fill="#e0e0e0"/>
        <path id="Path_402" data-name="Path 402" d="M228.035,108.407a1.127,1.127,0,0,1-.9-2.049l5.03-3.074a1.1,1.1,0,0,1,1.516.359h0a1.117,1.117,0,0,1-.359,1.547h0l-5.02,3.074A1.26,1.26,0,0,1,228.035,108.407Z" transform="translate(-174.237 -88.275)" fill="#e0e0e0"/>
        <path id="Path_403" data-name="Path 403" d="M218.875,99.692a1.127,1.127,0,0,1-1.311-1.619l2.848-5.123a1.127,1.127,0,0,1,1.977,1.025L219.561,99.1A1.127,1.127,0,0,1,218.875,99.692Z" transform="translate(-174.461 -88.535)" fill="#e0e0e0"/>
      </g>
      <g id="Window" transform="translate(284.983 119.625)">
        <path id="Path_404" data-name="Path 404" d="M288.962,220.771l-.021-8.176-5.5-3.166.031,7.991h0v.174l5.491,3.176Z" transform="translate(-283.44 -117.384)" fill="#e0e0e0"/>
        <path id="Path_405" data-name="Path 405" d="M313.578,377.087l-.266-119.151-5.5-3.166.266,118.957a1.793,1.793,0,0,0,.717,1.6h0l5.43,3.309A1.783,1.783,0,0,1,313.578,377.087Z" transform="translate(-307.779 -154.548)" fill="#ba68c8"/>
        <path id="Path_406" data-name="Path 406" d="M313.578,377.087l-.266-119.151-5.5-3.166.266,118.957a1.793,1.793,0,0,0,.717,1.6h0l5.43,3.309A1.783,1.783,0,0,1,313.578,377.087Z" transform="translate(-307.779 -154.548)" fill="#fff" opacity="0.2"/>
        <path id="Path_407" data-name="Path 407" d="M315.922,375.57a3.488,3.488,0,0,1-.492.225,2.622,2.622,0,0,0,.492-.225Z" transform="translate(-307.592 -151.586)" fill="#455a64"/>
        <path id="Path_408" data-name="Path 408" d="M315.1,375.87h0Z" transform="translate(-307.603 -151.579)" fill="#455a64"/>
        <path id="Path_409" data-name="Path 409" d="M314.24,375.78Z" transform="translate(-307.622 -151.581)" fill="#455a64"/>
        <path id="Path_410" data-name="Path 410" d="M313.3,252.148v-4.713a5.553,5.553,0,0,1,2.51-4.375l142.8-82.422a1.813,1.813,0,0,1,1.762-.184l-5.44-3.319h0a1.742,1.742,0,0,0-1.824.154l-142.8,82.422a5.532,5.532,0,0,0-2.52,4.364v4.713h0v.195l5.491,3.166Z" transform="translate(-307.78 -156.946)" fill="#ba68c8"/>
        <path id="Path_411" data-name="Path 411" d="M313.3,252.148v-4.713a5.553,5.553,0,0,1,2.51-4.375l142.8-82.422a1.813,1.813,0,0,1,1.762-.184l-5.44-3.319h0a1.742,1.742,0,0,0-1.824.154l-142.8,82.422a5.532,5.532,0,0,0-2.52,4.364v4.713h0v.195l5.491,3.166Z" transform="translate(-307.78 -156.946)" fill="#fff" opacity="0.3"/>
        <path id="Path_412" data-name="Path 412" d="M288.962,220.771l-.021-8.176-5.5-3.166.031,7.991h0v.174l5.491,3.176Z" transform="translate(-283.44 -117.384)" opacity="0.2"/>
        <path id="Path_413" data-name="Path 413" d="M458.477,160.558c1.393-.8,2.531-.154,2.531,1.455v4.713L313.2,252.068v-4.713a5.553,5.553,0,0,1,2.51-4.375Z" transform="translate(-307.647 -156.866)" fill="#ba68c8"/>
        <path id="Path_414" data-name="Path 414" d="M445.652,168.164c.738-.43,1.352-.082,1.352.779a3.012,3.012,0,0,1-1.352,2.336c-.738.43-1.352.082-1.352-.779A2.981,2.981,0,0,1,445.652,168.164Z" transform="translate(-304.433 -156.676)" fill="#fff"/>
        <path id="Path_415" data-name="Path 415" d="M449.672,165.844c.748-.43,1.352-.082,1.363.768a2.981,2.981,0,0,1-1.352,2.336c-.748.43-1.352.082-1.352-.768a2.94,2.94,0,0,1,1.342-2.336Z" transform="translate(-304.334 -156.733)" fill="#fff"/>
        <path id="Path_416" data-name="Path 416" d="M453.692,163.524c.748-.43,1.352-.092,1.363.768a2.982,2.982,0,0,1-1.352,2.336c-.748.43-1.352.082-1.352-.768a2.94,2.94,0,0,1,1.342-2.336Z" transform="translate(-304.236 -156.79)" fill="#fff"/>
        <path id="Path_417" data-name="Path 417" d="M342.9,230.07a.934.934,0,0,1,1.332.143l1.342,2.049c.266.41.779.471,1.332.154l114.06-65.856v8.2L313.16,260.1v-8.2l4.385-2.531a3.351,3.351,0,0,0,1.332-1.69l1.322-3.606a3.319,3.319,0,0,1,1.332-1.68Z" transform="translate(-307.648 -156.711)" fill="#e0e0e0"/>
        <path id="Path_418" data-name="Path 418" d="M460.987,174.57l.266,119.141a5.574,5.574,0,0,1-2.51,4.364L315.977,380.5c-1.393.8-2.531.154-2.531-1.445L313.18,259.9Z" transform="translate(-307.648 -156.514)" fill="#ba68c8"/>
        <g id="Group_24" data-name="Group 24" transform="translate(5.532 18.056)" opacity="0.4">
          <path id="Path_419" data-name="Path 419" d="M460.987,174.57l.266,119.141a5.574,5.574,0,0,1-2.51,4.364L315.977,380.5c-1.393.8-2.531.154-2.531-1.445L313.18,259.9Z" transform="translate(-313.18 -174.57)" fill="#fff"/>
        </g>
        <path id="Path_420" data-name="Path 420" d="M454.777,171.506c1.025-.574,1.8-.123,1.8,1.025A3.965,3.965,0,0,1,454.8,175.6L329.673,247.833c-1.025.574-1.8.113-1.8-1.025a3.965,3.965,0,0,1,1.793-3.074Z" transform="translate(-307.287 -156.595)" fill="#fff"/>
        <path id="Path_421" data-name="Path 421" d="M315.515,250.591a.174.174,0,0,1,.195,0c.092.061.082.256,0,.42l-.789,1.291,2.049-1.2a.158.158,0,0,1,.256.143.574.574,0,0,1-.246.44l-2.049,1.188.8.379c.1,0,.113.225,0,.4a.522.522,0,0,1-.184.2.185.185,0,0,1-.174,0l-1.27-.6h-.051v-.236h0l.051-.1,1.26-2.049A.513.513,0,0,1,315.515,250.591Z" transform="translate(-307.626 -154.651)" fill="#e0e0e0"/>
        <path id="Path_422" data-name="Path 422" d="M319.9,248.06a.215.215,0,0,1,.174,0l1.27.6.051.061h0v.236h0l-.051.092-1.26,2.049a.564.564,0,0,1-.174.174.174.174,0,0,1-.184,0c-.092-.061-.092-.246,0-.42l.789-1.281-2.049,1.2a.161.161,0,0,1-.256-.154.553.553,0,0,1,.256-.43l2.049-1.2-.789-.379c-.113,0-.113-.225,0-.4a.523.523,0,0,1,.174-.154Z" transform="translate(-307.524 -154.713)" fill="#e0e0e0"/>
        <path id="Path_423" data-name="Path 423" d="M324.034,245.683a1.106,1.106,0,0,1,.861-.164l.195-.256a.5.5,0,0,1,.133-.123.174.174,0,0,1,.133,0c.092,0,.133.1.113.225l-.1.779a.553.553,0,0,1-.113.266.48.48,0,0,1-.133.123h-.062l-.615.174a.154.154,0,0,1-.195-.133.5.5,0,0,1,.123-.348l.051-.082a.911.911,0,0,0-.389.113,2.049,2.049,0,0,0-.9,1.578c0,.574.41.809.912.512a1.967,1.967,0,0,0,.8-1.025.543.543,0,0,1,.215-.277.246.246,0,0,1,.123,0c.123,0,.174.164.1.338a3.074,3.074,0,0,1-1.24,1.557c-.779.451-1.414.092-1.414-.809a3.074,3.074,0,0,1,1.4-2.449Z" transform="translate(-307.416 -154.784)" fill="#e0e0e0"/>
        <g id="Group_25" data-name="Group 25" transform="translate(6.424 95.91)" opacity="0.3">
          <path id="Path_424" data-name="Path 424" d="M315.515,250.591a.174.174,0,0,1,.195,0c.092.061.082.256,0,.42l-.789,1.291,2.049-1.2a.158.158,0,0,1,.256.143.574.574,0,0,1-.246.44l-2.049,1.188.8.379c.1,0,.113.225,0,.4a.522.522,0,0,1-.184.2.185.185,0,0,1-.174,0l-1.27-.6h-.051v-.236h0l.051-.1,1.26-2.049A.513.513,0,0,1,315.515,250.591Z" transform="translate(-314.05 -250.561)"/>
        </g>
        <g id="Group_26" data-name="Group 26" transform="translate(10.686 93.329)" opacity="0.3">
          <path id="Path_425" data-name="Path 425" d="M319.9,248.06a.215.215,0,0,1,.174,0l1.27.6.051.061h0v.236h0l-.051.092-1.26,2.049a.564.564,0,0,1-.174.174.174.174,0,0,1-.184,0c-.092-.061-.092-.246,0-.42l.789-1.281-2.049,1.2a.161.161,0,0,1-.256-.154.553.553,0,0,1,.256-.43l2.049-1.2-.789-.379c-.113,0-.113-.225,0-.4a.523.523,0,0,1,.174-.154Z" transform="translate(-318.21 -248.042)"/>
        </g>
        <g id="Group_27" data-name="Group 27" transform="translate(15.214 90.343)" opacity="0.3">
          <path id="Path_426" data-name="Path 426" d="M324.034,245.683a1.106,1.106,0,0,1,.861-.164l.195-.256a.5.5,0,0,1,.133-.123.174.174,0,0,1,.133,0c.092,0,.133.1.113.225l-.1.779a.553.553,0,0,1-.113.266.48.48,0,0,1-.133.123h-.062l-.615.174a.154.154,0,0,1-.195-.133.5.5,0,0,1,.123-.348l.051-.082a.911.911,0,0,0-.389.113,2.049,2.049,0,0,0-.9,1.578c0,.574.41.809.912.512a1.967,1.967,0,0,0,.8-1.025.543.543,0,0,1,.215-.277.246.246,0,0,1,.123,0c.123,0,.174.164.1.338a3.074,3.074,0,0,1-1.24,1.557c-.779.451-1.414.092-1.414-.809a3.074,3.074,0,0,1,1.4-2.449Z" transform="translate(-322.63 -245.127)"/>
        </g>
        <path id="Path_427" data-name="Path 427" d="M375.146,201.53l.236,80.753L297.405,327.3l-.225-80.752Z" transform="translate(-283.103 -117.577)" fill="#fff"/>
        <path id="Path_428" data-name="Path 428" d="M363.651,224.42l-35.11,55.857.051,13.831,6.752-13.421-6.752,13.421-5.082-14.138Z" transform="translate(-282.458 -117.016)" fill="#ba68c8"/>
        <path id="Path_429" data-name="Path 429" d="M363.651,224.42l-35.11,55.857.051,13.831,6.752-13.421-6.752,13.421-5.082-14.138Z" transform="translate(-282.458 -117.016)" opacity="0.3"/>
        <path id="Path_430" data-name="Path 430" d="M328.42,278.94l6.8.41-6.752,13.421Z" transform="translate(-282.337 -115.679)" fill="#ba68c8"/>
        <path id="Path_431" data-name="Path 431" d="M328.42,278.94l6.8.41-6.752,13.421Z" transform="translate(-282.337 -115.679)" opacity="0.5"/>
        <path id="Path_432" data-name="Path 432" d="M364.052,224.42l-40.141,55.549-16.782-1.014Z" transform="translate(-282.859 -117.016)" fill="#ba68c8"/>
        <path id="Path_433" data-name="Path 433" d="M328.42,280.277l35.11-55.857-7.336,57.527-20.972-1.26Z" transform="translate(-282.337 -117.016)" fill="#ba68c8"/>
        <path id="Path_434" data-name="Path 434" d="M307.13,278.955l16.782,1.014,5.082,14.138,6.752-13.421h0l20.972,1.26,7.336-57.527Z" transform="translate(-282.859 -117.016)" fill="#fff" opacity="0.3"/>
        <path id="Path_435" data-name="Path 435" d="M453.613,181.788c1.424-.82,2.582-.164,2.582,1.475a5.655,5.655,0,0,1-2.572,4.446L341.582,252.449c-1.424.82-2.582.164-2.592-1.475a5.676,5.676,0,0,1,2.572-4.416Z" transform="translate(-307.015 -156.346)" fill="#ba68c8"/>
        <g id="Group_28" data-name="Group 28" transform="translate(31.975 25.09)" opacity="0.7">
          <path id="Path_436" data-name="Path 436" d="M453.613,181.788c1.424-.82,2.582-.164,2.582,1.475a5.655,5.655,0,0,1-2.572,4.446L341.582,252.449c-1.424.82-2.582.164-2.592-1.475a5.676,5.676,0,0,1,2.572-4.416Z" transform="translate(-338.99 -181.436)" fill="#fff"/>
        </g>
        <path id="Path_437" data-name="Path 437" d="M333.89,249.388c1.424-.82,2.582-.164,2.582,1.475a5.655,5.655,0,0,1-2.561,4.446l-9.979,5.891c-1.424.83-2.582.164-2.582-1.465a5.635,5.635,0,0,1,2.572-4.446Z" transform="translate(-307.447 -154.689)" fill="#ba68c8"/>
        <path id="Path_438" data-name="Path 438" d="M343.106,255.108c1.424-.82,2.582-.164,2.582,1.475a5.635,5.635,0,0,1-2.572,4.446L323.7,272.361c-1.424.83-2.582.174-2.592-1.465a5.656,5.656,0,0,1,2.572-4.446Z" transform="translate(-307.453 -154.548)" fill="#ba68c8"/>
        <path id="Path_439" data-name="Path 439" d="M370.356,239.248c1.424-.82,2.582-.164,2.582,1.475a5.635,5.635,0,0,1-2.572,4.446L350.952,256.5c-1.424.83-2.582.174-2.592-1.465a5.656,5.656,0,0,1,2.572-4.446Z" transform="translate(-306.785 -154.937)" fill="#ba68c8"/>
        <path id="Path_440" data-name="Path 440" d="M397.606,223.388c1.424-.82,2.582-.164,2.582,1.475a5.645,5.645,0,0,1-2.572,4.446L378.2,240.641c-1.424.83-2.582.174-2.592-1.465a5.655,5.655,0,0,1,2.571-4.446Z" transform="translate(-306.117 -155.326)" fill="#ba68c8"/>
        <path id="Path_441" data-name="Path 441" d="M424.856,207.528c1.424-.82,2.582-.164,2.582,1.475a5.645,5.645,0,0,1-2.572,4.446l-19.415,11.331c-1.424.83-2.582.164-2.592-1.465a5.655,5.655,0,0,1,2.572-4.446Z" transform="translate(-305.449 -155.715)" fill="#ba68c8"/>
        <path id="Path_442" data-name="Path 442" d="M452.106,191.668c1.424-.82,2.582-.164,2.582,1.475a5.645,5.645,0,0,1-2.572,4.446L432.7,208.921c-1.424.83-2.582.164-2.592-1.465a5.655,5.655,0,0,1,2.571-4.446Z" transform="translate(-304.781 -156.104)" fill="#ba68c8"/>
        <g id="Group_29" data-name="Group 29" transform="translate(13.657 35.212)" opacity="0.2">
          <path id="Path_443" data-name="Path 443" d="M343.106,255.108c1.424-.82,2.582-.164,2.582,1.475a5.635,5.635,0,0,1-2.572,4.446L323.7,272.361c-1.424.83-2.582.174-2.592-1.465a5.656,5.656,0,0,1,2.572-4.446Z" transform="translate(-321.11 -189.76)" fill="#fff"/>
          <path id="Path_444" data-name="Path 444" d="M370.356,239.248c1.424-.82,2.582-.164,2.582,1.475a5.635,5.635,0,0,1-2.572,4.446L350.952,256.5c-1.424.83-2.582.174-2.592-1.465a5.656,5.656,0,0,1,2.572-4.446Z" transform="translate(-320.442 -190.149)" fill="#fff"/>
          <path id="Path_445" data-name="Path 445" d="M397.606,223.388c1.424-.82,2.582-.164,2.582,1.475a5.645,5.645,0,0,1-2.572,4.446L378.2,240.641c-1.424.83-2.582.174-2.592-1.465a5.655,5.655,0,0,1,2.571-4.446Z" transform="translate(-319.774 -190.538)" fill="#fff"/>
          <path id="Path_446" data-name="Path 446" d="M424.856,207.528c1.424-.82,2.582-.164,2.582,1.475a5.645,5.645,0,0,1-2.572,4.446l-19.415,11.331c-1.424.83-2.582.164-2.592-1.465a5.655,5.655,0,0,1,2.572-4.446Z" transform="translate(-319.106 -190.927)" fill="#fff"/>
          <path id="Path_447" data-name="Path 447" d="M452.106,191.668c1.424-.82,2.582-.164,2.582,1.475a5.645,5.645,0,0,1-2.572,4.446L432.7,208.921c-1.424.83-2.582.164-2.592-1.465a5.655,5.655,0,0,1,2.571-4.446Z" transform="translate(-318.438 -191.316)" fill="#fff"/>
        </g>
        <path id="Path_448" data-name="Path 448" d="M409.475,182.32l.01,5.02L381.71,203.415l-.01-5.01Z" transform="translate(-281.031 -118.048)" fill="#ba68c8"/>
        <g id="Group_30" data-name="Group 30" transform="translate(100.71 80.736)">
          <path id="Path_449" data-name="Path 449" d="M410.405,207.52l.01,3.063-28.635,16.71-.01-3.063Z" transform="translate(-381.739 -198.166)" fill="#ba68c8"/>
          <path id="Path_450" data-name="Path 450" d="M416.4,198.39l.01,3.063L381.76,221.39v-3.063Z" transform="translate(-381.74 -198.39)" fill="#ba68c8"/>
          <path id="Path_451" data-name="Path 451" d="M397.948,202.74l.01,3.063-16.208,9.354-.01-3.053Z" transform="translate(-381.74 -198.283)" fill="#ba68c8"/>
        </g>
        <path id="Path_452" data-name="Path 452" d="M416.369,186.43l.01,3.063L381.73,209.43l-.01-3.053Z" transform="translate(-281.03 -117.948)" fill="#ba68c8"/>
        <g id="Group_32" data-name="Group 32" transform="translate(100.669 64.272)" opacity="0.1">
          <path id="Path_453" data-name="Path 453" d="M409.475,182.32l.01,5.02L381.71,203.415l-.01-5.01Z" transform="translate(-381.7 -182.32)" fill="#fff"/>
          <g id="Group_31" data-name="Group 31" transform="translate(0.041 16.464)">
            <path id="Path_454" data-name="Path 454" d="M410.405,207.52l.01,3.063-28.635,16.71-.01-3.063Z" transform="translate(-381.739 -198.166)" fill="#fff"/>
            <path id="Path_455" data-name="Path 455" d="M416.4,198.39l.01,3.063L381.76,221.39v-3.063Z" transform="translate(-381.74 -198.39)" fill="#fff"/>
            <path id="Path_456" data-name="Path 456" d="M397.948,202.74l.01,3.063-16.208,9.354-.01-3.053Z" transform="translate(-381.74 -198.283)" fill="#fff"/>
          </g>
          <path id="Path_457" data-name="Path 457" d="M416.369,186.43l.01,3.063L381.73,209.43l-.01-3.053Z" transform="translate(-381.699 -182.219)" fill="#fff"/>
        </g>
        <path id="Path_458" data-name="Path 458" d="M414.911,242.69l.01,3.186L382.71,264.584l-.01-3.186Z" transform="translate(-281.006 -116.568)" fill="#ba68c8"/>
        <path id="Path_459" data-name="Path 459" d="M429.428,228.81v3.166L382.7,259.156l-.01-3.166Z" transform="translate(-281.007 -116.908)" fill="#ba68c8"/>
        <g id="Group_33" data-name="Group 33" transform="translate(101.683 111.902)" opacity="0.1">
          <path id="Path_460" data-name="Path 460" d="M414.911,242.69l.01,3.186L382.71,264.584l-.01-3.186Z" transform="translate(-382.69 -228.47)" fill="#fff"/>
          <path id="Path_461" data-name="Path 461" d="M429.428,228.81v3.166L382.7,259.156l-.01-3.166Z" transform="translate(-382.69 -228.81)" fill="#fff"/>
        </g>
      </g>
      <g id="Icon" transform="translate(51.257 40.335)">
        <path id="Path_462" data-name="Path 462" d="M146.086,79.414h0a4.887,4.887,0,0,0-4.1-2.684,1.66,1.66,0,0,0-.533.113l-65.3,37.774a3.555,3.555,0,0,0-1.783,3.074v54.054a3.381,3.381,0,0,0,4.528,3.022h.143L144.4,136.951a3.5,3.5,0,0,0,1.772-3.074V79.793a.768.768,0,0,0-.082-.379Z" transform="translate(-74.37 -76.73)" fill="#ba68c8"/>
        <path id="Path_463" data-name="Path 463" d="M74.37,116.717V170.77a3.381,3.381,0,0,0,4.528,3.022h0a.871.871,0,0,1-1.168-.82V118.909a3.5,3.5,0,0,1,.594-1.936l-3.6-1.793A3.432,3.432,0,0,0,74.37,116.717Z" transform="translate(-74.37 -75.787)" fill="#fff" opacity="0.2"/>
        <path id="Path_464" data-name="Path 464" d="M142.031,76.73a1.66,1.66,0,0,0-.533.113L76.144,114.617a3.463,3.463,0,0,0-1.414,1.506l3.6,1.793a3.483,3.483,0,0,1,1.178-1.106l65.354-37.753a.871.871,0,0,1,1.219.379h0A4.887,4.887,0,0,0,142.031,76.73Z" transform="translate(-74.361 -76.73)" fill="#fff" opacity="0.4"/>
        <path id="Path_465" data-name="Path 465" d="M146.086,79.414h0a4.887,4.887,0,0,0-4.1-2.684,1.66,1.66,0,0,0-.533.113l-65.3,37.774a3.555,3.555,0,0,0-1.783,3.074v54.054a3.381,3.381,0,0,0,4.528,3.022h.143L144.4,136.951a3.5,3.5,0,0,0,1.772-3.074V79.793a.768.768,0,0,0-.082-.379Z" transform="translate(-74.37 -76.73)" fill="#fff" opacity="0.3"/>
        <g id="Group_34" data-name="Group 34" transform="translate(28.328 40.97)" opacity="0.6">
          <path id="Path_466" data-name="Path 466" d="M77.68,79.36l22.263,1.916-22.181,27.57Z" transform="translate(-77.68 -79.36)" fill="#fff"/>
        </g>
      </g>
      <g id="Pictures" transform="translate(31.412)">
        <path id="Path_467" data-name="Path 467" d="M105.521,229.223l.5-.277.512-.266v7.756L84.263,249.16,59.08,263.5v-6.526l.133-.133.512-.492a20.612,20.612,0,0,1,3.576-2.664l.143-.082.215-.123a20.542,20.542,0,0,1,2.51-1.168l.707-.256a45.274,45.274,0,0,1,9.087-1.619l.891-.123A22.641,22.641,0,0,0,84.283,248l.563-.318.471-.277c4.262-2.633,8.2-7.274,12.141-11.382l.6-.625.3-.3.543-.543.277-.266a34.832,34.832,0,0,1,6.147-4.918Z" transform="translate(-54.9 -32.669)" fill="#ba68c8"/>
        <path id="Path_468" data-name="Path 468" d="M105.521,229.223l.5-.277.512-.266v7.756L84.263,249.16,59.08,263.5v-6.526l.133-.133.512-.492a20.612,20.612,0,0,1,3.576-2.664l.143-.082.215-.123a20.542,20.542,0,0,1,2.51-1.168l.707-.256a45.274,45.274,0,0,1,9.087-1.619l.891-.123A22.641,22.641,0,0,0,84.283,248l.563-.318.471-.277c4.262-2.633,8.2-7.274,12.141-11.382l.6-.625.3-.3.543-.543.277-.266a34.832,34.832,0,0,1,6.147-4.918Z" transform="translate(-54.9 -32.669)" opacity="0.4"/>
        <path id="Path_469" data-name="Path 469" d="M78.7,227.176c2.756-1.588,5-.307,5.01,2.869a10.962,10.962,0,0,1-4.979,8.616c-2.766,1.6-5,.318-5.01-2.848a10.973,10.973,0,0,1,4.979-8.637Z" transform="translate(-54.541 -32.723)" fill="#fff"/>
        <path id="Path_470" data-name="Path 470" d="M83.838,247.54a22.641,22.641,0,0,1-7.428,2.315,22.642,22.642,0,0,0,7.428-2.315Z" transform="translate(-54.475 -32.207)" fill="#5d3464"/>
        <path id="Path_471" data-name="Path 471" d="M63.866,243.96A6.145,6.145,0,0,1,65,243.448a6.4,6.4,0,0,1,3.289,0l6.4,1.076a5.2,5.2,0,0,0,3.422-.8,11.73,11.73,0,0,0,3.289-2.971,14.856,14.856,0,0,1,3.7-3.76l.143-.082a4.241,4.241,0,0,1,3.074-.338,5,5,0,0,0,3.442-.768,11.834,11.834,0,0,0,3.545-3.33c1.219-1.66,2.449-3.33,3.576-4.948a17.273,17.273,0,0,1,2.981-3.576,6.456,6.456,0,0,1,.779-.522,6.68,6.68,0,0,1,3.873-.748v6.147l-.512.266-.471.256-.287.174a34.834,34.834,0,0,0-6.147,4.918l-.277.266-.543.543-.3.3-.6.625c-3.955,4.1-7.879,8.749-12.141,11.382l-.471.277-.563.318a22.641,22.641,0,0,1-7.428,2.315l-.891.123a45.276,45.276,0,0,0-9.087,1.619l-.707.256a20.551,20.551,0,0,0-2.51,1.188l-.215.123-.143.082a20.611,20.611,0,0,0-3.576,2.664l-.512.492-.133.133v-8.309c.43-.615.871-1.2,1.332-1.752a14.251,14.251,0,0,1,3.535-3.125Z" transform="translate(-54.902 -32.817)" fill="#ba68c8"/>
        <g id="Group_35" data-name="Group 35" transform="translate(4.098 189.824)" opacity="0.2">
          <path id="Path_472" data-name="Path 472" d="M63.866,243.96A6.145,6.145,0,0,1,65,243.448a6.4,6.4,0,0,1,3.289,0l6.4,1.076a5.2,5.2,0,0,0,3.422-.8,11.73,11.73,0,0,0,3.289-2.971,14.856,14.856,0,0,1,3.7-3.76l.143-.082a4.241,4.241,0,0,1,3.074-.338,5,5,0,0,0,3.442-.768,11.834,11.834,0,0,0,3.545-3.33c1.219-1.66,2.449-3.33,3.576-4.948a17.273,17.273,0,0,1,2.981-3.576,6.456,6.456,0,0,1,.779-.522,6.68,6.68,0,0,1,3.873-.748v6.147l-.512.266-.471.256-.287.174a34.834,34.834,0,0,0-6.147,4.918l-.277.266-.543.543-.3.3-.6.625c-3.955,4.1-7.879,8.749-12.141,11.382l-.471.277-.563.318a22.641,22.641,0,0,1-7.428,2.315l-.891.123a45.276,45.276,0,0,0-9.087,1.619l-.707.256a20.551,20.551,0,0,0-2.51,1.188l-.215.123-.143.082a20.611,20.611,0,0,0-3.576,2.664l-.512.492-.133.133v-8.309c.43-.615.871-1.2,1.332-1.752a14.251,14.251,0,0,1,3.535-3.125Z" transform="translate(-59 -222.641)"/>
        </g>
        <path id="Path_473" data-name="Path 473" d="M55,233.149,110.631,201l.123,44.392L55.143,277.542Zm51.595-9.938V208.079L59.1,235.485l.1,35.039,47.476-27.416v-19.9" transform="translate(-55 -33.348)" fill="#ba68c8"/>
        <g id="Group_36" data-name="Group 36" transform="translate(0 167.652)" opacity="0.6">
          <path id="Path_474" data-name="Path 474" d="M55,233.149,110.631,201l.123,44.392L55.143,277.542Zm51.595-9.938V208.079L59.1,235.485l.1,35.039,47.476-27.416v-19.9" transform="translate(-55 -201)" fill="#fff"/>
        </g>
        <path id="Path_475" data-name="Path 475" d="M59.08,263.338l25.183-14.343,22.294-12.725v5.993L59.1,269.659Z" transform="translate(-54.9 -32.483)" fill="#455a64"/>
        <path id="Path_476" data-name="Path 476" d="M59,235.316l47.476-27.406v15.132a6.68,6.68,0,0,0-3.873.748,6.463,6.463,0,0,0-.779.522,17.272,17.272,0,0,0-2.981,3.576c-1.127,1.619-2.356,3.289-3.576,4.948a11.833,11.833,0,0,1-3.483,3.33,5,5,0,0,1-3.442.768,4.242,4.242,0,0,0-3.074.338l-.143.082a14.856,14.856,0,0,0-3.7,3.76,11.731,11.731,0,0,1-3.289,2.971,5.2,5.2,0,0,1-3.422.8l-6.4-1.106a6.4,6.4,0,0,0-3.289,0,6.147,6.147,0,0,0-1.137.512,14.251,14.251,0,0,0-3.494,3.125c-.461.553-.9,1.137-1.332,1.752Zm20.091,3.8a10.962,10.962,0,0,0,4.979-8.575c0-3.176-2.254-4.457-5.01-2.869a10.973,10.973,0,0,0-4.979,8.637c0,3.166,2.244,4.446,5.01,2.848" transform="translate(-54.902 -33.179)" fill="#ba68c8"/>
        <path id="Path_477" data-name="Path 477" d="M66.06,251.75a20.545,20.545,0,0,0-2.51,1.188,20.548,20.548,0,0,1,2.51-1.188Z" transform="translate(-54.79 -32.104)" fill="#5d3464"/>
        <path id="Path_478" data-name="Path 478" d="M330.22,150.852,391.9,115.24l.174,63.366-61.676,35.612Zm56.021,24.435-.143-50.048L336.05,154.131l.143,50.007,50.048-28.891" transform="translate(-53.658 -35.451)" fill="#ba68c8"/>
        <path id="Path_479" data-name="Path 479" d="M330.22,150.852,391.9,115.24l.174,63.366-61.676,35.612Zm56.021,24.435-.143-50.048L336.05,154.131l.143,50.007,50.048-28.891" transform="translate(-53.658 -35.451)" fill="#fff" opacity="0.6"/>
        <path id="Path_480" data-name="Path 480" d="M336.762,106.96l14.517,1.24-15.122,18.861-14.507-1.24Z" transform="translate(-28.932 2.622)" fill="#fafafa"/>
        <path id="Path_481" data-name="Path 481" d="M350.932,108.17v19.158L335.82,146.19l-.01-19.158Z" transform="translate(-28.585 2.652)" fill="#ebebeb"/>
        <path id="Path_482" data-name="Path 482" d="M321.65,125.37l14.507,1.24.01,19.158-14.517-1.24Z" transform="translate(-32.81 3.074)" fill="#e0e0e0"/>
        <path id="Path_483" data-name="Path 483" d="M335.91,153.9,385.958,125l.143,50.007-50.048,28.881Zm39.956,11.27V146.013l-14.507-1.25-15.112,18.892v19.158l14.507,1.25L375.876,165.2" transform="translate(-53.519 -35.211)" fill="#ba68c8"/>
        <g id="Group_37" data-name="Group 37" transform="translate(282.391 89.789)" opacity="0.2">
          <path id="Path_484" data-name="Path 484" d="M335.91,153.9,385.958,125l.143,50.007-50.048,28.881Zm39.956,11.27V146.013l-14.507-1.25-15.112,18.892v19.158l14.507,1.25L375.876,165.2" transform="translate(-335.91 -125)" fill="#fff"/>
        </g>
        <path id="Path_485" data-name="Path 485" d="M386,91.392,414.328,75l.123,42.753-28.328,16.392Zm18.257,18.441v-.164a12.1,12.1,0,0,1,1.7-4.723,17.519,17.519,0,0,0,2.746-8.79c0-5.379-3.822-7.561-8.5-4.877s-8.524,9.323-8.5,14.692c0,2.838,1.025,4.774,2.735,5.594a3.381,3.381,0,0,1,1.762,2.715v.184a2.172,2.172,0,0,0,.676,1.383v1.158l.482-.277v.4l-.482.277v1.158l.482-.277v.4l-.492.277v1.168l.482-.287v1.014c.143,1.106,1.025,1.475,2.049.871l-.1.061v.082c0,.328.3.441.6.256l.44-.246a1.373,1.373,0,0,0,.6-.963v-.092l-.1.051a4.651,4.651,0,0,0,2.049-3.268v-1.045l.482-.277V115.12l-.482.277v-.389l.482-.287v-1.158l-.492.277v-.4l.492-.277V112a6.67,6.67,0,0,0,.676-2.162m.656-21.341c-.061.154,0,.3.082.307h.113a.451.451,0,0,0,.2-.246l1.783-4.6c.062-.154,0-.3-.082-.307a.277.277,0,0,0-.123,0,.44.44,0,0,0-.195.246l-1.783,4.6M393.131,91.5c-.1.133-.143.318-.072.4l2,2.561c0,.061.123.061.2,0l.113-.1a.389.389,0,0,0,.082-.41l-1.8-2.561c0-.061-.113-.061-.195,0a.359.359,0,0,0-.123.1m13.739,19.281a.4.4,0,0,0,.082-.41l-1.8-2.52c0-.061-.113-.072-.195,0a.267.267,0,0,0-.113.1.389.389,0,0,0-.092.41l1.8,2.531a.154.154,0,0,0,.2,0l.113-.1M395.518,113.8c0-.164,0-.307-.092-.307a.133.133,0,0,0-.113,0,.44.44,0,0,0-.195.246l-1.783,4.59c-.061.164,0,.307.082.318h.113a.543.543,0,0,0,.2-.246l1.783-4.6m-3.709-1.916a.389.389,0,0,0,.092-.41.154.154,0,0,0-.2,0,.39.39,0,0,0-.113.113l-3.074,3.842a.379.379,0,0,0-.082.41.143.143,0,0,0,.195,0l.113-.113,3.074-3.842m20.244-9.723c.062-.164,0-.3-.082-.307l-3.074-.266a.184.184,0,0,0-.123,0,.492.492,0,0,0-.195.246c-.061.164,0,.3.082.307l3.074.266h.113a.492.492,0,0,0,.195-.246M408.6,90.368a.389.389,0,0,0-.082.41.143.143,0,0,0,.2,0l.113-.1,3.074-3.842a.389.389,0,0,0,.082-.41.154.154,0,0,0-.2,0,.511.511,0,0,0-.113.1L408.6,90.368M388.367,100.1c-.072.154,0,.3.082.307l3.074.266h.113a.482.482,0,0,0,.195-.246c.072-.164,0-.307-.082-.318l-3.074-.256a.153.153,0,0,0-.113,0,.5.5,0,0,0-.195.256M399.933,85.86v4.1c0,.143.1.2.236.133a.533.533,0,0,0,.225-.4v-4.1c0-.143-.1-.2-.236-.133a.533.533,0,0,0-.225.4m13.729,7.807a.5.5,0,0,0,.225-.4c0-.143-.1-.2-.225-.123l-3.586,2.049a.523.523,0,0,0-.225.4.143.143,0,0,0,.236.133l3.576-2.049m-27.078,15.368c0,.143.1.2.236.133l3.576-2.049a.482.482,0,0,0,.225-.4c0-.143-.1-.195-.225-.123l-3.576,2.049a.523.523,0,0,0-.236.4" transform="translate(-52.291 -36.437)" fill="#ba68c8"/>
        <path id="Path_486" data-name="Path 486" d="M400.779,119.74v.092a1.373,1.373,0,0,1-.6.963l-.44.246c-.307.184-.563.072-.6-.256V120.7l.1-.061,1.475-.85Z" transform="translate(-51.969 -35.34)" fill="#37474f"/>
        <path id="Path_487" data-name="Path 487" d="M402.823,116.3v.307a4.651,4.651,0,0,1-2.049,3.268l-1.475.85c-1.025.6-1.926.236-2.049-.871v-.266Z" transform="translate(-52.015 -35.425)" fill="#455a64"/>
        <path id="Path_488" data-name="Path 488" d="M372.79,80.378v-.4l5.686-3.289v.4Z" transform="translate(-27.678 1.88)" fill="#37474f"/>
        <path id="Path_489" data-name="Path 489" d="M378.969,75.28l.01,1.168-.492.277L372.8,80.013l-.482.277-.01-1.158.492-.287,5.686-3.278Z" transform="translate(-27.69 1.846)" fill="#455a64"/>
        <path id="Path_490" data-name="Path 490" d="M402.712,99.483a.532.532,0,0,1,.861.492v4.231a3.072,3.072,0,0,1-.461,1.527l-.686,1.2a2.427,2.427,0,0,0-.348,1.188v4l-.348.195v-4a3.176,3.176,0,0,1,.451-1.516l.7-1.209a2.429,2.429,0,0,0,.348-1.178v-4.242c0-.318-.236-.451-.523-.287a1.127,1.127,0,0,0-.512.891v3.852a1.916,1.916,0,0,1-.861,1.5c-.471.277-.861.051-.861-.492v-3.862c0-.328-.225-.461-.512-.3a1.127,1.127,0,0,0-.512.891v3.862a1.916,1.916,0,0,1-.861,1.486.532.532,0,0,1-.861-.492v-3.862c0-.328-.236-.461-.523-.3a1.148,1.148,0,0,0-.512.891v4.262a.809.809,0,0,0,.359.768l.7.4a1.1,1.1,0,0,1,.451,1.025v3.955l-.338.195v-4a.861.861,0,0,0-.359-.779l-.7-.389a1.1,1.1,0,0,1-.451-1.025v-4.242a1.885,1.885,0,0,1,.861-1.475.532.532,0,0,1,.861.492v3.852c0,.328.236.471.523.307a1.157,1.157,0,0,0,.512-.9v-3.862a1.885,1.885,0,0,1,.861-1.486.532.532,0,0,1,.861.492V105.4c0,.328.236.461.523.3a1.127,1.127,0,0,0,.512-.891v-3.862A1.916,1.916,0,0,1,402.712,99.483Z" transform="translate(-52.037 -35.84)" fill="#fff"/>
        <path id="Path_491" data-name="Path 491" d="M418.178,68.63,382.32,89.346l.143,51.451,35.858-20.726ZM386.2,134.261l-.113-42.712,28.328-16.392.123,42.753L386.213,134.3" transform="translate(-52.381 -36.593)" fill="#ba68c8"/>
        <g id="Group_38" data-name="Group 38" transform="translate(329.939 32.037)" opacity="0.6">
          <path id="Path_492" data-name="Path 492" d="M418.178,68.63,382.32,89.346l.143,51.451,35.858-20.726ZM386.2,134.261l-.113-42.712,28.328-16.392.123,42.753L386.213,134.3" transform="translate(-382.32 -68.63)" fill="#fff"/>
        </g>
        <path id="Path_493" data-name="Path 493" d="M372.8,82.236V81.5l5.686-3.278v.738Z" transform="translate(-27.678 1.918)" fill="#37474f"/>
        <path id="Path_494" data-name="Path 494" d="M378.979,76.81v1.158l-.482.287-5.686,3.278-.492.277V80.652l.482-.277,5.686-3.289Z" transform="translate(-27.689 1.883)" fill="#455a64"/>
        <path id="Path_495" data-name="Path 495" d="M372.79,78.459l5.686-3.289v.4l-5.686,3.278Z" transform="translate(-27.678 1.843)" fill="#37474f"/>
        <path id="Path_496" data-name="Path 496" d="M400.052,90.938c4.7-2.694,8.5-.512,8.524,4.866a17.519,17.519,0,0,1-2.746,8.79,12.1,12.1,0,0,0-1.7,4.723v.164a6.67,6.67,0,0,1-.676,2.162l-1.209.707v-4a2.428,2.428,0,0,1,.348-1.188l.686-1.2a3.074,3.074,0,0,0,.461-1.527V100.21c0-.543-.389-.768-.861-.492a1.916,1.916,0,0,0-.861,1.486v3.862a1.127,1.127,0,0,1-.512.891.324.324,0,0,1-.523-.3V101.8c0-.543-.389-.768-.861-.492a1.885,1.885,0,0,0-.861,1.486v3.862a1.158,1.158,0,0,1-.512.9.325.325,0,0,1-.523-.307V103.4c0-.543-.389-.768-.861-.492a1.885,1.885,0,0,0-.861,1.475v4.242a1.1,1.1,0,0,0,.451,1.025l.7.389a.861.861,0,0,1,.359.779v4l-1.219.707a2.172,2.172,0,0,1-.676-1.383v-.184a3.381,3.381,0,0,0-1.762-2.715c-1.67-.82-2.725-2.756-2.735-5.594C391.548,100.251,395.38,93.642,400.052,90.938Z" transform="translate(-52.153 -36.075)" fill="#ba68c8"/>
        <path id="Path_497" data-name="Path 497" d="M402.192,106.788a3.176,3.176,0,0,0-.451,1.516v4l-3.545,2.049v-4a1.1,1.1,0,0,0-.451-1.025l-.7-.4a.81.81,0,0,1-.359-.768v-4.242a1.147,1.147,0,0,1,.512-.891.324.324,0,0,1,.523.3v3.852c0,.543.389.768.861.492a1.916,1.916,0,0,0,.861-1.486v-3.862a1.127,1.127,0,0,1,.512-.891.317.317,0,0,1,.512.3v3.862c0,.543.389.768.861.492a1.916,1.916,0,0,0,.861-1.5v-3.852a1.127,1.127,0,0,1,.512-.891.322.322,0,0,1,.523.287v4.242a2.429,2.429,0,0,1-.348,1.178Z" transform="translate(-52.029 -35.83)" fill="#ba68c8"/>
        <g id="Group_39" data-name="Group 39" transform="translate(339.466 53.708)" opacity="0.4">
          <path id="Path_498" data-name="Path 498" d="M400.052,90.938c4.7-2.694,8.5-.512,8.524,4.866a17.519,17.519,0,0,1-2.746,8.79,12.1,12.1,0,0,0-1.7,4.723v.164a6.67,6.67,0,0,1-.676,2.162l-1.209.707v-4a2.428,2.428,0,0,1,.348-1.188l.686-1.2a3.074,3.074,0,0,0,.461-1.527V100.21c0-.543-.389-.768-.861-.492a1.916,1.916,0,0,0-.861,1.486v3.862a1.127,1.127,0,0,1-.512.891.324.324,0,0,1-.523-.3V101.8c0-.543-.389-.768-.861-.492a1.885,1.885,0,0,0-.861,1.486v3.862a1.158,1.158,0,0,1-.512.9.325.325,0,0,1-.523-.307V103.4c0-.543-.389-.768-.861-.492a1.885,1.885,0,0,0-.861,1.475v4.242a1.1,1.1,0,0,0,.451,1.025l.7.389a.861.861,0,0,1,.359.779v4l-1.219.707a2.172,2.172,0,0,1-.676-1.383v-.184a3.381,3.381,0,0,0-1.762-2.715c-1.67-.82-2.725-2.756-2.735-5.594C391.548,100.251,395.38,93.642,400.052,90.938Z" transform="translate(-391.619 -89.783)" fill="#fff"/>
          <path id="Path_499" data-name="Path 499" d="M402.192,106.788a3.176,3.176,0,0,0-.451,1.516v4l-3.545,2.049v-4a1.1,1.1,0,0,0-.451-1.025l-.7-.4a.81.81,0,0,1-.359-.768v-4.242a1.147,1.147,0,0,1,.512-.891.324.324,0,0,1,.523.3v3.852c0,.543.389.768.861.492a1.916,1.916,0,0,0,.861-1.486v-3.862a1.127,1.127,0,0,1,.512-.891.317.317,0,0,1,.512.3v3.862c0,.543.389.768.861.492a1.916,1.916,0,0,0,.861-1.5v-3.852a1.127,1.127,0,0,1,.512-.891.322.322,0,0,1,.523.287v4.242a2.429,2.429,0,0,1-.348,1.178Z" transform="translate(-391.495 -89.538)" fill="#fff"/>
        </g>
        <path id="Path_500" data-name="Path 500" d="M378.969,73.76v1.168l-.482.277L372.8,78.493l-.492.277V77.6Z" transform="translate(-27.69 1.808)" fill="#455a64"/>
        <path id="Path_501" data-name="Path 501" d="M388.505,99.29a.154.154,0,0,1,.113,0l3.074.256c.113,0,.154.154.082.318a.481.481,0,0,1-.195.246h-.113l-3.074-.266c-.113,0-.154-.154-.082-.307A.5.5,0,0,1,388.505,99.29Z" transform="translate(-52.235 -35.842)" fill="#fff"/>
        <path id="Path_502" data-name="Path 502" d="M404.705,107.06h.195l1.8,2.52a.4.4,0,0,1-.082.41l-.113.1a.154.154,0,0,1-.2,0l-1.8-2.531a.389.389,0,0,1,.092-.41A.267.267,0,0,1,404.705,107.06Z" transform="translate(-51.838 -35.651)" fill="#fff"/>
        <path id="Path_503" data-name="Path 503" d="M413.091,92.711a.137.137,0,0,1,.225.123.5.5,0,0,1-.225.4l-3.576,2.049a.143.143,0,0,1-.236-.133.522.522,0,0,1,.225-.4Z" transform="translate(-51.72 -36.004)" fill="#fff"/>
        <path id="Path_504" data-name="Path 504" d="M411.269,86.191a.154.154,0,0,1,.2,0,.389.389,0,0,1-.082.41l-3.073,3.842-.113.1a.143.143,0,0,1-.2,0,.389.389,0,0,1,.082-.41l3.074-3.842a.513.513,0,0,1,.113-.1Z" transform="translate(-51.752 -36.164)" fill="#fff"/>
        <path id="Path_505" data-name="Path 505" d="M391.639,110.591a.154.154,0,0,1,.2,0,.389.389,0,0,1-.092.41l-3.074,3.842-.113.113a.143.143,0,0,1-.195,0,.379.379,0,0,1,.082-.41l3.074-3.842A.389.389,0,0,1,391.639,110.591Z" transform="translate(-52.233 -35.566)" fill="#fff"/>
        <path id="Path_506" data-name="Path 506" d="M406.428,83.45a.277.277,0,0,1,.123,0c.1,0,.143.154.082.307l-1.783,4.6a.451.451,0,0,1-.2.246h-.113c-.113,0-.143-.154-.082-.307l1.783-4.6a.441.441,0,0,1,.195-.246Z" transform="translate(-51.839 -36.23)" fill="#fff"/>
        <path id="Path_507" data-name="Path 507" d="M390.351,105.821a.139.139,0,0,1,.225.123.481.481,0,0,1-.225.4l-3.576,2.049a.146.146,0,0,1-.236-.133.522.522,0,0,1,.236-.4Z" transform="translate(-52.278 -35.682)" fill="#fff"/>
        <path id="Path_508" data-name="Path 508" d="M399.825,85.211a.146.146,0,0,1,.236.133v4.1a.533.533,0,0,1-.225.4.146.146,0,0,1-.236-.133v-4.1A.533.533,0,0,1,399.825,85.211Z" transform="translate(-51.957 -36.188)" fill="#fff"/>
        <path id="Path_509" data-name="Path 509" d="M393.286,91h.195l1.8,2.531a.389.389,0,0,1-.082.41l-.154.133h-.2l-1.793-2.531c-.072-.082,0-.266.072-.4a.359.359,0,0,1,.164-.143Z" transform="translate(-52.119 -36.045)" fill="#fff"/>
        <path id="Path_510" data-name="Path 510" d="M408.205,101a.185.185,0,0,1,.123,0l3.074.266c.113,0,.143.143.082.307a.491.491,0,0,1-.195.246h-.113l-3.074-.266c-.1,0-.143-.143-.082-.307a.492.492,0,0,1,.184-.246Z" transform="translate(-51.752 -35.8)" fill="#fff"/>
        <path id="Path_511" data-name="Path 511" d="M395.138,112.61a.133.133,0,0,1,.113,0c.113,0,.143.143.092.307l-1.783,4.6a.543.543,0,0,1-.2.246h-.113c-.1,0-.143-.154-.082-.318l1.783-4.59a.44.44,0,0,1,.195-.246Z" transform="translate(-52.116 -35.515)" fill="#fff"/>
        <path id="Path_512" data-name="Path 512" d="M264.452,113.967l7.09-2.4-6.332,11.577-8.35,10.163Z" transform="translate(-28.627 2.735)" fill="#455a64"/>
        <path id="Path_513" data-name="Path 513" d="M287.726,84.8l-8.473,30.449L265.709,130.9l-3.576,10.173-15.194,8.77,10.163-15.88,8.35-10.163,6.332-11.577Z" transform="translate(-28.981 2.079)" fill="#37474f"/>
        <path id="Path_514" data-name="Path 514" d="M313.968,58.52l.123,42.313L308.015,94l-3.873,4.334L287.73,85.444l-15.942,27.426-7.09,2.4-7.592,19.343-10.163,15.88,15.194-8.77,17.171-9.907,8.534-4.938,26.279-15.163-67.178,38.778L246.79,97.3Z" transform="translate(-29.299 1.435)" fill="#ba68c8"/>
        <path id="Path_515" data-name="Path 515" d="M313.968,58.52l.123,42.313L308.015,94l-3.873,4.334L287.73,85.444l-15.942,27.426-7.09,2.4-7.592,19.343-10.163,15.88,15.194-8.77,17.171-9.907,8.534-4.938,26.279-15.163-67.178,38.778L246.79,97.3Z" transform="translate(-29.299 1.435)" opacity="0.2"/>
        <path id="Path_516" data-name="Path 516" d="M307.033,93.15l6.076,6.834.031,10.88L286.86,126.027l2.479-4.866,6.9-7.418Z" transform="translate(-28.491 2.284)" fill="#455a64"/>
        <path id="Path_517" data-name="Path 517" d="M287.362,84.8l16.413,12.888-14.927,16.72-9.907,16.761-17.171,9.907,3.576-10.173,13.544-15.655Z" transform="translate(-28.88 2.079)" fill="#455a64"/>
        <path id="Path_518" data-name="Path 518" d="M265.44,131.579l78.806-45.5.184,66.594-78.806,45.509Zm73.13,6.854-.123-42.313L271.27,134.909l.154,53.193L338.6,149.313v-10.88" transform="translate(-53.827 -36.166)" fill="#ba68c8"/>
        <path id="Path_519" data-name="Path 519" d="M265.44,131.579l78.806-45.5.184,66.594-78.806,45.509Zm73.13,6.854-.123-42.313L271.27,134.909l.154,53.193L338.6,149.313v-10.88" transform="translate(-53.827 -36.166)" fill="#fff" opacity="0.6"/>
        <path id="Path_520" data-name="Path 520" d="M307.237,93.15l-10.8,20.593-6.895,7.418-2.479,4.866-8.534,4.938,9.907-16.761,14.927-16.72Z" transform="translate(-28.59 2.284)" fill="#37474f"/>
        <path id="Path_521" data-name="Path 521" d="M119.99,122.49l.082,31.77-40.12,23.164-.092-31.77Z" transform="translate(-29.454 3.003)" fill="#ba68c8"/>
        <g id="Group_40" data-name="Group 40" transform="translate(50.406 125.493)" opacity="0.1">
          <path id="Path_522" data-name="Path 522" d="M119.99,122.49l.082,31.77-40.12,23.164-.092-31.77Z" transform="translate(-79.86 -122.49)"/>
        </g>
        <path id="Path_523" data-name="Path 523" d="M100.8,181.18,147.928,154l.113,39.751-47.128,27.18Zm43.706,10.583L144.414,160l-40.12,23.164.082,31.76,40.13-23.175" transform="translate(-53.877 -34.5)" fill="#ba68c8"/>
        <g id="Group_41" data-name="Group 41" transform="translate(46.923 119.5)" opacity="0.6">
          <path id="Path_524" data-name="Path 524" d="M100.8,181.18,147.928,154l.113,39.751-47.128,27.18Zm43.706,10.583L144.414,160l-40.12,23.164.082,31.76,40.13-23.175" transform="translate(-100.8 -154)" fill="#fff"/>
        </g>
        <path id="Path_525" data-name="Path 525" d="M136.835,168.774c.717-.42,1.3-.082,1.311.748l.051,18.441a2.858,2.858,0,0,1-1.3,2.244l-6.9,3.975c2.971-4.1,4.928-9.118,4.907-13.585s-1.988-7.254-4.979-7.858Z" transform="translate(-54.306 -34.142)" fill="#37474f"/>
        <path id="Path_526" data-name="Path 526" d="M123.994,178.025c4.252-2.449,7.715-.482,7.725,4.405a16.894,16.894,0,0,1-7.674,13.319c-4.262,2.459-7.725.492-7.735-4.4A16.946,16.946,0,0,1,123.994,178.025Zm-2.367,9.221a5.2,5.2,0,0,0,2.377-4.1c0-1.516-1.025-2.121-2.387-1.363a5.246,5.246,0,0,0-2.387,4.1c0,1.506,1.025,2.121,2.4,1.352" transform="translate(-54.451 -33.937)" fill="#263238"/>
        <path id="Path_527" data-name="Path 527" d="M117.825,179.76c-2.981,4.1-4.928,9.118-4.918,13.585s1.988,7.264,4.979,7.868l-6.864,3.955c-.717.42-1.3.082-1.3-.738l-.061-18.441a2.858,2.858,0,0,1,1.3-2.254Z" transform="translate(-53.66 -33.869)" fill="#37474f"/>
        <path id="Path_528" data-name="Path 528" d="M121.547,181.628c1.311-.758,2.387-.154,2.387,1.363a5.2,5.2,0,0,1-2.377,4.1c-1.322.768-2.4.154-2.4-1.352a5.246,5.246,0,0,1,2.387-4.108Z" transform="translate(-49.21 -33.831)" fill="#fff"/>
        <path id="Path_529" data-name="Path 529" d="M130.42,172.642c2.992.6,4.969,3.4,4.979,7.858s-1.936,9.528-4.907,13.585a21.392,21.392,0,0,1-6.321,5.881,9.221,9.221,0,0,1-6.332,1.424c-2.992-.6-4.969-3.412-4.979-7.868s1.936-9.528,4.918-13.585a21.393,21.393,0,0,1,6.291-5.9A9.149,9.149,0,0,1,130.42,172.642Zm-6.26,23.216a16.894,16.894,0,0,0,7.674-13.319c0-4.887-3.473-6.854-7.725-4.405a16.946,16.946,0,0,0-7.684,13.319c0,4.887,3.473,6.854,7.735,4.4" transform="translate(-54.5 -34.046)" fill="#455a64"/>
        <path id="Path_530" data-name="Path 530" d="M323.38,66.569l50.6-29.209.143,51.984-50.591,29.209Zm45.96,20.05-.113-40.981L328.165,69.3l.123,40.981L369.34,86.578" transform="translate(-53.826 -37.36)" fill="#ba68c8"/>
        <path id="Path_531" data-name="Path 531" d="M323.38,66.569l50.6-29.209.143,51.984-50.591,29.209Zm45.96,20.05-.113-40.981L328.165,69.3l.123,40.981L369.34,86.578" transform="translate(-53.826 -37.36)" fill="#fff" opacity="0.6"/>
        <path id="Path_532" data-name="Path 532" d="M344.762,8.04l-41.052,23.7.113,41.022,41.063-23.7Z" transform="translate(-29.372 0.197)" fill="#ba68c8"/>
        <g id="Group_43" data-name="Group 43" transform="translate(283.429 22.36)">
          <path id="Path_533" data-name="Path 533" d="M355.057,73.76a7.008,7.008,0,0,1,3.074-.41,4.674,4.674,0,0,1,.738.113c1.957.471,1.752,2.049,1.025,3.934a5.553,5.553,0,0,1-2.182,3.012,3.853,3.853,0,0,1-1.721.492,6.758,6.758,0,0,1-.779,0,4.866,4.866,0,0,1-2.52-.891c.154-.236.3-.471.441-.717a16.83,16.83,0,0,0,1.147-2.367,14.252,14.252,0,0,0,.7-2.4A2.522,2.522,0,0,0,355.057,73.76Z" transform="translate(-335.639 -58.838)" fill="#fff"/>
          <path id="Path_534" data-name="Path 534" d="M351.692,78.41a2.869,2.869,0,0,0,1.025,1.455c.154-.236.3-.471.441-.717-.143.246-.287.482-.441.717a14.266,14.266,0,0,1-1.025,1.445,15.608,15.608,0,0,1-1.147,1.281l-.482.451.482-.461a2.93,2.93,0,0,0-1.025-1.486,11.668,11.668,0,0,0,2.172-2.684Z" transform="translate(-335.717 -58.713)" fill="#e0e0e0"/>
          <path id="Path_535" data-name="Path 535" d="M353.955,74.283a7.021,7.021,0,0,1,1.158-.533,3.967,3.967,0,0,1-.133.748,14.251,14.251,0,0,1-.7,2.4,16.832,16.832,0,0,1-1.147,2.367c-.143.246-.287.482-.44.717a2.869,2.869,0,0,1-1.025-1.455,11.586,11.586,0,0,0,1.363-3.6,6.149,6.149,0,0,1,.922-.645Z" transform="translate(-335.664 -58.828)" fill="#f0f0f0"/>
          <path id="Path_536" data-name="Path 536" d="M358.781,67.011c2.377-1.117,2.838,0,2.848,1.68s-.461,3.33-2.838,4.969a4.668,4.668,0,0,0-.738-.113,7.008,7.008,0,0,0-3.074.41,11.168,11.168,0,0,0,.113-1.527,7.387,7.387,0,0,0-.123-1.383,20.059,20.059,0,0,0,3.073-3.074Z" transform="translate(-335.583 -59.004)" fill="#f0f0f0"/>
          <path id="Path_537" data-name="Path 537" d="M350.667,82.48a10.1,10.1,0,0,1,.512,3.391c0,.359,0,.7,0,1.025-.225,2.869-1.434,4.1-2.889,4.938s-2.664,1.025-2.9-1.6a9.593,9.593,0,0,1,0-1.025,15.55,15.55,0,0,1,.492-3.955l.471-.1a7.562,7.562,0,0,0,1.957-.809,11.126,11.126,0,0,0,1.947-1.445Z" transform="translate(-335.818 -58.614)" fill="#fff"/>
          <path id="Path_538" data-name="Path 538" d="M355.05,70.92a7.166,7.166,0,0,1,.123,1.373,11.183,11.183,0,0,1-.113,1.527,3.962,3.962,0,0,1-.133.748c.051-.256.092-.5.133-.748a7.017,7.017,0,0,0-1.158.533,6.151,6.151,0,0,0-.922.645,8.617,8.617,0,0,0,.143-1.516A5.512,5.512,0,0,0,353,72.129a4.488,4.488,0,0,0,.932-.42A9.222,9.222,0,0,0,355.05,70.92Z" transform="translate(-335.632 -58.897)" fill="#e0e0e0"/>
          <path id="Path_539" data-name="Path 539" d="M349.622,81a2.93,2.93,0,0,1,1.024,1.486l-.481.461a11.129,11.129,0,0,1-1.947,1.445,7.561,7.561,0,0,1-1.957.809l-.471.092a11.27,11.27,0,0,1,1.025-2.674,5.184,5.184,0,0,0,1.4-.584,7.387,7.387,0,0,0,1.4-1.035Z" transform="translate(-335.808 -58.65)" fill="#f0f0f0"/>
          <path id="Path_540" data-name="Path 540" d="M341.4,81.69a2.457,2.457,0,0,0,.133.6,5.125,5.125,0,0,0,.717,1.567,3.555,3.555,0,0,0,1.147,1.025,3.644,3.644,0,0,0,.451.215,23.721,23.721,0,0,1-2.51,3.791c-.277.338-.533.645-.779.912a7.682,7.682,0,0,1-1.711,1.5,1.455,1.455,0,0,1-2.2-.492c-.727-1.025-.943-2.377,1.025-5.123.215-.3.461-.625.738-.963A20.037,20.037,0,0,1,341.4,81.69Z" transform="translate(-336.045 -58.633)" fill="#fff"/>
          <path id="Path_541" data-name="Path 541" d="M343.75,85a3.33,3.33,0,0,0,1.024.246,4.929,4.929,0,0,0,1.158,0,15.554,15.554,0,0,0-.492,3.955,9.577,9.577,0,0,0,0,1.025,6.547,6.547,0,0,1-2.326,3.074,2.561,2.561,0,0,1-1.609.328c-1.26-.1-2.049-.789-1.1-3.862.246-.266.5-.574.779-.912A23.721,23.721,0,0,0,343.75,85Z" transform="translate(-335.95 -58.552)" fill="#f0f0f0"/>
          <path id="Path_542" data-name="Path 542" d="M344.716,82.43a3,3,0,0,0,2.162.184,11.268,11.268,0,0,0-1.024,2.674l.471-.092-.471.092a4.447,4.447,0,0,1-1.158.061,3.33,3.33,0,0,1-1.024-.246,3.64,3.64,0,0,1-.451-.215,3.641,3.641,0,0,0,.451.215A11.463,11.463,0,0,0,344.716,82.43Z" transform="translate(-335.871 -58.615)" fill="#e0e0e0"/>
          <path id="Path_543" data-name="Path 543" d="M352.665,67.57a3.442,3.442,0,0,1,1.588,1.25A5.3,5.3,0,0,1,355.1,71a9.218,9.218,0,0,1-1.147.789,4.489,4.489,0,0,1-.932.42,2.94,2.94,0,0,0-1.414-1.977,11.269,11.269,0,0,1,1.055-2.664Z" transform="translate(-335.665 -58.979)" fill="#f0f0f0"/>
          <path id="Path_544" data-name="Path 544" d="M357.642,61.517a1.444,1.444,0,0,1,2.192.492c.727,1.025.943,2.377-1.024,5.123l-.738.963A20.061,20.061,0,0,1,355,71.168a5.308,5.308,0,0,0-.85-2.172,3.443,3.443,0,0,0-1.588-1.25,23.24,23.24,0,0,1,2.5-3.8c.277-.338.533-.645.779-.912a7.48,7.48,0,0,1,1.8-1.516Z" transform="translate(-335.642 -59.135)" fill="#fff"/>
          <path id="Path_545" data-name="Path 545" d="M350.525,67.382a4.364,4.364,0,0,1,1.147-.061,3.719,3.719,0,0,1,1.025.246,11.545,11.545,0,0,0-1.025,2.674,2.991,2.991,0,0,0-2.172-.174A11.74,11.74,0,0,0,350.525,67.382Z" transform="translate(-335.717 -58.986)" fill="#e0e0e0"/>
          <path id="Path_546" data-name="Path 546" d="M342.427,80.92a4.424,4.424,0,0,1,.922-.42,2.971,2.971,0,0,0,1.414,1.977,11.465,11.465,0,0,1-1.024,2.674,3.638,3.638,0,0,1-.451-.215,3.555,3.555,0,0,1-1.147-1.025,5.124,5.124,0,0,1-.717-1.568,3.382,3.382,0,0,0-.133-.6,9.124,9.124,0,0,1,1.137-.82Z" transform="translate(-335.918 -58.662)" fill="#f0f0f0"/>
          <path id="Path_547" data-name="Path 547" d="M348.252,70.577a5.86,5.86,0,0,1,1.4-.574,2.992,2.992,0,0,1,2.162.184,2.94,2.94,0,0,1,1.424,1.967,5.508,5.508,0,0,1,.154,1.352,8.62,8.62,0,0,1-.154,1.516,11.9,11.9,0,0,1-3.555,6.25,7.39,7.39,0,0,1-1.4,1.025,5.184,5.184,0,0,1-1.4.584,3,3,0,0,1-2.162-.184,2.971,2.971,0,0,1-1.414-1.977,6,6,0,0,1-.154-1.352,7.766,7.766,0,0,1,.154-1.516,11.1,11.1,0,0,1,1.393-3.6,11.577,11.577,0,0,1,2.151-2.684,8.672,8.672,0,0,1,1.4-.994Z" transform="translate(-335.873 -58.923)" fill="#ba68c8"/>
          <g id="Group_42" data-name="Group 42" transform="translate(7.277 10.959)" opacity="0.5">
            <path id="Path_548" data-name="Path 548" d="M348.252,70.577a5.86,5.86,0,0,1,1.4-.574,2.992,2.992,0,0,1,2.162.184,2.94,2.94,0,0,1,1.424,1.967,5.508,5.508,0,0,1,.154,1.352,8.62,8.62,0,0,1-.154,1.516,11.9,11.9,0,0,1-3.555,6.25,7.39,7.39,0,0,1-1.4,1.025,5.184,5.184,0,0,1-1.4.584,3,3,0,0,1-2.162-.184,2.971,2.971,0,0,1-1.414-1.977,6,6,0,0,1-.154-1.352,7.766,7.766,0,0,1,.154-1.516,11.1,11.1,0,0,1,1.393-3.6,11.577,11.577,0,0,1,2.151-2.684,8.672,8.672,0,0,1,1.4-.994Z" transform="translate(-343.15 -69.881)" fill="#fff"/>
          </g>
          <path id="Path_549" data-name="Path 549" d="M338.786,72.372a3.729,3.729,0,0,1,1.721-.482,4.991,4.991,0,0,1,.779,0,4.867,4.867,0,0,1,2.52.891,16.8,16.8,0,0,0-1.578,3.074,13.482,13.482,0,0,0-.83,3.156,7.387,7.387,0,0,1-3.074.41,3.689,3.689,0,0,1-.738-.123c-1.947-.471-1.752-2.049-1.024-3.924A5.594,5.594,0,0,1,338.786,72.372Z" transform="translate(-336.047 -58.874)" fill="#fff"/>
          <path id="Path_550" data-name="Path 550" d="M341.263,78.888a7.981,7.981,0,0,0,1.158-.533,6.889,6.889,0,0,0,.932-.656,7.762,7.762,0,0,0-.154,1.516,5.992,5.992,0,0,0,.154,1.352,4.429,4.429,0,0,0-.922.42,9.128,9.128,0,0,0-1.158.8,2.452,2.452,0,0,0,.133.6,3.385,3.385,0,0,0-.133-.6,8.4,8.4,0,0,1-.113-1.383,9.506,9.506,0,0,1,.1-1.516Z" transform="translate(-335.922 -58.731)" fill="#e0e0e0"/>
          <path id="Path_551" data-name="Path 551" d="M353.266,59.528a2.7,2.7,0,0,1,1.609-.328c1.26.1,2.049.789,1.1,3.862-.246.266-.5.574-.779.912a23.567,23.567,0,0,0-2.5,3.791,3.718,3.718,0,0,0-1.025-.246,4.365,4.365,0,0,0-1.147.061,16.107,16.107,0,0,0,.492-3.965v-.973A6.517,6.517,0,0,1,353.266,59.528Z" transform="translate(-335.692 -59.185)" fill="#f0f0f0"/>
          <path id="Path_552" data-name="Path 552" d="M348.178,68.292a7.028,7.028,0,0,1,2.438-.912,11.742,11.742,0,0,1-1.024,2.674,5.861,5.861,0,0,0-1.4.584,8.67,8.67,0,0,0-1.4,1.025,2.92,2.92,0,0,1-1.025-1.486A11.845,11.845,0,0,1,348.178,68.292Z" transform="translate(-335.809 -58.984)" fill="#f0f0f0"/>
          <path id="Path_553" data-name="Path 553" d="M345.8,70.11a2.971,2.971,0,0,0,1.025,1.5,11.575,11.575,0,0,0-2.151,2.684,2.889,2.889,0,0,0-1.025-1.455,16.071,16.071,0,0,1,1.025-1.445A15.62,15.62,0,0,1,345.8,70.11Z" transform="translate(-335.86 -58.917)" fill="#e0e0e0"/>
          <path id="Path_554" data-name="Path 554" d="M348.171,61.013c1.465-.84,2.674-1.025,2.91,1.608V63.6a16.107,16.107,0,0,1-.492,3.965,7.028,7.028,0,0,0-2.438.912,11.844,11.844,0,0,0-2.418,1.9,10.051,10.051,0,0,1-.523-3.381c0-.359,0-.707,0-1.025C345.507,63.062,346.716,61.843,348.171,61.013Z" transform="translate(-335.822 -59.154)" fill="#fff"/>
          <path id="Path_555" data-name="Path 555" d="M343.074,65.407a1.731,1.731,0,0,1,2.326.43v1.025a10.247,10.247,0,0,0,.512,3.371,15.628,15.628,0,0,0-1.148,1.281,16.073,16.073,0,0,0-1.024,1.445,4.867,4.867,0,0,0-2.52-.891,4.992,4.992,0,0,0-.779,0c-1.025-1.936-.184-3.555,1.076-5.123a6.5,6.5,0,0,1,1.557-1.537Z" transform="translate(-335.95 -59.039)" fill="#f0f0f0"/>
        </g>
        <path id="Path_556" data-name="Path 556" d="M343.679,72.77a2.89,2.89,0,0,1,1.025,1.455,11.094,11.094,0,0,0-1.393,3.6,6.891,6.891,0,0,1-.932.656,8.381,8.381,0,0,1-1.147.533,13.485,13.485,0,0,1,.83-3.156,16.8,16.8,0,0,1,1.619-3.084Z" transform="translate(-52.292 -36.492)" fill="#f0f0f0"/>
        <path id="Path_557" data-name="Path 557" d="M337.658,79.147a3.69,3.69,0,0,0,.738.123,7.315,7.315,0,0,0,3.022-.41,9.5,9.5,0,0,0-.1,1.516,8.393,8.393,0,0,0,.113,1.383,20.038,20.038,0,0,0-3.012,3.074c-.277.338-.523.666-.738.963-2.377,1.117-2.848,0-2.858-1.68S335.281,80.786,337.658,79.147Z" transform="translate(-52.389 -36.343)" fill="#f0f0f0"/>
        <path id="Path_558" data-name="Path 558" d="M352.722,79.83a4.867,4.867,0,0,0,2.52.891,6.761,6.761,0,0,0,.779,0c1.025,1.926.184,3.545-1.024,5.123a6.322,6.322,0,0,1-1.609,1.527,1.731,1.731,0,0,1-2.326-.42V85.926a9.986,9.986,0,0,0-.512-3.381,15.611,15.611,0,0,0,1.147-1.281,14.253,14.253,0,0,0,1.025-1.434Z" transform="translate(-53.16 -36.319)" fill="#f0f0f0"/>
      </g>
    </g>
  </g>
</svg>
