<svg id="Layer_1" data-name="Layer 1" xmlns="http://www.w3.org/2000/svg" viewBox="0 0 702.31 631.19"><defs><style>.cls-1{stroke:#fff;stroke-miterlimit:10;stroke-width:2px;}.cls-2{fill:#fff;}</style></defs><path class="cls-1" d="M426.21,199c51.43,0,102.86.21,154.28-.19,9.28-.07,12.51,2.22,12.55,12.06.44,100.94,1.34,201.88,2.17,302.82a22.7,22.7,0,0,1-4.62,14.69c-21.09,28.88-47.52,50-81,63.62-31.82,13-64.51,19.07-98.05,15.52-34.25-3.62-67.33-13.14-96.3-33.47-18.3-12.84-34.29-27.93-47-46.26-5-7.16-9.17-14.74-9.21-24.18q-.64-143.92-1.89-287.86c-.12-11.56,3.1-15,14.81-14.86,51.43.62,102.86.27,154.3.27Z" transform="translate(-66.95 -94.24)"/><path d="M67,192.69c10.27-6.32,20.35-12,29.68-18.93,11.67-8.63,12.28-10.34.31-18.12-8-5.18-15.76-10.61-23.32-16.33-2.16-1.63-7.14-1.6-5.9-5.73,1.11-3.66,5.26-2.18,8.09-2.2,29.17-.17,58.35-.15,87.53-.26,17.65-.07,35.32-.57,53-.3,7.81.12,10.76-2.36,10.73-10.52-.08-22.75.24-22.85,23.79-23,115.55-1,231.09-1.72,346.64-3,10.82-.12,14.81,2.32,14.22,13.75-.84,16,0,16.16,16.47,16,43.37-.52,86.74-1.22,130.12-1.68,3.55,0,8.88-2.11,10.29,2.2,1.48,4.57-3.84,7.34-6.92,9.61-6.93,5.12-14.54,9.35-22,13.76-7.73,4.58-7,10.6-.44,14.07,9.11,4.78,14.77,14.58,25.59,16.63,2.54.49,5.11,2.62,4.31,5.84-.72,2.89-3.71,2.21-5.82,2.24q-78.31,1-156.62,1.8c-8.64.08-12.86-4.05-12.74-13.55.18-15.71-.35-15.74-15.63-15.63-106.34.79-212.69,1.75-319,2.15-10.78,0-13.89,3.3-13.41,13.78.92,19.88.41,19.84-19.85,19.94-48,.24-96,.62-144,.74C77.36,195.89,72.1,197.71,67,192.69Z" transform="translate(-66.95 -94.24)"/><path class="cls-2" d="M376.52,673.42c16.93,1.21,26.88,14.28,39.6,22.83,9,6.07,24.53,2.09,29.49-7.39,2.3-4.41,5.89-5.19,9-7.51,5.27,2.59,5.27,2.59,16.2-2.61-4.76.38-9.2,8.72-16.46,3,6.47-11.64,19.23-11,29.61-14.36,6.08-2,13.26-.92,20.59-3.41-3.69,19.31-17.87,26.34-32.66,31.38-7.29,2.49-15.4,4.47-23.62,3.71-4.23-.39-9.57-.5-11,4.1-1.35,4.37,2.16,8.5,5.05,12,2.39,2.88,6.93,3.53,8.51,8.64-5.53,2.85-9.56.63-13.57-3.34-17.79-17.6-17.92-17.67-37.36.26-4.23,3.91-8.15,6.56-15.54,3.29,7.14-5.19,13.51-9.69,19.73-14.38,2.8-2.12,8-3.17,5.68-8.37A7.62,7.62,0,0,0,399,697.52c-14,8.26-23.38-2.12-34.11-7.48-2-1-3.52-2.21-2.49-4.21,1.32-2.57,3.88-1.72,6.12-1.07,2.74,1.82,6.15,2.44,10,6-4-3.49-7.2-4.5-10.31-5.67-1.64-5.75-4.82-4.45-8.64-2.14-6,3.62-12.19,6-19.2,1.93-2.73-1.57-5.77-.14-8.82.6-18.65,4.54-35.69,2.37-48.39-13.83-2.39-3-7-3.51-8.2-7.88,2.4-4.26,8.36.08,10.71-4.23l-.29.35c16.33,0,32.22.59,43,16.14,5.4,7.8,15,5.94,23,7.29,3.27.55,4.59-2.59,2.44-5.51-1.79-2.43-4.22-4.39-6.25-6.66-1.3-1.47-2.26-3.28-1.09-5.2s3.81-2.48,5-1.5c7.37,6,17.21,4.77,25.08,9.09l.56-.1Z" transform="translate(-66.95 -94.24)"/><path class="cls-2" d="M285.7,659.53c-12.91-2.65-26.1-4.4-38.66-8.22-13.57-4.14-21.69-15.7-30.75-25.7,3.71-4.82,8.81-.58,12.44-3.69-5.43-7.31-12.28-9.87-21.68-9.43-12.48.58-22.86-6.64-31.05-14.85-4.75-4.76-11.83-8.13-14.08-16.22,18.12-1.5,34.88,3.42,50.82,10.49,4.54,2,8.61,8.36,10,13.5,3.39,12.42,12.61,17.35,23.28,19.88,13.54,3.2,23.84,9.26,26.56,23.74,1.43,7.57,11.93,3.3,12.82,10.84Z" transform="translate(-66.95 -94.24)"/><path class="cls-2" d="M738.2,513.13c-9.09,11.87-23,18.33-32.58,29.64-2.37,2.8-8.45,5.43-12.76,3.46-13.21-6-16.69,3.45-20.8,12.15-1.29,2.74-1.72,5.94-4.95,7.33C670.61,530.88,714.84,497.61,738.2,513.13Z" transform="translate(-66.95 -94.24)"/><path class="cls-2" d="M501.31,684.44c17.79-7.93,31-23.5,50.54-27.66,8.75-1.87,16.22-8.85,26-6.6,1.7.39,4.2-.53,4.45,2.15a5.06,5.06,0,0,1-1.51,4c-7.89,5.41-12.26,14.19-19.56,20.11-11,8.92-24.19,6.18-36.3,5.26C516.63,681.07,509.08,679.52,501.31,684.44Z" transform="translate(-66.95 -94.24)"/><path class="cls-2" d="M193.23,579.9c-5.32.76-8.62-2.37-11.8-4.57-10.81-7.49-21.44-15.16-34-19.58-9.91-3.47-15.65-11.19-20.23-20.16-2.55-5-.16-6.88,4.12-6,11.76,2.45,23.45,5.3,35,8.47,10.84,3,16.57,11.1,19.06,21.81-3.48,2.38-11.37-2.42-12.47,2.77-1.15,5.42,7.59,5.74,10.86,9.85C186,575.31,190.92,575.15,193.23,579.9Z" transform="translate(-66.95 -94.24)"/><path class="cls-2" d="M591.89,629.67c14.55-16.58,34.36-18.12,55.57-19.15-11.17,15.89-25.05,26.51-43,31.66-1.41.4-3.47.69-4.47,0-6.42-4.62-11.42-4-16.13,2.7-.84,1.21-4.89.17-10.75.17,10.38-3.5,12.51-11.81,19-15.61a5.57,5.57,0,0,1,1.4,1.38A5.51,5.51,0,0,0,591.89,629.67Z" transform="translate(-66.95 -94.24)"/><path class="cls-2" d="M635.83,596.9c15.21-21.19,34-31.68,59.15-29.36.83,16.54-13.87,19-22.77,26.83C660.67,604.48,648.83,596.38,635.83,596.9Z" transform="translate(-66.95 -94.24)"/><path class="cls-2" d="M370.54,646.79c-2.12-.56-2-2.44-1.85-3.75.5-5.81-3.55-14,2.8-16.78,6.89-3,5.85,8,10.41,10.36,5.12-2.25.15-8.8,5.49-10.6,4,2.22,2.45,6.17,2.33,9.19-.17,4.12,2.58,10-3.38,11.83-5.57,1.72-7.31-4.15-10.12-7.29C371.65,640.09,375.47,646.93,370.54,646.79Z" transform="translate(-66.95 -94.24)"/><path class="cls-2" d="M342.81,640.88c-7.69.63-11-3-10.79-10.84.2-7.19,2.26-11.74,10.5-11.67s11.65,3.64,11.75,11.84S350.35,641.16,342.81,640.88Z" transform="translate(-66.95 -94.24)"/><path class="cls-2" d="M277.7,601.48c-6.67-6.34-12.53-8-18.15.13-.79-1.27-1.65-2.18-1.48-2.46,3.65-6,0-18.52,9.81-17.77C276.21,582,274.78,593.9,277.7,601.48Z" transform="translate(-66.95 -94.24)"/><path class="cls-2" d="M217.8,529.85c6.5,5.77,4.07,11.16,5,15.79.46,2.26.4,4.86,3.53,4.84,2.9,0,3.52-2.28,3.85-4.72.6-4.6-1.13-9.66,3-15.87,2.82,8.76,4.16,15.67-.63,21.62-2.76,3.44-8.07,3.46-11.58.79C213.47,546.59,217.31,539,217.8,529.85Z" transform="translate(-66.95 -94.24)"/><path class="cls-2" d="M202.78,506c11.4.28,9.53,7.91,9.21,13.86-.49,9-7.59,7.75-13.65,8.08-7.48.4-7.65-4.5-7.46-9.79.09-2.67.1-5.35.32-8,.19-2.26,1.57-3.46,3.85-2.94,2,.45,1.28,2,1.37,3.54.28,5-3.06,10.92,3,14.47,1.81,1.07,5.09.91,6.2-1.3C208.6,517.93,208.06,512,202.78,506Z" transform="translate(-66.95 -94.24)"/><path class="cls-2" d="M700.79,494c-6.11.78-12.89,3.09-14.88-1.34a24.7,24.7,0,0,1-.21-17.85c2.15-5.16,8.88-.89,14.71-2.64-3.38,3.8-20.11,2.6-3.39,10,1.66.74.71,1.82-.51,2.12-2.84.72-6.89.27-5.76,5.05S696.93,490.69,700.79,494Z" transform="translate(-66.95 -94.24)"/><path class="cls-2" d="M581.67,581.45c10.77-1.51,14.9,1.61,14.71,10.88S591.1,604.52,583,603.58c-9.72-1.13-9.79-7.57-7.75-15.54,6.79,2,.45,15,11.24,12.55,3.48-.79,3.63-3.31,3.94-6.08C591.17,588,590.05,585.89,581.67,581.45Z" transform="translate(-66.95 -94.24)"/><path class="cls-2" d="M490.29,650c-8.53-.89-18.2,4.64-17.74-10,.42-13.21-.23-13.23,16.48-12.37-2.15,4.32-12,.22-9.25,7.37,1.38,3.61.67,5.18.1,8.43C478.83,649.5,486.94,644.91,490.29,650Z" transform="translate(-66.95 -94.24)"/><path class="cls-2" d="M458.55,632.81c-8.14,6.29-12.31,12.18.63,17.76-6.76,3.18-11.74-6.35-16.25,1-.47.77-2.47-1.26-2.46-2.9,0-5.29-2-11.12.94-15.71,2-3.18,3,1.23,4.52,2.33C450.54,638.64,452.14,630.49,458.55,632.81Z" transform="translate(-66.95 -94.24)"/><path class="cls-2" d="M185.52,480.32c-10.94,2.7-10.94,2.7-7.26,9a10.25,10.25,0,0,1,.72,1.35c-16.13,10.67,3,7,4.57,11.31-6.54-1.29-15.93,5.21-15.82-8.76S167.36,479.41,185.52,480.32Z" transform="translate(-66.95 -94.24)"/><path class="cls-2" d="M514.86,641.93c-2.21-9.91-5.34-16.52-8.64-23.7,5.57,2.67,10.22,9.79,15,0,.56-1.16,4.14,1.65,2.69,3C518.49,626,518.44,633.16,514.86,641.93Z" transform="translate(-66.95 -94.24)"/><path class="cls-2" d="M672.05,507.2c-7-.37-8.19,5.09-9.95,10.58-7.81-16.29-4.4-22.26,11.79-21.7-2.29,3.57-9-.14-9.08,5.52C664.79,505.68,669.87,503.9,672.05,507.2Z" transform="translate(-66.95 -94.24)"/><path class="cls-2" d="M259.25,573.35c-7.22,8.29-14.22,8.1-19.61,3.68-4.66-3.81-4.22-11.56-1-15.86,4.81-6.4,11.87-4.68,19.25-.27-5.49,2.67-12.33-5.34-15,2.84-1.15,3.46-2.09,8.1.62,11C247.52,579.16,252.5,575.1,259.25,573.35Z" transform="translate(-66.95 -94.24)"/><path class="cls-2" d="M290.61,602.68l13.24.79c-10.05,5.34-1.87,15.13-8.4,21.19C289.4,618.45,296.77,609.06,290.61,602.68Z" transform="translate(-66.95 -94.24)"/><path class="cls-2" d="M621.49,537.4c6.89,7.05-1.36,18.94,11.86,21.81C618.67,560.9,617.5,558.59,621.49,537.4Z" transform="translate(-66.95 -94.24)"/><path class="cls-2" d="M561,623c-5.94-7.09.88-16.33-7.85-20.56,4.32-1.92,8.43-1.11,14.34-.93C559.86,607.2,565.05,615.43,561,623Z" transform="translate(-66.95 -94.24)"/><path class="cls-2" d="M645.34,543.12c-3.36-6.64-2.73-13.28-.84-19.94C649,529.66,648.47,536.35,645.34,543.12Z" transform="translate(-66.95 -94.24)"/><path class="cls-2" d="M318.23,613.31c3.94,6.71,3.28,13.43.75,20.14C314.73,626.74,316.39,620,318.23,613.31Z" transform="translate(-66.95 -94.24)"/><path class="cls-2" d="M265.83,219.59c18.42,18,36.25,35.3,54,52.72Q423.17,373.88,526.48,475.5c16.09,15.81,32,31.79,48.49,47.21,5.92,5.54,5.28,9.29.27,14.9-29.24,32.72-65.93,51-108.58,60A180.46,180.46,0,0,1,391,598c-48.87-10.54-90.62-34.41-119.71-76.86-3.52-5.14-5.8-10.39-5.84-17q-.82-136.44-2-272.89C263.4,227.93,262.56,224.37,265.83,219.59Z" transform="translate(-66.95 -94.24)"/><path class="cls-2" d="M457.05,249.69c.31,1.4.67,4,.91,4,12.3-.58,9,8.47,8.34,14.58-1.3,11.25,4.18,21.37,4.11,32.37-.1,16.49-4.4,20.55-20.07,16.18-5.15-1.44-10-3.08-15.43-3.06-4.14,0-8.47-2.13-8.16-6.42,1.52-20.67-10.78-37.23-15.95-55.88-2.58-9.3,3.39-11.41,8.86-8.87,12.19,5.65,25.1,5.29,37.72,7.37Z" transform="translate(-66.95 -94.24)"/><path class="cls-2" d="M487.08,250c13.6-2.91,27.81-2.31,41-8.07,5.08-2.22,7.46,1.43,6.86,7-2.18,20-10.84,38.21-15.62,57.49-.69,2.8-2.17,5.68-4.63,6.09-10,1.64-19.61,6-30.18,4.43-4.79-.71-5.12-3.51-5.22-7.21s1.48-5.48,5.35-5.69c11.11-.62,19.21-8.43,28.92-12.59-6.89,3.18-15.75-.79-21.52,7.24-2.8,3.91-9.11,4.05-11.87,0-1.87-2.76-4.05-9.36,3.46-10.57,4.41-.7,1.7-4.31,3-6.2,6.3,2.37,10.21-2.42,15-4.69-4.73,2.33-8.67,7-14.95,4.71-6.91,2.88-7.38,2.89-7.5-3.42-.19-10.31-2.63-21.48,8.27-28.68Z" transform="translate(-66.95 -94.24)"/><path class="cls-2" d="M479.35,319.94c9.43,0,16.27.11,23.1,0,16.81-.31,21.65-5.75,26.07-21.87,5.45-19.87,6.3-40.86,15.11-59.93,1.52-3.27,1.66-6.65,6-6.73,2.51,0,5.11-3.44,7.32-.59,1.7,2.2.16,4.62-.94,7.24-8,19-16.65,37.8-22.69,57.41-2.59,8.44-3.77,17.47-7.2,25.89-1,2.53-1.58,5-4,6.55C514.68,332.91,489.27,329.34,479.35,319.94Z" transform="translate(-66.95 -94.24)"/><path class="cls-2" d="M423.79,318.43c-9.17-19.8-15.66-40.63-23.39-61-2.95-7.75-3.55-15.39-4-23.33-.13-2.34.14-3.75,2.69-3.71,1.78,0,2.58.89,2.43,2.9-1.7,22,14.1,38.56,18.39,58.78,1.89,8.88,6.39,17.23,3.52,26.68Z" transform="translate(-66.95 -94.24)"/><path class="cls-2" d="M423.43,318.77c14.59-.45,28.91,3.35,46.32.62-13.37,13.59-27.05,11.8-40.28,10.1-5.38-.7-5.8-6.31-5.67-11.07Z" transform="translate(-66.95 -94.24)"/><path class="cls-2" d="M457.38,250c-2.6-6-9.07-5.94-13.63-6.86a204.21,204.21,0,0,1-33.27-9.36c21-.75,39.83,7.29,59,14.14-4.29,4.19-8.63-1.6-12.5,1.76Z" transform="translate(-66.95 -94.24)"/><path class="cls-2" d="M474.85,286.38c-3.58-9.69-2.44-19.46-.71-29.24C477.77,266.83,476.75,276.59,474.85,286.38Z" transform="translate(-66.95 -94.24)"/><path class="cls-2" d="M487.43,249.81c-2-2.63-8.06.55-7.74-4.6s5.27-2.56,8.15-3.45c5.28-1.62,10.41-4.5,16.59-2-2.59,8.88-14.92,1.39-17.31,10.24Z" transform="translate(-66.95 -94.24)"/><path class="cls-2" d="M536.81,233c-4.22,3.25-6.59,2.19-9.56,1.93C529.87,230.35,532.64,232.6,536.81,233Z" transform="translate(-66.95 -94.24)"/><path class="cls-2" d="M511.28,236.77c2.21-2,4.51-1.56,7-.69C516.19,239.26,513.83,238.13,511.28,236.77Z" transform="translate(-66.95 -94.24)"/><path class="cls-2" d="M417.72,155.41c-58,0-115.9-.22-173.84.24-9.11.07-12.31-2.23-11.7-11.38a221.15,221.15,0,0,0-.1-29.91c-.6-8.73,2.75-11,11.18-11.07,74.05-.36,148.1-1.16,222.15-1.77,43-.36,86-.32,128.93-1.18,10-.2,12.62,3.21,12,12.45a169.56,169.56,0,0,0,.21,27.6c.93,10-2.35,13.36-12.66,13.29-43.36-.31-86.73.19-130.1.35-15.34.06-30.69,0-46,0Z" transform="translate(-66.95 -94.24)"/><path class="cls-2" d="M93.62,187.76c6.13-8.23,14.88-11.79,21.52-17.84,2.74-2.51,6.62-3.47,6.5-8.43-.14-5.66-4.76-3.51-7.34-5-6.83-4-13.53-8.15-20.1-12.51-1.43-.95-3.16-3.15-3-4.48.45-2.8,3.4-2.38,5.59-2.39,40.63-.32,81.27-.46,121.9-1,7.88-.1,8.53,4.26,8.69,10.2.18,7.12-2.15,14.19,9.52,17.05,7.1,1.74,2.57,12.83,3.3,19.69.48,4.52-2.59,5.8-6.6,5.81q-68.42.3-136.84.62C96.17,189.49,95.54,188.83,93.62,187.76Z" transform="translate(-66.95 -94.24)"/><path class="cls-2" d="M751.9,130.25c-10.13,6.91-18,12.59-26.29,17.74-2.31,1.44-6.56,0-6.72,4.51-.15,4.18,2.06,6.63,5.58,9.07,7.5,5.2,16.29,9.1,22,17.59-6.64,2.87-12.41,2.47-18.09,2.51-39.14.23-78.27.47-117.41.49-4.76,0-12.32,2.66-11.85-6.15.34-6.3-5.57-16.63,8-17.08,4.12-.14,4.86-3.09,4.89-6.41,0-5,.23-10,0-15-.33-6.05,2.57-8.07,8.25-8.1q62.73-.28,125.45-.75C746.77,128.71,747.83,129.22,751.9,130.25Z" transform="translate(-66.95 -94.24)"/><path class="cls-2" d="M454.35,681.72c7.64.76,13.25-3.05,19.18-7.33a19.28,19.28,0,0,1,13.53-3.7c-.64,6-5.33,7.28-9.13,8.86-5.88,2.44-12,4.35-18,6.32-3.94,1.29-5.85-.25-5.31-4.49Z" transform="translate(-66.95 -94.24)"/><path class="cls-2" d="M368.24,685.08c10.84-3.19,16.9,4.76,24.11,10-9-1-18.66-.69-23.83-10.33Z" transform="translate(-66.95 -94.24)"/><path class="cls-2" d="M480.43,684.86c-6.65,7.1-14.63,9.81-25,7.8C462.89,685.45,472.27,686.94,480.43,684.86Z" transform="translate(-66.95 -94.24)"/><path class="cls-2" d="M287.08,673.37c9.73-4,14.34-1.7,18.1,2.83.41.5-.84,3.54-1.69,3.74C296.93,681.44,295.25,674.57,287.08,673.37Z" transform="translate(-66.95 -94.24)"/><path class="cls-2" d="M496.8,671.94c-2.59,3.88-4.25,8.5-12.08,12l9.59-13.68Z" transform="translate(-66.95 -94.24)"/><path class="cls-2" d="M311.76,684.51c-1.7-.32-4.11.26-4.13-2.43,0-1.83.82-4,3.2-3.36,1.61.43,3.66,1.73,4.19,3.14C316.1,684.73,313.3,684.1,311.76,684.51Z" transform="translate(-66.95 -94.24)"/><path class="cls-2" d="M319.91,675.58c-4.51-1.67-8.17-2.42-10.28-7.32C314.46,669.06,316.65,672.05,319.91,675.58Z" transform="translate(-66.95 -94.24)"/><path class="cls-2" d="M397.67,685.84c-4.76,1-8,1.78-10.19-1.62-.4-.6.37-2,.61-3Z" transform="translate(-66.95 -94.24)"/><path class="cls-2" d="M376.52,673.42c-.75,2.27,4,4.64.11,6.59-1.22.61-6.91,1.86-2-2.86,1.11-1.08,2.24-1.79,2-3.55A1,1,0,0,1,376.52,673.42Z" transform="translate(-66.95 -94.24)"/><path class="cls-2" d="M296.1,663.59c-1.63.82-2.6,1.73-3.33,1.57s-1.19-1.41-1.77-2.18c.64-.35,1.32-1,1.9-1C293.76,662.13,294.56,662.79,296.1,663.59Z" transform="translate(-66.95 -94.24)"/><path class="cls-2" d="M193.35,592.1c7.1,1.73,12.47-.39,16,3.56,1.26,1.43,5.06,4.06,2.86,6.4-1.42,1.51-5,3.48-8,.25C201.5,599.33,198.34,596.75,193.35,592.1Z" transform="translate(-66.95 -94.24)"/><path class="cls-2" d="M261.54,640.68c-5.26-.76-10.78-1.14-13.61-7.12C255.52,630.78,257.19,638.46,261.54,640.68Z" transform="translate(-66.95 -94.24)"/><path class="cls-2" d="M188.91,589.22c-4.44-1.82-7.19,5.19-11.76,1.84a4,4,0,0,1-1-2.69C180.45,585.57,184.62,587.51,188.91,589.22Z" transform="translate(-66.95 -94.24)"/><path class="cls-2" d="M232.67,633.16c-1.58-.06-2.93-.69-3-2.35,0-.49,1.46-1.49,2.21-1.45,1.26.07,3.42.58,3.56,1.25C235.78,632.22,234.18,632.9,232.67,633.16Z" transform="translate(-66.95 -94.24)"/><path class="cls-2" d="M246.62,642.45c-.39.61-.92,1.42-1.45,2.23-.76-.63-2-1.18-2.14-1.92a3,3,0,0,1,1.42-2.44C245.9,639.62,246.15,641.06,246.62,642.45Z" transform="translate(-66.95 -94.24)"/><path class="cls-2" d="M187.18,603.92c1.36-3-4.49-4.21-1.94-7.58,5.86,1.24.64,5.24,1.92,7.59l.36-.86A8.86,8.86,0,0,1,187.18,603.92Z" transform="translate(-66.95 -94.24)"/><path class="cls-2" d="M187.16,603.93c2.37-1.26,4.15-4.3,8.17-2.72-2.22,3.85-6.05.62-8.14,2.71Z" transform="translate(-66.95 -94.24)"/><path class="cls-2" d="M687.67,538.2c11.59-1.38,17.92-10.13,27.75-15.56C710.3,539.27,698.43,545.88,687.67,538.2Z" transform="translate(-66.95 -94.24)"/><path class="cls-2" d="M706.48,520c-.66,7-5,8.19-11.81,7.42,3.58-4.56,7.62-6.21,12.07-7.17Z" transform="translate(-66.95 -94.24)"/><path class="cls-2" d="M693.77,531.68c-1.08,1-1.71,2.07-2.48,2.19s-1.7-.7-2.57-1.11c.57-.72,1-1.89,1.72-2S692.29,531.2,693.77,531.68Z" transform="translate(-66.95 -94.24)"/><path class="cls-2" d="M706.74,520.29c1.88-.83,3.15-3.45,5.75-2.09a2,2,0,0,1,.17,1.82c-1.95,1.75-4,1-6.14.05Z" transform="translate(-66.95 -94.24)"/><path class="cls-2" d="M561,660.51c-9.37,7.69-16.51,15.06-30.7,9.72C541.1,666.3,547.46,657.21,561,660.51Z" transform="translate(-66.95 -94.24)"/><path class="cls-2" d="M531.94,678.2c7.49-3.25,12.16-2.06,16.87-.91C544.18,680.18,539.45,680.21,531.94,678.2Z" transform="translate(-66.95 -94.24)"/><path class="cls-2" d="M568.66,653.71c1.7-.46,2.69-1,3.67-.94,1.34,0,3.4-.09,2.45,2.23-.26.62-2,1-3,.84S570.09,654.73,568.66,653.71Z" transform="translate(-66.95 -94.24)"/><path class="cls-2" d="M156.46,541.9c9.63-1.8,14.38,4.78,21.37,13.53-11.67-2.33-21.37,2.88-30.7-3.94-4.3-3.14-3.79-5.08.39-7.29l1.4-.14c2.26-.11,4.9,1.47,6.52-1.48A10.63,10.63,0,0,1,156.46,541.9Z" transform="translate(-66.95 -94.24)"/><path class="cls-2" d="M147.52,544.2c1.38-7,4.3-8,8.94-2.3l.24-.36c-2.21,4.63-5.41,5.24-9.48,2.34Z" transform="translate(-66.95 -94.24)"/><path class="cls-2" d="M135.31,541c-.41-.6-1.6-1.65-1.4-2.19.44-1.23,1.38-2.81,2.47-3.16,1.75-.56,2.58.86,2.33,2.61S137.58,540.93,135.31,541Z" transform="translate(-66.95 -94.24)"/><path class="cls-2" d="M604,637.19c4.17-9.8,11.07-7.83,16.5-9.16C618.13,635,611.37,633.65,604,637.19Z" transform="translate(-66.95 -94.24)"/><path class="cls-2" d="M591.89,629.67l9.12-1.56c-.42,3.66-2,6.78-5.38,7.12-3.53.37-2.57-3.67-3.5-5.83Z" transform="translate(-66.95 -94.24)"/><path class="cls-2" d="M613.16,625.3c-1.75.66-2.67,1.29-3.58,1.28-1.14,0-2.26-.71-1.47-2.15a2.26,2.26,0,0,1,1.83-1.07C610.83,623.55,611.6,624.31,613.16,625.3Z" transform="translate(-66.95 -94.24)"/><path class="cls-2" d="M683.76,575.53c-12.16,1.75-21.84,9.63-33,14.11,6-14,20-13.87,31.09-18.44,3.7-1.52.07,3.2,1.47,4.51Z" transform="translate(-66.95 -94.24)"/><path class="cls-2" d="M652.55,595.85c4.56-5.65,12.19-4.73,15.67-10.39.9-1.47,2.72-1.21,4,0s1.93,3.32.38,3.81C666.08,591.33,662,600.31,652.55,595.85Z" transform="translate(-66.95 -94.24)"/><path class="cls-2" d="M683.37,575.71c4.45.95,4.43,3.22,1.81,6.2-1.47,1.67-4,2-4.89.52-2-3.4,1.09-5.11,3.43-6.88Z" transform="translate(-66.95 -94.24)"/><path class="cls-2" d="M348.11,629.37c.21,5.24.05,9-5.51,8.82-5.82-.14-5.22-4.4-5-8.05s-.7-8.09,5.06-8.25C349.21,621.71,347.9,626.69,348.11,629.37Z" transform="translate(-66.95 -94.24)"/><path d="M443.13,292.52c10.33-3.07,8.29,8.36,14.43,10.32C447.81,305.81,449.87,293.42,443.13,292.52Z" transform="translate(-66.95 -94.24)"/><path d="M442.83,267l-14.1-7.48C435.23,257.9,440,258,442.83,267Z" transform="translate(-66.95 -94.24)"/><path d="M445.3,282.9c7.56-.51,7.56-.51,12.11,6.67C451.1,290.67,449.87,283.92,445.3,282.9Z" transform="translate(-66.95 -94.24)"/><path d="M447.56,265.29c6,.79,8.53,3.38,10.19,8.54C452.06,273.64,450.05,270.37,447.56,265.29Z" transform="translate(-66.95 -94.24)"/><path d="M442.45,280.67c-5.52.86-6.38-2.19-8.09-5.3C440.07,273.9,440.47,277.48,442.45,280.67Z" transform="translate(-66.95 -94.24)"/><path d="M487.54,269.35c9.4-9.84,23.07-8.48,34.35-13.35C511.7,263.73,498.48,263.56,487.54,269.35Z" transform="translate(-66.95 -94.24)"/><path d="M486.66,281.91c7.77.83,11.87-9.86,21.23-6.37-7,4-12.4,10.54-21.24,6.35Z" transform="translate(-66.95 -94.24)"/><path d="M322.54,124.25c2.41,8.45-1.23,11.43-8.43,11.48-6,0-13.32,1.59-11.93-8.48.8-5.77-4.16-14.73,8.43-14.33C319.23,113.19,325.3,114.31,322.54,124.25Z" transform="translate(-66.95 -94.24)"/><path d="M269.41,118.44c-4.57.61-8.11-5.36-12.59-.65-2.86,3-1.46,7.25-1.51,11,0,2.88,2.37,4,4.74,3.46,1.59-.38,2.88-2.15,4.22-3.38,1.52-1.4-7.28-4.66.81-4.86,2.46-.07,5.85-.64,6.19,3.22.22,2.49,1.5,6.27-1.37,7.26-6,2.08-13,4.18-17.79-1.8-4.43-5.55-4.5-13,1.16-17.33C258.51,111.33,265.45,111.24,269.41,118.44Z" transform="translate(-66.95 -94.24)"/><path d="M350.52,136.54c-7.59-4-4.76-10.56-10.92-11.27-8-.92-4,8.07-9.28,10-3.94-6.86-4.07-14.83-.63-20.22,2.69-4.21,11.39-3.42,15.79-.52C353,119.49,347.63,127.59,350.52,136.54Z" transform="translate(-66.95 -94.24)"/><path d="M547.29,136.12c-4.83-9.09-4.63-16.74-2-22.77,1.91-4.4,9.05-1.76,13.84-1.78a6,6,0,0,1,6.27,5.62c.24,3.51-2.65,6.46-5.61,6C551.31,121.9,549.19,127.55,547.29,136.12Z" transform="translate(-66.95 -94.24)"/><path d="M485.15,135.35c-6.09-11.58-12-7.29-19,.89a46.78,46.78,0,0,1,6.44-21.72c2.59-4.69,6.35-3.94,8.4.75,2.49,5.68,4.31,11.66,6.42,17.51Z" transform="translate(-66.95 -94.24)"/><path d="M495.26,135c-4.71-8.18-5.29-15.55-1.84-21.63,2.19-3.88,8.52-1.86,13-1.66,3.77.17,6.74,2.55,6.86,6.32a5.78,5.78,0,0,1-5.94,5.89C500.33,123.71,495.83,126.2,495.26,135Z" transform="translate(-66.95 -94.24)"/><path d="M277.48,136.06c-.8-8.27,2.54-14.47,5.65-20.47,2.07-4,5.53-3.49,7.7.37a29.37,29.37,0,0,1,3.7,9.32c.49,3.12,5.72,6.12,1.78,9-4.14,3-3.48-3.38-6.07-4.5C284,127.09,282.34,133.8,277.48,136.06Z" transform="translate(-66.95 -94.24)"/><path d="M529.36,133.93c-7.5.58-11.26-2.73-11.41-10.46s2.44-11.94,11-12c8.12-.08,10.82,3.79,10.81,11.06C539.79,129.52,537.58,134.44,529.36,133.93Z" transform="translate(-66.95 -94.24)"/><path d="M441.74,133.4c-.6-.55-1.16-.89-1.12-1.05,2.1-7.17.74-19.07,9.73-19,8.5.09,6.71,12.41,10.67,19.14-5.87,2.79-5.93-4.72-10.69-4.56S445.64,133.86,441.74,133.4Z" transform="translate(-66.95 -94.24)"/><path d="M381.14,134.61c-6.47.62-13.14,3.16-16-1.55-2.92-4.89-2.8-12.46,0-17.61,2.62-4.88,9-1.35,14.06-2-2.18,3.79-8.75-.18-8.87,5.39-.1,4.47,4.62,2.72,7.15,4.4-1.75,2.91-8.43.66-7.12,6.17C371.59,134.6,377.3,130.58,381.14,134.61Z" transform="translate(-66.95 -94.24)"/><path d="M389.86,113c5.24,6.55-1.55,17.38,10.39,21.33C386.26,135.27,383.52,128.56,389.86,113Z" transform="translate(-66.95 -94.24)"/><path d="M418.84,113.71c5.65-1.08,9-1.76,12.31.06-5.58,5.44-.43,13.5-4.85,20.23C420.16,128,427.21,118.78,418.84,113.71Z" transform="translate(-66.95 -94.24)"/><path d="M356.13,114.11c4.76,6.53,3.07,13.31,2.79,23C351.56,128,355.41,120.86,356.13,114.11Z" transform="translate(-66.95 -94.24)"/><path d="M573.23,112.6c2.78,6.63,2.95,13.21-.32,19.83C570.24,125.92,569.48,119.33,573.23,112.6Z" transform="translate(-66.95 -94.24)"/><path class="cls-2" d="M147.22,543.88c3.77,1.68,6.51-.79,9.48-2.34L165,551C158,552.13,151.76,550.4,147.22,543.88Z" transform="translate(-66.95 -94.24)"/><path class="cls-2" d="M317.73,119.52c-.31,3-2.52,3.41-4.88,3.45-2.51,0-4.7-1-4.72-3.69,0-2.94,2.47-3.39,4.86-3.35S317.51,116.53,317.73,119.52Z" transform="translate(-66.95 -94.24)"/><path class="cls-2" d="M317.58,130c-1.6,3.13-4.44,2.27-6.95,1.92a2.7,2.7,0,0,1-2.22-4.18c1.28-2.42,3.94-1.74,6.17-1.56S318,127.6,317.58,130Z" transform="translate(-66.95 -94.24)"/><path class="cls-2" d="M339.73,122.33c-3.19,0-5.57-.29-5.43-3.38s2.65-3.14,5-3.18c2.06,0,3.78.65,4.06,2.92C343.73,122,341.12,122,339.73,122.33Z" transform="translate(-66.95 -94.24)"/><path class="cls-2" d="M559.54,117.59c-.6,3-3,2.9-5.14,2.86-1.82,0-3.91-.43-3.67-3,.3-3,2.82-2.94,5-2.82C557.49,114.76,559.43,115.08,559.54,117.59Z" transform="translate(-66.95 -94.24)"/><path class="cls-2" d="M507.45,118.42c-.55,2.61-2.21,3.75-4.82,3.59-2.46-.15-4.61-1.09-4.56-3.83.06-2.93,2.61-3.19,4.89-3.35C505.51,114.66,507.36,115.45,507.45,118.42Z" transform="translate(-66.95 -94.24)"/><path class="cls-2" d="M523.36,123.46c.19-4.48-.3-8.72,5.37-8.81,6.47-.1,5.6,4.75,5.76,8.8s-.36,7.8-5.85,7.54S523.55,126.51,523.36,123.46Z" transform="translate(-66.95 -94.24)"/></svg>