<?xml version="1.0" encoding="utf-8"?>
<!-- Generator: Adobe Illustrator 23.0.1, SVG Export Plug-In . SVG Version: 6.00 Build 0)  -->
<svg version="1.1" id="Layer_1" xmlns="http://www.w3.org/2000/svg" xmlns:xlink="http://www.w3.org/1999/xlink" x="0px" y="0px"
	 viewBox="0 0 256 256" style="enable-background:new 0 0 256 256;" xml:space="preserve">
<style type="text/css">
	.st0{fill:url(#SVGID_1_);}
	.st1{fill:url(#SVGID_2_);}
</style>
<g>
	
		<linearGradient id="SVGID_1_" gradientUnits="userSpaceOnUse" x1="-551.5405" y1="511.8463" x2="-550.7883" y2="511.1414" gradientTransform="matrix(239.7653 0 0 -255.8414 132275.9844 130991.7813)">
		<stop  offset="0" style="stop-color:#FFF900"/>
		<stop  offset="1" style="stop-color:#AAA100"/>
	</linearGradient>
	<path class="st0" d="M127.8,190.6c56.6,77.2,112.1-21.5,112-80.9c-0.1-70.2-71.3-109.5-112-109.5C62.3,0.2,0,54.2,0,128.2
		C0,210.4,71.4,256,127.7,256C115,254.2,72.5,245.1,72,147.3c-0.4-66.2,21.6-92.6,55.7-81c0.8,0.3,37.6,14.8,37.6,62.3
		C165.3,175.9,127.8,190.6,127.8,190.6L127.8,190.6z"/>
	
		<linearGradient id="SVGID_2_" gradientUnits="userSpaceOnUse" x1="-550.5374" y1="511.1787" x2="-551.3899" y2="511.8832" gradientTransform="matrix(211.5516 0 0 -256 116690.0391 131072.9844)">
		<stop  offset="0" style="stop-color:#E9C300"/>
		<stop  offset="1" style="stop-color:#FFFFFF"/>
	</linearGradient>
	<path class="st1" d="M127.7,66.2C90.3,53.3,44.4,84.2,44.4,146c0,100.9,74.8,110,83.8,110c65.4,0,127.7-54.1,127.7-128.1
		C256,45.7,184.6,0.2,128.3,0.2C143.9-2,212.3,17,212.3,110.6c0,61-51.1,94.2-84.4,80.1c-0.8-0.3-37.6-14.8-37.6-62.3
		C90.3,81.1,127.7,66.2,127.7,66.2L127.7,66.2z"/>
</g>
</svg>
