<svg id="Layer_1" data-name="Layer 1" xmlns="http://www.w3.org/2000/svg" viewBox="0 0 224.05 218.78"><title>ps</title><g id="Layer_2" data-name="Layer 2"><g id="Surfaces"><g id="Photo_Surface" data-name="Photo Surface"><g id="Outline_no_shadow" data-name="Outline no shadow"><path d="M51.85,14.11h136.3a37.35,37.35,0,0,1,37.38,37.38v131a37.35,37.35,0,0,1-37.38,37.38H51.85a37.35,37.35,0,0,1-37.38-37.38v-131A37.35,37.35,0,0,1,51.85,14.11Z" transform="translate(-7.97 -7.61)" style="fill:none;stroke:#fd73ff;stroke-miterlimit:10;stroke-width:13px"/></g></g></g><g id="Outlined_Mnemonics_Logos" data-name="Outlined Mnemonics Logos"><g id="Ps"><path d="M62,158.42V67.93c0-.62.26-1,.88-1,1.49,0,2.9,0,4.92-.09s4.31-.08,6.69-.17,4.92-.09,7.65-.18,5.36-.09,8-.09c7.21,0,13.19.88,18.12,2.73A31.54,31.54,0,0,1,120,76.37a28.18,28.18,0,0,1,6.42,10,33.6,33.6,0,0,1,2,11.43q0,11.34-5.27,18.73A30.2,30.2,0,0,1,109,127.29c-6,2.2-12.58,3-19.79,3-2.11,0-3.52,0-4.4-.09s-2.11-.09-3.78-.09v28.23a1.09,1.09,0,0,1-1,1.23H63C62.31,159.56,62,159.21,62,158.42ZM81.13,83.93v29.55c1.23.09,2.38.18,3.43.18h4.66a33,33,0,0,0,10.11-1.58,15.22,15.22,0,0,0,7.22-4.67c1.84-2.19,2.72-5.18,2.72-9a14.42,14.42,0,0,0-2-7.83,12.78,12.78,0,0,0-6.16-5,25.73,25.73,0,0,0-10.37-1.76c-2.29,0-4.31,0-6,.09a21.06,21.06,0,0,0-3.61.08Z" transform="translate(-7.97 -7.61)" style="fill:#fd73ff"/><path d="M183.32,108.12a30.91,30.91,0,0,0-8.45-3A45.87,45.87,0,0,0,165,104a18,18,0,0,0-5.27.62,4.53,4.53,0,0,0-2.73,1.76,4.63,4.63,0,0,0-.7,2.37,3.88,3.88,0,0,0,.88,2.29,9.81,9.81,0,0,0,3,2.37c2,1.06,4.13,2,6.24,2.91A63.39,63.39,0,0,1,180,122.72a20.34,20.34,0,0,1,6.95,7.3,18.9,18.9,0,0,1,2,9,20.42,20.42,0,0,1-3.43,11.7,22.08,22.08,0,0,1-9.84,7.83,40.44,40.44,0,0,1-15.92,2.81,60.67,60.67,0,0,1-12-1.14,35.47,35.47,0,0,1-9-2.82,1.72,1.72,0,0,1-1-1.67v-15.3a1,1,0,0,1,.35-.79.65.65,0,0,1,.79.09,37.77,37.77,0,0,0,10.91,4.31,41.36,41.36,0,0,0,10.38,1.31,16.84,16.84,0,0,0,7.3-1.23,4.09,4.09,0,0,0,2.37-3.69c0-1.23-.7-2.37-2.11-3.52s-4.31-2.46-8.62-4.13a53.74,53.74,0,0,1-12.49-6.33,22.89,22.89,0,0,1-6.68-7.48,18.79,18.79,0,0,1-2-9,20.65,20.65,0,0,1,3-10.64,21.68,21.68,0,0,1,9.23-8.09c4.13-2.11,9.32-3.08,15.57-3.08a75.43,75.43,0,0,1,10.9.8,30.65,30.65,0,0,1,7.56,2,1.51,1.51,0,0,1,.88.79,4.28,4.28,0,0,1,.18,1.05v14.34a1.1,1.1,0,0,1-.44.88A2.41,2.41,0,0,1,183.32,108.12Z" transform="translate(-7.97 -7.61)" style="fill:#fd73ff"/></g></g></g></svg>