<?xml version="1.0" encoding="utf-8"?>
<!-- Generator: Adobe Illustrator 23.0.1, SVG Export Plug-In . SVG Version: 6.00 Build 0)  -->
<svg version="1.1" id="Layer_1" xmlns="http://www.w3.org/2000/svg" xmlns:xlink="http://www.w3.org/1999/xlink" x="0px" y="0px"
	 viewBox="0 0 276.7 300" style="enable-background:new 0 0 276.7 300;" xml:space="preserve">
<style type="text/css">
	.st0{fill:#FFFFFF;}
	.st1{fill:#FEFEFE;}
</style>
<g id="unamlogo" transform="translate(-375.544 -3451.94)">
	<g id="Group_5" transform="translate(311.467 3275.951)">
		<path id="Path_15" class="st0" d="M190.2,343.3c-7.5-11.6-16.4-22.1-25.8-32.2c-24.1-25.9-51.1-48.9-80.4-68.7
			c-3.3-2.2-6.7-4.2-10.1-6.4c2.4-1.6,5-2.9,7.6-4c1.3-0.6,2.2,0.4,3.2,0.9c11.7,6.6,22.4,14.8,33.1,23c27,20.8,51.1,44.4,70.6,72.4
			c3.3,4.8,6.5,9.8,9.7,14.7c0.1,0.4,0.3,1.1,0.6,0.9c0.6-0.3,0.2-0.9-0.2-1.3c-5.1-11.5-11.1-22.6-18.1-33.1
			c-21.1-32.8-48.1-61.3-79.8-84.1c-0.6-0.4-1.3-0.7-1.5-1.4c3.6-2.8,6.7-1.8,10.1,0.8c39.7,29.8,72.2,68.2,94.8,112.4
			c0.5,0.9,1,1.9,1.5,2.8c0.3,0.3,0.2,1.2,0.9,0.8c0.4-0.3,0.1-0.9-0.3-1.3c-4.3-13.4-9.8-26.4-16.5-38.8
			c-16.1-31-37.1-59.3-62-83.8c-0.7-0.7-1.3-1.3-2.1-2.2c1.8-1.1,3.1-1.7,4.8,0.1c29.8,29.5,54.1,62.9,70.6,101.6
			c8.8,20.6,15,42.1,16.1,64.6c1.1,22,1.2,44-2,65.9c-1.2,8.3-2.3,16.7-3.5,25c-0.1,0.7-0.2,1.5-0.4,2.2c-0.2,0.7-0.2,1.6-1,1.9
			c-1.1,0.3-1.5-0.6-2-1.3c-3.7-4.7-7.3-9.5-11.2-14c-21-24.3-45.6-44.3-72-62.2c-15.7-10.7-32-20.5-48.9-29.2
			c-2.2-1.1-2.5-2.6-2.3-4.7c1-12.5,1.5-24.9,1.4-37.4c-0.2-25.4-2-50.5-8.4-75.2c-0.8-3.2-1.8-6.3-2.7-9.5c1.4-0.3,2.2,0.5,3.1,1
			C94,257.8,118,276,140.8,296c17.1,15.1,33.4,31.2,48.8,48.1c0.1,0.2,0.3,0.3,0.4,0.4l0.9,1.5c0.4-0.8,0.4-1.4-0.3-1.9L190.2,343.3
			z"/>
		<path id="Path_16" class="st0" d="M295.5,302.4c0,37.4-25,70-60,79.5c-2.4,0.6-3.7,1.2-4.1-2.5c-4.1-45.3-18.6-86.8-46.3-123.2
			c-4.9-6.5-10.2-12.6-16.1-18.3c-1.7-1.7-1.5-2.4,0.4-3.6c47.9-31.3,113.8-3,124.4,53.4C294.7,292.5,295.2,297.4,295.5,302.4z"/>
		<path id="Path_17" class="st0" d="M160.2,222.7c3.6-15.8,7-31,10.5-46.7l36.5,31.5C190.6,209.1,174.6,214.3,160.2,222.7z"/>
		<path id="Path_18" class="st0" d="M225.8,210l33.6-27.9c2.4,13.9,4.7,27.3,7.2,41.7C254.1,216.6,240.2,211.8,225.8,210z"/>
		<path id="Path_19" class="st0" d="M304.8,269.9c-5.9-12.8-12.3-24.3-22.5-34.3l41.6-2.4L304.8,269.9z"/>
		<path id="Path_20" class="st0" d="M308.2,289.5l32.6,20l-33.9,19.1C309.7,315.8,310.1,302.5,308.2,289.5z"/>
		<path id="Path_21" class="st0" d="M276,374.9c9.4-8.4,17.2-18.5,23.1-29.8c1.3,2,8.5,25.5,9.1,29.8H276z"/>
		<path id="Path_22" class="st0" d="M235.1,394.2c10.2-2,19.1-5.6,28.7-10.1c-1.9,4.1-3.5,7.5-5.2,10.8c-2,4.2-4.1,8.5-6.1,12.7
			c-0.7,1.4-1.2,2.1-2.7,0.6C245.2,403.7,240.3,399.2,235.1,394.2z"/>
		<path id="Path_23" class="st1" d="M190.6,344.1c0.7,0.5,0.7,1.1,0.3,1.9l-0.9-1.5L190.6,344.1z"/>
		<path id="Path_24" class="st1" d="M206.2,339.5c0.3,0.4,0.7,1,0.3,1.3c-0.6,0.4-0.6-0.5-0.9-0.8L206.2,339.5z"/>
		<path id="Path_25" class="st1" d="M198.5,342.6c0.3,0.4,0.8,1,0.2,1.3c-0.3,0.2-0.5-0.5-0.6-0.9
			C198.2,342.9,198.4,342.8,198.5,342.6z"/>
		<path id="Path_26" class="st1" d="M190,344.5c-0.2-0.1-0.3-0.3-0.4-0.4l0.6-0.8l0.5,0.8L190,344.5z"/>
	</g>
</g>
</svg>
