<svg xmlns="http://www.w3.org/2000/svg" width="276.659" height="300.032" viewBox="0 0 276.659 300.032">
  <g id="unamlogo" transform="translate(-375.544 -3451.94)">
    <g id="Group_5" data-name="Group 5" transform="translate(311.467 3275.951)">
      <path id="Path_15" data-name="Path 15" d="M190.159,367.14c-7.543-11.574-16.426-22.08-25.8-32.174A465.854,465.854,0,0,0,83.964,266.25c-3.259-2.207-6.664-4.2-10.124-6.365a39.333,39.333,0,0,1,7.638-3.966c1.268-.58,2.241.363,3.237.926,11.747,6.634,22.434,14.8,33.086,23.009,26.964,20.775,51.05,44.372,70.59,72.383,3.349,4.8,6.454,9.772,9.673,14.665.089.4.274,1.072.622.882.625-.341.171-.884-.155-1.3a219.524,219.524,0,0,0-18.121-33.055,310.707,310.707,0,0,0-79.775-84.112c-.59-.424-1.342-.717-1.521-1.437,3.637-2.767,6.65-1.831,10.145.8a326.422,326.422,0,0,1,94.813,112.357c.489.946,1,1.878,1.508,2.816.276.29.227,1.168.856.759.426-.277.08-.893-.262-1.282a232.89,232.89,0,0,0-16.48-38.783,332.777,332.777,0,0,0-62.041-83.819c-.664-.652-1.287-1.344-2.068-2.162,1.8-1.056,3.065-1.684,4.841.075,29.815,29.529,54.062,62.925,70.642,101.628,8.841,20.637,14.965,42.1,16.1,64.562,1.112,21.962,1.21,43.986-1.974,65.867-1.214,8.341-2.321,16.7-3.48,25.046a18.89,18.89,0,0,1-.367,2.21c-.183.7-.162,1.608-1.027,1.862-1.056.31-1.463-.611-1.981-1.26-3.727-4.676-7.3-9.485-11.2-14.007-20.953-24.274-45.628-44.261-72.046-62.217a456.688,456.688,0,0,0-48.884-29.2c-2.174-1.111-2.5-2.591-2.335-4.652q1.507-18.687,1.38-37.436c-.2-25.356-1.958-50.542-8.439-75.193-.831-3.163-1.8-6.289-2.735-9.524,1.409-.271,2.189.55,3.064,1.015,26.836,14.28,50.819,32.562,73.614,52.508A633.377,633.377,0,0,1,189.6,367.906a1.191,1.191,0,0,0,.439.435l.911,1.535c.426-.83.4-1.449-.306-1.939Z" transform="translate(0 -23.855)"/>
      <path id="Path_16" data-name="Path 16" d="M361.173,331.015c-.012,37.419-24.987,70.034-59.991,79.509-2.391.647-3.731,1.17-4.063-2.511-4.094-45.305-18.561-86.779-46.275-123.236A155.035,155.035,0,0,0,234.786,266.5c-1.744-1.671-1.537-2.35.432-3.635,47.94-31.29,113.8-3.046,124.393,53.354A128.466,128.466,0,0,1,361.173,331.015Z" transform="translate(-65.703 -28.645)" fill="#fff"/>
      <path id="Path_17" data-name="Path 17" d="M221.011,222.667c3.561-15.849,6.976-31.049,10.488-46.678l36.488,31.5A115.9,115.9,0,0,0,221.011,222.667Z" transform="translate(-60.824 0)" fill="#fff"/>
      <path id="Path_18" data-name="Path 18" d="M328.221,213.962,361.81,186.1c2.41,13.942,4.723,27.313,7.212,41.706A107.048,107.048,0,0,0,328.221,213.962Z" transform="translate(-102.377 -3.918)" fill="#fff"/>
      <path id="Path_19" data-name="Path 19" d="M442.965,306.159c-5.9-12.8-12.323-24.289-22.475-34.3l41.561-2.365Z" transform="translate(-138.138 -36.239)" fill="#fff"/>
      <path id="Path_20" data-name="Path 20" d="M461.811,361.327,494.39,381.3l-33.867,19.136A106.411,106.411,0,0,0,461.811,361.327Z" transform="translate(-153.654 -71.833)" fill="#fff"/>
      <path id="Path_21" data-name="Path 21" d="M410.109,481.947a104.867,104.867,0,0,0,23.053-29.75c1.3,2.032,8.482,25.549,9.1,29.75Z" transform="translate(-134.115 -107.052)" fill="#fff"/>
      <path id="Path_22" data-name="Path 22" d="M343.324,525.89c10.2-1.982,19.147-5.62,28.7-10.073-1.939,4.076-3.545,7.459-5.157,10.837-2.02,4.235-4.068,8.456-6.055,12.705-.666,1.426-1.209,2.082-2.681.642C353.409,535.385,348.579,530.881,343.324,525.89Z" transform="translate(-108.23 -131.71)" fill="#fff"/>
      <path id="Path_23" data-name="Path 23" d="M270.365,450.463c.71.49.731,1.109.306,1.939l-.911-1.535Z" transform="translate(-79.718 -106.38)" fill="#fefefe"/>
      <path id="Path_24" data-name="Path 24" d="M295.723,442.94c.342.389.688,1,.262,1.282-.628.409-.58-.469-.856-.759Z" transform="translate(-89.551 -103.465)" fill="#fefefe"/>
      <path id="Path_25" data-name="Path 25" d="M283.326,448.09c.326.415.78.958.155,1.3-.348.19-.532-.481-.622-.882Q283.1,448.3,283.326,448.09Z" transform="translate(-84.795 -105.461)" fill="#fefefe"/>
      <path id="Path_26" data-name="Path 26" d="M269.481,450.362a1.191,1.191,0,0,1-.439-.435l.557-.766.488.8Z" transform="translate(-79.44 -105.876)" fill="#fefefe"/>
    </g>
  </g>
</svg>
